<svg version="1.1" xmlns="http://www.w3.org/2000/svg" xmlns:xlink="http://www.w3.org/1999/xlink" x="0px" y="0px" viewBox="0 0 324 485" enable-background="new 0 0 324 485" xml:space="preserve" id="SkueOLzzm-X"><style>@-webkit-keyframes SJ-ZdLffXZm_SJIxmfXb7_Animation{0%{-webkit-transform: rotate(0deg);transform: rotate(0deg);}26.67%{-webkit-transform: rotate(7deg);transform: rotate(7deg);}50%{-webkit-transform: rotate(0deg);transform: rotate(0deg);}76.67%{-webkit-transform: rotate(-7deg);transform: rotate(-7deg);}100%{-webkit-transform: rotate(0deg);transform: rotate(0deg);}}@keyframes SJ-ZdLffXZm_SJIxmfXb7_Animation{0%{-webkit-transform: rotate(0deg);transform: rotate(0deg);}26.67%{-webkit-transform: rotate(7deg);transform: rotate(7deg);}50%{-webkit-transform: rotate(0deg);transform: rotate(0deg);}76.67%{-webkit-transform: rotate(-7deg);transform: rotate(-7deg);}100%{-webkit-transform: rotate(0deg);transform: rotate(0deg);}}@-webkit-keyframes S1gfu8zzmZX_SJkWmzm-m_Animation{0%{-webkit-transform: translate(0px, 0px);transform: translate(0px, 0px);}23.33%{-webkit-transform: translate(0px, 5px);transform: translate(0px, 5px);}50%{-webkit-transform: translate(0px, 0px);transform: translate(0px, 0px);}76.67%{-webkit-transform: translate(0px, 5px);transform: translate(0px, 5px);}100%{-webkit-transform: translate(0px, 0px);transform: translate(0px, 0px);}}@keyframes S1gfu8zzmZX_SJkWmzm-m_Animation{0%{-webkit-transform: translate(0px, 0px);transform: translate(0px, 0px);}23.33%{-webkit-transform: translate(0px, 5px);transform: translate(0px, 5px);}50%{-webkit-transform: translate(0px, 0px);transform: translate(0px, 0px);}76.67%{-webkit-transform: translate(0px, 5px);transform: translate(0px, 5px);}100%{-webkit-transform: translate(0px, 0px);transform: translate(0px, 0px);}}@-webkit-keyframes BysZ_8GfXbQ_ry6eQfmb7_Animation{0%{-webkit-transform: translate(0px, 0px);transform: translate(0px, 0px);}50%{-webkit-transform: translate(0px, -10px);transform: translate(0px, -10px);}100%{-webkit-transform: translate(0px, 0px);transform: translate(0px, 0px);}}@keyframes BysZ_8GfXbQ_ry6eQfmb7_Animation{0%{-webkit-transform: translate(0px, 0px);transform: translate(0px, 0px);}50%{-webkit-transform: translate(0px, -10px);transform: translate(0px, -10px);}100%{-webkit-transform: translate(0px, 0px);transform: translate(0px, 0px);}}@-webkit-keyframes HkpguLfGQW7_HyNxmzXbQ_Animation{0%{-webkit-transform: translate(0px, 0px);transform: translate(0px, 0px);}10%{-webkit-transform: translate(0px, 20px);transform: translate(0px, 20px);}23.33%{-webkit-transform: translate(0px, 0px);transform: translate(0px, 0px);}36.67%{-webkit-transform: translate(0px, -20px);transform: translate(0px, -20px);}50%{-webkit-transform: translate(0px, 0px);transform: translate(0px, 0px);}60%{-webkit-transform: translate(0px, 20px);transform: translate(0px, 20px);}76.67%{-webkit-transform: translate(0px, 0px);transform: translate(0px, 0px);}86.67%{-webkit-transform: translate(0px, -20px);transform: translate(0px, -20px);}100%{-webkit-transform: translate(0px, 0px);transform: translate(0px, 0px);}}@keyframes HkpguLfGQW7_HyNxmzXbQ_Animation{0%{-webkit-transform: translate(0px, 0px);transform: translate(0px, 0px);}10%{-webkit-transform: translate(0px, 20px);transform: translate(0px, 20px);}23.33%{-webkit-transform: translate(0px, 0px);transform: translate(0px, 0px);}36.67%{-webkit-transform: translate(0px, -20px);transform: translate(0px, -20px);}50%{-webkit-transform: translate(0px, 0px);transform: translate(0px, 0px);}60%{-webkit-transform: translate(0px, 20px);transform: translate(0px, 20px);}76.67%{-webkit-transform: translate(0px, 0px);transform: translate(0px, 0px);}86.67%{-webkit-transform: translate(0px, -20px);transform: translate(0px, -20px);}100%{-webkit-transform: translate(0px, 0px);transform: translate(0px, 0px);}}@-webkit-keyframes ByqlO8MGXbm_HJMxQMmbX_Animation{0%{-webkit-transform: translate(0px, 0px);transform: translate(0px, 0px);}13.33%{-webkit-transform: translate(0px, -20px);transform: translate(0px, -20px);}23.33%{-webkit-transform: translate(0px, 0px);transform: translate(0px, 0px);}36.67%{-webkit-transform: translate(0px, 20px);transform: translate(0px, 20px);}50%{-webkit-transform: translate(0px, 0px);transform: translate(0px, 0px);}60%{-webkit-transform: translate(0px, -20px);transform: translate(0px, -20px);}73.33%{-webkit-transform: translate(0px, 0px);transform: translate(0px, 0px);}86.67%{-webkit-transform: translate(0px, 20px);transform: translate(0px, 20px);}100%{-webkit-transform: translate(0px, 0px);transform: translate(0px, 0px);}}@keyframes ByqlO8MGXbm_HJMxQMmbX_Animation{0%{-webkit-transform: translate(0px, 0px);transform: translate(0px, 0px);}13.33%{-webkit-transform: translate(0px, -20px);transform: translate(0px, -20px);}23.33%{-webkit-transform: translate(0px, 0px);transform: translate(0px, 0px);}36.67%{-webkit-transform: translate(0px, 20px);transform: translate(0px, 20px);}50%{-webkit-transform: translate(0px, 0px);transform: translate(0px, 0px);}60%{-webkit-transform: translate(0px, -20px);transform: translate(0px, -20px);}73.33%{-webkit-transform: translate(0px, 0px);transform: translate(0px, 0px);}86.67%{-webkit-transform: translate(0px, 20px);transform: translate(0px, 20px);}100%{-webkit-transform: translate(0px, 0px);transform: translate(0px, 0px);}}#SkueOLzzm-X *{-webkit-animation-duration: 1s;animation-duration: 1s;-webkit-animation-iteration-count: infinite;animation-iteration-count: infinite;-webkit-animation-timing-function: cubic-bezier(0, 0, 1, 1);animation-timing-function: cubic-bezier(0, 0, 1, 1);}#HJsedLMMQ-7{fill: #F4D13C;}#HJ3gOIfM7b7{fill: #3A3325;}#ByCx_UGzQbm{fill: #F4D13C;}#BkJWdUMGQ-Q{fill: #3A3325;}#Symb_IMGX-Q{fill: #564A37;}#SkEZdLffm-7{fill: #332D23;}#BJ8-_IGzQbm{fill: #443C2D;}#BkP-_Ifz7b7{fill: #332D23;}#BkFZdUzGX-X{fill: #C89A2C;}#H19bd8MzXZ7{fill: #AF832D;}#ByaWdUfMQZQ{fill: #FEDF1D;}#B1AbuLzfmWX{fill: #E7B821;}#BJJM_LGGm-m{fill: #E7B821;}#HJGG_LfzXWQ{fill: #ECC91A;}#BymM_UGG7ZX{fill: #F7DC6B;}#H1VGOIMG7Zm{fill: #D8B428;}#ByqlO8MGXbm_HJMxQMmbX{-webkit-animation-name: ByqlO8MGXbm_HJMxQMmbX_Animation;animation-name: ByqlO8MGXbm_HJMxQMmbX_Animation;-webkit-transform-origin: 50% 50%;transform-origin: 50% 50%;transform-box: fill-box;}#HkpguLfGQW7_HyNxmzXbQ{-webkit-animation-name: HkpguLfGQW7_HyNxmzXbQ_Animation;animation-name: HkpguLfGQW7_HyNxmzXbQ_Animation;-webkit-transform-origin: 50% 50%;transform-origin: 50% 50%;transform-box: fill-box;}#BysZ_8GfXbQ_ry6eQfmb7{-webkit-animation-name: BysZ_8GfXbQ_ry6eQfmb7_Animation;animation-name: BysZ_8GfXbQ_ry6eQfmb7_Animation;-webkit-transform-origin: 50% 50%;transform-origin: 50% 50%;transform-box: fill-box;-webkit-animation-timing-function: cubic-bezier(0.42, 0, 0.58, 1);animation-timing-function: cubic-bezier(0.42, 0, 0.58, 1);}#S1gfu8zzmZX_SJkWmzm-m{-webkit-animation-name: S1gfu8zzmZX_SJkWmzm-m_Animation;animation-name: S1gfu8zzmZX_SJkWmzm-m_Animation;-webkit-transform-origin: 50% 50%;transform-origin: 50% 50%;transform-box: fill-box;}#SJ-ZdLffXZm_SJIxmfXb7{-webkit-animation-name: SJ-ZdLffXZm_SJIxmfXb7_Animation;animation-name: SJ-ZdLffXZm_SJIxmfXb7_Animation;-webkit-transform-origin: 50% 50%;transform-origin: 50% 50%;transform-box: fill-box;}</style>
<g id="SkYx_8Gz7b7">
	<g id="ByqlO8MGXbm_HJMxQMmbX" data-animator-group="true" data-animator-type="0"><g id="ByqlO8MGXbm">
		<path d="M138.138,439.438c-3.22,6.6-6.8,10.759-10.57,10.462c-3.23-0.252-6.97-4.727-10.84-11.623&#10;&#9;&#9;&#9;c-14.55-25.802-31.16-85.608-31.16-85.608s-14.027-82.067,1.882-79.76c16.509,2.396,70.048,47.385,71.663,52.887&#10;&#9;&#9;&#9;C161.501,333.942,148.028,419.154,138.138,439.438z" id="HJsedLMMQ-7"/>
		<path d="M138.138,439.438c-3.22,6.6-6.8,10.759-10.57,10.462c-3.23-0.252-6.97-4.727-10.84-11.623&#10;&#9;&#9;&#9;C123.458,433.441,131.508,431.164,138.138,439.438z" id="HJ3gOIfM7b7"/>
	</g></g>
	<g id="HkpguLfGQW7_HyNxmzXbQ" data-animator-group="true" data-animator-type="0"><g id="HkpguLfGQW7">
		<path d="M188.849,439.438c3.218,6.6,6.796,10.759,10.566,10.462c3.229-0.252,6.968-4.727,10.836-11.623&#10;&#9;&#9;&#9;c14.544-25.802,31.148-85.608,31.148-85.608s14.023-82.067-1.881-79.76c-16.502,2.396-70.023,47.385-71.636,52.887&#10;&#9;&#9;&#9;C165.493,333.942,178.962,419.154,188.849,439.438z" id="ByCx_UGzQbm"/>
		<path d="M188.849,439.438c3.218,6.6,6.796,10.759,10.566,10.462c3.229-0.252,6.968-4.727,10.836-11.623&#10;&#9;&#9;&#9;C203.524,433.441,195.476,431.164,188.849,439.438z" id="BkJWdUMGQ-Q"/>
	</g></g>
</g>
<g id="Hkl-_8MMXW7">
	<g id="SJ-ZdLffXZm_SJIxmfXb7" data-animator-group="true" data-animator-type="1"><g id="SJ-ZdLffXZm">
		<g id="r1z-OUMfXWX">
			<path d="M287.767,282.632c-10.511,66.018-37.86,115.831-44.17,114.634c-2.99-0.567-3.62-22.22-3.46-44.844&#10;&#9;&#9;&#9;&#9;c0.189-25.146,1.35-51.496,1.35-51.496s-2.18-3.674-5.48-9.391c-10.21-17.654-31.149-54.755-31.68-62.921&#10;&#9;&#9;&#9;&#9;c-0.7-10.803,31.561-23.407,31.561-23.407c14.13-3.529,48.51,6.896,52.949,49.399c0.12,1.107,0.221,2.232,0.29,3.385&#10;&#9;&#9;&#9;&#9;C289.606,265.292,289.227,273.476,287.767,282.632z" id="Symb_IMGX-Q"/>
			<path d="M247.736,285.324c-0.6,18.24,4.83,48.335-7.6,67.098c0.189-25.146,1.35-51.496,1.35-51.496&#10;&#9;&#9;&#9;&#9;s-2.18-3.674-5.48-9.391c-10.21-17.654-31.149-54.755-31.68-62.921c-0.7-10.803,31.561-23.407,31.561-23.407&#10;&#9;&#9;&#9;&#9;c14.13-3.529,48.51,6.896,52.949,49.399c0.12,1.107,0.221,2.232,0.29,3.385C270.036,264.301,248.116,274.007,247.736,285.324z" id="SkEZdLffm-7"/>
		</g>
		<g id="HyrWuUfGXWm">
			<path d="M40.104,277.043c10.26,66.018,36.955,115.832,43.114,114.633c2.918-0.566,3.533-22.219,3.377-44.843&#10;&#9;&#9;&#9;&#9;c-0.185-25.146-1.317-51.496-1.317-51.496s2.127-3.674,5.35-9.391c9.966-17.654,30.404-54.754,30.922-62.92&#10;&#9;&#9;&#9;&#9;c0.683-10.804-30.806-23.408-30.806-23.408c-13.792-3.529-47.35,6.896-51.683,49.399c-0.117,1.107-0.215,2.232-0.283,3.385&#10;&#9;&#9;&#9;&#9;C38.308,259.704,38.679,267.888,40.104,277.043z" id="BJ8-_IGzQbm"/>
			<path d="M79.177,279.735c0.585,18.24-4.714,48.336,7.418,67.099c-0.185-25.146-1.317-51.496-1.317-51.496&#10;&#9;&#9;&#9;&#9;s2.127-3.674,5.35-9.391c9.966-17.654,30.404-54.754,30.922-62.92c0.683-10.804-30.806-23.408-30.806-23.408&#10;&#9;&#9;&#9;&#9;c-13.792-3.529-47.35,6.896-51.683,49.399c-0.117,1.107-0.215,2.232-0.283,3.385C57.41,258.713,78.806,268.418,79.177,279.735z" id="BkP-_Ifz7b7"/>
		</g>
	</g></g>
	<g id="Skubu8MfX-X">
		<path d="M249.385,324.217c-1.561,13.711-4.7,25.703-10.25,33.59c-6.86,9.741-46.75,44.177-74.75,44.78&#10;&#9;&#9;&#9;c-28,0.595-57.9-24.524-73.9-39.532c-7.63-7.157-12.52-21.598-15.56-34.76c-3.34-14.458-4.44-27.368-4.44-27.368&#10;&#9;&#9;&#9;s-7.34-72.312,5.59-85.519c12.94-13.207,85.74,45.014,87.74,28.206c2-16.8,79.33-24.884,79.33-24.884&#10;&#9;&#9;&#9;S254.385,280.265,249.385,324.217z" id="BkFZdUzGX-X"/>
		<path d="M249.385,324.217c-1.561,13.711-4.7,25.703-10.25,33.59c-6.86,9.741-46.75,44.177-74.75,44.78&#10;&#9;&#9;&#9;c-28,0.595-57.9-24.524-73.9-39.532c-7.63-7.157-12.52-21.598-15.56-34.76C141.705,386.237,207.145,357.365,249.385,324.217z" id="H19bd8MzXZ7"/>
	</g>
</g>
<g id="BysZ_8GfXbQ_ry6eQfmb7" data-animator-group="true" data-animator-type="0"><g id="BysZ_8GfXbQ">
	<g id="rkhbd8zzQbX">
		<path d="M283.64,242.65c-13.77,8.9-31.83,13.43-41.83,18.97c-17.84,9.88-16.52,11.78-34.069,59.61&#10;&#9;&#9;&#9;c-4.4,11.979-9.14,24.579-13.85,36.579c-12.72,32.391-26.866,30.524-31.736,30.524c-5.83,0-19.454-6.954-34.064-43.254&#10;&#9;&#9;&#9;c-2.12-5.26-4.22-10.51-6.28-15.63c-12.67-31.521-20.67-60.63-48.67-73.23c-12.45-5.6-24.77-10-34.56-15.95&#10;&#9;&#9;&#9;c-11.41-6.92-10.99-28.52-6.86-34.91c7.55-11.67,29.19-23.91,54.9-19.77c2.27,0.36,4.57,0.85,6.9,1.48&#10;&#9;&#9;&#9;c28.67,7.78,43.62,25.34,65.62,24.74c15.4-0.42,33.11-22.22,56.02-27.24c2.859-0.63,5.81-0.99,8.84-1.02&#10;&#9;&#9;&#9;c32.69-0.32,52.22,7.57,59.64,21.02C291.12,218.13,294.53,235.62,283.64,242.65z" id="ByaWdUfMQZQ"/>
		<path d="M135.685,249.016c28.3,40.999,2.15,57.717-7.59,96.06c-2.12-5.257-4.22-10.506-6.28-15.629&#10;&#9;&#9;&#9;c-12.67-31.519-20.67-60.625-48.67-73.229c-12.45-5.6-24.77-10.002-34.56-15.953C62.864,222.998,106.285,206.441,135.685,249.016z&#10;&#9;&#9;&#9;" id="B1AbuLzfmWX"/>
		<path d="M283.645,242.65c-13.771,8.895-31.83,13.433-41.83,18.97c-17.84,9.875-16.52,11.784-34.07,59.607&#10;&#9;&#9;&#9;c-4.399,11.982-9.14,24.578-13.85,36.579c-9.39-32.78-20.47-84.834,23.25-117.793C253.374,212.708,273.635,227.823,283.645,242.65&#10;&#9;&#9;&#9;z" id="BJJM_LGGm-m"/>
	</g>
</g></g>
<g id="S1gfu8zzmZX_SJkWmzm-m" data-animator-group="true" data-animator-type="0"><g id="S1gfu8zzmZX">
	<g id="S1WzdIfGmWX">
		<path d="M209.01,185.79c-1.85,7.41-8.24,17.23-14.98,22.72c-1.73,1.42-3.48,2.55-5.18,3.28&#10;&#9;&#9;&#9;c-16.18,6.94-36.28,6.24-54.18,1.65c-20.02-5.13-25.68-8.54-30.38-24.7c-5-17.2-9.36-31.97-12.39-43.59&#10;&#9;&#9;&#9;c-0.01,0-0.01-0.01-0.01-0.01c-3.17-12.2-4.89-20.93-4.34-25.38c1.08-8.71,13.05-11.19,21.89-16.78&#10;&#9;&#9;&#9;c8.85-5.6,40.15-82.67,40.15-82.67s38.64,72.76,42.2,78.31c5.73,8.93,13.3,9.55,21.7,17.36&#10;&#9;&#9;&#9;C223.29,125.1,213.44,168.2,209.01,185.79z" id="HJGG_LfzXWQ"/>
		<path d="M209.014,185.786c-2.33,9.312-3.954,12.753-5.021,12.464c0,0,6.742-43.07,5.021-56.746&#10;&#9;&#9;&#9;c-1.707-13.676-43.158-26.727-43.158-26.727l-16.268-94.464c0,0,38.645,72.752,42.206,78.308&#10;&#9;&#9;&#9;c5.727,8.931,13.296,9.546,21.694,17.358C223.293,125.097,213.437,168.205,209.014,185.786z" id="BymM_UGG7ZX"/>
		<path d="M194.03,208.51c-1.73,1.42-3.48,2.55-5.18,3.28c-16.18,6.94-36.28,6.24-54.18,1.65&#10;&#9;&#9;&#9;c-20.02-5.13-25.68-8.54-30.38-24.7c-5-17.2-9.36-31.97-12.39-43.59c6.33,12.33,17.02,28.57,32.77,38.39&#10;&#9;&#9;&#9;C144.92,196.17,177.53,201.9,194.03,208.51z" id="H1VGOIMG7Zm"/>
	</g>
</g></g>
<script>(function(){var a=document.querySelector('#SkueOLzzm-X'),b=a.querySelectorAll('style'),c=function(d){b.forEach(function(f){var g=f.textContent;g&amp;&amp;(f.textContent=g.replace(/transform-box:[^;\r\n]*/gi,'transform-box: '+d))})};c('initial'),window.requestAnimationFrame(function(){return c('fill-box')})})();</script></svg>