<svg version="1.1" xmlns="http://www.w3.org/2000/svg" xmlns:xlink="http://www.w3.org/1999/xlink" x="0px" y="0px" viewBox="0 0 324 485" enable-background="new 0 0 324 485" xml:space="preserve" id="ByFZfiaMbX"><style>@-webkit-keyframes HkU--fsTG-Q_SJbzTazW7_Animation{0%{-webkit-transform: translate(0px, 0px);transform: translate(0px, 0px);}23.33%{-webkit-transform: translate(0px, 5px);transform: translate(0px, 5px);}50%{-webkit-transform: translate(0px, 0px);transform: translate(0px, 0px);}73.33%{-webkit-transform: translate(0px, 5px);transform: translate(0px, 5px);}100%{-webkit-transform: translate(0px, 0px);transform: translate(0px, 0px);}}@keyframes HkU--fsTG-Q_SJbzTazW7_Animation{0%{-webkit-transform: translate(0px, 0px);transform: translate(0px, 0px);}23.33%{-webkit-transform: translate(0px, 5px);transform: translate(0px, 5px);}50%{-webkit-transform: translate(0px, 0px);transform: translate(0px, 0px);}73.33%{-webkit-transform: translate(0px, 5px);transform: translate(0px, 5px);}100%{-webkit-transform: translate(0px, 0px);transform: translate(0px, 0px);}}@-webkit-keyframes Hy2lZzo6GWm_ryFl2aG-X_Animation{0%{-webkit-transform: translate(0px, 0px);transform: translate(0px, 0px);}50%{-webkit-transform: translate(0px, -10px);transform: translate(0px, -10px);}100%{-webkit-transform: translate(0px, 0px);transform: translate(0px, 0px);}}@keyframes Hy2lZzo6GWm_ryFl2aG-X_Animation{0%{-webkit-transform: translate(0px, 0px);transform: translate(0px, 0px);}50%{-webkit-transform: translate(0px, -10px);transform: translate(0px, -10px);}100%{-webkit-transform: translate(0px, 0px);transform: translate(0px, 0px);}}@-webkit-keyframes H1reWfoaf-X_BJnUapGW7_Animation{0%{-webkit-transform: rotate(0deg);transform: rotate(0deg);}23.33%{-webkit-transform: rotate(7deg);transform: rotate(7deg);}50%{-webkit-transform: rotate(0deg);transform: rotate(0deg);}76.67%{-webkit-transform: rotate(-7deg);transform: rotate(-7deg);}100%{-webkit-transform: rotate(0deg);transform: rotate(0deg);}}@keyframes H1reWfoaf-X_BJnUapGW7_Animation{0%{-webkit-transform: rotate(0deg);transform: rotate(0deg);}23.33%{-webkit-transform: rotate(7deg);transform: rotate(7deg);}50%{-webkit-transform: rotate(0deg);transform: rotate(0deg);}76.67%{-webkit-transform: rotate(-7deg);transform: rotate(-7deg);}100%{-webkit-transform: rotate(0deg);transform: rotate(0deg);}}@-webkit-keyframes HJCWfoTMWm_BytmsafZ7_Animation{0%{-webkit-transform: translate(0px, 0px);transform: translate(0px, 0px);}13.33%{-webkit-transform: translate(0px, -20px);transform: translate(0px, -20px);}26.67%{-webkit-transform: translate(0px, 0px);transform: translate(0px, 0px);}36.67%{-webkit-transform: translate(0px, 20px);transform: translate(0px, 20px);}46.67%{-webkit-transform: translate(0px, 0px);transform: translate(0px, 0px);}60%{-webkit-transform: translate(0px, -20px);transform: translate(0px, -20px);}73.33%{-webkit-transform: translate(0px, 0px);transform: translate(0px, 0px);}86.67%{-webkit-transform: translate(0px, 20px);transform: translate(0px, 20px);}100%{-webkit-transform: translate(0px, 0px);transform: translate(0px, 0px);}}@keyframes HJCWfoTMWm_BytmsafZ7_Animation{0%{-webkit-transform: translate(0px, 0px);transform: translate(0px, 0px);}13.33%{-webkit-transform: translate(0px, -20px);transform: translate(0px, -20px);}26.67%{-webkit-transform: translate(0px, 0px);transform: translate(0px, 0px);}36.67%{-webkit-transform: translate(0px, 20px);transform: translate(0px, 20px);}46.67%{-webkit-transform: translate(0px, 0px);transform: translate(0px, 0px);}60%{-webkit-transform: translate(0px, -20px);transform: translate(0px, -20px);}73.33%{-webkit-transform: translate(0px, 0px);transform: translate(0px, 0px);}86.67%{-webkit-transform: translate(0px, 20px);transform: translate(0px, 20px);}100%{-webkit-transform: translate(0px, 0px);transform: translate(0px, 0px);}}@-webkit-keyframes Bko-fj6GZ7_B1zQsaMWQ_Animation{0%{-webkit-transform: translate(0px, 0px);transform: translate(0px, 0px);}13.33%{-webkit-transform: translate(0px, 20px);transform: translate(0px, 20px);}26.67%{-webkit-transform: translate(0px, 0px);transform: translate(0px, 0px);}36.67%{-webkit-transform: translate(0px, -20px);transform: translate(0px, -20px);}46.67%{-webkit-transform: translate(0px, 0px);transform: translate(0px, 0px);}60%{-webkit-transform: translate(0px, 20px);transform: translate(0px, 20px);}73.33%{-webkit-transform: translate(0px, 0px);transform: translate(0px, 0px);}86.67%{-webkit-transform: translate(0px, -20px);transform: translate(0px, -20px);}100%{-webkit-transform: translate(0px, 0px);transform: translate(0px, 0px);}}@keyframes Bko-fj6GZ7_B1zQsaMWQ_Animation{0%{-webkit-transform: translate(0px, 0px);transform: translate(0px, 0px);}13.33%{-webkit-transform: translate(0px, 20px);transform: translate(0px, 20px);}26.67%{-webkit-transform: translate(0px, 0px);transform: translate(0px, 0px);}36.67%{-webkit-transform: translate(0px, -20px);transform: translate(0px, -20px);}46.67%{-webkit-transform: translate(0px, 0px);transform: translate(0px, 0px);}60%{-webkit-transform: translate(0px, 20px);transform: translate(0px, 20px);}73.33%{-webkit-transform: translate(0px, 0px);transform: translate(0px, 0px);}86.67%{-webkit-transform: translate(0px, -20px);transform: translate(0px, -20px);}100%{-webkit-transform: translate(0px, 0px);transform: translate(0px, 0px);}}#ByFZfiaMbX *{-webkit-animation-duration: 1s;animation-duration: 1s;-webkit-animation-iteration-count: infinite;animation-iteration-count: infinite;-webkit-animation-timing-function: cubic-bezier(0, 0, 1, 1);animation-timing-function: cubic-bezier(0, 0, 1, 1);}#rJ3WMiTGWX{fill: #F4D13C;}#r1TWMo6GbX{fill: #3A3325;}#r1keWziaM-m{fill: #F4D13C;}#SJgxWzo6MZQ{fill: #3A3325;}#By7eWGjpMbQ{fill: #C89A2C;}#H14xWfjaGZQ{fill: #AF832D;}#SkDg-fi6MWm{fill: #564A37;}#S1ulbGiaMbX{fill: #332D23;}#rk5l-zj6z-Q{fill: #443C2D;}#HksxWzo6MbQ{fill: #332D23;}#HkCe-GopfbQ{fill: #FEDF1D;}#S1kW-GoTGZm{fill: #E4C021;}#B1lWbGsTfbX{fill: #E7B821;}#BJ--ZMsTMW7{fill: #E7B821;}#ryG--MopfWX{fill: #B1872D;}#HJX--Ms6z-X{fill: #68C6BA;}#SyEWZfo6GWm{fill: #B6E0D6;}#BkH--zipGZ7{fill: url(#SVGID_1_);}#r1dZZGjpMWQ{fill: #564C3E;}#SJt--Ms6MZX{fill: #FFF1B6;}#rk5WWfjpfWm{fill: #FFF1B6;}#B1oW-fjTfZ7{fill: #564C3E;}#HJhZ-GipfWX{fill: #564C3E;}#HyTbbfo6G-7{fill: #332D23;}#HkC-ZMipM-X{fill: #231E17;}#rJyzWMiTGbQ{fill: #ECC91A;}#ByeMbMi6fWQ{fill: #F7DC6B;}#HJWfZzspzZQ{fill: #F4E6A7;}#HyzzZMiTMbQ{fill: #332D23;}#Sy7zWzjazbQ{fill: #332D23;}#B14fbzsTMZQ{fill: #332D23;}#Bko-fj6GZ7_B1zQsaMWQ{-webkit-animation-name: Bko-fj6GZ7_B1zQsaMWQ_Animation;animation-name: Bko-fj6GZ7_B1zQsaMWQ_Animation;-webkit-transform-origin: 50% 50%;transform-origin: 50% 50%;transform-box: fill-box;-webkit-transform: translate(0px, 0px);transform: translate(0px, 0px);}#HJCWfoTMWm_BytmsafZ7{-webkit-animation-name: HJCWfoTMWm_BytmsafZ7_Animation;animation-name: HJCWfoTMWm_BytmsafZ7_Animation;-webkit-transform-origin: 50% 50%;transform-origin: 50% 50%;transform-box: fill-box;-webkit-transform: translate(0px, 0px);transform: translate(0px, 0px);}#H1reWfoaf-X_BJnUapGW7{-webkit-animation-name: H1reWfoaf-X_BJnUapGW7_Animation;animation-name: H1reWfoaf-X_BJnUapGW7_Animation;-webkit-transform-origin: 50% 50%;transform-origin: 50% 50%;transform-box: fill-box;-webkit-transform: rotate(0deg);transform: rotate(0deg);}#Hy2lZzo6GWm_ryFl2aG-X{-webkit-animation-name: Hy2lZzo6GWm_ryFl2aG-X_Animation;animation-name: Hy2lZzo6GWm_ryFl2aG-X_Animation;-webkit-animation-timing-function: cubic-bezier(0.42, 0, 0.58, 1);animation-timing-function: cubic-bezier(0.42, 0, 0.58, 1);-webkit-transform-origin: 50% 50%;transform-origin: 50% 50%;transform-box: fill-box;-webkit-transform: translate(0px, 0px);transform: translate(0px, 0px);}#HkU--fsTG-Q_SJbzTazW7{-webkit-animation-name: HkU--fsTG-Q_SJbzTazW7_Animation;animation-name: HkU--fsTG-Q_SJbzTazW7_Animation;-webkit-transform-origin: 50% 50%;transform-origin: 50% 50%;transform-box: fill-box;-webkit-transform: translate(0px, 0px);transform: translate(0px, 0px);}</style>
<g id="ry5bMoaGbX">
	<g id="Bko-fj6GZ7_B1zQsaMWQ" data-animator-group="true" data-animator-type="0"><g id="Bko-fj6GZ7">
		<path d="M138.138,439.438c-3.22,6.6-6.8,10.759-10.57,10.462c-3.23-0.252-6.97-4.727-10.84-11.623&#10;&#9;&#9;&#9;c-14.55-25.802-31.16-85.608-31.16-85.608s-14.027-82.067,1.882-79.76c16.509,2.396,70.048,47.385,71.663,52.887&#10;&#9;&#9;&#9;C161.501,333.942,148.028,419.154,138.138,439.438z" id="rJ3WMiTGWX"/>
		<path d="M138.138,439.438c-3.22,6.6-6.8,10.759-10.57,10.462c-3.23-0.252-6.97-4.727-10.84-11.623&#10;&#9;&#9;&#9;C123.458,433.441,131.508,431.164,138.138,439.438z" id="r1TWMo6GbX"/>
	</g></g>
	<g id="HJCWfoTMWm_BytmsafZ7" data-animator-group="true" data-animator-type="0"><g id="HJCWfoTMWm">
		<path d="M188.849,439.438c3.218,6.6,6.796,10.759,10.566,10.462c3.229-0.252,6.968-4.727,10.836-11.623&#10;&#9;&#9;&#9;c14.544-25.802,31.148-85.608,31.148-85.608s14.023-82.067-1.881-79.76c-16.502,2.396-70.023,47.385-71.636,52.887&#10;&#9;&#9;&#9;C165.493,333.942,178.962,419.154,188.849,439.438z" id="r1keWziaM-m"/>
		<path d="M188.849,439.438c3.218,6.6,6.796,10.759,10.566,10.462c3.229-0.252,6.968-4.727,10.836-11.623&#10;&#9;&#9;&#9;C203.524,433.441,195.476,431.164,188.849,439.438z" id="SJgxWzo6MZQ"/>
	</g></g>
</g>
<g id="rkWgZfoazZm">
	<g id="BJMl-MoaMbQ">
		<path d="M249.385,324.217c-1.561,13.711-4.7,25.703-10.25,33.59c-6.86,9.741-46.75,44.177-74.75,44.78&#10;&#9;&#9;&#9;c-28,0.595-57.9-24.524-73.9-39.532c-7.63-7.157-12.52-21.598-15.56-34.76c-3.34-14.458-4.44-27.368-4.44-27.368&#10;&#9;&#9;&#9;s-7.34-72.312,5.59-85.519c12.94-13.207,85.74,45.014,87.74,28.206c2-16.8,79.33-24.884,79.33-24.884&#10;&#9;&#9;&#9;S254.385,280.265,249.385,324.217z" id="By7eWGjpMbQ"/>
		<path d="M249.385,324.217c-1.561,13.711-4.7,25.703-10.25,33.59c-6.86,9.741-46.75,44.177-74.75,44.78&#10;&#9;&#9;&#9;c-28,0.595-57.9-24.524-73.9-39.532c-7.63-7.157-12.52-21.598-15.56-34.76C141.705,386.237,207.145,357.365,249.385,324.217z" id="H14xWfjaGZQ"/>
	</g>
</g>
<g id="H1reWfoaf-X_BJnUapGW7" data-animator-group="true" data-animator-type="1"><g id="H1reWfoaf-X">
	<g id="HyIgbMs6G-m">
		<path d="M287.767,282.632c-10.511,66.018-37.86,115.831-44.17,114.634c-2.99-0.567-3.62-22.22-3.46-44.844&#10;&#9;&#9;&#9;c0.189-25.146,1.35-51.496,1.35-51.496s-2.18-3.674-5.48-9.391c-10.21-17.654-31.149-54.755-31.68-62.921&#10;&#9;&#9;&#9;c-0.7-10.803,31.561-23.407,31.561-23.407c14.13-3.529,48.51,6.896,52.949,49.399c0.12,1.107,0.221,2.232,0.29,3.385&#10;&#9;&#9;&#9;C289.606,265.292,289.227,273.476,287.767,282.632z" id="SkDg-fi6MWm"/>
		<path d="M247.736,285.324c-0.6,18.24,4.83,48.335-7.6,67.098c0.189-25.146,1.35-51.496,1.35-51.496&#10;&#9;&#9;&#9;s-2.18-3.674-5.48-9.391c-10.21-17.654-31.149-54.755-31.68-62.921c-0.7-10.803,31.561-23.407,31.561-23.407&#10;&#9;&#9;&#9;c14.13-3.529,48.51,6.896,52.949,49.399c0.12,1.107,0.221,2.232,0.29,3.385C270.036,264.301,248.116,274.007,247.736,285.324z" id="S1ulbGiaMbX"/>
	</g>
	<g id="ByFe-MjTMb7">
		<path d="M40.104,277.043c10.26,66.018,36.955,115.832,43.114,114.633c2.918-0.566,3.533-22.219,3.377-44.843&#10;&#9;&#9;&#9;c-0.185-25.146-1.317-51.496-1.317-51.496s2.127-3.674,5.35-9.391c9.966-17.654,30.404-54.754,30.922-62.92&#10;&#9;&#9;&#9;c0.683-10.804-30.806-23.408-30.806-23.408c-13.792-3.529-47.35,6.896-51.683,49.399c-0.117,1.107-0.215,2.232-0.283,3.385&#10;&#9;&#9;&#9;C38.308,259.704,38.679,267.888,40.104,277.043z" id="rk5l-zj6z-Q"/>
		<path d="M79.177,279.735c0.585,18.24-4.714,48.336,7.418,67.099c-0.185-25.146-1.317-51.496-1.317-51.496&#10;&#9;&#9;&#9;s2.127-3.674,5.35-9.391c9.966-17.654,30.404-54.754,30.922-62.92c0.683-10.804-30.806-23.408-30.806-23.408&#10;&#9;&#9;&#9;c-13.792-3.529-47.35,6.896-51.683,49.399c-0.117,1.107-0.215,2.232-0.283,3.385C57.41,258.713,78.806,268.418,79.177,279.735z" id="HksxWzo6MbQ"/>
	</g>
</g></g>
<g id="Hy2lZzo6GWm_ryFl2aG-X" data-animator-group="true" data-animator-type="0"><g id="Hy2lZzo6GWm">
	<g id="SyTlWfoTGWQ">
		<path d="M283.64,242.65c-13.77,8.9-31.83,13.43-41.83,18.97c-17.84,9.88-16.52,11.78-34.069,59.61&#10;&#9;&#9;&#9;c-4.4,11.979-9.14,24.579-13.85,36.579c-12.72,32.391-25.21,60.46-30.08,60.46c-5.83,0-21.11-36.89-35.72-73.189&#10;&#9;&#9;&#9;c-2.12-5.26-4.22-10.51-6.28-15.63c-12.67-31.521-20.67-60.63-48.67-73.23c-12.45-5.6-24.77-10-34.56-15.95&#10;&#9;&#9;&#9;c-11.41-6.92-10.99-28.52-6.86-34.91c7.55-11.67,29.19-23.91,54.9-19.77c2.27,0.36,4.57,0.85,6.9,1.48&#10;&#9;&#9;&#9;c28.67,7.78,43.62,25.34,65.62,24.74c15.4-0.42,33.11-22.22,56.02-27.24c2.859-0.63,5.81-0.99,8.84-1.02&#10;&#9;&#9;&#9;c32.69-0.32,52.22,7.57,59.64,21.02C291.12,218.13,294.53,235.62,283.64,242.65z" id="HkCe-GopfbQ"/>
		<path d="M215.16,184.57c-12.04,22.57-33.68,54-60.99,54.43c-27.51,0.43-52.95-31.02-67.55-53.41&#10;&#9;&#9;&#9;c2.27,0.36,4.57,0.85,6.9,1.48c28.67,7.78,43.62,25.34,65.62,24.74C174.54,211.39,192.25,189.59,215.16,184.57z" id="S1kW-GoTGZm"/>
		<path d="M135.685,249.016c28.3,40.999,2.15,57.717-7.59,96.06c-2.12-5.257-4.22-10.506-6.28-15.629&#10;&#9;&#9;&#9;c-12.67-31.519-20.67-60.625-48.67-73.229c-12.45-5.6-24.77-10.002-34.56-15.953C62.864,222.998,106.285,206.441,135.685,249.016z&#10;&#9;&#9;&#9;" id="B1lWbGsTfbX"/>
		<path d="M283.645,242.65c-13.771,8.895-31.83,13.433-41.83,18.97c-17.84,9.875-16.52,11.784-34.07,59.607&#10;&#9;&#9;&#9;c-4.399,11.982-9.14,24.578-13.85,36.579c-9.39-32.78-20.47-84.834,23.25-117.793C253.374,212.708,273.635,227.823,283.645,242.65&#10;&#9;&#9;&#9;z" id="BJ--ZMsTMW7"/>
		<ellipse cx="160.317" cy="259.826" rx="45.654" ry="41.103" id="ryG--MopfWX"/>
		<path d="M194.194,254.823c0,1.846-0.18,3.646-0.53,5.402c-2.83,14.269-16.689,25.1-33.35,25.1&#10;&#9;&#9;&#9;c-13.63,0-25.38-7.247-30.76-17.691c-2-3.889-3.12-8.229-3.12-12.811c0-16.854,15.17-30.502,33.88-30.502&#10;&#9;&#9;&#9;S194.194,237.969,194.194,254.823z" id="HJX--Ms6z-X"/>
		<path d="M194.194,254.823c0,1.846-0.18,3.646-0.53,5.402c-10.239-12.02-23.14-24.11-33.35-23.812&#10;&#9;&#9;&#9;c-11.45,0.342-22.95,16.943-30.76,31.222c-2-3.889-3.12-8.229-3.12-12.811c0-16.854,15.17-30.502,33.88-30.502&#10;&#9;&#9;&#9;S194.194,237.969,194.194,254.823z" id="SyEWZfo6GWm"/>
		<radialGradient id="SVGID_1_" cx="159.1123" cy="255.1895" r="70.606" gradientUnits="userSpaceOnUse">
			<stop offset="0.3968" style="stop-color:#00AEEF;stop-opacity:0.7"/>
			<stop offset="1" style="stop-color:#27AAE1;stop-opacity:0"/>
		</radialGradient>
		<circle cx="159.113" cy="255.19" r="70.606" id="BkH--zipGZ7"/>
	</g>
</g></g>
<g id="HkU--fsTG-Q_SJbzTazW7" data-animator-group="true" data-animator-type="0"><g id="HkU--fsTG-Q">
	<g id="HyPZbfs6GZ7">
		<path d="M192.095,204.263c-0.352,0.335-0.714,0.643-1.077,0.941c-9.103,7.422-14.351,18.069-19.684,19.462&#10;&#9;&#9;&#9;c-7.718,2.017-11.569,1.436-18.766,0.821c-6.338-0.55-9.981-7.073-21.774-14.541c-1.585-1.006-3.263-1.892-5.064-2.629&#10;&#9;&#9;&#9;c-15.181-6.218-24.158-32.32-20.71-50.34c3.458-18.03,34.026-21.731,52.821-19.269c18.991,2.489,34.854,1.239,45.375,13.675&#10;&#9;&#9;&#9;C213.415,164.438,203.817,193.477,192.095,204.263z" id="r1dZZGjpMWQ"/>
		<ellipse cx="174.499" cy="179.557" rx="7.999" ry="5.89" id="SJt--Ms6MZX"/>
		<ellipse cx="138.033" cy="180.557" rx="7.443" ry="5.89" id="rk5WWfjpfWm"/>
		<path d="M165.167,178.833c0,0,8.161-5.833,20.164-1.5l-4.497-10H164.5" id="B1oW-fjTfZ7"/>
		<path d="M146.716,179.833c0,0-7.594-5.833-18.763-1.5l4.185-10h15.199" id="HJhZ-GipfWX"/>
		<path d="M117.693,193.087c0,0,4.179-21.508,11.923-21.425s18.056,6.364,25.316,7.474s11.113-7.187,22.428-7.474&#10;&#9;&#9;&#9;s10.722,6.583,15.861,6.75s-2.861-27.833-2.861-27.833l-32.221-7l-47.946,0.833" id="HyTbbfo6G-7"/>
		<path d="M192.095,204.263c-2.32-17.787-1.874-46.603-6.068-46.603c-6.068,0-19.366,9.32-33.459,10.569&#10;&#9;&#9;&#9;c-14.093,1.239-15.706-10.569-29.001-10.569c-9.838,0,0.952,35.062,7.228,53.287c-1.585-1.006-3.263-1.892-5.064-2.629&#10;&#9;&#9;&#9;c-15.181-6.218-24.158-32.32-20.71-50.34c3.458-18.03,34.026-21.731,52.821-19.269c18.991,2.489,34.854,1.239,45.375,13.675&#10;&#9;&#9;&#9;C213.415,164.438,203.817,193.477,192.095,204.263z" id="HkC-ZMipM-X"/>
		<path d="M209.014,185.786c-2.33,9.312-3.954,12.753-5.021,12.464c-1.222-0.317-1.719-5.565-1.719-12.464&#10;&#9;&#9;&#9;c0-34.213-10.583-41.978-19.655-41.717c-21.693,0.615-19.572,39.88-25.785,39.264c-6.212-0.624-4.264-38.1-33.267-36.235&#10;&#9;&#9;&#9;c-19.478,1.249-12.934,43.843-11.08,48.812c1.842,4.979-3.5,8.988-8.201-7.168c-10.242-35.238-17.811-60.288-16.733-68.986&#10;&#9;&#9;&#9;c1.076-8.707,13.046-11.187,21.89-16.78c8.843-5.593,40.146-82.661,40.146-82.661s38.645,72.752,42.206,78.308&#10;&#9;&#9;&#9;c5.727,8.931,13.296,9.546,21.694,17.358C223.293,125.097,213.437,168.205,209.014,185.786z" id="rJyzWMiTGbQ"/>
		<path d="M209.014,185.786c-2.33,9.312-3.954,12.753-5.021,12.464c0,0,6.742-43.07,5.021-56.746&#10;&#9;&#9;&#9;c-1.707-13.676-43.158-26.727-43.158-26.727l-16.268-94.464c0,0,38.645,72.752,42.206,78.308&#10;&#9;&#9;&#9;c5.727,8.931,13.296,9.546,21.694,17.358C223.293,125.097,213.437,168.205,209.014,185.786z" id="ByeMbMi6fWQ"/>
		<polygon points="145.754,204.508 159.049,206.685 174.046,204.655 159.415,213.004 &#9;&#9;" id="HJWfZzspzZQ"/>
		<polygon points="136.923,204.356 156.994,198.867 181.861,204.356 159.392,206.386 &#9;&#9;" id="HyzzZMiTMbQ"/>
		<ellipse cx="137.645" cy="181.5" rx="2.583" ry="2.667" id="Sy7zWzjazbQ"/>
		<ellipse cx="175.707" cy="180.556" rx="2.583" ry="2.667" id="B14fbzsTMZQ"/>
	</g>
</g></g>
<script>(function(){var a=document.querySelector('#ByFZfiaMbX'),b=a.querySelectorAll('style'),c=function(d){b.forEach(function(f){var g=f.textContent;g&amp;&amp;(f.textContent=g.replace(/transform-box:[^;\r\n]*/gi,'transform-box: '+d))})};c('initial'),window.requestAnimationFrame(function(){return c('fill-box')})})();</script></svg>