<?xml version="1.0" encoding="utf-8"?>
<!-- Generator: Adobe Illustrator 16.0.0, SVG Export Plug-In . SVG Version: 6.00 Build 0)  -->
<!DOCTYPE svg PUBLIC "-//W3C//DTD SVG 1.1//EN" "http://www.w3.org/Graphics/SVG/1.1/DTD/svg11.dtd">
<svg version="1.1" id="Layer_1" xmlns="http://www.w3.org/2000/svg" xmlns:xlink="http://www.w3.org/1999/xlink" x="0px" y="0px"
	 width="470.667px" height="303.223px" viewBox="46.806 237.444 470.667 303.223"
	 enable-background="new 46.806 237.444 470.667 303.223" xml:space="preserve">
<g id="Layer_7">
	
		<linearGradient id="SVGID_1_" gradientUnits="userSpaceOnUse" x1="324.2708" y1="381.207" x2="324.2708" y2="648.1035" gradientTransform="matrix(1 0 0 -1 -8.3599 865.9443)">
		<stop  offset="0" style="stop-color:#B17AA5"/>
		<stop  offset="0.3806" style="stop-color:#C7B2D6"/>
		<stop  offset="0.612" style="stop-color:#91A7BC"/>
		<stop  offset="1" style="stop-color:#407E9E"/>
	</linearGradient>
	<rect x="20.999" y="217.841" fill="url(#SVGID_1_)" width="589.823" height="266.897"/>
</g>
<g id="Layer_6">
	<polyline fill="#6C6571" points="-21.588,518.554 61.843,430.667 73.588,438.363 76.828,434.718 91.041,437.087 103,440.666 
		108,440.332 123.345,423.332 125.833,415.683 142.844,420.543 182.245,431.13 203.667,432.998 324.691,429.048 339.676,430.667 
		348.182,430.263 359.521,415.683 371.267,408.393 376.127,416.088 382.606,424.187 394.757,433.097 405.286,438.769 
		412.172,435.123 417.031,429.048 427.562,429.048 429.183,424.593 433.232,422.972 444.572,421.757 453.076,410.823 
		497.629,416.088 547.444,414.468 560.404,526.654 572.554,591.05 -13.488,606.035 	"/>
</g>
<g id="Layer_8">
	<path fill="#37313A" d="M104.043,465.373l19.302,14.629l17.989-18.9l9-11.643l-7.923-6.436c0,0,13.923-21.406,20.934-37.489
		c0,0,2.553,26.907,13.323,31.268c0,0-5.947,3.24-5.574,5.104c0.372,1.863,17.507,16.02,21.977,16.391l-4.097-5.959l7.45-6.705
		l-3.354-1.117l16.764-11.92l9.312,13.037l-2.979,1.117c0,0,14.154,17.879,28.682,18.625c14.528,0.744,106.163,1.863,106.163,1.863
		l27.938-4.844c0,0,17.88-25.34,19.741-33.156l-4.097-2.977l11.176-10.058l12.292,8.939l-2.98,4.094c0,0,12.292,20.492,19.743,23.1
		c7.45,2.607,35.76,7.822,35.76,7.822l31.663,7.078h70.029l5.96,61.09l-551.3,38.369l-7.823-94.615l37.25-6.334l21.233-28.684
		l8.195,14.156L104.043,465.373z"/>
</g>
<g id="Layer_10">
	
		<radialGradient id="SVGID_2_" cx="250.7795" cy="460.0981" r="135.9551" gradientTransform="matrix(2.1913 0 0 -1.3528 -280.5338 999.934)" gradientUnits="userSpaceOnUse">
		<stop  offset="0.3884" style="stop-color:#EF4358;stop-opacity:0.9"/>
		<stop  offset="0.9403" style="stop-color:#000000;stop-opacity:0"/>
	</radialGradient>
	<ellipse opacity="0.7" fill="url(#SVGID_2_)" enable-background="new    " cx="268.999" cy="377.512" rx="297.917" ry="183.921"/>
	
		<radialGradient id="SVGID_3_" cx="242.4709" cy="442.8374" r="105.4175" gradientTransform="matrix(1.8905 0 0 -1.4612 -182.9088 1055.465)" gradientUnits="userSpaceOnUse">
		<stop  offset="0.4026" style="stop-color:#FFEEDE;stop-opacity:0.9"/>
		<stop  offset="1" style="stop-color:#000000;stop-opacity:0"/>
	</radialGradient>
	<ellipse opacity="0.6" fill="url(#SVGID_3_)" enable-background="new    " cx="275.483" cy="408.392" rx="199.294" ry="154.034"/>
</g>
<g id="Layer_4" display="none">
	<g display="inline">
		<polygon fill="#171414" points="253.079,506.657 251.712,508.934 257.332,514.25 243.056,514.25 243.056,503.618 246.461,499.438 
					"/>
		<polygon fill="#211E1D" points="246.461,499.438 260.066,501.188 257.332,514.25 251.712,508.934 253.079,506.657 		"/>
		<polygon fill="#211E1D" points="231.109,510.122 229.696,516.856 231.109,525.309 235.817,520.905 233.691,512.249 		"/>
		<polygon fill="#171414" points="231.109,510.122 225.793,517.715 231.109,525.309 231.868,520.297 229.838,517.715 		"/>
		<polygon fill="#574C45" points="242.044,518.475 240.676,520.752 242.044,521.817 243.714,519.538 		"/>
		<polygon fill="#383331" points="242.044,518.475 242.044,521.817 243.714,519.538 		"/>
		<path fill="#211D1B" d="M402.017,476.356c-1.614,4.047-18.424,19.234-18.424,19.234l-13.772-0.201l-14.58-20.453l-30.375-9.514
			l-23.086-0.814l-4.045,2.43v2.637c-2.432,2.83-9.319-0.846-9.319-0.846l-19.641,19.678l-4.053,0.607l-5.868,5.668l-27.745,6.275
			l-18.632-5.668c0,0-19.481-19.744-27.539-32.197c-8.294-12.818-10.528-49.238-10.528-49.408l179.008,5.467L402.017,476.356z"/>
		<path fill="#FBB040" d="M269.989,460.559"/>
		<polygon fill="#171414" points="268.774,488.506 271.608,458.534 264.724,458.534 264.723,489.721 		"/>
		<path fill="#171414" d="M288.414,468.829l2.634-39.859l9.112,1.416l-2.426,39.289
			C297.734,469.674,295.906,473.456,288.414,468.829z"/>
		<polygon fill="#211E1D" points="300.16,430.385 302.388,426.741 304.414,431.803 297.734,469.674 		"/>
		<polygon fill="#211E1D" points="355.24,474.936 365.974,455.497 367.189,477.366 369.821,495.389 		"/>
		<path fill="#171414" d="M324.865,465.422l-2.631-42.125l44.145,25.922l-0.404,6.277l-10.733,19.439
			C355.24,474.936,339.444,470.891,324.865,465.422z"/>
		<polygon fill="#211E1D" points="251.561,488.504 231.109,501.057 258.854,494.782 		"/>
		<polygon fill="#211E1D" points="341.373,485.262 315.858,513.614 306.136,499.438 		"/>
		<polygon fill="#171414" points="281.836,486.481 296.821,510.577 315.858,513.614 305.427,496.706 281.836,485.262 		"/>
		<polygon fill="#37313A" points="298.034,462.338 329.627,458.534 341.373,485.262 306.136,499.438 280.925,486.481 		"/>
		<polygon fill="#3D3640" points="298.197,462.417 303.845,481.053 341.373,485.803 329.67,458.534 		"/>
		<polygon fill="#302B28" points="190.406,458.534 212.477,495.389 230.096,482.024 		"/>
		<path fill="#37313A" d="M402.017,476.356l-18.832,18.426l-15.996-17.416l-1.215-21.871l-43.309-25.26l-0.432-0.256l-1.015-4.252
			l-16.805,6.074l-2.229-1.414l-2.134,1.811l-0.498,0.418l-8.583-2.453l-5.989,7.145v0.006l-13.371,15.959v5.262l-6.685,5.268
			l-0.206,4.66l-13.158,20.047l-21.47-6.482l-11.263-8.305l-14.063-10.369l-2.412-1.779l-7.284-12.455l-20.661-35.332l36.852-41.918
			l6.926-4.781l27.095-18.711l4.459-6.075v-2.43h2.224l4.775-7.254l0.006-0.006l0.688-1.044l10.127-9.313l14.58,0.808l15.595-2.43
			l3.34,9.319l4.959,4.86l3.189,3.189l0.012,0.006l3.688,3.688l2.431-0.607l0.399,3.645l33.012,34.427l-1.42,1.823
			c0.418,0.376,0.855,0.79,1.299,1.233l0.006,0.006c0.05,0.042,0.093,0.091,0.136,0.134c0.012,0.012,0.035,0.037,0.061,0.067
			c2.879,2.903,6.215,7.108,9.672,11.938c0.019,0.023,0.035,0.049,0.062,0.071c3.998,5.577,8.17,11.98,12.053,18.214
			c8.723,13.991,15.971,27.083,16.391,27.834c0.007,0.014,0.013,0.025,0.019,0.037c11.312,27.076,14.873,35.576,14.975,35.836
			C402.017,476.356,402.017,476.356,402.017,476.356z"/>
		<polygon fill="#332D33" points="348.763,379.156 326.336,391.804 309.628,401.227 297.782,380.723 283.512,374.63 
			283.202,374.497 265.998,358.373 261.484,354.145 250.044,340.239 249.953,340.124 249.74,339.869 249.863,339.735 
			249.893,339.705 256.709,332.341 257.433,331.564 267.56,322.25 297.454,350.755 300.212,353.385 304.059,354.047 
			304.617,354.145 314.186,356.119 331.955,370.7 		"/>
		<polygon fill="#403942" points="309.628,401.227 321.222,425.729 304.414,431.803 302.188,430.385 299.755,433.424 
			290.969,430.165 271.608,453.268 		"/>
		<polygon fill="#37323A" points="174.41,413.784 207.719,439.196 219.414,441.625 284.982,437.311 271.608,453.268 
			272.419,458.534 264.926,463.799 265.221,468.182 251.561,488.504 230.096,482.024 202.354,461.571 		"/>
		<polygon fill="#2D2930" points="219.414,441.625 251.561,488.504 230.096,482.024 190.406,458.534 174.41,413.784 		"/>
		<polygon fill="#302C33" points="219.414,441.625 283.202,374.497 297.782,380.723 309.628,401.227 284.982,437.311 		"/>
		<polygon fill="#403942" points="283.202,374.497 276.118,381.957 256.332,402.776 242.196,387.558 234.012,388.554 
			229.694,389.077 211.261,371.866 219.796,369.934 231.868,367.207 249.74,354.145 249.74,339.869 249.942,340.075 250.021,340.16 
			264.182,354.807 		"/>
		<polygon fill="#3D3640" points="231.868,367.207 242.196,387.558 229.696,389.077 211.263,371.863 		"/>
		<path fill="#3D3640" d="M402.017,476.356l-18.832,18.426l-7.356-49.195l-0.334-2.242l-14.592-15.297l-8.414-8.826l-0.14-0.145
			l-25.729-26.974l-0.285-0.298l4.438-2.509l17.988-10.14l-1.42,1.823l1.299,1.233l0.006,0.006l0.115,0.109
			c0,0,0.006,0.006,0.021,0.024c0.012,0.012,0.035,0.037,0.061,0.067c0.582,0.674,4.459,5.182,9.672,11.938
			c0.019,0.023,0.035,0.049,0.062,0.071c3.813,4.951,8.346,11.111,12.823,17.861c5.867,8.844,11.652,18.706,15.619,28.188
			c0.006,0.012,0.013,0.025,0.019,0.037c11.312,27.076,14.873,35.576,14.975,35.836
			C402.017,476.356,402.017,476.356,402.017,476.356z"/>
		<polygon fill="#2A262B" points="348.763,379.156 347.343,380.979 326.621,392.102 309.628,401.227 326.336,391.804 
			330.776,389.295 		"/>
		<path fill="#77AFAF" d="M256.733,332.549c-0.02-0.134-0.024-0.207-0.024-0.207"/>
		<path fill="#77AFAF" d="M315.352,341.081l-2.839-0.757l-3.278-2.321l-0.012-0.006c-12.808,5.448-14.455,7-21.01,8.781
			c-6.469,1.757-21.357,4.853-18.224,23c1.619,9.378,9.863,19.514,9.152,22.667c-1.598,7.035-35.279,18.206-40.285,19.566
			c-3.555,0.966-6.84,2.126-9.878,3.439c-10.852,4.688-18.529,11.27-23.803,17.369c-0.796,0.924-1.543,1.84-2.235,2.732
			c-5.564,7.197-7.722,13.158-7.861,13.547c-0.006,0.014-0.006,0.02-0.006,0.02l-0.322,11.984l-0.122,4.484l-0.261,9.969
			l-0.353,12.951l-0.185,13.66c8.95,0,17.9,0,26.851,0l-0.1-4.311l-0.037-8.59v-0.76l-0.055-12.168c0,0-0.741-0.918-1.658-2.619
			c-2.248-4.154-5.528-13-1.543-24.604c0.844-2.453,1.792-4.543,2.897-6.367c0.25-0.424,0.517-0.832,0.783-1.229
			c6.38-9.295,17.569-11.449,40.972-22.223c1.92-0.881,36.089-13.584,36.256-22.853c0.207-11.551-3.909-12.766-9.782-19.722
			c-4.792-5.675-5.924-17.335,0-20.611"/>
		<defs>
			<filter id="Adobe_OpacityMaskFilter" filterUnits="userSpaceOnUse" x="193.311" y="502.167" width="28.255" height="38.5">
				<feColorMatrix  type="matrix" values="1 0 0 0 0  0 1 0 0 0  0 0 1 0 0  0 0 0 1 0"/>
			</filter>
		</defs>
		<mask maskUnits="userSpaceOnUse" x="193.311" y="502.167" width="28.255" height="38.5" id="SVGID_4_">
			<g filter="url(#Adobe_OpacityMaskFilter)">
				
					<linearGradient id="SVGID_5_" gradientUnits="userSpaceOnUse" x1="215.8459" y1="373.5195" x2="215.8459" y2="331.3184" gradientTransform="matrix(1 0 0 -1 -8.3599 865.9443)">
					<stop  offset="0.3367" style="stop-color:#FFFFFF"/>
					<stop  offset="1" style="stop-color:#000000"/>
				</linearGradient>
				<rect x="190.406" y="492.424" fill="url(#SVGID_5_)" width="34.16" height="42.201"/>
			</g>
		</mask>
		<g mask="url(#SVGID_4_)">
			<path fill="#77AFAF" d="M193.311,540.667c9.114,0,19.14,0,28.255,0l-0.887-38.5c-8.949,0-17.899,0-26.85,0L193.311,540.667z"/>
			<path fill="#85BABA" d="M193.311,540.667c3.746,0,7.675,0,11.421,0c0.02-10.229,0.021-24.494,0.035-38.5
				c-3.572,0-7.145,0-10.717,0L193.311,540.667z"/>
		</g>
		<path fill="#85BABA" d="M238.855,412.01c-40.248,8.959-43.784,37.106-43.784,37.106l-1.021,53.051c3.572,0,7.145,0,10.717,0
			c0.019-21.348,0.06-42.086,0.219-46.988C205.898,427.249,238.855,412.01,238.855,412.01z"/>
		<polygon fill="#211E1D" points="358.48,499.461 360.646,501 366.378,495.805 365.281,510.042 354.679,509.223 350.773,505.504 		
			"/>
		<polygon fill="#171414" points="350.773,505.504 353.567,492.075 366.378,495.805 360.646,501 358.48,499.461 		"/>
	</g>
</g>
<g id="Layer_5" display="none">
	<path display="inline" fill="#1E1D1E" d="M193.104,537.089l-38.789-53.959l-10.877-16.523l-17.369-4.537l1.104-10.393l2.512-23.621
		l3.445-1.424c0,0-26.834-13.771-31.537-17.617c0,0-30.364,15.187-37.192,15.796l3.538,1.846l4.703,36.227l-8.241-0.607
		l-23.303,4.859L32.622,561.3l60.022-3.244l476.882-6.883l-7.527-92.342c0,0-47.078-7.355-59.791-21.299l2.826-4.623l-37.658-29.968
		c0,0-32.484,15.794-37.668,19.439l9.422,8.1c0,0-27.781,24.707-33.896,29.16c0,0,9.887,7.289,11.299,8.91
		c1.412,1.623-15.535,21.871-15.535,21.871l3.291,4.453l-32.855,36.215l-27.723,3.666 M85.819,448.976h-9.18V431.56
		c0,0,0-5.486,4.59-5.469c4.562,0.023,4.59,4.148,4.59,4.252V448.976z M98.77,448.976h-9.181V431.56c0,0,0-5.486,4.591-5.469
		c4.568,0.02,4.59,4.174,4.59,4.252V448.976z M110.774,448.976h-9.18V431.56c0,0,0-5.486,4.59-5.469
		c4.568,0.02,4.59,4.174,4.59,4.252V448.976z M122.778,448.976h-9.18V431.56c0,0,0-5.486,4.59-5.469
		c4.568,0.023,4.59,4.174,4.59,4.252V448.976z"/>
	<path display="inline" fill="#171617" d="M467.248,402.776l-13.371,24.11l11.881,4.318l-27.809,31.215l12.147,11.135
		l-38.338,53.229l-20.516,26.795l159.822-2.307l-12.574-97.566c0,0-50.869-34.654-70.4-50.257"/>
	<path display="inline" fill="#1E1D1E" d="M131.073,459.837"/>
	<polyline display="inline" fill="#171617" points="127.352,453.3 82.495,453.3 84.495,462.546 97.161,465.38 100.495,476.923 
		123.161,482.281 154.495,517.578 187.548,529.06 143.771,466.767 126.402,462.23 127.352,453.3 	"/>
</g>
<g id="edificios" display="none">
	<g display="inline">
		<rect x="271.605" y="331.277" fill="#191719" width="21.934" height="8.536"/>
		<polygon fill="#191719" points="302.464,336.191 260.271,334.602 262.066,330.46 300.263,330.46 		"/>
		<path fill="#AE5B4B" d="M294.215,272.276c-3.351-3.31-7.97-5.35-13.05-5.35c-3.94,0-7.601,1.23-10.61,3.34
			c2.21-4.01,6.48-6.72,11.38-6.72C287.614,263.546,292.455,267.196,294.215,272.276z"/>
		<path fill="#AB473A" d="M294.934,276.546c0,7.18-5.82,13-13,13s-13-5.82-13-13c0-2.28,0.59-4.42,1.62-6.28
			c3.01-2.11,6.67-3.34,10.61-3.34c5.08,0,9.699,2.04,13.05,5.35C294.684,273.616,294.934,275.046,294.934,276.546z"/>
		<polygon fill="#DDB7AC" points="303.624,289.976 300.525,318.876 275.625,306.216 268.404,283.716 297.995,283.716 		"/>
		<polygon fill="#CEABA3" points="300.525,318.876 299.195,331.216 264.035,331.216 259.644,289.976 264.984,283.716 
			268.404,283.716 275.625,306.216 		"/>
		<rect x="261.925" y="325.046" fill="#E1C3BC" width="39.54" height="7.17"/>
		<polygon fill="#D6B9B4" points="301.464,325.046 301.464,332.216 261.925,332.216 271.224,329.299 293.295,327.966 
			297.67,325.046 		"/>
		<rect x="273.129" y="307.466" fill="#B6958D" width="17.833" height="28.25"/>
		<polygon fill="#AB473A" points="300.275,280.136 263.074,280.136 264.125,276.546 298.984,276.546 		"/>
		<polygon fill="#933932" points="301.564,283.716 262.024,283.716 263.074,280.136 300.275,280.136 		"/>
		<g>
			<path fill="#615250" d="M272.319,287.391l-0.43,7.63c-1.24,0.56-2.16,0.99-2.85,1.3v-8.27l2.18-1.33L272.319,287.391z"/>
			<path fill="#4C4241" d="M273.409,288.051v9.17h-4.369v-0.9c0.689-0.31,1.609-0.74,2.85-1.3l0.43-7.63L273.409,288.051z"/>
		</g>
		<g>
			<path fill="#615250" d="M283.641,287.056l-0.43,7.63c-1.24,0.561-2.16,0.99-2.851,1.3v-8.27l2.181-1.33L283.641,287.056z"/>
			<path fill="#4C4241" d="M284.731,287.716v9.17h-4.37v-0.9c0.69-0.31,1.61-0.74,2.851-1.3l0.43-7.63L284.731,287.716z"/>
		</g>
		<g>
			<path fill="#615250" d="M294.39,286.941l-0.43,7.63c-1.24,0.56-2.16,0.99-2.851,1.3v-8.271l2.181-1.33L294.39,286.941z"/>
			<path fill="#4C4241" d="M295.48,287.601v9.17h-4.37v-0.9c0.69-0.31,1.61-0.74,2.851-1.3l0.43-7.63L295.48,287.601z"/>
		</g>
		<g>
			<path fill="#615250" d="M286.216,309.333l-1.48,20.346c-4.268,1.494-7.433,2.641-9.807,3.467v-22.053l7.501-3.547
				L286.216,309.333z"/>
			<path fill="#4C4241" d="M289.966,311.093v24.453h-15.037v-2.4c2.374-0.827,5.539-1.974,9.807-3.467l1.48-20.346L289.966,311.093z
				"/>
		</g>
		<polygon fill="#AB473A" points="293.295,304.046 293.295,306.216 270.795,306.216 270.795,304.046 281.694,300.216 		"/>
		<rect x="270.795" y="306.216" fill="#8A3831" width="22.5" height="2.5"/>
		<rect x="272.81" y="333.463" fill="#E1C3BC" width="18.47" height="3.348"/>
		<polygon fill="#967B77" points="269.335,316.966 268.404,320.796 267.144,322.046 266.462,316.466 		"/>
		<polygon fill="#776462" points="270.295,316.966 269.465,326.046 267.354,326.046 267.335,325.596 267.144,322.046 
			268.404,320.796 269.335,316.966 		"/>
		<polygon fill="#967B77" points="296.602,316.966 295.673,320.796 294.413,322.046 293.668,316.966 		"/>
		<polygon fill="#776462" points="297.562,316.966 296.732,326.046 294.623,326.046 294.602,325.596 294.413,322.046 
			295.673,320.796 296.602,316.966 		"/>
		<path fill="#FFCF43" d="M269.078,316.564c0,0,4.303-1.979,0.188-6.01c0,0,0.401,0.842,0.084,1.496s-1.519,0.379-1.582,2.172
			c0,0-0.253-0.907,0-2.236c0,0-2.341,2.911,0.337,4.535"/>
		<path fill="#FCB644" d="M268.739,316.49c0,0,1.267-1.086,1.245-1.782c0,0-0.875,0.749-1.05,0.686
			c-0.174-0.062,1.198-0.604,0.585-2.468c0,0-0.23,0.486-1.371,1.709c-0.862,0.926,0.527,1.202,0.189,1.856L268.739,316.49
			L268.739,316.49z"/>
		<path fill="#FFCF43" d="M296.131,316.564c0,0,4.302-1.979,0.188-6.01c0,0,0.4,0.842,0.084,1.496
			c-0.315,0.654-1.519,0.379-1.582,2.172c0,0-0.253-0.907,0-2.236c0,0-2.342,2.911,0.339,4.535"/>
		<path fill="#FCB644" d="M295.793,316.49c0,0,1.266-1.086,1.244-1.782c0,0-0.875,0.749-1.051,0.686
			c-0.174-0.062,1.198-0.604,0.585-2.468c0,0-0.229,0.486-1.37,1.709c-0.862,0.926,0.527,1.202,0.189,1.856L295.793,316.49
			L295.793,316.49z"/>
		
			<radialGradient id="SVGID_6_" cx="304.3352" cy="552.3853" r="38.75" gradientTransform="matrix(1 0 0 -1 -8.3599 865.9443)" gradientUnits="userSpaceOnUse">
			<stop  offset="0.0532" style="stop-color:#FEE56A;stop-opacity:0.25"/>
			<stop  offset="0.4312" style="stop-color:#FEE56A;stop-opacity:0.15"/>
			<stop  offset="1" style="stop-color:#000000;stop-opacity:0"/>
		</radialGradient>
		<circle opacity="0.7" fill="url(#SVGID_6_)" enable-background="new    " cx="295.976" cy="313.559" r="38.75"/>
		
			<radialGradient id="SVGID_7_" cx="276.7634" cy="551.2368" r="43.8748" gradientTransform="matrix(1 0 0 -1 -8.3599 865.9443)" gradientUnits="userSpaceOnUse">
			<stop  offset="0.0521" style="stop-color:#F8B929;stop-opacity:0.15"/>
			<stop  offset="0.4299" style="stop-color:#FEE56A;stop-opacity:0.15"/>
			<stop  offset="1" style="stop-color:#000000;stop-opacity:0"/>
		</radialGradient>
		
			<radialGradient id="SVGID_8_" cx="276.7634" cy="551.2368" r="44.3748" gradientTransform="matrix(1 0 0 -1 -8.3599 865.9443)" gradientUnits="userSpaceOnUse">
			<stop  offset="0.0521" style="stop-color:#F8B929;stop-opacity:0.15"/>
			<stop  offset="0.4299" style="stop-color:#FEE56A;stop-opacity:0.15"/>
			<stop  offset="1" style="stop-color:#000000;stop-opacity:0"/>
		</radialGradient>
		
			<circle opacity="0.7" fill="url(#SVGID_7_)" stroke="url(#SVGID_8_)" stroke-miterlimit="10" enable-background="new    " cx="268.404" cy="314.708" r="43.875"/>
	</g>
</g>
</svg>
