<svg version="1.1" id="ryWBFxiRf" xmlns="http://www.w3.org/2000/svg" xmlns:xlink="http://www.w3.org/1999/xlink" x="0px" y="0px" viewBox="0 0 418 586" enable-background="new 0 0 418.479 586.471" xml:space="preserve"><style>@-webkit-keyframes r1I-BtxoCG_Animation{0%{opacity: 1;}40%{opacity: 0.7;}50%{opacity: 0.3;}100%{opacity: 1;}}@keyframes r1I-BtxoCG_Animation{0%{opacity: 1;}40%{opacity: 0.7;}50%{opacity: 0.3;}100%{opacity: 1;}}@-webkit-keyframes r1I-BtxoCG_By29qeiRf_Animation{0%{-webkit-transform: translate(0px, 0px);transform: translate(0px, 0px);}50%{-webkit-transform: translate(0px, -40px);transform: translate(0px, -40px);}100%{-webkit-transform: translate(0px, 0px);transform: translate(0px, 0px);}}@keyframes r1I-BtxoCG_By29qeiRf_Animation{0%{-webkit-transform: translate(0px, 0px);transform: translate(0px, 0px);}50%{-webkit-transform: translate(0px, -40px);transform: translate(0px, -40px);}100%{-webkit-transform: translate(0px, 0px);transform: translate(0px, 0px);}}@-webkit-keyframes SJ3GWHYxiCz_BJXHqeiCM_Animation{0%{-webkit-transform: translate(-3px, -40px);transform: translate(-3px, -40px);}25.56%{-webkit-transform: translate(0px, 1px);transform: translate(0px, 1px);}50%{-webkit-transform: translate(-10px, 40px);transform: translate(-10px, 40px);}77.78%{-webkit-transform: translate(0px, -4px);transform: translate(0px, -4px);}100%{-webkit-transform: translate(-3px, -40px);transform: translate(-3px, -40px);}}@keyframes SJ3GWHYxiCz_BJXHqeiCM_Animation{0%{-webkit-transform: translate(-3px, -40px);transform: translate(-3px, -40px);}25.56%{-webkit-transform: translate(0px, 1px);transform: translate(0px, 1px);}50%{-webkit-transform: translate(-10px, 40px);transform: translate(-10px, 40px);}77.78%{-webkit-transform: translate(0px, -4px);transform: translate(0px, -4px);}100%{-webkit-transform: translate(-3px, -40px);transform: translate(-3px, -40px);}}@-webkit-keyframes rktl-SKljCz_Sk8sYlj0z_Animation{0%{-webkit-transform: translate(10px, 48px);transform: translate(10px, 48px);}25.56%{-webkit-transform: translate(1px, 1px);transform: translate(1px, 1px);}50%{-webkit-transform: translate(6px, -45px);transform: translate(6px, -45px);}77.78%{-webkit-transform: translate(1px, 7px);transform: translate(1px, 7px);}100%{-webkit-transform: translate(10px, 48px);transform: translate(10px, 48px);}}@keyframes rktl-SKljCz_Sk8sYlj0z_Animation{0%{-webkit-transform: translate(10px, 48px);transform: translate(10px, 48px);}25.56%{-webkit-transform: translate(1px, 1px);transform: translate(1px, 1px);}50%{-webkit-transform: translate(6px, -45px);transform: translate(6px, -45px);}77.78%{-webkit-transform: translate(1px, 7px);transform: translate(1px, 7px);}100%{-webkit-transform: translate(10px, 48px);transform: translate(10px, 48px);}}@-webkit-keyframes SyR4-rKliRf_SkvIYlo0M_Animation{0%{-webkit-transform: rotate(-20deg);transform: rotate(-20deg);}50%{-webkit-transform: rotate(20deg);transform: rotate(20deg);}100%{-webkit-transform: rotate(-20deg);transform: rotate(-20deg);}}@keyframes SyR4-rKliRf_SkvIYlo0M_Animation{0%{-webkit-transform: rotate(-20deg);transform: rotate(-20deg);}50%{-webkit-transform: rotate(20deg);transform: rotate(20deg);}100%{-webkit-transform: rotate(-20deg);transform: rotate(-20deg);}}#ryWBFxiRf *{-webkit-animation-duration: 3s;animation-duration: 3s;-webkit-animation-iteration-count: infinite;animation-iteration-count: infinite;-webkit-animation-timing-function: cubic-bezier(0, 0, 1, 1);animation-timing-function: cubic-bezier(0, 0, 1, 1);}#SJeZBtxsCf{fill: #CCB0A3;}#HJWZStgsRM{fill: #937B74;}#ByMbSYejCf{fill: #997056;}#HyQZSKljCM{opacity: 0.5;fill: #E3D188;}#HyVbBteiAz{opacity: 0.4;fill: #E8CB4E;}#B1rZHYgoRz{fill: #302D21;}#SyDZHKxo0M{opacity: 0.8;fill: #448599;}#B1OZrtei0z{opacity: 0.8;fill: #3F7C89;}#rkt-BtxsCM{opacity: 0.8;fill: #448599;}#Sk5-HFgjRz{opacity: 0.8;fill: #3F7C89;}#B1iZSFej0z{opacity: 0.8;fill: #448599;}#S12WSYliAf{opacity: 0.8;fill: #3F7C89;}#rJCWBKxsRf{opacity: 0.8;fill: #5D97A5;}#SJ1xZBKliCf{opacity: 0.8;fill: #3F7C89;}#B1llWSKxs0z{opacity: 0.8;fill: #448599;}#SJ-xZSFlo0f{opacity: 0.8;fill: #3F7C89;}#H1Mg-rtxo0z{fill: #5D97A5;}#H1EebrYgjRf{fill: #8D2D1F;}#H1rgZSFloAG{fill: #9A2D22;}#SkIgbrFlsCM{fill: #AE3A2E;}#HyPebrYgoCM{fill: #7A2D19;}#HkdeWStgsAM{fill: #937B74;}#H1igbStloRG{fill: #CCB0A3;}#BJnxZHtlo0M{fill: #9F8278;}#Bk0x-BFxiAM{fill: #CCB0A3;}#r11W-BtxiRM{fill: #9F8278;}#rk-W-BKxiRM{fill: #CCB0A3;}#BJzZZHFloAf{fill: #9F8278;}#S14bWBYxs0f{fill: #CCB0A3;}#r1BW-SYeoAM{fill: #9F8278;}#S1w-bSKgiCM{fill: #CCB0A3;}#HJubWBYgjRM{fill: #9F8278;}#HJq-bStgiRM{fill: #CCB0A3;}#SJsWbrYgsCG{fill: #9F8278;}#Bk6Z-SYesCz{fill: #CCB0A3;}#HkRbWrYgjRz{fill: #9F8278;}#BkxzZHFli0G{fill: #CCB0A3;}#S1ZM-BFesAG{fill: #9F8278;}#r1XzWrFxjCM{fill: #CCB0A3;}#HJVfbBtgjAG{fill: #9F8278;}#B1UMbBKgiAf{fill: #CCB0A3;}#H1wG-HYljCz{fill: #9F8278;}#SyKfbBKeo0z{fill: #CCB0A3;}#Sk9MbSKxo0G{fill: #9F8278;}#S1oG-rYls0G{fill: #5B3E2B;}#SyRz-BtlsCz{fill: #CCB0A3;}#By17WrFls0M{fill: #9F8278;}#S1Zm-rtloCz{fill: #CCB0A3;}#HJfQbHYxj0z{fill: #9F8278;}#rJ47ZrKgi0f{fill: #CCB0A3;}#B1HQWHFlj0G{fill: #9F8278;}#Bkvm-BFejAM{fill: #CCB0A3;}#HyumZHYej0z{fill: #9F8278;}#SJ9QbBYxoCG{fill: #CCB0A3;}#r1oXWrYxs0z{fill: #9F8278;}#Hk6Q-Stxo0f{fill: #CCB0A3;}#Bk07bHFxsAf{fill: #9F8278;}#ryxNZBYgiRG{fill: #CCB0A3;}#rJWN-SYxoAz{fill: #9F8278;}#SkQVZBtgoCM{fill: #CCB0A3;}#rkVEWBtli0M{fill: #9F8278;}#B1LEWHtloAf{fill: #CCB0A3;}#rkDVbrFejCG{fill: #9F8278;}#ByY4bBYgsAM{fill: #CCB0A3;}#SJcN-rFxjRf{fill: #9F8278;}#Hkn4bSFeiCG{fill: #CCB0A3;}#r16NbBtlsRM{fill: #9F8278;}#H11HWBKloCG{fill: #997056;}#BkgHZrtls0z{fill: #82583C;}#BJ-H-rYgsCM{fill: #997056;}#SJGSZBteoRz{fill: #82583C;}#B1UBZBYloAz{fill: #A58979;}#H1vSbSYljCG{fill: #A58979;}#rydSZBFls0M{fill: #A58979;}#H1KSWStgjCM{fill: #A58979;}#r15B-BtejRf{fill: #A58979;}#rkjSZBYgsRz{fill: #A58979;}#H12HWSYgoRf{fill: #A58979;}#SJ6HbrFgoRf{fill: #A58979;}#Hy0HZBKxoCG{fill: #A58979;}#S11LWStlo0M{fill: #A58979;}#BJl8WBFejRz{fill: #A58979;}#BybIWBYeiAf{fill: #785C52;}#HyfIWrtgjCz{fill: #82583C;}#BJQLWSYeoAM{fill: #82583C;}#SyrU-BtgsAG{fill: #897F79;}#rk8U-SFgoAM{fill: #897F79;}#SJDLbBFxjAM{fill: #897F79;}#Hy_8bStljCz{fill: #897F79;}#BkKUZrYlsRz{fill: #7A716D;}#S1qUZrYlj0f{fill: #7A716D;}#rJo8-HFgj0f{fill: #897F79;}#rk2UZrtljCf{fill: #7A716D;}#H1TIZHKgsAz{fill: #7A716D;}#B1AIWStgo0G{fill: #7A716D;}#HJgvbHYliAG{fill: #897F79;}#HkZvZHYesCz{fill: #897F79;}#HkMPbStgiRG{fill: #897F79;}#r1mwWrKljCz{fill: #897F79;}#SyEw-StxsRM{fill: #7A716D;}#HyrPbBtlsAf{fill: #7A716D;}#H1LP-HYgsCf{fill: #897F79;}#SJwPZBFgjAG{fill: #7A716D;}#SJODbSFxjRG{fill: #7A716D;}#BkFwbrYejRM{fill: #7A716D;}#SyR4-rKliRf_SkvIYlo0M{-webkit-animation-name: SyR4-rKliRf_SkvIYlo0M_Animation;animation-name: SyR4-rKliRf_SkvIYlo0M_Animation;-webkit-transform-origin: 50% 50%;transform-origin: 50% 50%;transform-box: fill-box;-webkit-transform: rotate(-20deg);transform: rotate(-20deg);}#rktl-SKljCz_Sk8sYlj0z{-webkit-animation-name: rktl-SKljCz_Sk8sYlj0z_Animation;animation-name: rktl-SKljCz_Sk8sYlj0z_Animation;-webkit-transform-origin: 50% 50%;transform-origin: 50% 50%;transform-box: fill-box;-webkit-transform: translate(10px, 48px);transform: translate(10px, 48px);}#SJ3GWHYxiCz_BJXHqeiCM{-webkit-animation-name: SJ3GWHYxiCz_BJXHqeiCM_Animation;animation-name: SJ3GWHYxiCz_BJXHqeiCM_Animation;-webkit-transform-origin: 50% 50%;transform-origin: 50% 50%;transform-box: fill-box;-webkit-transform: translate(-3px, -40px);transform: translate(-3px, -40px);}#r1I-BtxoCG_By29qeiRf{-webkit-animation-name: r1I-BtxoCG_By29qeiRf_Animation;animation-name: r1I-BtxoCG_By29qeiRf_Animation;-webkit-transform-origin: 50% 50%;transform-origin: 50% 50%;transform-box: fill-box;-webkit-transform: translate(0px, 0px);transform: translate(0px, 0px);}#r1I-BtxoCG{-webkit-animation-name: r1I-BtxoCG_Animation;animation-name: r1I-BtxoCG_Animation;-webkit-transform-origin: 50% 50%;transform-origin: 50% 50%;transform-box: fill-box;opacity: 1;}</style>
<path d="M210.512,296.908c-61.375,0-111.127,28.508-111.127,63.667c0,21.97,19.432,41.348,48.996,52.793&#10;&#9;l34.17-20.622c-25.042-8.481-60.146-19.924-60.146-37.589c0-26.794,38.523-48.51,86.045-48.51c47.523,0,86.046,21.716,86.046,48.51&#10;&#9;c0,17.341-35.773,28.097-60.052,36.671l37.032,21.979c30.214-11.375,50.161-30.97,50.161-53.232&#10;&#9;C321.638,325.416,271.885,296.908,210.512,296.908z" id="SJeZBtxsCf"/>
<path d="M302.812,356.751c-0.688-22.566-22.132-41.975-52.964-51.118c-12.106-3.608-25.653-5.611-39.957-5.611&#10;&#9;c-14.308,0-27.851,2.003-39.959,5.611c-30.94,9.176-52.431,28.689-52.972,51.359C178.675,357.515,240.917,355.975,302.812,356.751z" id="HJWZStgsRM"/>
<path d="M262.521,355.527c-1.21,4.74-3.97,9.17-7.95,13.061c-0.14,0.14-0.28,0.27-0.42,0.399&#10;&#9;c-5.68,5.42-13.73,9.8-23.23,12.59c-7.38,2.17-15.63,3.38-24.35,3.38s-16.97-1.21-24.35-3.38c-10.6-3.109-19.38-8.189-25.07-14.479&#10;&#9;c-0.2-0.21-0.39-0.42-0.58-0.641c-2.77-3.189-4.76-6.68-5.79-10.369C187.96,356.037,225.271,355.537,262.521,355.527z" id="ByMbSYejCf"/>
<path d="M290.005,275.397c-7.83,44.746-29.878,106.56-84.83,106.56s-76.679-56.159-86.274-100.56&#10;&#9;c-11.67-54,24.984-63.562,92.362-58.5C264.513,226.897,300.505,215.397,290.005,275.397z" id="HyQZSKljCM"/>
<path d="M276.15,251.897l-12.93,98.16c0,6.81-3.17,13.17-8.65,18.53c-0.14,0.14-0.28,0.27-0.42,0.399&#10;&#9;c-5.68,5.42-13.73,9.8-23.23,12.59c-7.38,2.17-15.63,3.38-24.35,3.38s-16.97-1.21-24.35-3.38c-10.6-3.109-19.38-8.189-25.07-14.479&#10;&#9;c-0.2-0.21-0.39-0.42-0.58-0.641c-3.49-4.02-5.74-8.51-6.42-13.279v-0.021l-22.58-101.26l54.97,5.46l26.29-5.46l18.07,14.96&#10;&#9;L276.15,251.897z" id="HyVbBteiAz"/>
<path d="M264.221,350.058c0,1.859-0.24,3.689-0.7,5.47c-1.21,4.74-3.97,9.17-7.95,13.061&#10;&#9;c-0.14,0.14-0.28,0.27-0.42,0.399c-5.68,5.42-13.73,9.8-23.23,12.59c-7.38,2.17-15.63,3.38-24.35,3.38s-16.97-1.21-24.35-3.38&#10;&#9;c-10.6-3.109-19.38-8.189-25.07-14.479c-0.2-0.21-0.39-0.42-0.58-0.641c-2.77-3.189-4.76-6.68-5.79-10.369&#10;&#9;c-0.28-0.96-0.49-1.931-0.63-2.91v-0.021c-0.16-1.02-0.23-2.05-0.23-3.1c0-5.93,2.4-11.51,6.65-16.4c0.19-0.22,0.38-0.43,0.58-0.64&#10;&#9;c5.69-6.29,14.47-11.37,25.07-14.48c0.13-0.04,0.27-0.08,0.4-0.109c7.28-2.101,15.39-3.271,23.95-3.271&#10;&#9;c6.93,0,13.561,0.76,19.69,2.17c1.59,0.36,3.14,0.771,4.659,1.21c9.5,2.79,17.551,7.17,23.23,12.591c0.14,0.13,0.28,0.26,0.42,0.399&#10;&#9;C261.051,336.888,264.221,343.247,264.221,350.058z" id="B1rZHYgoRz"/>
<g id="r1I-BtxoCG_By29qeiRf" data-animator-group="true" data-animator-type="0"><g id="r1I-BtxoCG">
	<polygon points="245.015,269.64 184.271,267.642 213.528,337.313 247.47,307.968 &#9;" id="SyDZHKxo0M"/>
	<polygon points="223.751,292.691 213.528,337.313 247.47,307.968 245.015,269.64 &#9;" id="B1OZrtei0z"/>
	<polygon points="185.991,282.247 157.991,317.957 195.491,354.997 200.491,310.997 &#9;" id="rkt-BtxsCM"/>
	<polygon points="184.491,313.497 195.491,354.997 200.491,310.997 185.991,282.247 &#9;" id="Sk5-HFgjRz"/>
	<polygon points="230.499,348.415 205.482,324.763 192.265,365.545 217.444,365.731 &#9;" id="B1iZSFej0z"/>
	<polygon points="213.008,350.295 192.265,365.545 217.444,365.731 230.499,348.415 &#9;" id="S12WSYliAf"/>
	<g id="HJ6ZBKxiAM">
		<polygon points="255.517,399.502 246.374,349.206 194.287,385.631 224.44,408.325 &#9;&#9;" id="rJCWBKxsRf"/>
		<polygon points="232.789,386.112 194.287,385.631 224.44,408.325 255.517,399.502 &#9;&#9;" id="SJ1xZBKliCf"/>
		<polygon points="169.345,380.916 198.303,380.802 182.687,348.299 167.246,362.796 &#9;&#9;" id="B1llWSKxs0z"/>
		<polygon points="178.905,369.621 182.687,348.299 167.246,362.796 169.345,380.916 &#9;&#9;" id="SJ-xZSFlo0f"/>
	</g>
	<polygon points="232.789,386.112 246.374,349.206 255.517,399.502 &#9;" id="H1Mg-rtxo0z"/>
</g></g>
<g id="rk7lWHKgoAM">
	<polygon points="300.9,242.897 263.221,284.897 206.57,294.897 146.561,284.897 112.4,244.397 161.291,183.138 &#10;&#9;&#9;178.371,194.917 232.681,194.917 252.46,180.467 &#9;" id="H1EebrYgjRf"/>
	<polygon points="263.221,284.897 206.57,294.897 207.721,194.917 232.681,194.917 &#9;" id="H1rgZSFloAG"/>
	<polygon points="300.9,242.897 263.221,284.897 232.681,194.917 252.46,180.467 &#9;" id="SkIgbrFlsCM"/>
	<polygon points="181.22,194.917 146.561,284.897 112.4,244.397 161.291,183.138 178.371,194.917 &#9;" id="HyPebrYgoCM"/>
</g>
<path d="M302.841,356.867c0,23.04-21.65,42.931-52.99,52.221c-12.11,3.6-25.66,5.609-39.96,5.609&#10;&#9;c-14.311,0-27.85-2.01-39.96-5.609c-31.34-9.29-52.99-29.181-52.99-52.221c0-0.29,0.01-0.58,0.02-0.88&#10;&#9;c11.59,0.101,23.2,0.13,34.82,0.101c1.03,3.689,3.02,7.18,5.79,10.369c0.19,0.221,0.38,0.431,0.58,0.641&#10;&#9;c5.69,6.29,14.47,11.37,25.07,14.479c7.38,2.17,15.63,3.38,24.35,3.38s16.97-1.21,24.35-3.38c9.5-2.79,17.551-7.17,23.23-12.59&#10;&#9;c0.14-0.13,0.28-0.26,0.42-0.399c3.98-3.891,6.74-8.32,7.95-13.061c13.11,0,26.21,0.061,39.29,0.22&#10;&#9;C302.82,356.117,302.841,356.487,302.841,356.867z" id="HkdeWStgsAM"/>
<g id="rktl-SKljCz_Sk8sYlj0z" data-animator-group="true" data-animator-type="0"><g id="rktl-SKljCz">
	<path d="M72.322,172.423" id="r1qgZHtgoAG"/>
	<path d="M89.584,174.317c-1.161,4.348-3.734,5.843-5.749,3.34l-10.377-12.89c-2.016-2.503-2.709-8.056-1.549-12.403&#10;&#9;&#9;l0,0c1.161-4.348,3.734-5.843,5.75-3.34l10.241,5.164C89.916,156.69,90.745,169.969,89.584,174.317L89.584,174.317z" id="H1igbStloRG"/>
	<path d="M89.864,187.846c-1.16,4.348-3.733,5.843-5.749,3.34l-10.377-12.89c-2.016-2.503-2.708-8.056-1.548-12.403&#10;&#9;&#9;l0,0c1.16-4.348,3.733-5.843,5.749-3.34l10.377,12.89C90.332,177.946,91.024,183.499,89.864,187.846L89.864,187.846z" id="BJnxZHtlo0M"/>
	<path d="M71.764,201.482" id="r1pg-BFejAz"/>
	<path d="M89.862,203.375c-1.161,4.348-3.734,5.843-5.75,3.34l-10.376-12.89c-2.016-2.503-2.709-8.056-1.549-12.403&#10;&#9;&#9;l0,0c1.161-4.348,3.734-5.843,5.75-3.34l10.376,12.89C90.329,193.475,91.022,199.028,89.862,203.375L89.862,203.375z" id="Bk0x-BFxiAM"/>
	<path d="M89.306,216.905c-1.161,4.348-3.734,5.843-5.749,3.34l-10.377-12.89c-2.016-2.503-2.708-8.056-1.548-12.403&#10;&#9;&#9;l0,0c1.16-4.348,3.733-5.843,5.749-3.34l10.377,12.89C89.773,207.004,90.465,212.557,89.306,216.905L89.306,216.905z" id="r11W-BtxiRM"/>
	<path d="M72.321,227.537" id="Byl-bBteoAG"/>
	<path d="M89.583,229.431c-1.161,4.348-3.734,5.842-5.749,3.34L73.458,219.88c-2.016-2.502-2.709-8.055-1.548-12.402&#10;&#9;&#9;l0,0c1.16-4.348,3.733-5.844,5.749-3.34l10.377,12.889C90.05,219.531,90.744,225.083,89.583,229.431L89.583,229.431z" id="rk-W-BKxiRM"/>
	<path d="M89.863,242.96c-1.16,4.348-3.733,5.842-5.749,3.34l-10.377-12.89c-2.015-2.502-2.708-8.055-1.548-12.402&#10;&#9;&#9;l0,0c1.161-4.348,3.734-5.844,5.749-3.34l10.377,12.889C90.331,233.06,91.023,238.613,89.863,242.96L89.863,242.96z" id="BJzZZHFloAf"/>
	<path d="M71.763,256.595" id="ry7--rtljCf"/>
	<path d="M89.861,258.489c-1.161,4.348-3.734,5.842-5.749,3.34l-10.377-12.891&#10;&#9;&#9;c-2.016-2.502-2.709-8.054-1.548-12.402l0,0c1.16-4.348,3.733-5.844,5.749-3.34l10.377,12.888&#10;&#9;&#9;C90.328,248.589,91.021,254.142,89.861,258.489L89.861,258.489z" id="S14bWBYxs0f"/>
	<path d="M89.305,272.019c-1.16,4.348-3.733,5.842-5.749,3.34l-10.377-12.891c-2.016-2.502-2.708-8.055-1.548-12.402&#10;&#9;&#9;l0,0c1.16-4.348,3.733-5.844,5.749-3.34l10.377,12.889C89.773,262.118,90.465,267.671,89.305,272.019L89.305,272.019z" id="r1BW-SYeoAM"/>
	<path d="M72.042,285.071" id="rkIZ-rtlo0z"/>
	<path d="M89.304,286.964c-1.16,4.348-3.733,5.844-5.749,3.34l-10.377-12.889c-2.016-2.504-2.708-8.057-1.548-12.404&#10;&#9;&#9;l0,0c1.16-4.348,3.733-5.842,5.749-3.34l10.377,12.891C89.772,277.063,90.465,282.616,89.304,286.964L89.304,286.964z" id="S1w-bSKgiCM"/>
	<path d="M89.584,300.493c-1.161,4.348-3.734,5.844-5.749,3.34l-10.377-12.889&#10;&#9;&#9;c-2.016-2.504-2.708-8.057-1.549-12.404l0,0c1.161-4.348,3.734-5.842,5.75-3.34l10.376,12.891&#10;&#9;&#9;C90.051,290.593,90.744,296.146,89.584,300.493L89.584,300.493z" id="HJubWBYgjRM"/>
	<path d="M71.485,314.13" id="SkYbZBYliAz"/>
	<path d="M89.582,316.022c-1.16,4.348-3.733,5.844-5.749,3.34l-10.377-12.889c-2.016-2.504-2.708-8.057-1.548-12.404&#10;&#9;&#9;l0,0c1.16-4.348,3.733-5.842,5.749-3.34l10.377,12.891C90.049,306.122,90.743,311.675,89.582,316.022L89.582,316.022z" id="HJq-bStgiRM"/>
	<path d="M89.026,329.552c-1.16,4.348-3.733,5.844-5.749,3.34L72.9,320.003c-2.015-2.504-2.707-8.057-1.548-12.404&#10;&#9;&#9;l0,0c1.161-4.348,3.734-5.842,5.749-3.34l10.377,12.891C89.494,319.651,90.186,325.204,89.026,329.552L89.026,329.552z" id="SJsWbrYgsCG"/>
	<path d="M72.042,340.185" id="SJ3WbSFxjAf"/>
	<path d="M89.303,342.079c-1.16,4.348-3.733,5.842-5.749,3.34l-10.377-12.891c-2.015-2.502-2.708-8.055-1.548-12.402&#10;&#9;&#9;l0,0c1.161-4.348,3.734-5.844,5.749-3.34l10.377,12.889C89.771,332.179,90.464,337.731,89.303,342.079L89.303,342.079z" id="Bk6Z-SYesCz"/>
	<path d="M89.583,355.608c-1.161,4.348-3.734,5.842-5.749,3.34l-10.377-12.891&#10;&#9;&#9;c-2.016-2.502-2.708-8.055-1.548-12.402l0,0c1.16-4.348,3.733-5.844,5.749-3.34l10.377,12.889&#10;&#9;&#9;C90.05,345.708,90.743,351.261,89.583,355.608L89.583,355.608z" id="HkRbWrYgjRz"/>
	<path d="M71.484,369.243" id="S1kfbrtxsRG"/>
	<path d="M89.581,371.138c-1.16,4.348-3.733,5.842-5.749,3.34l-10.377-12.891c-2.015-2.502-2.708-8.055-1.548-12.402&#10;&#9;&#9;l0,0c1.161-4.348,3.734-5.844,5.749-3.34l10.377,12.889C90.048,361.237,90.742,366.79,89.581,371.138L89.581,371.138z" id="BkxzZHFli0G"/>
	<path d="M89.025,384.667c-1.16,4.348-3.733,5.842-5.749,3.34L72.9,375.116c-2.016-2.502-2.708-8.055-1.549-12.402&#10;&#9;&#9;l0,0c1.161-4.348,3.734-5.844,5.75-3.34l10.376,12.889C89.493,374.767,90.185,380.319,89.025,384.667L89.025,384.667z" id="S1ZM-BFesAG"/>
	<path d="M71.151,397.302" id="H1ffZrYgsCf"/>
	<path d="M89.248,399.196c-1.16,4.348-3.733,5.842-5.749,3.34l-10.377-12.891c-2.016-2.502-2.708-8.055-1.548-12.402&#10;&#9;&#9;l0,0c1.16-4.348,3.733-5.844,5.749-3.34L87.7,386.792C89.715,389.296,90.409,394.849,89.248,399.196L89.248,399.196z" id="r1XzWrFxjCM"/>
	<path d="M88.692,412.726c-1.16,4.348-3.733,5.842-5.749,3.34l-10.377-12.891c-2.015-2.502-2.707-8.055-1.548-12.402&#10;&#9;&#9;l0,0c1.161-4.348,3.734-5.844,5.749-3.34l10.377,12.889C89.16,402.825,89.852,408.378,88.692,412.726L88.692,412.726z" id="HJVfbBtgjAG"/>
	<path d="M71.708,423.356" id="ByrfbHFejAf"/>
	<path d="M88.969,425.251c-1.16,4.348-3.733,5.842-5.749,3.34L72.843,415.7c-2.015-2.502-2.708-8.055-1.548-12.402&#10;&#9;&#9;l0,0c1.161-4.348,3.734-5.844,5.749-3.34l10.377,12.889C89.437,415.351,90.13,420.903,88.969,425.251L88.969,425.251z" id="B1UMbBKgiAf"/>
	<path d="M89.25,438.78c-1.161,4.348-3.734,5.842-5.749,3.34l-10.377-12.891c-2.016-2.502-2.708-8.055-1.548-12.402&#10;&#9;&#9;l0,0c1.16-4.348,3.733-5.844,5.749-3.34l10.377,12.889C89.716,428.88,90.409,434.433,89.25,438.78L89.25,438.78z" id="H1wG-HYljCz"/>
	<path d="M71.15,452.415" id="B1uGbrtes0G"/>
	<path d="M89.247,454.31c-1.16,4.348-3.733,5.842-5.749,3.34l-10.377-12.891c-2.015-2.502-2.708-8.055-1.548-12.402&#10;&#9;&#9;l0,0c1.161-4.348,3.734-5.844,5.749-3.34l10.377,12.889C89.714,444.409,90.408,449.962,89.247,454.31L89.247,454.31z" id="SyKfbBKeo0z"/>
	<path d="M88.691,467.839c-1.16,4.348-3.733,5.842-5.749,3.34l-10.376-12.891c-2.016-2.502-2.708-8.055-1.549-12.402&#10;&#9;&#9;l0,0c1.161-4.348,3.734-5.844,5.75-3.34l10.376,12.889C89.159,457.938,89.851,463.491,88.691,467.839L88.691,467.839z" id="Sk9MbSKxo0G"/>
</g></g>
<rect x="172.448" y="110.513" width="68.902" height="84.404" id="S1oG-rYls0G"/>
<g id="SJ3GWHYxiCz_BJXHqeiCM" data-animator-group="true" data-animator-type="0"><g id="SJ3GWHYxiCz">
	<path d="M332.088,175.75" id="r1TzbSYgo0z"/>
	<path d="M349.35,177.643c-1.16,4.348-3.734,5.843-5.748,3.34l-10.377-12.89c-2.016-2.503-2.709-8.056-1.549-12.403&#10;&#9;&#9;l0,0c1.16-4.348,3.734-5.843,5.75-3.34l10.24,5.164C349.682,160.017,350.51,173.295,349.35,177.643L349.35,177.643z" id="SyRz-BtlsCz"/>
	<path d="M349.629,191.172c-1.16,4.348-3.732,5.843-5.748,3.34l-10.377-12.89c-2.016-2.503-2.709-8.056-1.549-12.403&#10;&#9;&#9;l0,0c1.16-4.348,3.734-5.843,5.75-3.34l10.377,12.89C350.098,181.272,350.789,186.825,349.629,191.172L349.629,191.172z" id="By17WrFls0M"/>
	<path d="M331.529,204.808" id="rkl7bHFej0z"/>
	<path d="M349.627,206.702c-1.16,4.348-3.734,5.843-5.75,3.34l-10.375-12.89c-2.016-2.503-2.709-8.056-1.549-12.403&#10;&#9;&#9;l0,0c1.16-4.348,3.734-5.843,5.75-3.34l10.375,12.89C350.094,196.801,350.787,202.354,349.627,206.702L349.627,206.702z" id="S1Zm-rtloCz"/>
	<path d="M349.072,220.231c-1.162,4.348-3.734,5.843-5.75,3.34l-10.377-12.89c-2.016-2.503-2.707-8.056-1.547-12.403&#10;&#9;&#9;l0,0c1.16-4.348,3.732-5.843,5.748-3.34l10.377,12.89C349.539,210.331,350.23,215.883,349.072,220.231L349.072,220.231z" id="HJfQbHYxj0z"/>
	<path d="M332.086,230.863" id="HJQQWrFxs0M"/>
	<path d="M349.35,232.757c-1.162,4.347-3.734,5.841-5.75,3.339l-10.377-12.89c-2.016-2.502-2.709-8.055-1.547-12.402&#10;&#9;&#9;l0,0c1.16-4.348,3.732-5.844,5.748-3.34l10.377,12.889C349.816,222.857,350.51,228.41,349.35,232.757L349.35,232.757z" id="rJ47ZrKgi0f"/>
	<path d="M349.629,246.286c-1.16,4.348-3.734,5.842-5.75,3.34l-10.377-12.891c-2.014-2.501-2.707-8.054-1.547-12.402&#10;&#9;&#9;l0,0c1.16-4.348,3.734-5.844,5.748-3.34l10.377,12.889C350.096,236.386,350.789,241.938,349.629,246.286L349.629,246.286z" id="B1HQWHFlj0G"/>
	<path d="M331.529,259.921" id="SJUQ-BFloCG"/>
	<path d="M349.627,261.815c-1.162,4.348-3.734,5.842-5.75,3.34L333.5,252.265c-2.016-2.502-2.709-8.055-1.547-12.402&#10;&#9;&#9;l0,0c1.16-4.347,3.732-5.843,5.748-3.34l10.377,12.889C350.094,251.915,350.787,257.468,349.627,261.815L349.627,261.815z" id="Bkvm-BFejAM"/>
	<path d="M349.07,275.345c-1.16,4.348-3.732,5.842-5.748,3.34l-10.377-12.891c-2.016-2.502-2.709-8.055-1.549-12.402&#10;&#9;&#9;l0,0c1.16-4.348,3.734-5.844,5.75-3.34l10.377,12.889C349.539,265.444,350.23,270.997,349.07,275.345L349.07,275.345z" id="HyumZHYej0z"/>
	<path d="M331.809,288.397" id="SJKX-SFxs0M"/>
	<path d="M349.07,290.29c-1.16,4.348-3.734,5.844-5.75,3.34l-10.377-12.889c-2.016-2.504-2.707-8.057-1.547-12.404&#10;&#9;&#9;l0,0c1.16-4.348,3.732-5.842,5.748-3.34l10.377,12.891C349.537,280.39,350.23,285.942,349.07,290.29L349.07,290.29z" id="SJ9QbBYxoCG"/>
	<path d="M349.35,303.819c-1.16,4.348-3.734,5.844-5.748,3.34l-10.377-12.889c-2.016-2.504-2.709-8.057-1.549-12.404&#10;&#9;&#9;l0,0c1.16-4.348,3.734-5.842,5.75-3.34l10.375,12.891C349.816,293.919,350.51,299.472,349.35,303.819L349.35,303.819z" id="r1oXWrYxs0z"/>
	<path d="M331.25,317.456" id="ry2QbrYgiAf"/>
	<path d="M349.348,319.349c-1.16,4.348-3.734,5.844-5.75,3.34L333.221,309.8c-2.016-2.504-2.707-8.057-1.547-12.404&#10;&#9;&#9;l0,0c1.16-4.348,3.732-5.842,5.748-3.34l10.377,12.891C349.814,309.448,350.508,315.001,349.348,319.349L349.348,319.349z" id="Hk6Q-Stxo0f"/>
	<path d="M348.791,332.878c-1.16,4.348-3.732,5.844-5.748,3.34l-10.377-12.889&#10;&#9;&#9;c-2.016-2.504-2.707-8.057-1.549-12.404l0,0c1.162-4.348,3.734-5.842,5.75-3.34l10.377,12.891&#10;&#9;&#9;C349.26,322.978,349.951,328.53,348.791,332.878L348.791,332.878z" id="Bk07bHFxsAf"/>
	<path d="M331.807,343.511" id="H114-SYxiAG"/>
	<path d="M349.068,345.405c-1.16,4.348-3.732,5.842-5.748,3.34l-10.377-12.891&#10;&#9;&#9;c-2.016-2.502-2.709-8.055-1.549-12.402l0,0c1.162-4.348,3.734-5.844,5.75-3.34l10.377,12.889&#10;&#9;&#9;C349.537,335.505,350.23,341.058,349.068,345.405L349.068,345.405z" id="ryxNZBYgiRG"/>
	<path d="M349.35,358.935c-1.162,4.348-3.734,5.842-5.75,3.34l-10.377-12.891c-2.016-2.502-2.707-8.055-1.547-12.402&#10;&#9;&#9;l0,0c1.16-4.348,3.732-5.844,5.748-3.34l10.377,12.889C349.816,349.034,350.508,354.587,349.35,358.935L349.35,358.935z" id="rJWN-SYxoAz"/>
	<path d="M331.25,372.569" id="ryGE-rtgsCG"/>
	<path d="M349.346,374.464c-1.16,4.348-3.732,5.842-5.748,3.34l-10.377-12.891&#10;&#9;&#9;c-2.016-2.502-2.709-8.055-1.549-12.402l0,0c1.162-4.348,3.734-5.844,5.75-3.34l10.377,12.889&#10;&#9;&#9;C349.814,364.563,350.508,370.116,349.346,374.464L349.346,374.464z" id="SkQVZBtgoCM"/>
	<path d="M348.791,387.993c-1.16,4.348-3.734,5.842-5.75,3.34l-10.375-12.891c-2.016-2.502-2.709-8.055-1.549-12.402&#10;&#9;&#9;l0,0c1.16-4.348,3.734-5.844,5.75-3.34l10.375,12.889C349.258,378.093,349.951,383.646,348.791,387.993L348.791,387.993z" id="rkVEWBtli0M"/>
	<path d="M330.916,400.628" id="B1BVZHFxs0f"/>
	<path d="M349.014,402.522c-1.16,4.348-3.734,5.842-5.75,3.34l-10.377-12.891c-2.016-2.502-2.707-8.055-1.547-12.402&#10;&#9;&#9;l0,0c1.16-4.348,3.732-5.844,5.748-3.34l10.377,12.889C349.48,392.622,350.174,398.175,349.014,402.522L349.014,402.522z" id="B1LEWHtloAf"/>
	<path d="M348.457,416.052c-1.16,4.348-3.732,5.842-5.748,3.34l-10.377-12.891&#10;&#9;&#9;c-2.016-2.502-2.707-8.055-1.549-12.402l0,0c1.162-4.348,3.734-5.844,5.75-3.34l10.377,12.889&#10;&#9;&#9;C348.926,406.151,349.617,411.704,348.457,416.052L348.457,416.052z" id="rkDVbrFejCG"/>
	<path d="M331.473,426.683" id="HkdNWSFxiRf"/>
	<path d="M348.734,428.577c-1.16,4.348-3.732,5.842-5.748,3.34l-10.377-12.891&#10;&#9;&#9;c-2.016-2.502-2.709-8.055-1.549-12.402l0,0c1.162-4.348,3.734-5.844,5.75-3.34l10.377,12.889&#10;&#9;&#9;C349.203,418.677,349.896,424.229,348.734,428.577L348.734,428.577z" id="ByY4bBYgsAM"/>
	<path d="M349.016,442.106c-1.162,4.348-3.734,5.842-5.75,3.34l-10.377-12.891&#10;&#9;&#9;c-2.016-2.502-2.707-8.055-1.547-12.402l0,0c1.16-4.348,3.732-5.844,5.748-3.34l10.377,12.889&#10;&#9;&#9;C349.482,432.206,350.174,437.759,349.016,442.106L349.016,442.106z" id="SJcN-rFxjRf"/>
	<path d="M330.916,455.741" id="B1iV-rFeoRM"/>
	<path d="M349.012,457.636c-1.16,4.348-3.732,5.842-5.748,3.34l-10.377-12.891&#10;&#9;&#9;c-2.016-2.502-2.709-8.055-1.549-12.402l0,0c1.162-4.348,3.734-5.844,5.75-3.34l10.377,12.889&#10;&#9;&#9;C349.48,447.735,350.174,453.288,349.012,457.636L349.012,457.636z" id="Hkn4bSFeiCG"/>
	<path d="M348.457,471.165c-1.16,4.348-3.734,5.842-5.75,3.34l-10.375-12.891c-2.016-2.502-2.709-8.055-1.549-12.402&#10;&#9;&#9;l0,0c1.16-4.348,3.734-5.844,5.75-3.34l10.375,12.889C348.924,461.265,349.617,466.817,348.457,471.165L348.457,471.165z" id="r16NbBtlsRM"/>
</g></g>
<g id="SyR4-rKliRf_SkvIYlo0M" data-animator-group="true" data-animator-type="1"><g id="SyR4-rKliRf">
	<polygon points="208.511,155.936 200.386,155.052 204.291,102.808 208.511,102.431 213.528,102.879 &#10;&#9;&#9;216.638,155.052 &#9;" id="H11HWBKloCG"/>
	<polygon points="211.382,205.932 206.57,205.424 200.386,161.003 216.638,160.386 &#9;" id="BkgHZrtls0z"/>
	<polygon points="363.9,154.801 358.82,162.335 60.571,162.335 56.4,154.801 60.571,147.267 358.82,147.267 &#9;" id="BJ-H-rYgsCM"/>
	<polygon points="363.9,154.801 358.82,162.335 60.571,162.335 56.4,154.801 &#9;" id="SJGSZBteoRz"/>
	<g id="S1XBbrFxsRf">
		<g id="B1NSbStxiCz">
			<g id="HJrBbrFgs0z">
				<path d="M266.096,139.251c-1.643-4.982-3.912-9.683-6.71-14.005c-1.157-1.794-2.411-3.522-3.739-5.176&#10;&#9;&#9;&#9;&#9;&#9;c-4.096-5.079-8.97-9.499-14.438-13.054c-1.771-1.156-3.599-2.215-5.489-3.188c-4.053-2.085-8.364-3.728-12.881-4.874&#10;&#9;&#9;&#9;&#9;&#9;c-4.863-1.243-9.953-1.891-15.205-1.891c-5.781,0-11.367,0.8-16.674,2.291c-4.269,1.2-8.354,2.842-12.189,4.896&#10;&#9;&#9;&#9;&#9;&#9;c-1.762,0.918-3.457,1.933-5.101,3.025c-5.316,3.512-10.06,7.834-14.048,12.794c-1.512,1.88-2.918,3.847-4.203,5.9&#10;&#9;&#9;&#9;&#9;&#9;c-2.583,4.118-4.701,8.569-6.246,13.281c-2.032,6.105-3.133,12.622-3.133,19.408c0,4.269,0.442,8.44,1.275,12.47&#10;&#9;&#9;&#9;&#9;&#9;c1.123,5.512,2.993,10.752,5.5,15.615c0.141,0.292,0.292,0.584,0.443,0.864c4.83,9.078,11.876,16.793,20.412,22.434&#10;&#9;&#9;&#9;&#9;&#9;c0.184,0.119,0.367,0.249,0.562,0.356c5.101,3.318,10.73,5.89,16.728,7.564c5.307,1.492,10.893,2.291,16.674,2.291&#10;&#9;&#9;&#9;&#9;&#9;c5.252,0,10.342-0.649,15.205-1.891c6.257-1.588,12.136-4.139,17.463-7.5c0.303-0.173,0.604-0.367,0.907-0.561&#10;&#9;&#9;&#9;&#9;&#9;c8.709-5.663,15.896-13.487,20.802-22.693c0.011-0.022,0.021-0.054,0.043-0.075c2.702-5.091,4.712-10.602,5.9-16.405&#10;&#9;&#9;&#9;&#9;&#9;c0.832-4.03,1.275-8.202,1.275-12.47C269.229,151.873,268.127,145.356,266.096,139.251z M215.221,185.771&#10;&#9;&#9;&#9;&#9;&#9;c-2.519,0.648-5.155,0.983-7.867,0.983c-2.896,0-5.706-0.388-8.364-1.112c-2.853-0.779-5.555-1.946-8.029-3.448&#10;&#9;&#9;&#9;&#9;&#9;c-4.495-2.713-8.277-6.527-10.946-11.066c-1.503-2.528-2.647-5.284-3.394-8.202c-0.648-2.529-0.994-5.166-0.994-7.888&#10;&#9;&#9;&#9;&#9;&#9;c0-2.712,0.346-5.349,0.994-7.867c0.702-2.81,1.794-5.467,3.221-7.921c2.669-4.679,6.517-8.602,11.119-11.379&#10;&#9;&#9;&#9;&#9;&#9;c2.475-1.491,5.154-2.658,8.008-3.425c2.669-0.745,5.479-1.135,8.386-1.135c2.724,0,5.37,0.345,7.888,0.994&#10;&#9;&#9;&#9;&#9;&#9;c2.691,0.681,5.23,1.708,7.598,3.048c5.003,2.787,9.174,6.916,12.026,11.897c1.341,2.301,2.389,4.798,3.091,7.424&#10;&#9;&#9;&#9;&#9;&#9;c0.735,2.658,1.124,5.469,1.124,8.364c0,2.906-0.389,5.715-1.134,8.385c-0.736,2.733-1.838,5.317-3.254,7.705&#10;&#9;&#9;&#9;&#9;&#9;c-2.853,4.841-6.948,8.851-11.854,11.595C220.472,184.053,217.911,185.091,215.221,185.771z" id="B1UBZBYloAz"/>
			</g>
			<path d="M179.871,139.248c-1.17,2.46-2.07,5.11-2.65,7.92c-0.53,2.52-0.81,5.16-0.81,7.87v0.15h-48.84v-11.84&#10;&#9;&#9;&#9;&#9;L179.871,139.248z" id="H1vSbSYljCG"/>
			<path d="M291.83,143.348v11.84h-53.439v-0.15c0-2.89-0.33-5.7-0.95-8.36c-0.59-2.63-1.47-5.13-2.6-7.43&#10;&#9;&#9;&#9;&#9;L291.83,143.348z" id="rydSZBFls0M"/>
			<path d="M222.839,81.848v45.505c-2.367-1.34-4.906-2.367-7.598-3.048c-2.518-0.649-5.164-0.994-7.888-0.994&#10;&#9;&#9;&#9;&#9;c-2.907,0-5.717,0.39-8.386,1.135c-2.854,0.767-5.533,1.934-8.008,3.425V81.848H222.839z" id="H1KSWStgjCM"/>
			<path d="M222.839,182.724v45.808H190.96v-46.337c2.475,1.502,5.177,2.669,8.029,3.448&#10;&#9;&#9;&#9;&#9;c2.658,0.724,5.468,1.112,8.364,1.112c2.712,0,5.349-0.335,7.867-0.983C217.911,185.091,220.472,184.053,222.839,182.724z" id="r15B-BtejRf"/>
			<path d="M198.989,185.643l-24.757,24.756l-7.931,7.932l-22.532-22.541l9.045-9.045l11.12-11.12l4.495-4.496&#10;&#9;&#9;&#9;&#9;l8.191-8.202c0.746,2.918,1.891,5.673,3.394,8.202c2.669,4.539,6.451,8.353,10.946,11.066&#10;&#9;&#9;&#9;&#9;C193.435,183.697,196.137,184.864,198.989,185.643z" id="rkjSZBYgsRz"/>
			<path d="M270.029,114.603l-10.644,10.644l-21.43,21.429c-0.702-2.625-1.75-5.123-3.091-7.424&#10;&#9;&#9;&#9;&#9;c-2.853-4.982-7.023-9.11-12.026-11.897c-2.367-1.34-4.906-2.367-7.598-3.048l7.598-7.597l12.881-12.881l11.768-11.768&#10;&#9;&#9;&#9;&#9;L270.029,114.603z" id="H12HWSYgoRf"/>
			<path d="M198.968,124.446c-2.854,0.767-5.533,1.934-8.008,3.425c-4.603,2.778-8.45,6.7-11.119,11.379&#10;&#9;&#9;&#9;&#9;c-1.427,2.454-2.519,5.111-3.221,7.921l-32.851-32.85l22.532-22.543l21.904,21.905l2.755,2.755L198.968,124.446z" id="SJ6HbrFgoRf"/>
			<path d="M270.029,195.508l-22.542,22.541l-7.186-7.187l-17.463-17.462l-7.618-7.629&#10;&#9;&#9;&#9;&#9;c2.69-0.681,5.251-1.718,7.618-3.048c4.905-2.744,9.001-6.754,11.854-11.595c1.416-2.388,2.518-4.971,3.254-7.705l7.704,7.705&#10;&#9;&#9;&#9;&#9;l5.058,5.058L270.029,195.508z" id="Hy0HZBKxoCG"/>
			<path d="M291.83,154.188v11.85l-57.14,4.09c1.2-2.39,2.13-4.97,2.75-7.7c0.61-2.62,0.94-5.38,0.95-8.24H291.83z" id="S11LWStlo0M"/>
			<path d="M180.01,170.127l-52.44-4.09v-11.85h48.84c0.01,2.67,0.29,5.26,0.81,7.74&#10;&#9;&#9;&#9;&#9;C177.84,164.848,178.78,167.598,180.01,170.127z" id="BJl8WBFejRz"/>
		</g>
		<path d="M249.855,140.698c-0.523-1.337-1.131-2.634-1.788-3.9c-4.785-9.209-12.657-16.565-22.246-20.681&#10;&#9;&#9;&#9;c-1.019-0.442-2.059-0.845-3.118-1.204c-4.59-1.585-9.519-2.439-14.652-2.439c-5.525,0-10.813,0.988-15.702,2.819&#10;&#9;&#9;&#9;c-0.886,0.32-1.759,0.68-2.623,1.061c-9.518,4.24-17.298,11.679-21.968,20.95c-0.557,1.101-1.071,2.243-1.523,3.396&#10;&#9;&#9;&#9;c-2.11,5.206-3.262,10.886-3.262,16.844c0,4.702,0.72,9.239,2.058,13.51c0.462,1.461,0.988,2.891,1.584,4.28&#10;&#9;&#9;&#9;c4.126,9.59,11.473,17.452,20.682,22.235c1.625,0.854,3.313,1.596,5.052,2.232c4.889,1.833,10.177,2.82,15.702,2.82&#10;&#9;&#9;&#9;c5.134,0,10.062-0.854,14.652-2.438c1.924-0.659,3.786-1.441,5.577-2.347c9.281-4.671,16.72-12.449,20.96-21.967&#10;&#9;&#9;&#9;c0.698-1.564,1.305-3.169,1.82-4.816c1.338-4.271,2.059-8.808,2.059-13.51C253.119,151.584,251.967,145.903,249.855,140.698z&#10;&#9;&#9;&#9; M222.703,182.091c-2.254,1.267-4.692,2.254-7.254,2.902c-2.397,0.617-4.909,0.937-7.492,0.937c-2.757,0-5.432-0.37-7.963-1.059&#10;&#9;&#9;&#9;c-2.717-0.741-5.288-1.853-7.646-3.283c-4.279-2.583-7.882-6.214-10.422-10.536c-1.431-2.407-2.521-5.032-3.231-7.81&#10;&#9;&#9;&#9;c-0.618-2.409-0.947-4.919-0.947-7.511c0-2.583,0.33-5.094,0.947-7.492c0.669-2.675,1.708-5.205,3.066-7.542&#10;&#9;&#9;&#9;c2.542-4.456,6.206-8.19,10.588-10.835c2.357-1.42,4.907-2.531,7.624-3.262c2.543-0.709,5.218-1.08,7.984-1.08&#10;&#9;&#9;&#9;c2.595,0,5.115,0.329,7.512,0.947c2.563,0.648,4.98,1.626,7.234,2.902c4.764,2.654,8.736,6.585,11.452,11.329&#10;&#9;&#9;&#9;c1.276,2.191,2.274,4.569,2.943,7.069c0.698,2.531,1.07,5.207,1.07,7.964c0,2.767-0.372,5.441-1.08,7.984&#10;&#9;&#9;&#9;c-0.702,2.603-1.751,5.062-3.099,7.336C231.273,175.661,227.374,179.479,222.703,182.091z" id="BybIWBYeiAf"/>
	</g>
	<path d="M94.9,161.557c0-2.622-1.548-4.748-3.457-4.748H71.913c-1.909,0-3.457,2.125-3.457,4.748l0,0&#10;&#9;&#9;c0,2.623,1.548,4.748,3.457,4.748h19.531C93.353,166.305,94.9,164.18,94.9,161.557L94.9,161.557z" id="HyfIWrtgjCz"/>
	<path d="M353.428,161.385c0-2.622-1.548-4.748-3.457-4.748h-19.53c-1.909,0-3.456,2.125-3.456,4.748l0,0&#10;&#9;&#9;c0,2.623,1.547,4.748,3.456,4.748h19.53C351.88,166.133,353.428,164.008,353.428,161.385L353.428,161.385z" id="BJQLWSYeoAM"/>
</g></g>
<g display="none" id="H1NLbStxiAG">
	<path display="inline" d="M73.586,137.988c0,0-1.66-7.33-7-6.66c-5.33,0.66-17.33-0.05-17.33-0.05&#10;&#9;&#9;s-5.67-0.62-7.67,3.71v42.34c0,0,0.34,5.33,12.34,5.66c12,0.34,14.33,0,14.33,0s7-3.33,6.67-8.33&#10;&#9;&#9;C74.586,169.658,73.586,137.988,73.586,137.988z M63.576,175.018c0,0-1.23,0.22-7.57,0c-6.34-0.21-6.52-3.71-6.52-3.71v-27.73&#10;&#9;&#9;c1.06-2.84,4.05-2.44,4.05-2.44s6.34,0.47,9.16,0.03c2.82-0.43,3.7,4.37,3.7,4.37s0.52,20.75,0.7,24.02&#10;&#9;&#9;C67.276,172.838,63.576,175.018,63.576,175.018z" id="SyrU-BtgsAG"/>
	<path display="inline" d="M74.92,201.654c0,0-1.66-7.33-7-6.66c-5.33,0.66-17.33-0.05-17.33-0.05&#10;&#9;&#9;s-5.67-0.62-7.67,3.71v42.34c0,0,0.34,5.33,12.34,5.66c12,0.34,14.33,0,14.33,0s7-3.33,6.67-8.33&#10;&#9;&#9;C75.92,233.324,74.92,201.654,74.92,201.654z M64.91,238.684c0,0-1.23,0.22-7.57,0c-6.34-0.21-6.52-3.71-6.52-3.71v-27.73&#10;&#9;&#9;c1.06-2.84,4.05-2.44,4.05-2.44s6.34,0.47,9.16,0.03c2.82-0.43,3.7,4.37,3.7,4.37s0.52,20.75,0.7,24.02&#10;&#9;&#9;C68.61,236.504,64.91,238.684,64.91,238.684z" id="rk8U-SFgoAM"/>
	<path display="inline" d="M75.253,323.967c0,0-1.66-7.33-7-6.66c-5.33,0.66-17.33-0.05-17.33-0.05&#10;&#9;&#9;s-5.67-0.62-7.67,3.71v42.34c0,0,0.34,5.33,12.34,5.66c12,0.34,14.33,0,14.33,0s7-3.33,6.67-8.33&#10;&#9;&#9;C76.253,355.637,75.253,323.967,75.253,323.967z M65.243,360.997c0,0-1.23,0.22-7.57,0c-6.34-0.211-6.52-3.711-6.52-3.711v-27.729&#10;&#9;&#9;c1.06-2.84,4.05-2.44,4.05-2.44s6.34,0.471,9.16,0.03c2.82-0.43,3.7,4.37,3.7,4.37s0.52,20.75,0.7,24.02&#10;&#9;&#9;C68.943,358.817,65.243,360.997,65.243,360.997z" id="SJDLbBFxjAM"/>
	<path display="inline" d="M75.92,385.052c0,0-1.66-7.33-7-6.66c-5.33,0.66-17.33-0.049-17.33-0.049&#10;&#9;&#9;s-5.67-0.621-7.67,3.709v42.34c0,0,0.34,5.33,12.34,5.66c12,0.34,14.33,0,14.33,0s7-3.33,6.67-8.33&#10;&#9;&#9;C76.92,416.722,75.92,385.052,75.92,385.052z M65.91,422.082c0,0-1.23,0.22-7.57,0c-6.34-0.21-6.52-3.71-6.52-3.71v-27.73&#10;&#9;&#9;c1.06-2.84,4.05-2.439,4.05-2.439s6.34,0.471,9.16,0.029c2.82-0.43,3.7,4.371,3.7,4.371s0.52,20.75,0.7,24.02&#10;&#9;&#9;C69.61,419.902,65.91,422.082,65.91,422.082z" id="Hy_8bStljCz"/>
	<path display="inline" d="M54.003,417.39c0,0-2.333,4.127-2.667,7.128s0,24.386,0,24.386s1.666,6.002,4.333,5.628&#10;&#9;&#9;c2.667-0.375,12,0.017,12,0.017s2.333-2.643,2.333-3.768c0-1.126,0-28.889,0-28.889s-2.667-2.627-4-3.002&#10;&#9;&#9;S54.003,417.39,54.003,417.39z" id="BkKUZrYlsRz"/>
	<path display="inline" d="M53.336,356.304c0,0-2.333,4.127-2.667,7.129c-0.333,3,0,24.385,0,24.385&#10;&#9;&#9;s1.666,6.003,4.333,5.629c2.667-0.375,12,0.017,12,0.017s2.333-2.644,2.333-3.769s0-28.889,0-28.889s-2.667-2.626-4-3.001&#10;&#9;&#9;C64.003,357.429,53.336,356.304,53.336,356.304z" id="S1qUZrYlj0f"/>
	<path display="inline" d="M75.586,262.739c0,0-1.66-7.33-7-6.66c-5.33,0.66-17.33-0.049-17.33-0.049&#10;&#9;&#9;s-5.67-0.621-7.67,3.709v42.34c0,0,0.34,5.33,12.34,5.66c12,0.34,14.33,0,14.33,0s7-3.33,6.67-8.33&#10;&#9;&#9;C76.586,294.409,75.586,262.739,75.586,262.739z M65.576,299.77c0,0-1.23,0.22-7.57,0c-6.34-0.21-6.52-3.71-6.52-3.71v-27.73&#10;&#9;&#9;c1.06-2.84,4.05-2.439,4.05-2.439s6.34,0.471,9.16,0.029c2.82-0.43,3.7,4.371,3.7,4.371s0.52,20.75,0.7,24.02&#10;&#9;&#9;C69.276,297.59,65.576,299.77,65.576,299.77z" id="rJo8-HFgj0f"/>
	<path display="inline" d="M53.669,295.077c0,0-2.333,4.127-2.667,7.128s0,24.386,0,24.386s1.666,6.002,4.333,5.628&#10;&#9;&#9;c2.667-0.375,12,0.017,12,0.017s2.333-2.643,2.333-3.768c0-1.126,0-28.889,0-28.889s-2.667-2.627-4-3.002&#10;&#9;&#9;S53.669,295.077,53.669,295.077z" id="rk2UZrtljCf"/>
	<path display="inline" d="M53.003,233.991c0,0-2.333,4.127-2.667,7.129c-0.333,3,0,24.385,0,24.385&#10;&#9;&#9;s1.666,6.003,4.333,5.629c2.667-0.375,12,0.017,12,0.017s2.333-2.644,2.333-3.769s0-28.889,0-28.889s-2.667-2.626-4-3.001&#10;&#9;&#9;C63.669,235.117,53.003,233.991,53.003,233.991z" id="H1TIZHKgsAz"/>
	<path display="inline" d="M51.669,170.325c0,0-2.333,4.127-2.667,7.128s0,24.386,0,24.386s1.666,6.002,4.333,5.628&#10;&#9;&#9;c2.667-0.375,12,0.017,12,0.017s2.333-2.643,2.333-3.769s0-28.889,0-28.889s-2.667-2.626-4-3.001&#10;&#9;&#9;C62.336,171.45,51.669,170.325,51.669,170.325z" id="B1AIWStgo0G"/>
</g>
<g display="none" id="ByJwWBtxoAf">
	<path display="inline" d="M371.084,137.988c0,0-1.66-7.33-7-6.66c-5.33,0.66-17.33-0.05-17.33-0.05&#10;&#9;&#9;s-5.67-0.62-7.67,3.71v42.34c0,0,0.34,5.33,12.34,5.66c12,0.34,14.33,0,14.33,0s7-3.33,6.67-8.33&#10;&#9;&#9;C372.084,169.658,371.084,137.988,371.084,137.988z M361.074,175.018c0,0-1.23,0.22-7.57,0c-6.34-0.21-6.52-3.71-6.52-3.71v-27.73&#10;&#9;&#9;c1.061-2.84,4.05-2.44,4.05-2.44s6.341,0.47,9.16,0.03c2.819-0.43,3.7,4.37,3.7,4.37s0.52,20.75,0.699,24.02&#10;&#9;&#9;C364.774,172.838,361.074,175.018,361.074,175.018z" id="HJgvbHYliAG"/>
	<path display="inline" d="M372.418,201.654c0,0-1.66-7.33-7-6.66c-5.33,0.66-17.33-0.05-17.33-0.05&#10;&#9;&#9;s-5.67-0.62-7.67,3.71v42.339c0,0,0.34,5.33,12.34,5.66c12,0.34,14.33,0,14.33,0s7-3.33,6.67-8.33&#10;&#9;&#9;C373.418,233.324,372.418,201.654,372.418,201.654z M362.408,238.685c0,0-1.23,0.219-7.57,0c-6.34-0.211-6.52-3.71-6.52-3.71&#10;&#9;&#9;v-27.73c1.06-2.84,4.049-2.44,4.049-2.44s6.341,0.47,9.16,0.03c2.82-0.43,3.701,4.37,3.701,4.37s0.52,20.75,0.699,24.02&#10;&#9;&#9;C366.107,236.504,362.408,238.685,362.408,238.685z" id="HkZvZHYesCz"/>
	<path display="inline" d="M372.752,323.966c0,0-1.66-7.33-7-6.66c-5.33,0.66-17.33-0.049-17.33-0.049&#10;&#9;&#9;s-5.67-0.621-7.67,3.709v42.34c0,0,0.34,5.33,12.34,5.66c12,0.34,14.33,0,14.33,0s7-3.33,6.67-8.33&#10;&#9;&#9;C373.752,355.636,372.752,323.966,372.752,323.966z M362.741,360.997c0,0-1.229,0.219-7.569,0c-6.34-0.211-6.521-3.711-6.521-3.711&#10;&#9;&#9;v-27.73c1.06-2.84,4.05-2.439,4.05-2.439s6.34,0.471,9.16,0.029c2.82-0.43,3.7,4.371,3.7,4.371s0.521,20.75,0.7,24.02&#10;&#9;&#9;C366.441,358.817,362.741,360.997,362.741,360.997z" id="HkMPbStgiRG"/>
	<path display="inline" d="M373.418,385.052c0,0-1.66-7.33-7-6.66c-5.33,0.66-17.33-0.049-17.33-0.049&#10;&#9;&#9;s-5.67-0.621-7.67,3.709v42.34c0,0,0.34,5.33,12.34,5.66c12,0.34,14.33,0,14.33,0s7-3.33,6.67-8.33&#10;&#9;&#9;C374.418,416.722,373.418,385.052,373.418,385.052z M363.408,422.081c0,0-1.23,0.221-7.57,0c-6.34-0.209-6.52-3.709-6.52-3.709&#10;&#9;&#9;v-27.73c1.06-2.84,4.049-2.439,4.049-2.439s6.341,0.471,9.16,0.029c2.82-0.43,3.701,4.371,3.701,4.371s0.52,20.75,0.699,24.02&#10;&#9;&#9;C367.107,419.901,363.408,422.081,363.408,422.081z" id="r1mwWrKljCz"/>
	<path display="inline" d="M351.501,417.39c0,0-2.333,4.127-2.667,7.127c-0.333,3.002,0,24.387,0,24.387&#10;&#9;&#9;s1.666,6.002,4.334,5.627c2.666-0.375,12,0.018,12,0.018s2.333-2.643,2.333-3.768c0-1.127,0-28.889,0-28.889s-2.667-2.627-4-3.002&#10;&#9;&#9;S351.501,417.39,351.501,417.39z" id="SyEw-StxsRM"/>
	<path display="inline" d="M350.834,356.304c0,0-2.332,4.127-2.666,7.129c-0.334,3,0,24.385,0,24.385&#10;&#9;&#9;s1.666,6.002,4.333,5.629c2.667-0.375,12,0.016,12,0.016s2.333-2.643,2.333-3.768s0-28.889,0-28.889s-2.666-2.627-4-3.002&#10;&#9;&#9;C361.501,357.429,350.834,356.304,350.834,356.304z" id="HyrPbBtlsAf"/>
	<path display="inline" d="M373.084,262.739c0,0-1.66-7.33-7-6.66c-5.33,0.66-17.33-0.049-17.33-0.049&#10;&#9;&#9;s-5.67-0.621-7.67,3.709v42.34c0,0,0.34,5.33,12.34,5.66c12,0.34,14.33,0,14.33,0s7-3.33,6.67-8.33&#10;&#9;&#9;C374.084,294.409,373.084,262.739,373.084,262.739z M363.074,299.769c0,0-1.23,0.221-7.57,0c-6.34-0.209-6.52-3.709-6.52-3.709&#10;&#9;&#9;v-27.73c1.061-2.84,4.05-2.439,4.05-2.439s6.341,0.471,9.16,0.029c2.819-0.43,3.7,4.371,3.7,4.371s0.52,20.75,0.699,24.02&#10;&#9;&#9;C366.774,297.589,363.074,299.769,363.074,299.769z" id="H1LP-HYgsCf"/>
	<path display="inline" d="M351.168,295.077c0,0-2.334,4.127-2.667,7.127c-0.333,3.002,0,24.387,0,24.387&#10;&#9;&#9;s1.666,6.002,4.333,5.627s12,0.018,12,0.018s2.334-2.643,2.334-3.768c0-1.127,0-28.889,0-28.889s-2.667-2.627-4-3.002&#10;&#9;&#9;C361.834,296.202,351.168,295.077,351.168,295.077z" id="SJwPZBFgjAG"/>
	<path display="inline" d="M350.501,233.991c0,0-2.333,4.127-2.667,7.129c-0.333,3,0,24.385,0,24.385&#10;&#9;&#9;s1.666,6.002,4.334,5.629c2.666-0.375,12,0.016,12,0.016s2.333-2.643,2.333-3.768s0-28.889,0-28.889s-2.667-2.626-4-3.001&#10;&#9;&#9;C361.168,235.117,350.501,233.991,350.501,233.991z" id="SJODbSFxjRG"/>
	<path display="inline" d="M349.168,170.325c0,0-2.334,4.127-2.667,7.128s0,24.386,0,24.386s1.666,6.002,4.333,5.628&#10;&#9;&#9;c2.667-0.375,12,0.017,12,0.017s2.334-2.643,2.334-3.769s0-28.889,0-28.889s-2.667-2.626-4-3.001&#10;&#9;&#9;C359.834,171.45,349.168,170.325,349.168,170.325z" id="BkFwbrYejRM"/>
</g>
<script>(function(){var a=document.querySelector('#ryWBFxiRf'),b=a.querySelectorAll('style'),c=function(d){b.forEach(function(f){var g=f.textContent;g&amp;&amp;(f.textContent=g.replace(/transform-box:[^;\r\n]*/gi,'transform-box: '+d))})};c('initial'),window.requestAnimationFrame(function(){return c('fill-box')})})();</script></svg>