<svg version="1.1" id="rJrtJEjAz" xmlns="http://www.w3.org/2000/svg" xmlns:xlink="http://www.w3.org/1999/xlink" x="0px" y="0px" viewBox="0 0 418 586" enable-background="new 0 0 418.479 586.471" xml:space="preserve"><style>@-webkit-keyframes H1ilHtk4i0G_rkG-G4i0M_Animation{0%{-webkit-transform: rotate(0deg);transform: rotate(0deg);}100%{-webkit-transform: rotate(0deg);transform: rotate(0deg);}}@keyframes H1ilHtk4i0G_rkG-G4i0M_Animation{0%{-webkit-transform: rotate(0deg);transform: rotate(0deg);}100%{-webkit-transform: rotate(0deg);transform: rotate(0deg);}}@-webkit-keyframes S1XrKy4j0f_Animation{0%{opacity: 0.3;}12.29%{opacity: 0.6;}24.79%{opacity: 0.3;}36.88%{opacity: 0.8;}49.79%{opacity: 0.3;}62.50%{opacity: 0.5;}75%{opacity: 0.3;}87.29%{opacity: 0.3;}100%{opacity: 0.3;}}@keyframes S1XrKy4j0f_Animation{0%{opacity: 0.3;}12.29%{opacity: 0.6;}24.79%{opacity: 0.3;}36.88%{opacity: 0.8;}49.79%{opacity: 0.3;}62.50%{opacity: 0.5;}75%{opacity: 0.3;}87.29%{opacity: 0.3;}100%{opacity: 0.3;}}@-webkit-keyframes H1VrKkEsRM_Animation{0%{opacity: 0.2;}12.71%{opacity: 0.7;}24.79%{opacity: 0.1;}37.08%{opacity: 0.4;}50%{opacity: 0.1;}62.29%{opacity: 0.4;}74.79%{opacity: 0.2;}87.29%{opacity: 0.5;}99.79%{opacity: 0.2;}100%{opacity: 0.2;}}@keyframes H1VrKkEsRM_Animation{0%{opacity: 0.2;}12.71%{opacity: 0.7;}24.79%{opacity: 0.1;}37.08%{opacity: 0.4;}50%{opacity: 0.1;}62.29%{opacity: 0.4;}74.79%{opacity: 0.2;}87.29%{opacity: 0.5;}99.79%{opacity: 0.2;}100%{opacity: 0.2;}}@-webkit-keyframes rkIBYJEjRz_Animation{0%{opacity: 1;}12.50%{opacity: 0.8;}25%{opacity: 1;}37.29%{opacity: 0.6;}50.63%{opacity: 1;}62.29%{opacity: 0.6;}75.42%{opacity: 1;}86.88%{opacity: 0.5;}100%{opacity: 1;}}@keyframes rkIBYJEjRz_Animation{0%{opacity: 1;}12.50%{opacity: 0.8;}25%{opacity: 1;}37.29%{opacity: 0.6;}50.63%{opacity: 1;}62.29%{opacity: 0.6;}75.42%{opacity: 1;}86.88%{opacity: 0.5;}100%{opacity: 1;}}@-webkit-keyframes rkIBYJEjRz_ryzZg4jRG_Animation{0%{-webkit-transform: translate(0px, 0px);transform: translate(0px, 0px);}12.50%{-webkit-transform: translate(0px, -40px);transform: translate(0px, -40px);}24.79%{-webkit-transform: translate(0px, 0px);transform: translate(0px, 0px);}37.50%{-webkit-transform: translate(0px, -40px);transform: translate(0px, -40px);}50%{-webkit-transform: translate(0px, 0px);transform: translate(0px, 0px);}62.50%{-webkit-transform: translate(0px, -40px);transform: translate(0px, -40px);}75%{-webkit-transform: translate(0px, 0px);transform: translate(0px, 0px);}87.29%{-webkit-transform: translate(0px, -40px);transform: translate(0px, -40px);}100%{-webkit-transform: translate(0px, 0px);transform: translate(0px, 0px);}}@keyframes rkIBYJEjRz_ryzZg4jRG_Animation{0%{-webkit-transform: translate(0px, 0px);transform: translate(0px, 0px);}12.50%{-webkit-transform: translate(0px, -40px);transform: translate(0px, -40px);}24.79%{-webkit-transform: translate(0px, 0px);transform: translate(0px, 0px);}37.50%{-webkit-transform: translate(0px, -40px);transform: translate(0px, -40px);}50%{-webkit-transform: translate(0px, 0px);transform: translate(0px, 0px);}62.50%{-webkit-transform: translate(0px, -40px);transform: translate(0px, -40px);}75%{-webkit-transform: translate(0px, 0px);transform: translate(0px, 0px);}87.29%{-webkit-transform: translate(0px, -40px);transform: translate(0px, -40px);}100%{-webkit-transform: translate(0px, 0px);transform: translate(0px, 0px);}}@-webkit-keyframes r19lHYkViAG_Hy92JNiCG_Animation{0%{-webkit-transform: rotate(0deg);transform: rotate(0deg);}50%{-webkit-transform: rotate(180deg);transform: rotate(180deg);}100%{-webkit-transform: rotate(360deg);transform: rotate(360deg);}}@keyframes r19lHYkViAG_Hy92JNiCG_Animation{0%{-webkit-transform: rotate(0deg);transform: rotate(0deg);}50%{-webkit-transform: rotate(180deg);transform: rotate(180deg);}100%{-webkit-transform: rotate(360deg);transform: rotate(360deg);}}#rJrtJEjAz *{-webkit-animation-duration: 16s;animation-duration: 16s;-webkit-animation-timing-function: cubic-bezier(0, 0, 1, 1);animation-timing-function: cubic-bezier(0, 0, 1, 1);}#rJerYJVjAz{fill: #CCB0A3;}#B1-HKkViAz{fill: #937B74;}#r1MHtk4sRf{fill: #997056;}#S1XrKy4j0f{opacity: 0.3;fill: #E3D188;-webkit-animation-name: S1XrKy4j0f_Animation;animation-name: S1XrKy4j0f_Animation;-webkit-transform-origin: 50% 50%;transform-origin: 50% 50%;transform-box: fill-box;}#H1VrKkEsRM{opacity: 0.2;fill: #E8CB4E;-webkit-animation-name: H1VrKkEsRM_Animation;animation-name: H1VrKkEsRM_Animation;-webkit-transform-origin: 50% 50%;transform-origin: 50% 50%;transform-box: fill-box;}#BkSSt1EjAM{fill: #302D21;}#HJDBY14iCz{opacity: 0.8;fill: #448599;}#HyOSFJ4sAz{opacity: 0.8;fill: #3F7C89;}#ByYBKyEsCG{opacity: 0.8;fill: #448599;}#SJ5SFJEoAM{opacity: 0.8;fill: #3F7C89;}#rkirKkVo0z{opacity: 0.8;fill: #448599;}#H12SKk4j0G{opacity: 0.8;fill: #3F7C89;}#ByCBtyNoCG{opacity: 0.8;fill: #5D97A5;}#SkylSty4oAG{opacity: 0.8;fill: #3F7C89;}#ByxeBYyNjRz{opacity: 0.8;fill: #448599;}#BJ-eBFkEiRf{opacity: 0.8;fill: #3F7C89;}#ByGxBK14o0G{fill: #5D97A5;}#SJ4gHYk4j0f{fill: #8D2D1F;}#rJHxBYyEoCG{fill: #9A2D22;}#S1UxStyEoRf{fill: #AE3A2E;}#HkPeHt1EjCM{fill: #7A2D19;}#BJuxHYkVoRG{fill: #937B74;}#H1FgHKkNiRf{fill: #5B3E2B;}#r12lSFyVjCM{fill: #997056;}#BkplrF1NiAz{fill: #82583C;}#BJ0gSYJVs0G{fill: #997056;}#S1kWSFJ4sCf{fill: #82583C;}#B1X-rty4jAf{fill: #B69A8B;}#BJNZSFJ4i0f{fill: #A07768;}#rJB-HY1VjCz{fill: #A07768;}#SJ8-BYJ4iCf{fill: #B69A8B;}#B1w-St1EsAz{fill: #A07768;}#HJ_WBFkVoAz{fill: #A07768;}#SyY-SYyVo0M{fill: #B69A8B;}#HJ5WHtkViAG{fill: #B69A8B;}#ryj-SY1No0G{fill: #B69A8B;}#Sy2-HYJ4o0f{fill: #B69A8B;}#rkTZSK1ViCG{fill: #B69A8B;}#r1RbBt14iRG{fill: #A07768;}#rkyGrF1VoRf{fill: #A07768;}#B1gzSFJEoAz{fill: #B69A8B;}#S1WzrKJ4oAf{fill: #A07768;}#HyzGHKy4iCz{fill: #A07768;}#BkXGBYyNj0z{fill: #B69A8B;}#SkNMBK14sAM{fill: #785C52;}#SJIzBFkEsRM{fill: #897F79;}#B1vfBFJ4iCf{fill: #897F79;}#S1OGrYyNs0G{fill: #897F79;}#SkKMrKJNiRz{fill: #897F79;}#BkcMHty4s0z{fill: #7A716D;}#rJozHKkEsAM{fill: #7A716D;}#B1hzHKyNo0f{fill: #897F79;}#S1aMHKyNoRf{fill: #7A716D;}#SkCzrF14sCf{fill: #7A716D;}#H1JmBKJVs0G{fill: #7A716D;}#rJ-7BFkNo0f{fill: #897F79;}#rkM7SK1ViRG{fill: #897F79;}#Bk7XHtJ4sRz{fill: #897F79;}#ByVmStkVsCG{fill: #897F79;}#r1rXrK1EsCG{fill: #7A716D;}#Sk8mrF1NjRG{fill: #7A716D;}#rkDQrtJNsRG{fill: #897F79;}#ryuXHYkNsAG{fill: #7A716D;}#B1YQBFkEoRf{fill: #7A716D;}#S1cXBKJVsCG{fill: #7A716D;}#r19lHYkViAG_Hy92JNiCG{-webkit-animation-name: r19lHYkViAG_Hy92JNiCG_Animation;animation-name: r19lHYkViAG_Hy92JNiCG_Animation;-webkit-transform-origin: 50% 50%;transform-origin: 50% 50%;transform-box: fill-box;-webkit-transform: rotate(0deg);transform: rotate(0deg);}#rkIBYJEjRz_ryzZg4jRG{-webkit-animation-name: rkIBYJEjRz_ryzZg4jRG_Animation;animation-name: rkIBYJEjRz_ryzZg4jRG_Animation;-webkit-transform-origin: 50% 50%;transform-origin: 50% 50%;transform-box: fill-box;-webkit-transform: translate(0px, 0px);transform: translate(0px, 0px);-webkit-animation-timing-function: cubic-bezier(0.42, 0, 0.58, 1);animation-timing-function: cubic-bezier(0.42, 0, 0.58, 1);}#rkIBYJEjRz{-webkit-animation-name: rkIBYJEjRz_Animation;animation-name: rkIBYJEjRz_Animation;-webkit-transform-origin: 50% 50%;transform-origin: 50% 50%;transform-box: fill-box;opacity: 1;}#H1ilHtk4i0G_rkG-G4i0M{-webkit-animation-name: H1ilHtk4i0G_rkG-G4i0M_Animation;animation-name: H1ilHtk4i0G_rkG-G4i0M_Animation;-webkit-transform-origin: 50% 50%;transform-origin: 50% 50%;transform-box: fill-box;-webkit-transform: rotate(0deg);transform: rotate(0deg);}</style>
<path d="M210.512,296.908c-61.375,0-111.127,28.508-111.127,63.667c0,21.97,19.432,41.348,48.996,52.793&#10;&#9;l34.17-20.622c-25.042-8.481-60.146-19.924-60.146-37.589c0-26.794,38.523-48.51,86.045-48.51c47.523,0,86.046,21.716,86.046,48.51&#10;&#9;c0,17.341-35.773,28.097-60.052,36.671l37.032,21.979c30.214-11.375,50.161-30.97,50.161-53.232&#10;&#9;C321.638,325.416,271.885,296.908,210.512,296.908z" id="rJerYJVjAz"/>
<path d="M302.812,356.751c-0.688-22.566-22.132-41.975-52.964-51.118c-12.106-3.608-25.653-5.611-39.957-5.611&#10;&#9;c-14.308,0-27.851,2.003-39.959,5.611c-30.94,9.176-52.431,28.689-52.972,51.359C178.675,357.515,240.917,355.975,302.812,356.751z" id="B1-HKkViAz"/>
<path d="M262.521,355.527c-1.21,4.74-3.97,9.17-7.95,13.061c-0.14,0.14-0.28,0.27-0.42,0.399&#10;&#9;c-5.68,5.42-13.73,9.8-23.23,12.59c-7.38,2.17-15.63,3.38-24.35,3.38s-16.97-1.21-24.35-3.38c-10.6-3.109-19.38-8.189-25.07-14.479&#10;&#9;c-0.2-0.21-0.39-0.42-0.58-0.641c-2.77-3.189-4.76-6.68-5.79-10.369C187.96,356.037,225.271,355.537,262.521,355.527z" id="r1MHtk4sRf"/>
<path d="M290.005,275.397c-7.83,44.746-29.878,106.56-84.83,106.56s-76.679-56.159-86.274-100.56&#10;&#9;c-11.67-54,24.984-63.562,92.362-58.5C264.513,226.897,300.505,215.397,290.005,275.397z" id="S1XrKy4j0f"/>
<path d="M276.15,251.897l-12.93,98.16c0,6.81-3.17,13.17-8.65,18.53c-0.14,0.14-0.28,0.27-0.42,0.399&#10;&#9;c-5.68,5.42-13.73,9.8-23.23,12.59c-7.38,2.17-15.63,3.38-24.35,3.38s-16.97-1.21-24.35-3.38c-10.6-3.109-19.38-8.189-25.07-14.479&#10;&#9;c-0.2-0.21-0.39-0.42-0.58-0.641c-3.49-4.02-5.74-8.51-6.42-13.279v-0.021l-22.58-101.26l54.97,5.46l26.29-5.46l18.07,14.96&#10;&#9;L276.15,251.897z" id="H1VrKkEsRM"/>
<path d="M264.221,350.058c0,1.859-0.24,3.689-0.7,5.47c-1.21,4.74-3.97,9.17-7.95,13.061&#10;&#9;c-0.14,0.14-0.28,0.27-0.42,0.399c-5.68,5.42-13.73,9.8-23.23,12.59c-7.38,2.17-15.63,3.38-24.35,3.38s-16.97-1.21-24.35-3.38&#10;&#9;c-10.6-3.109-19.38-8.189-25.07-14.479c-0.2-0.21-0.39-0.42-0.58-0.641c-2.77-3.189-4.76-6.68-5.79-10.369&#10;&#9;c-0.28-0.96-0.49-1.931-0.63-2.91v-0.021c-0.16-1.02-0.23-2.05-0.23-3.1c0-5.93,2.4-11.51,6.65-16.4c0.19-0.22,0.38-0.43,0.58-0.64&#10;&#9;c5.69-6.29,14.47-11.37,25.07-14.48c0.13-0.04,0.27-0.08,0.4-0.109c7.28-2.101,15.39-3.271,23.95-3.271&#10;&#9;c6.93,0,13.561,0.76,19.69,2.17c1.59,0.36,3.14,0.771,4.659,1.21c9.5,2.79,17.551,7.17,23.23,12.591c0.14,0.13,0.28,0.26,0.42,0.399&#10;&#9;C261.051,336.888,264.221,343.247,264.221,350.058z" id="BkSSt1EjAM"/>
<g id="rkIBYJEjRz_ryzZg4jRG" data-animator-group="true" data-animator-type="0"><g id="rkIBYJEjRz">
	<polygon points="245.015,269.64 184.271,267.642 213.528,337.313 247.47,307.968 &#9;" id="HJDBY14iCz"/>
	<polygon points="223.751,292.691 213.528,337.313 247.47,307.968 245.015,269.64 &#9;" id="HyOSFJ4sAz"/>
	<polygon points="185.991,282.247 157.991,317.957 195.491,354.997 200.491,310.997 &#9;" id="ByYBKyEsCG"/>
	<polygon points="184.491,313.497 195.491,354.997 200.491,310.997 185.991,282.247 &#9;" id="SJ5SFJEoAM"/>
	<polygon points="230.499,348.415 205.482,324.763 192.265,365.545 217.444,365.731 &#9;" id="rkirKkVo0z"/>
	<polygon points="213.008,350.295 192.265,365.545 217.444,365.731 230.499,348.415 &#9;" id="H12SKk4j0G"/>
	<g id="rkaHtkNsRM">
		<polygon points="255.517,399.502 246.374,349.206 194.287,385.631 224.44,408.325 &#9;&#9;" id="ByCBtyNoCG"/>
		<polygon points="232.789,386.112 194.287,385.631 224.44,408.325 255.517,399.502 &#9;&#9;" id="SkylSty4oAG"/>
		<polygon points="169.345,380.916 198.303,380.802 182.687,348.299 167.246,362.796 &#9;&#9;" id="ByxeBYyNjRz"/>
		<polygon points="178.905,369.621 182.687,348.299 167.246,362.796 169.345,380.916 &#9;&#9;" id="BJ-eBFkEiRf"/>
	</g>
	<polygon points="232.789,386.112 246.374,349.206 255.517,399.502 &#9;" id="ByGxBK14o0G"/>
</g></g>
<g id="S1meHFkEjAf">
	<polygon points="300.9,242.897 263.221,284.897 206.57,294.897 146.561,284.897 112.4,244.397 161.291,183.138 &#10;&#9;&#9;178.371,194.917 232.681,194.917 252.46,180.467 &#9;" id="SJ4gHYk4j0f"/>
	<polygon points="263.221,284.897 206.57,294.897 207.721,194.917 232.681,194.917 &#9;" id="rJHxBYyEoCG"/>
	<polygon points="300.9,242.897 263.221,284.897 232.681,194.917 252.46,180.467 &#9;" id="S1UxStyEoRf"/>
	<polygon points="181.22,194.917 146.561,284.897 112.4,244.397 161.291,183.138 178.371,194.917 &#9;" id="HkPeHt1EjCM"/>
</g>
<path d="M302.841,356.867c0,23.04-21.65,42.931-52.99,52.221c-12.11,3.6-25.66,5.609-39.96,5.609&#10;&#9;c-14.311,0-27.85-2.01-39.96-5.609c-31.34-9.29-52.99-29.181-52.99-52.221c0-0.29,0.01-0.58,0.02-0.88&#10;&#9;c11.59,0.101,23.2,0.13,34.82,0.101c1.03,3.689,3.02,7.18,5.79,10.369c0.19,0.221,0.38,0.431,0.58,0.641&#10;&#9;c5.69,6.29,14.47,11.37,25.07,14.479c7.38,2.17,15.63,3.38,24.35,3.38s16.97-1.21,24.35-3.38c9.5-2.79,17.551-7.17,23.23-12.59&#10;&#9;c0.14-0.13,0.28-0.26,0.42-0.399c3.98-3.891,6.74-8.32,7.95-13.061c13.11,0,26.21,0.061,39.29,0.22&#10;&#9;C302.82,356.117,302.841,356.487,302.841,356.867z" id="BJuxHYkVoRG"/>
<ellipse cx="209.24" cy="154.31" rx="43.853" ry="42.955" id="H1FgHKkNiRf"/>
<g id="r19lHYkViAG_Hy92JNiCG" data-animator-group="true" data-animator-type="1"><g id="r19lHYkViAG">
	<g id="H1ilHtk4i0G_rkG-G4i0M" data-animator-group="true" data-animator-type="1"><g id="H1ilHtk4i0G">
		<polygon points="208.306,153.735 215.702,150.26 239.571,196.896 236.165,199.415 231.647,201.645 &#10;&#9;&#9;&#9;201.827,158.722 &#9;&#9;" id="r12lSFyVjCM"/>
		<polygon points="179.821,112.547 184.193,110.475 212.604,145.179 199.05,154.168 &#9;&#9;" id="BkplrF1NiAz"/>
		<polygon points="171.096,177.759 168.439,170.554 242.801,125.202 247.764,131 250.646,138.066 176.286,183.419 &#9;&#9;&#10;&#9;&#9;&#9;" id="BJ0gSYJVs0G"/>
		<polygon points="171.096,177.759 168.439,170.554 242.801,125.202 247.764,131 &#9;&#9;" id="S1kWSFJ4sCf"/>
	</g></g>
	<g id="ByeZHtkEoCG">
		<g id="BkWZSKkNsAz">
			<g id="ryfbBt14sRM">
				<path d="M167.831,197.965c3.996,3.397,8.381,6.229,13.021,8.462c1.921,0.93,3.892,1.752,5.888,2.472&#10;&#9;&#9;&#9;&#9;&#9;c6.141,2.204,12.604,3.439,19.123,3.627c2.113,0.064,4.225,0.018,6.346-0.136c4.546-0.33,9.083-1.173,13.535-2.546&#10;&#9;&#9;&#9;&#9;&#9;c4.799-1.471,9.482-3.568,13.966-6.302c4.936-3.011,9.288-6.602,13.042-10.638c3.02-3.247,5.651-6.776,7.857-10.527&#10;&#9;&#9;&#9;&#9;&#9;c1.026-1.701,1.945-3.45,2.779-5.239c2.71-5.767,4.509-11.925,5.331-18.237c0.312-2.393,0.488-4.804,0.517-7.225&#10;&#9;&#9;&#9;&#9;&#9;c0.062-4.861-0.449-9.765-1.583-14.592c-1.444-6.27-3.896-12.407-7.43-18.2c-2.224-3.644-4.773-6.976-7.582-9.983&#10;&#9;&#9;&#9;&#9;&#9;c-3.828-4.121-8.154-7.621-12.827-10.468c-0.271-0.175-0.553-0.346-0.828-0.506c-8.85-5.235-18.883-8.153-29.107-8.524&#10;&#9;&#9;&#9;&#9;&#9;c-0.219-0.006-0.443-0.021-0.666-0.011c-6.082-0.177-12.228,0.559-18.22,2.251c-5.308,1.489-10.493,3.717-15.428,6.727&#10;&#9;&#9;&#9;&#9;&#9;c-4.484,2.735-8.492,5.939-11.997,9.532c-4.515,4.614-8.206,9.852-11.003,15.496c-0.169,0.306-0.325,0.628-0.482,0.952&#10;&#9;&#9;&#9;&#9;&#9;c-4.487,9.37-6.549,19.791-5.944,30.206c0.002,0.024,0.01,0.057,0.002,0.087c0.344,5.752,1.497,11.503,3.505,17.077&#10;&#9;&#9;&#9;&#9;&#9;c1.388,3.875,3.182,7.667,5.404,11.311C158.583,188.82,162.917,193.81,167.831,197.965z M187.041,131.758&#10;&#9;&#9;&#9;&#9;&#9;c1.812-1.864,3.89-3.523,6.205-4.936c2.473-1.508,5.073-2.64,7.721-3.406c2.84-0.82,5.755-1.231,8.649-1.237&#10;&#9;&#9;&#9;&#9;&#9;c5.251-0.024,10.465,1.262,15.107,3.748c2.6,1.377,5.012,3.132,7.168,5.235c1.87,1.822,3.538,3.893,4.956,6.217&#10;&#9;&#9;&#9;&#9;&#9;c1.412,2.316,2.489,4.748,3.247,7.234c0.864,2.765,1.315,5.602,1.375,8.44c0.158,5.385-1.084,10.736-3.567,15.505&#10;&#9;&#9;&#9;&#9;&#9;c-1.336,2.561-3.017,4.952-5.054,7.093c-1.891,2.026-4.085,3.821-6.567,5.335c-2.326,1.418-4.765,2.501-7.252,3.258&#10;&#9;&#9;&#9;&#9;&#9;c-2.652,0.82-5.354,1.266-8.074,1.354c-5.723,0.225-11.433-1.127-16.462-3.895c-2.343-1.267-4.538-2.853-6.504-4.729&#10;&#9;&#9;&#9;&#9;&#9;c-2.012-1.886-3.807-4.084-5.315-6.556c-1.513-2.481-2.644-5.081-3.398-7.749c-0.794-2.717-1.199-5.497-1.234-8.272&#10;&#9;&#9;&#9;&#9;&#9;c-0.085-5.618,1.323-11.175,4.083-16.071C183.453,135.959,185.099,133.74,187.041,131.758z" id="B1X-rty4jAf"/>
			</g>
			<path d="M177.371,212.737c9.27,4.82,19.799,7.54,30.959,7.56l-2,8.27l-30.979-7.51L177.371,212.737z" id="BJNZSFJ4i0f"/>
			<path d="M260.87,206.217l-27.21,16.6l-3.68-6.03c10.33-3.46,19.54-9.36,26.97-17L260.87,206.217z" id="rJB-HY1VjCz"/>
			<path d="M256.95,199.788c-7.43,7.64-16.64,13.54-26.97,17l-4.23-6.94h-0.01l-8.33-13.67l-2.31-3.79l-4.15-6.79&#10;&#9;&#9;&#9;&#9;l-0.01-0.02c2.02-0.1,4.03-0.4,6.02-0.9h0.011c0.66-0.16,1.319-0.35,1.979-0.56c0.141-0.04,0.28-0.09,0.42-0.14&#10;&#9;&#9;&#9;&#9;c2.33-0.76,4.62-1.81,6.811-3.15c1.34-0.82,2.6-1.72,3.779-2.7c1-0.81,1.94-1.68,2.811-2.6c2.06-2.11,3.76-4.46,5.13-6.97&#10;&#9;&#9;&#9;&#9;l5.95,9.76h0.01l0.31,0.52l8.58,14.07L256.95,199.788z" id="SJ8-BYJ4iCf"/>
			<path d="M242.83,85.998l-1.81,7.45c-9.17-5.06-19.64-8.04-30.771-8.34l1.601-6.62L242.83,85.998z" id="B1w-St1EsAz"/>
			<path d="M182.76,79.188l5.47,8.97c-10.4,3.26-19.73,8.97-27.3,16.45l-5.38-8.82L182.76,79.188z" id="HJ_WBFkVoAz"/>
			<path d="M206.891,118.748c-1.63,0.01-3.26,0.14-4.891,0.41c-1.26,0.19-2.52,0.47-3.76,0.83&#10;&#9;&#9;&#9;&#9;c-1.609,0.46-3.21,1.07-4.78,1.81c-1,0.47-1.979,1-2.939,1.59c-1.521,0.94-2.94,1.97-4.25,3.11c-0.68,0.58-1.33,1.19-1.95,1.83&#10;&#9;&#9;&#9;&#9;c-0.59,0.6-1.14,1.21-1.67,1.85c-1.24,1.48-2.32,3.06-3.25,4.72l-3.95-6.48l-2.75-4.51l-9.52-15.6l-2.25-3.7&#10;&#9;&#9;&#9;&#9;c7.57-7.48,16.9-13.19,27.3-16.45l2.22,3.64l9.7,15.91l3.31,5.42L206.891,118.748z" id="SyY-SYyVo0M"/>
			<path d="M241.021,93.447l-1.21,4.98l-3.7,15.29l-0.66,2.74l-0.49,2.02h-0.01l-0.34,1.42l-2.29,9.49l-0.43,1.77&#10;&#9;&#9;&#9;&#9;c-2.16-2.1-4.57-3.85-7.17-5.23c-4.641-2.49-9.851-3.77-15.101-3.75c-2.899,0.01-5.81,0.42-8.649,1.24l1.029-4.26l1.46-6.03&#10;&#9;&#9;&#9;&#9;l1.45-5.99l4.3-17.75l1.04-4.28C221.381,85.407,231.851,88.388,241.021,93.447z" id="HJ5WHtkViAG"/>
			<path d="M217.07,184.248l-0.1,0.43h-0.011l-0.029,0.13l-1.83,7.58l-0.561,2.3l-0.51,2.09l-3.78,15.61l-0.029,0.12&#10;&#9;&#9;&#9;&#9;l-1.891,7.79c-11.16-0.02-21.689-2.74-30.959-7.56l1.53-6.31l0.21-0.87l3.84-15.86l0.41-1.68l1.69-7l0.84-3.46l0.14-0.58&#10;&#9;&#9;&#9;&#9;c0.11,0.1,0.21,0.2,0.32,0.3c1.88,1.74,3.97,3.23,6.189,4.43c4.931,2.71,10.511,4.07,16.12,3.9h0.05c0.101,0,0.19-0.01,0.29-0.01&#10;&#9;&#9;&#9;&#9;C211.721,185.507,214.42,185.067,217.07,184.248z" id="ryj-SY1No0G"/>
			<path d="M276.04,153.328c-0.1,11.15-2.899,21.66-7.79,30.9l-7.64-1.85l-12.97-3.14l-3.2-0.78l-0.58-0.14h-0.01&#10;&#9;&#9;&#9;&#9;l-11-2.67c2.04-2.14,3.72-4.53,5.05-7.09c2.49-4.77,3.73-10.12,3.57-15.51c-0.061-2.83-0.511-5.67-1.38-8.44l1.72,0.42l7.83,1.9&#10;&#9;&#9;&#9;&#9;l3.1,0.75l16.49,4L276.04,153.328z" id="Sy2-HYJ4o0f"/>
			<path d="M180.121,137.328c-2.76,4.9-4.16,10.45-4.08,16.07c0.04,2.78,0.44,5.56,1.24,8.27l-4-0.97l-2.78-0.67&#10;&#9;&#9;&#9;&#9;l-3.81-0.92l-3.49-0.85l-3.47-0.84l-13.61-3.3l-5.28-1.27v-0.16c0-11.11,2.68-21.6,7.43-30.85l2.29,0.56l2.24,0.54l17.51,4.24&#10;&#9;&#9;&#9;&#9;l4.26,1.03l0.88,0.21l7.2,1.76l2.39,0.58C183.101,132.737,181.45,134.958,180.121,137.328z" id="rkTZSK1ViCG"/>
			<path d="M272.841,132.078c-3.311-10.38-9.08-19.68-16.61-27.21l8.26-5.29l17.19,26.84L272.841,132.078z" id="r1RbBt14iRG"/>
			<path d="M285.25,155.558l-7.5,30.97l-9.5-2.3c4.891-9.24,7.69-19.75,7.79-30.9L285.25,155.558z" id="rkyGrF1VoRf"/>
			<path d="M272.841,132.078l-5.551,3.55l-11.699,7.49l-3.19,2.04l-0.09,0.06l-2.67,1.71l-6.87,4.39&#10;&#9;&#9;&#9;&#9;c-0.101-2.15-0.43-4.25-0.96-6.29c-0.11-0.45-0.24-0.9-0.38-1.34c-0.09-0.31-0.19-0.62-0.29-0.92c-0.71-2.11-1.65-4.13-2.78-6.03&#10;&#9;&#9;&#9;&#9;c-1.29-2.18-2.84-4.19-4.63-6c-0.42-0.44-0.87-0.86-1.32-1.27c-0.029-0.03-0.06-0.05-0.09-0.08c-2.07-1.89-4.4-3.5-6.96-4.77&#10;&#9;&#9;&#9;&#9;l9.59-6.14l1.681-1.07l14.979-9.59l4.62-2.95C263.761,112.397,269.53,121.697,272.841,132.078z" id="B1gzSFJEoAz"/>
			<path d="M161.91,201.737l-9.63,6.16l-16.45-25.69l9.25-5.91C148.71,186.038,154.51,194.708,161.91,201.737z" id="S1WzrKJ4oAf"/>
			<path d="M140.84,152.848l-7.66-1.86l7.51-30.99l7.58,1.84c-4.75,9.25-7.43,19.74-7.43,30.85V152.848z" id="HyzGHKy4iCz"/>
			<path d="M189.73,183.938l-6.37,4.07v0.01l-1.48,0.95l-14.06,8.99l-5.91,3.78c-7.4-7.03-13.2-15.7-16.83-25.44&#10;&#9;&#9;&#9;&#9;v-0.01l5.07-3.24l10.66-6.82l3.14-2.01l0.42-0.27l6.13-3.92l2.58-1.65c0.04,0.78,0.1,1.55,0.2,2.32&#10;&#9;&#9;&#9;&#9;c0.25,2.01,0.71,3.97,1.35,5.87c0.02,0.06,0.04,0.11,0.06,0.17c0.83,2.4,1.96,4.68,3.35,6.78c1.39,2.12,3.06,4.07,4.95,5.78&#10;&#9;&#9;&#9;&#9;c0.01,0.01,0.01,0.01,0.02,0.02c0.65,0.6,1.331,1.16,2.041,1.7C186.5,182.127,188.07,183.107,189.73,183.938z" id="BkXGBYyNj0z"/>
		</g>
		<path d="M180.942,188.273c1.143,0.87,2.337,1.66,3.558,2.398c8.879,5.371,19.431,7.552,29.761,6.074&#10;&#9;&#9;&#9;c1.1-0.154,2.197-0.351,3.289-0.596c4.744-1.036,9.396-2.874,13.779-5.546c4.718-2.878,8.717-6.475,11.938-10.583&#10;&#9;&#9;&#9;c0.59-0.734,1.148-1.496,1.688-2.27c5.918-8.576,8.687-18.978,7.846-29.325c-0.098-1.23-0.253-2.473-0.467-3.692&#10;&#9;&#9;&#9;c-0.909-5.543-2.884-10.993-5.985-16.079c-2.449-4.015-5.426-7.514-8.792-10.463c-1.155-1.007-2.349-1.954-3.581-2.828&#10;&#9;&#9;&#9;c-8.517-6.04-18.882-8.926-29.234-8.214c-1.832,0.117-3.66,0.363-5.476,0.724c-5.129,0.981-10.157,2.892-14.874,5.769&#10;&#9;&#9;&#9;c-4.383,2.673-8.146,5.969-11.24,9.711c-1.3,1.564-2.482,3.201-3.539,4.907c-5.492,8.82-7.792,19.334-6.457,29.668&#10;&#9;&#9;&#9;c0.219,1.699,0.537,3.385,0.954,5.06c1.082,4.342,2.829,8.591,5.277,12.605C172.487,180.678,176.429,184.928,180.942,188.273z&#10;&#9;&#9;&#9; M182.57,138.795c1.264-2.254,2.833-4.367,4.682-6.254c1.726-1.775,3.703-3.355,5.908-4.701c2.354-1.436,4.83-2.513,7.35-3.242&#10;&#9;&#9;&#9;c2.705-0.782,5.48-1.171,8.237-1.178c4.998-0.023,9.965,1.202,14.384,3.568c2.476,1.31,4.772,2.982,6.825,4.984&#10;&#9;&#9;&#9;c1.781,1.735,3.371,3.708,4.72,5.919c1.345,2.205,2.37,4.521,3.093,6.891c0.821,2.632,1.251,5.333,1.309,8.034&#10;&#9;&#9;&#9;c0.15,5.128-1.033,10.224-3.397,14.763c-1.272,2.44-2.871,4.717-4.811,6.755c-1.801,1.93-3.893,3.639-6.254,5.08&#10;&#9;&#9;&#9;c-2.215,1.351-4.538,2.383-6.906,3.103c-2.525,0.782-5.099,1.206-7.688,1.289c-5.448,0.215-10.887-1.072-15.676-3.708&#10;&#9;&#9;&#9;c-2.23-1.206-4.32-2.716-6.193-4.502c-1.914-1.796-3.625-3.888-5.062-6.243c-1.44-2.362-2.515-4.839-3.234-7.378&#10;&#9;&#9;&#9;c-0.756-2.587-1.141-5.233-1.175-7.877C178.601,148.749,179.942,143.458,182.57,138.795z" id="SkNMBK14sAM"/>
	</g>
</g></g>
<g display="none" id="H1HfBK14jCG">
	<path display="inline" d="M73.586,137.988c0,0-1.66-7.33-7-6.66c-5.33,0.66-17.33-0.05-17.33-0.05&#10;&#9;&#9;s-5.67-0.62-7.67,3.71v42.34c0,0,0.34,5.33,12.34,5.66c12,0.34,14.33,0,14.33,0s7-3.33,6.67-8.33&#10;&#9;&#9;C74.586,169.658,73.586,137.988,73.586,137.988z M63.576,175.018c0,0-1.23,0.22-7.57,0c-6.34-0.21-6.52-3.71-6.52-3.71v-27.73&#10;&#9;&#9;c1.06-2.84,4.05-2.44,4.05-2.44s6.34,0.47,9.16,0.03c2.82-0.43,3.7,4.37,3.7,4.37s0.52,20.75,0.7,24.02&#10;&#9;&#9;C67.276,172.838,63.576,175.018,63.576,175.018z" id="SJIzBFkEsRM"/>
	<path display="inline" d="M74.92,201.654c0,0-1.66-7.33-7-6.66c-5.33,0.66-17.33-0.05-17.33-0.05&#10;&#9;&#9;s-5.67-0.62-7.67,3.71v42.34c0,0,0.34,5.33,12.34,5.66c12,0.34,14.33,0,14.33,0s7-3.33,6.67-8.33&#10;&#9;&#9;C75.92,233.324,74.92,201.654,74.92,201.654z M64.91,238.684c0,0-1.23,0.22-7.57,0c-6.34-0.21-6.52-3.71-6.52-3.71v-27.73&#10;&#9;&#9;c1.06-2.84,4.05-2.44,4.05-2.44s6.34,0.47,9.16,0.03c2.82-0.43,3.7,4.37,3.7,4.37s0.52,20.75,0.7,24.02&#10;&#9;&#9;C68.61,236.504,64.91,238.684,64.91,238.684z" id="B1vfBFJ4iCf"/>
	<path display="inline" d="M75.253,323.967c0,0-1.66-7.33-7-6.66c-5.33,0.66-17.33-0.05-17.33-0.05&#10;&#9;&#9;s-5.67-0.62-7.67,3.71v42.34c0,0,0.34,5.33,12.34,5.66c12,0.34,14.33,0,14.33,0s7-3.33,6.67-8.33&#10;&#9;&#9;C76.253,355.637,75.253,323.967,75.253,323.967z M65.243,360.997c0,0-1.23,0.22-7.57,0c-6.34-0.211-6.52-3.711-6.52-3.711v-27.729&#10;&#9;&#9;c1.06-2.84,4.05-2.44,4.05-2.44s6.34,0.471,9.16,0.03c2.82-0.43,3.7,4.37,3.7,4.37s0.52,20.75,0.7,24.02&#10;&#9;&#9;C68.943,358.817,65.243,360.997,65.243,360.997z" id="S1OGrYyNs0G"/>
	<path display="inline" d="M75.92,385.052c0,0-1.66-7.33-7-6.66c-5.33,0.66-17.33-0.049-17.33-0.049&#10;&#9;&#9;s-5.67-0.621-7.67,3.709v42.34c0,0,0.34,5.33,12.34,5.66c12,0.34,14.33,0,14.33,0s7-3.33,6.67-8.33&#10;&#9;&#9;C76.92,416.722,75.92,385.052,75.92,385.052z M65.91,422.082c0,0-1.23,0.22-7.57,0c-6.34-0.21-6.52-3.71-6.52-3.71v-27.73&#10;&#9;&#9;c1.06-2.84,4.05-2.439,4.05-2.439s6.34,0.471,9.16,0.029c2.82-0.43,3.7,4.371,3.7,4.371s0.52,20.75,0.7,24.02&#10;&#9;&#9;C69.61,419.902,65.91,422.082,65.91,422.082z" id="SkKMrKJNiRz"/>
	<path display="inline" d="M54.003,417.39c0,0-2.333,4.127-2.667,7.128s0,24.386,0,24.386s1.666,6.002,4.333,5.628&#10;&#9;&#9;c2.667-0.375,12,0.017,12,0.017s2.333-2.643,2.333-3.768c0-1.126,0-28.889,0-28.889s-2.667-2.627-4-3.002&#10;&#9;&#9;S54.003,417.39,54.003,417.39z" id="BkcMHty4s0z"/>
	<path display="inline" d="M53.336,356.304c0,0-2.333,4.127-2.667,7.129c-0.333,3,0,24.385,0,24.385&#10;&#9;&#9;s1.666,6.003,4.333,5.629c2.667-0.375,12,0.017,12,0.017s2.333-2.644,2.333-3.769s0-28.889,0-28.889s-2.667-2.626-4-3.001&#10;&#9;&#9;C64.003,357.429,53.336,356.304,53.336,356.304z" id="rJozHKkEsAM"/>
	<path display="inline" d="M75.586,262.739c0,0-1.66-7.33-7-6.66c-5.33,0.66-17.33-0.049-17.33-0.049&#10;&#9;&#9;s-5.67-0.621-7.67,3.709v42.34c0,0,0.34,5.33,12.34,5.66c12,0.34,14.33,0,14.33,0s7-3.33,6.67-8.33&#10;&#9;&#9;C76.586,294.409,75.586,262.739,75.586,262.739z M65.576,299.77c0,0-1.23,0.22-7.57,0c-6.34-0.21-6.52-3.71-6.52-3.71v-27.73&#10;&#9;&#9;c1.06-2.84,4.05-2.439,4.05-2.439s6.34,0.471,9.16,0.029c2.82-0.43,3.7,4.371,3.7,4.371s0.52,20.75,0.7,24.02&#10;&#9;&#9;C69.276,297.59,65.576,299.77,65.576,299.77z" id="B1hzHKyNo0f"/>
	<path display="inline" d="M53.669,295.077c0,0-2.333,4.127-2.667,7.128s0,24.386,0,24.386s1.666,6.002,4.333,5.628&#10;&#9;&#9;c2.667-0.375,12,0.017,12,0.017s2.333-2.643,2.333-3.768c0-1.126,0-28.889,0-28.889s-2.667-2.627-4-3.002&#10;&#9;&#9;S53.669,295.077,53.669,295.077z" id="S1aMHKyNoRf"/>
	<path display="inline" d="M53.003,233.991c0,0-2.333,4.127-2.667,7.129c-0.333,3,0,24.385,0,24.385&#10;&#9;&#9;s1.666,6.003,4.333,5.629c2.667-0.375,12,0.017,12,0.017s2.333-2.644,2.333-3.769s0-28.889,0-28.889s-2.667-2.626-4-3.001&#10;&#9;&#9;C63.669,235.117,53.003,233.991,53.003,233.991z" id="SkCzrF14sCf"/>
	<path display="inline" d="M51.669,170.325c0,0-2.333,4.127-2.667,7.128s0,24.386,0,24.386s1.666,6.002,4.333,5.628&#10;&#9;&#9;c2.667-0.375,12,0.017,12,0.017s2.333-2.643,2.333-3.769s0-28.889,0-28.889s-2.667-2.626-4-3.001&#10;&#9;&#9;C62.336,171.45,51.669,170.325,51.669,170.325z" id="H1JmBKJVs0G"/>
</g>
<g display="none" id="SkxXHYJNiAM">
	<path display="inline" d="M371.084,137.988c0,0-1.66-7.33-7-6.66c-5.33,0.66-17.33-0.05-17.33-0.05&#10;&#9;&#9;s-5.67-0.62-7.67,3.71v42.34c0,0,0.34,5.33,12.34,5.66c12,0.34,14.33,0,14.33,0s7-3.33,6.67-8.33&#10;&#9;&#9;C372.084,169.658,371.084,137.988,371.084,137.988z M361.074,175.018c0,0-1.23,0.22-7.57,0c-6.34-0.21-6.52-3.71-6.52-3.71v-27.73&#10;&#9;&#9;c1.061-2.84,4.05-2.44,4.05-2.44s6.341,0.47,9.16,0.03c2.819-0.43,3.7,4.37,3.7,4.37s0.52,20.75,0.699,24.02&#10;&#9;&#9;C364.774,172.838,361.074,175.018,361.074,175.018z" id="rJ-7BFkNo0f"/>
	<path display="inline" d="M372.418,201.654c0,0-1.66-7.33-7-6.66c-5.33,0.66-17.33-0.05-17.33-0.05&#10;&#9;&#9;s-5.67-0.62-7.67,3.71v42.339c0,0,0.34,5.33,12.34,5.66c12,0.34,14.33,0,14.33,0s7-3.33,6.67-8.33&#10;&#9;&#9;C373.418,233.324,372.418,201.654,372.418,201.654z M362.408,238.685c0,0-1.23,0.219-7.57,0c-6.34-0.211-6.52-3.71-6.52-3.71&#10;&#9;&#9;v-27.73c1.06-2.84,4.049-2.44,4.049-2.44s6.341,0.47,9.16,0.03c2.82-0.43,3.701,4.37,3.701,4.37s0.52,20.75,0.699,24.02&#10;&#9;&#9;C366.107,236.504,362.408,238.685,362.408,238.685z" id="rkM7SK1ViRG"/>
	<path display="inline" d="M372.752,323.966c0,0-1.66-7.33-7-6.66c-5.33,0.66-17.33-0.049-17.33-0.049&#10;&#9;&#9;s-5.67-0.621-7.67,3.709v42.34c0,0,0.34,5.33,12.34,5.66c12,0.34,14.33,0,14.33,0s7-3.33,6.67-8.33&#10;&#9;&#9;C373.752,355.636,372.752,323.966,372.752,323.966z M362.741,360.997c0,0-1.229,0.219-7.569,0c-6.34-0.211-6.521-3.711-6.521-3.711&#10;&#9;&#9;v-27.73c1.06-2.84,4.05-2.439,4.05-2.439s6.34,0.471,9.16,0.029c2.82-0.43,3.7,4.371,3.7,4.371s0.521,20.75,0.7,24.02&#10;&#9;&#9;C366.441,358.817,362.741,360.997,362.741,360.997z" id="Bk7XHtJ4sRz"/>
	<path display="inline" d="M373.418,385.052c0,0-1.66-7.33-7-6.66c-5.33,0.66-17.33-0.049-17.33-0.049&#10;&#9;&#9;s-5.67-0.621-7.67,3.709v42.34c0,0,0.34,5.33,12.34,5.66c12,0.34,14.33,0,14.33,0s7-3.33,6.67-8.33&#10;&#9;&#9;C374.418,416.722,373.418,385.052,373.418,385.052z M363.408,422.081c0,0-1.23,0.221-7.57,0c-6.34-0.209-6.52-3.709-6.52-3.709&#10;&#9;&#9;v-27.73c1.06-2.84,4.049-2.439,4.049-2.439s6.341,0.471,9.16,0.029c2.82-0.43,3.701,4.371,3.701,4.371s0.52,20.75,0.699,24.02&#10;&#9;&#9;C367.107,419.901,363.408,422.081,363.408,422.081z" id="ByVmStkVsCG"/>
	<path display="inline" d="M351.501,417.39c0,0-2.333,4.127-2.667,7.127c-0.333,3.002,0,24.387,0,24.387&#10;&#9;&#9;s1.666,6.002,4.334,5.627c2.666-0.375,12,0.018,12,0.018s2.333-2.643,2.333-3.768c0-1.127,0-28.889,0-28.889s-2.667-2.627-4-3.002&#10;&#9;&#9;S351.501,417.39,351.501,417.39z" id="r1rXrK1EsCG"/>
	<path display="inline" d="M350.834,356.304c0,0-2.332,4.127-2.666,7.129c-0.334,3,0,24.385,0,24.385&#10;&#9;&#9;s1.666,6.002,4.333,5.629c2.667-0.375,12,0.016,12,0.016s2.333-2.643,2.333-3.768s0-28.889,0-28.889s-2.666-2.627-4-3.002&#10;&#9;&#9;C361.501,357.429,350.834,356.304,350.834,356.304z" id="Sk8mrF1NjRG"/>
	<path display="inline" d="M373.084,262.739c0,0-1.66-7.33-7-6.66c-5.33,0.66-17.33-0.049-17.33-0.049&#10;&#9;&#9;s-5.67-0.621-7.67,3.709v42.34c0,0,0.34,5.33,12.34,5.66c12,0.34,14.33,0,14.33,0s7-3.33,6.67-8.33&#10;&#9;&#9;C374.084,294.409,373.084,262.739,373.084,262.739z M363.074,299.769c0,0-1.23,0.221-7.57,0c-6.34-0.209-6.52-3.709-6.52-3.709&#10;&#9;&#9;v-27.73c1.061-2.84,4.05-2.439,4.05-2.439s6.341,0.471,9.16,0.029c2.819-0.43,3.7,4.371,3.7,4.371s0.52,20.75,0.699,24.02&#10;&#9;&#9;C366.774,297.589,363.074,299.769,363.074,299.769z" id="rkDQrtJNsRG"/>
	<path display="inline" d="M351.168,295.077c0,0-2.334,4.127-2.667,7.127c-0.333,3.002,0,24.387,0,24.387&#10;&#9;&#9;s1.666,6.002,4.333,5.627s12,0.018,12,0.018s2.334-2.643,2.334-3.768c0-1.127,0-28.889,0-28.889s-2.667-2.627-4-3.002&#10;&#9;&#9;C361.834,296.202,351.168,295.077,351.168,295.077z" id="ryuXHYkNsAG"/>
	<path display="inline" d="M350.501,233.991c0,0-2.333,4.127-2.667,7.129c-0.333,3,0,24.385,0,24.385&#10;&#9;&#9;s1.666,6.002,4.334,5.629c2.666-0.375,12,0.016,12,0.016s2.333-2.643,2.333-3.768s0-28.889,0-28.889s-2.667-2.626-4-3.001&#10;&#9;&#9;C361.168,235.117,350.501,233.991,350.501,233.991z" id="B1YQBFkEoRf"/>
	<path display="inline" d="M349.168,170.325c0,0-2.334,4.127-2.667,7.128s0,24.386,0,24.386s1.666,6.002,4.333,5.628&#10;&#9;&#9;c2.667-0.375,12,0.017,12,0.017s2.334-2.643,2.334-3.769s0-28.889,0-28.889s-2.667-2.626-4-3.001&#10;&#9;&#9;C359.834,171.45,349.168,170.325,349.168,170.325z" id="S1cXBKJVsCG"/>
</g>
<script>(function(){var a=document.querySelector('#rJrtJEjAz'),b=a.querySelectorAll('style'),c=function(d){b.forEach(function(f){var g=f.textContent;g&amp;&amp;(f.textContent=g.replace(/transform-box:[^;\r\n]*/gi,'transform-box: '+d))})};c('initial'),window.requestAnimationFrame(function(){return c('fill-box')})})();</script></svg>