<svg version="1.1" id="BklLLvqRM" xmlns="http://www.w3.org/2000/svg" xmlns:xlink="http://www.w3.org/1999/xlink" x="0px" y="0px" viewBox="0 0 595 600" enable-background="new 0 0 595.28 841.89" xml:space="preserve"><style>@-webkit-keyframes rkSlULDqCz_Animation{0%{opacity: 1;}50%{opacity: 0.6;}100%{opacity: 1;}}@keyframes rkSlULDqCz_Animation{0%{opacity: 1;}50%{opacity: 0.6;}100%{opacity: 1;}}@-webkit-keyframes rkSlULDqCz_Sy2YvD5Rf_Animation{0%{-webkit-transform: translate(0px, 0px);transform: translate(0px, 0px);}50%{-webkit-transform: translate(0px, -20px);transform: translate(0px, -20px);}100%{-webkit-transform: translate(0px, 0px);transform: translate(0px, 0px);}}@keyframes rkSlULDqCz_Sy2YvD5Rf_Animation{0%{-webkit-transform: translate(0px, 0px);transform: translate(0px, 0px);}50%{-webkit-transform: translate(0px, -20px);transform: translate(0px, -20px);}100%{-webkit-transform: translate(0px, 0px);transform: translate(0px, 0px);}}@-webkit-keyframes rkRZlLIwqRM_ryvBvPqAz_Animation{0%{-webkit-transform: translate(0px, 85px);transform: translate(0px, 85px);}50%{-webkit-transform: translate(0px, -95px);transform: translate(0px, -95px);}100%{-webkit-transform: translate(0px, 85px);transform: translate(0px, 85px);}}@keyframes rkRZlLIwqRM_ryvBvPqAz_Animation{0%{-webkit-transform: translate(0px, 85px);transform: translate(0px, 85px);}50%{-webkit-transform: translate(0px, -95px);transform: translate(0px, -95px);}100%{-webkit-transform: translate(0px, 85px);transform: translate(0px, 85px);}}@-webkit-keyframes HkXWeUIw5CG_Sy1ywvc0M_Animation{0%{-webkit-transform: translate(0px, -95px);transform: translate(0px, -95px);}50%{-webkit-transform: translate(0px, 86px);transform: translate(0px, 86px);}100%{-webkit-transform: translate(0px, -95px);transform: translate(0px, -95px);}}@keyframes HkXWeUIw5CG_Sy1ywvc0M_Animation{0%{-webkit-transform: translate(0px, -95px);transform: translate(0px, -95px);}50%{-webkit-transform: translate(0px, 86px);transform: translate(0px, 86px);}100%{-webkit-transform: translate(0px, -95px);transform: translate(0px, -95px);}}@-webkit-keyframes ryXxxILvc0G_rkQY8D5RM_Animation{0%{-webkit-transform: rotate(30deg);transform: rotate(30deg);}50%{-webkit-transform: rotate(-30deg);transform: rotate(-30deg);}100%{-webkit-transform: rotate(30deg);transform: rotate(30deg);}}@keyframes ryXxxILvc0G_rkQY8D5RM_Animation{0%{-webkit-transform: rotate(30deg);transform: rotate(30deg);}50%{-webkit-transform: rotate(-30deg);transform: rotate(-30deg);}100%{-webkit-transform: rotate(30deg);transform: rotate(30deg);}}#BklLLvqRM *{-webkit-animation-duration: 2s;animation-duration: 2s;-webkit-animation-iteration-count: infinite;animation-iteration-count: infinite;-webkit-animation-timing-function: cubic-bezier(0, 0, 1, 1);animation-timing-function: cubic-bezier(0, 0, 1, 1);}#Hylx8LvcAz{fill: #BC8566;}#HJWlILv9Cf{fill: #997056;}#HJflLLwcCf{opacity: 0.5;fill: #E3D188;}#S1QxILP9CM{opacity: 0.4;fill: #E8CB4E;}#r1Vl8UwcAM{fill: #302D21;}#SyIlIUw50G{opacity: 0.8;fill: #448599;}#HyDlUIP9RG{opacity: 0.8;fill: #3F7C89;}#SJdgLUwcRM{opacity: 0.8;fill: #448599;}#B1tlLID90z{opacity: 0.8;fill: #3F7C89;}#ry9lUIP9Cf{opacity: 0.8;fill: #448599;}#H1ig8ID9RM{opacity: 0.8;fill: #3F7C89;}#ByngU8v90f{fill: #6D1B13;}#S10gU8D50M{fill: #922B20;}#HkJxe8UwcAG{fill: #9E2C21;}#ByllgILw9RM{fill: #AE3A2E;}#HyWlxL8w9AG{fill: #7F2319;}#SyEllIIDc0G{fill: #997056;}#BJBgeILvqCG{fill: #82583C;}#S1tll8Lv5Cz{fill: #C08D6B;}#ry5xlU8v5CG{fill: #A37A5F;}#SksxeULv5Az{fill: #A37A5F;}#rJhxg8IDqAz{fill: #C08D6B;}#ByTgx8Lwq0z{fill: #C08D6B;}#SJCelLUvcRz{fill: #C08D6B;}#B1k-xIIvcRM{fill: #C08D6B;}#ByxWxLUDqAf{fill: #C08D6B;}#BJZZlU8w9CG{fill: #C08D6B;}#S1GbxUUD5Cz{fill: #9E7255;}#HJN-gL8Dq0f{fill: #897F79;}#S1r-eULD9AG{fill: #897F79;}#S1UbgI8v9RM{fill: #897F79;}#SyDZlLUwcCM{fill: #897F79;}#r1d-eUIv9RM{fill: #7A716D;}#SJtbxIIPq0G{fill: #7A716D;}#Sk9Zg8UPcAM{fill: #897F79;}#BksbeUIw50z{fill: #7A716D;}#BknWlUUP9Rz{fill: #7A716D;}#S1T-lL8vcCG{fill: #7A716D;}#HJyzgULv5AM{fill: #897F79;}#BkxGlILD5Rz{fill: #897F79;}#BJZMe8UDcAG{fill: #897F79;}#Skffl8ID5AG{fill: #897F79;}#H17GlUIPcAf{fill: #7A716D;}#H1EfxU8w90z{fill: #7A716D;}#SJBzlUUvc0M{fill: #897F79;}#H1UflIUP5Cz{fill: #7A716D;}#HywMg88P5Cf{fill: #7A716D;}#BkOfx8LD5Af{fill: #7A716D;}#ryXxxILvc0G_rkQY8D5RM{-webkit-animation-name: ryXxxILvc0G_rkQY8D5RM_Animation;animation-name: ryXxxILvc0G_rkQY8D5RM_Animation;-webkit-transform-origin: 50% 50%;transform-origin: 50% 50%;transform-box: fill-box;-webkit-transform: rotate(30deg);transform: rotate(30deg);}#HkXWeUIw5CG_Sy1ywvc0M{-webkit-animation-name: HkXWeUIw5CG_Sy1ywvc0M_Animation;animation-name: HkXWeUIw5CG_Sy1ywvc0M_Animation;-webkit-transform-origin: 50% 50%;transform-origin: 50% 50%;transform-box: fill-box;-webkit-transform: translate(0px, -95px);transform: translate(0px, -95px);}#rkRZlLIwqRM_ryvBvPqAz{-webkit-animation-name: rkRZlLIwqRM_ryvBvPqAz_Animation;animation-name: rkRZlLIwqRM_ryvBvPqAz_Animation;-webkit-transform-origin: 50% 50%;transform-origin: 50% 50%;transform-box: fill-box;-webkit-transform: translate(0px, 85px);transform: translate(0px, 85px);}#rkSlULDqCz_Sy2YvD5Rf{-webkit-animation-name: rkSlULDqCz_Sy2YvD5Rf_Animation;animation-name: rkSlULDqCz_Sy2YvD5Rf_Animation;-webkit-transform-origin: 50% 50%;transform-origin: 50% 50%;transform-box: fill-box;-webkit-transform: translate(0px, 0px);transform: translate(0px, 0px);}#rkSlULDqCz{-webkit-animation-name: rkSlULDqCz_Animation;animation-name: rkSlULDqCz_Animation;-webkit-transform-origin: 50% 50%;transform-origin: 50% 50%;transform-box: fill-box;opacity: 1;}</style>
<path d="M323.927,470.609c-66.852,0-121.044,31.052-121.044,69.349c0,23.931,21.166,45.038,53.369,57.504&#10;&#9;L293.471,575c-27.277-9.238-65.513-21.702-65.513-40.943c0-29.185,41.961-52.839,93.724-52.839&#10;&#9;c51.764,0,93.725,23.654,93.725,52.839c0,18.888-38.966,30.604-65.411,39.943l40.337,23.941&#10;&#9;c32.91-12.391,54.638-33.733,54.638-57.983C444.97,501.661,390.777,470.609,323.927,470.609z" id="Hylx8LvcAz"/>
<path d="M424.5,537.006c0,25.102-23.59,46.759-57.726,56.883c-13.188,3.927-27.942,6.111-43.523,6.111&#10;&#9;c-15.584,0-30.336-2.185-43.524-6.111C245.592,583.765,222,562.107,222,537.006c0-25.098,23.592-46.77,57.727-56.894&#10;&#9;c13.188-3.93,27.94-6.112,43.524-6.112c15.581,0,30.336,2.183,43.523,6.112C400.91,490.236,424.5,511.908,424.5,537.006z" id="HJWlILv9Cf"/>
<path d="M405.104,456.5c-7.83,44.746-29.878,106.56-84.83,106.56S243.595,506.9,234,462.5&#10;&#9;c-11.67-54,24.984-63.562,92.362-58.5C379.612,408,415.604,396.5,405.104,456.5z" id="HJflLLwcCf"/>
<path d="M391.25,433l-12.93,98.16c0,6.81-3.17,13.17-8.65,18.53c-0.14,0.14-0.28,0.27-0.42,0.399&#10;&#9;c-5.68,5.42-13.73,9.8-23.23,12.59c-7.38,2.17-15.63,3.38-24.35,3.38s-16.97-1.21-24.35-3.38c-10.6-3.109-19.38-8.189-25.07-14.479&#10;&#9;c-0.2-0.21-0.39-0.42-0.58-0.641c-3.49-4.02-5.74-8.51-6.42-13.279v-0.021L242.67,433l54.97,5.46l26.29-5.46L342,447.96L391.25,433z&#10;&#9;" id="S1QxILP9CM"/>
<path d="M378.32,531.16c0,6.81-3.17,13.17-8.65,18.53c-0.14,0.14-0.28,0.27-0.42,0.399&#10;&#9;c-5.68,5.42-13.73,9.8-23.23,12.59c-7.38,2.17-15.63,3.38-24.35,3.38s-16.97-1.21-24.35-3.38c-10.6-3.109-19.38-8.189-25.07-14.479&#10;&#9;c-0.2-0.21-0.39-0.42-0.58-0.641c-3.49-4.02-5.74-8.51-6.42-13.279v-0.021c-0.16-1.02-0.23-2.05-0.23-3.1&#10;&#9;c0-5.93,2.4-11.51,6.65-16.4c0.19-0.22,0.38-0.43,0.58-0.64c5.69-6.29,14.47-11.37,25.07-14.48c0.13-0.04,0.27-0.08,0.4-0.109&#10;&#9;c7.28-2.101,15.39-3.271,23.95-3.271c6.93,0,13.561,0.76,19.69,2.17c1.59,0.36,3.14,0.771,4.659,1.21&#10;&#9;c9.5,2.79,17.551,7.17,23.23,12.591c0.14,0.13,0.28,0.26,0.42,0.399C375.15,517.99,378.32,524.35,378.32,531.16z" id="r1Vl8UwcAM"/>
<g id="rkSlULDqCz_Sy2YvD5Rf" data-animator-group="true" data-animator-type="0"><g id="rkSlULDqCz">
	<polygon points="359.244,464.498 298.5,462.5 327.758,532.172 361.699,502.826 &#9;" id="SyIlIUw50G"/>
	<polygon points="337.98,487.55 327.758,532.172 361.699,502.826 359.244,464.498 &#9;" id="HyDlUIP9RG"/>
	<polygon points="300.221,477.105 272.221,512.815 309.721,549.855 314.721,505.855 &#9;" id="SJdgLUwcRM"/>
	<polygon points="298.721,508.355 309.721,549.855 314.721,505.855 300.221,477.105 &#9;" id="B1tlLID90z"/>
	<polygon points="344.729,543.273 319.712,519.621 306.494,560.403 331.674,560.59 &#9;" id="ry9lUIP9Cf"/>
	<polygon points="327.237,545.153 306.494,560.403 331.674,560.59 344.729,543.273 &#9;" id="H1ig8ID9RM"/>
</g></g>
<ellipse cx="323.926" cy="309.835" rx="38.59" ry="34.47" id="ByngU8v90f"/>
<g id="HyTx8UvqRf">
	<polygon points="261.66,466 321.67,476 378.32,466 416,424 323.67,305 323.67,305 227.5,425.5 &#9;" id="S10gU8D50M"/>
	<polygon points="321.67,476 323.25,338.6 323.67,305 378.32,466 &#9;" id="HkJxe8UwcAG"/>
	<polygon points="323.67,305 378.32,466 416,424 &#9;" id="ByllgILw9RM"/>
	<polygon points="227.5,425.5 261.66,466 323.67,305 &#9;" id="HyWlxL8w9AG"/>
</g>
<path d="M31.489,219.5" id="B1MglUIPcCG"/>
<g id="ryXxxILvc0G_rkQY8D5RM" data-animator-group="true" data-animator-type="1"><g id="ryXxxILvc0G">
	<polygon points="515.001,308.42 509.579,319.38 130.786,319.38 126.334,308.42 130.786,297.46 509.579,297.46 &#9;" id="SyEllIIDc0G"/>
	<polygon points="515.001,308.42 509.579,319.38 130.786,319.38 126.334,308.42 &#9;" id="BJBgeILvqCG"/>
	<g id="HJUxgI8PcAf">
		<g id="SyweeI8D5Rf">
			<g id="BydexUUP50f">
				<path d="M377.905,293.46c-1.521-4.61-3.62-8.96-6.21-12.96c-1.07-1.66-2.23-3.26-3.46-4.79&#10;&#9;&#9;&#9;&#9;&#9;c-3.79-4.7-8.301-8.79-13.36-12.08c-1.64-1.069-3.33-2.05-5.08-2.95c-3.75-1.93-7.74-3.449-11.92-4.51&#10;&#9;&#9;&#9;&#9;&#9;c-4.5-1.15-9.21-1.75-14.07-1.75c-5.35,0-10.52,0.74-15.43,2.12c-3.95,1.11-7.73,2.63-11.28,4.53&#10;&#9;&#9;&#9;&#9;&#9;c-1.63,0.85-3.199,1.789-4.72,2.8c-4.92,3.25-9.31,7.25-13,11.84c-1.399,1.74-2.7,3.56-3.89,5.46&#10;&#9;&#9;&#9;&#9;&#9;c-2.391,3.811-4.351,7.93-5.78,12.29c-1.88,5.649-2.899,11.681-2.899,17.96c0,3.95,0.409,7.811,1.18,11.54&#10;&#9;&#9;&#9;&#9;&#9;c1.039,5.101,2.77,9.95,5.09,14.45c0.13,0.27,0.27,0.54,0.41,0.8c4.47,8.4,10.99,15.54,18.89,20.76&#10;&#9;&#9;&#9;&#9;&#9;c0.17,0.11,0.34,0.23,0.521,0.33c4.72,3.07,9.93,5.45,15.479,7c4.91,1.381,10.08,2.12,15.43,2.12c4.86,0,9.57-0.601,14.07-1.75&#10;&#9;&#9;&#9;&#9;&#9;c5.79-1.47,11.23-3.83,16.16-6.94c0.28-0.16,0.56-0.34,0.84-0.52c8.06-5.24,14.71-12.48,19.25-21&#10;&#9;&#9;&#9;&#9;&#9;c0.01-0.021,0.02-0.05,0.04-0.069c2.5-4.711,4.36-9.811,5.46-15.181c0.77-3.729,1.18-7.59,1.18-11.54&#10;&#9;&#9;&#9;&#9;&#9;C380.805,305.141,379.785,299.109,377.905,293.46z M330.825,336.51c-2.33,0.6-4.771,0.91-7.28,0.91&#10;&#9;&#9;&#9;&#9;&#9;c-2.68,0-5.28-0.359-7.74-1.029c-2.64-0.721-5.14-1.801-7.43-3.19c-4.16-2.511-7.66-6.04-10.13-10.24&#10;&#9;&#9;&#9;&#9;&#9;c-1.391-2.34-2.45-4.89-3.141-7.59c-0.6-2.341-0.92-4.78-0.92-7.3c0-2.51,0.32-4.95,0.92-7.28c0.65-2.601,1.66-5.06,2.98-7.33&#10;&#9;&#9;&#9;&#9;&#9;c2.47-4.33,6.03-7.96,10.29-10.53c2.29-1.38,4.77-2.46,7.41-3.17c2.47-0.689,5.07-1.05,7.76-1.05c2.521,0,4.97,0.319,7.3,0.92&#10;&#9;&#9;&#9;&#9;&#9;c2.49,0.63,4.84,1.58,7.03,2.82c4.63,2.579,8.49,6.399,11.13,11.01c1.24,2.13,2.21,4.44,2.86,6.87&#10;&#9;&#9;&#9;&#9;&#9;c0.68,2.46,1.04,5.061,1.04,7.74c0,2.689-0.36,5.289-1.05,7.76c-0.681,2.529-1.7,4.92-3.011,7.13&#10;&#9;&#9;&#9;&#9;&#9;c-2.64,4.479-6.43,8.19-10.97,10.729C335.685,334.92,333.315,335.88,330.825,336.51z" id="S1tll8Lv5Cz"/>
			</g>
			<path d="M298.245,322.96H263v-29.5h35.113c-1.085,2.271-1.916,4.729-2.45,7.33&#10;&#9;&#9;&#9;&#9;c-0.493,2.33-0.756,4.771-0.756,7.28c0,2.52,0.263,4.959,0.756,7.3C296.23,318.07,297.102,320.62,298.245,322.96z" id="ry5xlU8v5CG"/>
			<path d="M384.5,293.46v29.5h-35.655c1.105-2.21,1.965-4.601,2.539-7.13c0.581-2.471,0.886-5.07,0.886-7.76&#10;&#9;&#9;&#9;&#9;c0-2.68-0.305-5.28-0.878-7.74c-0.548-2.43-1.366-4.74-2.412-6.87H384.5z" id="SksxeULv5Az"/>
			<path d="M337.875,240.34v42.11c-2.19-1.24-4.54-2.19-7.03-2.82c-2.33-0.601-4.779-0.92-7.3-0.92&#10;&#9;&#9;&#9;&#9;c-2.689,0-5.29,0.36-7.76,1.05c-2.641,0.71-5.12,1.79-7.41,3.17v-42.59H337.875z" id="rJhxg8IDqAz"/>
			<path d="M337.875,333.689v42.391h-29.5V333.2c2.29,1.39,4.79,2.47,7.43,3.19c2.46,0.67,5.061,1.029,7.74,1.029&#10;&#9;&#9;&#9;&#9;c2.51,0,4.95-0.311,7.28-0.91C333.315,335.88,335.685,334.92,337.875,333.689z" id="ByTgx8Lwq0z"/>
			<path d="M315.805,336.391L292.896,359.3l-7.34,7.34l-20.851-20.859l8.37-8.37l10.29-10.29l4.159-4.16l7.58-7.59&#10;&#9;&#9;&#9;&#9;c0.69,2.7,1.75,5.25,3.141,7.59c2.47,4.2,5.97,7.729,10.13,10.24C310.665,334.59,313.165,335.67,315.805,336.391z" id="SJCelLUvcRz"/>
			<path d="M381.545,270.65l-9.85,9.85l-19.83,19.83c-0.65-2.43-1.62-4.74-2.86-6.87&#10;&#9;&#9;&#9;&#9;c-2.64-4.61-6.5-8.431-11.13-11.01c-2.19-1.24-4.54-2.19-7.03-2.82l7.03-7.03l11.92-11.92l10.89-10.89L381.545,270.65z" id="B1k-xIIvcRM"/>
			<path d="M315.785,279.76c-2.641,0.71-5.12,1.79-7.41,3.17c-4.26,2.57-7.82,6.2-10.29,10.53&#10;&#9;&#9;&#9;&#9;c-1.32,2.271-2.33,4.729-2.98,7.33l-30.399-30.399l20.851-20.861l20.27,20.271l2.55,2.55L315.785,279.76z" id="ByxWxLUDqAf"/>
			<path d="M381.545,345.521l-20.86,20.859l-6.649-6.65l-16.16-16.159l-7.05-7.061c2.49-0.63,4.859-1.59,7.05-2.82&#10;&#9;&#9;&#9;&#9;c4.54-2.539,8.33-6.25,10.97-10.729c1.311-2.21,2.33-4.601,3.011-7.13l7.13,7.13l4.68,4.681L381.545,345.521z" id="BJZZlU8w9CG"/>
		</g>
		<path d="M363.288,294.308c-0.493-1.258-1.064-2.478-1.684-3.669c-4.501-8.664-11.907-15.584-20.928-19.457&#10;&#9;&#9;&#9;c-0.959-0.416-1.937-0.794-2.934-1.133c-4.317-1.491-8.954-2.295-13.785-2.295c-5.198,0-10.173,0.93-14.771,2.652&#10;&#9;&#9;&#9;c-0.833,0.301-1.655,0.639-2.468,0.998c-8.954,3.988-16.273,10.987-20.667,19.709c-0.523,1.036-1.008,2.11-1.433,3.194&#10;&#9;&#9;&#9;c-1.985,4.897-3.068,10.241-3.068,15.847c0,4.423,0.677,8.692,1.936,12.709c0.435,1.375,0.929,2.72,1.491,4.027&#10;&#9;&#9;&#9;c3.881,9.021,10.793,16.418,19.457,20.918c1.529,0.803,3.117,1.501,4.753,2.1c4.599,1.725,9.573,2.653,14.771,2.653&#10;&#9;&#9;&#9;c4.831,0,9.468-0.804,13.785-2.293c1.81-0.621,3.562-1.356,5.247-2.208c8.731-4.394,15.729-11.712,19.718-20.666&#10;&#9;&#9;&#9;c0.657-1.472,1.229-2.981,1.713-4.531c1.259-4.017,1.937-8.286,1.937-12.709C366.357,304.549,365.274,299.205,363.288,294.308z&#10;&#9;&#9;&#9; M337.743,333.25c-2.121,1.191-4.414,2.12-6.824,2.73c-2.256,0.58-4.618,0.881-7.048,0.881c-2.594,0-5.111-0.348-7.492-0.996&#10;&#9;&#9;&#9;c-2.556-0.698-4.975-1.744-7.192-3.089c-4.026-2.43-7.415-5.847-9.806-9.913c-1.346-2.265-2.372-4.733-3.04-7.347&#10;&#9;&#9;&#9;c-0.581-2.266-0.891-4.627-0.891-7.066c0-2.43,0.31-4.792,0.891-7.048c0.63-2.517,1.607-4.897,2.885-7.095&#10;&#9;&#9;&#9;c2.392-4.192,5.838-7.705,9.961-10.193c2.218-1.336,4.617-2.381,7.173-3.069c2.392-0.667,4.908-1.016,7.512-1.016&#10;&#9;&#9;&#9;c2.44,0,4.812,0.31,7.066,0.891c2.411,0.609,4.685,1.53,6.806,2.73c4.481,2.497,8.219,6.195,10.774,10.658&#10;&#9;&#9;&#9;c1.2,2.062,2.139,4.298,2.769,6.65c0.657,2.381,1.007,4.898,1.007,7.493c0,2.603-0.35,5.12-1.017,7.511&#10;&#9;&#9;&#9;c-0.659,2.449-1.646,4.763-2.914,6.902C345.807,327.2,342.138,330.792,337.743,333.25z" id="S1GbxUUD5Cz"/>
	</g>
</g></g>
<g id="HkXWeUIw5CG_Sy1ywvc0M" data-animator-group="true" data-animator-type="0"><g id="HkXWeUIw5CG">
	<path d="M188.686,319.09c0,0-1.66-7.33-7-6.66c-5.33,0.66-17.33-0.05-17.33-0.05s-5.67-0.62-7.67,3.71v42.34&#10;&#9;&#9;c0,0,0.34,5.33,12.34,5.66c12,0.34,14.33,0,14.33,0s7-3.33,6.67-8.33C189.686,350.76,188.686,319.09,188.686,319.09z&#10;&#9;&#9; M178.676,356.12c0,0-1.23,0.22-7.57,0c-6.34-0.21-6.52-3.71-6.52-3.71v-27.73c1.06-2.84,4.05-2.44,4.05-2.44s6.34,0.47,9.16,0.03&#10;&#9;&#9;c2.82-0.43,3.7,4.37,3.7,4.37s0.52,20.75,0.7,24.02C182.376,353.94,178.676,356.12,178.676,356.12z" id="HJN-gL8Dq0f"/>
	<path d="M190.02,382.757c0,0-1.66-7.33-7-6.66c-5.33,0.66-17.33-0.05-17.33-0.05s-5.67-0.62-7.67,3.71v42.34&#10;&#9;&#9;c0,0,0.34,5.33,12.34,5.66c12,0.34,14.33,0,14.33,0s7-3.33,6.67-8.33C191.02,414.427,190.02,382.757,190.02,382.757z&#10;&#9;&#9; M180.009,419.787c0,0-1.23,0.22-7.57,0c-6.34-0.21-6.52-3.71-6.52-3.71v-27.73c1.06-2.84,4.05-2.44,4.05-2.44s6.34,0.47,9.16,0.03&#10;&#9;&#9;c2.82-0.43,3.7,4.37,3.7,4.37s0.52,20.75,0.7,24.02C183.709,417.607,180.009,419.787,180.009,419.787z" id="S1r-eULD9AG"/>
	<path d="M190.353,505.069c0,0-1.66-7.33-7-6.66c-5.33,0.66-17.33-0.05-17.33-0.05s-5.67-0.62-7.67,3.71v42.34&#10;&#9;&#9;c0,0,0.34,5.33,12.34,5.66c12,0.34,14.33,0,14.33,0s7-3.33,6.67-8.33C191.353,536.739,190.353,505.069,190.353,505.069z&#10;&#9;&#9; M180.343,542.1c0,0-1.23,0.22-7.57,0c-6.34-0.211-6.52-3.711-6.52-3.711v-27.729c1.06-2.84,4.05-2.44,4.05-2.44&#10;&#9;&#9;s6.34,0.471,9.16,0.03c2.82-0.43,3.7,4.37,3.7,4.37s0.52,20.75,0.7,24.02C184.043,539.92,180.343,542.1,180.343,542.1z" id="S1UbgI8v9RM"/>
	<path d="M191.02,566.154c0,0-1.66-7.33-7-6.66c-5.33,0.66-17.33-0.049-17.33-0.049s-5.67-0.621-7.67,3.709v42.34&#10;&#9;&#9;c0,0,0.34,5.33,12.34,5.66c12,0.34,14.33,0,14.33,0s7-3.33,6.67-8.33C192.02,597.824,191.02,566.154,191.02,566.154z&#10;&#9;&#9; M181.009,603.185c0,0-1.23,0.22-7.57,0c-6.34-0.21-6.52-3.71-6.52-3.71v-27.73c1.06-2.84,4.05-2.439,4.05-2.439&#10;&#9;&#9;s6.34,0.471,9.16,0.029c2.82-0.43,3.7,4.371,3.7,4.371s0.52,20.75,0.7,24.02C184.709,601.005,181.009,603.185,181.009,603.185z" id="SyDZlLUwcCM"/>
	<path d="M169.103,598.492c0,0-2.333,4.127-2.667,7.128s0,24.386,0,24.386s1.666,6.002,4.333,5.628&#10;&#9;&#9;c2.667-0.375,12,0.017,12,0.017s2.333-2.643,2.333-3.768c0-1.126,0-28.889,0-28.889s-2.667-2.627-4-3.002&#10;&#9;&#9;S169.103,598.492,169.103,598.492z" id="r1d-eUIv9RM"/>
	<path d="M168.436,537.406c0,0-2.333,4.127-2.667,7.129c-0.333,3,0,24.385,0,24.385s1.666,6.003,4.333,5.629&#10;&#9;&#9;c2.667-0.375,12,0.017,12,0.017s2.333-2.644,2.333-3.769s0-28.889,0-28.889s-2.667-2.626-4-3.001&#10;&#9;&#9;C179.103,538.531,168.436,537.406,168.436,537.406z" id="SJtbxIIPq0G"/>
	<path d="M190.686,443.842c0,0-1.66-7.33-7-6.66c-5.33,0.66-17.33-0.049-17.33-0.049s-5.67-0.621-7.67,3.709v42.34&#10;&#9;&#9;c0,0,0.34,5.33,12.34,5.66c12,0.34,14.33,0,14.33,0s7-3.33,6.67-8.33C191.686,475.512,190.686,443.842,190.686,443.842z&#10;&#9;&#9; M180.676,480.872c0,0-1.23,0.22-7.57,0c-6.34-0.21-6.52-3.71-6.52-3.71v-27.73c1.06-2.84,4.05-2.439,4.05-2.439&#10;&#9;&#9;s6.34,0.471,9.16,0.029c2.82-0.43,3.7,4.371,3.7,4.371s0.52,20.75,0.7,24.02C184.376,478.692,180.676,480.872,180.676,480.872z" id="Sk9Zg8UPcAM"/>
	<path d="M168.769,476.18c0,0-2.333,4.127-2.667,7.128s0,24.386,0,24.386s1.666,6.002,4.333,5.628&#10;&#9;&#9;c2.667-0.375,12,0.017,12,0.017s2.333-2.643,2.333-3.768c0-1.126,0-28.889,0-28.889s-2.667-2.627-4-3.002&#10;&#9;&#9;S168.769,476.18,168.769,476.18z" id="BksbeUIw50z"/>
	<path d="M168.103,415.094c0,0-2.333,4.127-2.667,7.129c-0.333,3,0,24.385,0,24.385s1.666,6.003,4.333,5.629&#10;&#9;&#9;c2.667-0.375,12,0.017,12,0.017s2.333-2.644,2.333-3.769s0-28.889,0-28.889s-2.667-2.626-4-3.001&#10;&#9;&#9;C178.769,416.219,168.103,415.094,168.103,415.094z" id="BknWlUUP9Rz"/>
	<path d="M166.769,351.427c0,0-2.333,4.127-2.667,7.128s0,24.386,0,24.386s1.666,6.002,4.333,5.628&#10;&#9;&#9;c2.667-0.375,12,0.017,12,0.017s2.333-2.643,2.333-3.769s0-28.889,0-28.889s-2.667-2.626-4-3.001&#10;&#9;&#9;C177.436,352.553,166.769,351.427,166.769,351.427z" id="S1T-lL8vcCG"/>
</g></g>
<g id="rkRZlLIwqRM_ryvBvPqAz" data-animator-group="true" data-animator-type="0"><g id="rkRZlLIwqRM">
	<path d="M486.184,319.09c0,0-1.66-7.33-7-6.66c-5.33,0.66-17.33-0.05-17.33-0.05s-5.67-0.62-7.67,3.71v42.34&#10;&#9;&#9;c0,0,0.34,5.33,12.34,5.66c12,0.34,14.33,0,14.33,0s7-3.33,6.67-8.33C487.184,350.76,486.184,319.09,486.184,319.09z&#10;&#9;&#9; M476.174,356.12c0,0-1.23,0.22-7.57,0c-6.34-0.21-6.52-3.71-6.52-3.71v-27.73c1.061-2.84,4.05-2.44,4.05-2.44&#10;&#9;&#9;s6.341,0.47,9.16,0.03c2.819-0.43,3.7,4.37,3.7,4.37s0.52,20.75,0.699,24.02C479.874,353.94,476.174,356.12,476.174,356.12z" id="HJyzgULv5AM"/>
	<path d="M487.518,382.757c0,0-1.66-7.33-7-6.66c-5.33,0.66-17.33-0.05-17.33-0.05s-5.67-0.62-7.67,3.71v42.339&#10;&#9;&#9;c0,0,0.34,5.33,12.34,5.66c12,0.34,14.33,0,14.33,0s7-3.33,6.67-8.33C488.518,414.427,487.518,382.757,487.518,382.757z&#10;&#9;&#9; M477.508,419.787c0,0-1.23,0.219-7.57,0c-6.34-0.211-6.52-3.71-6.52-3.71v-27.73c1.06-2.84,4.049-2.44,4.049-2.44&#10;&#9;&#9;s6.341,0.47,9.16,0.03c2.82-0.43,3.701,4.37,3.701,4.37s0.52,20.75,0.699,24.02C481.207,417.607,477.508,419.787,477.508,419.787z" id="BkxGlILD5Rz"/>
	<path d="M487.852,505.068c0,0-1.66-7.33-7-6.66c-5.33,0.66-17.33-0.049-17.33-0.049s-5.67-0.621-7.67,3.709v42.34&#10;&#9;&#9;c0,0,0.34,5.33,12.34,5.66c12,0.34,14.33,0,14.33,0s7-3.33,6.67-8.33C488.852,536.738,487.852,505.068,487.852,505.068z&#10;&#9;&#9; M477.841,542.1c0,0-1.229,0.219-7.569,0c-6.34-0.211-6.521-3.711-6.521-3.711v-27.73c1.06-2.84,4.05-2.439,4.05-2.439&#10;&#9;&#9;s6.34,0.471,9.16,0.029c2.82-0.43,3.7,4.371,3.7,4.371s0.521,20.75,0.7,24.02C481.541,539.92,477.841,542.1,477.841,542.1z" id="BJZMe8UDcAG"/>
	<path d="M488.518,566.154c0,0-1.66-7.33-7-6.66c-5.33,0.66-17.33-0.049-17.33-0.049s-5.67-0.621-7.67,3.709v42.34&#10;&#9;&#9;c0,0,0.34,5.33,12.34,5.66c12,0.34,14.33,0,14.33,0s7-3.33,6.67-8.33C489.518,597.824,488.518,566.154,488.518,566.154z&#10;&#9;&#9; M478.508,603.184c0,0-1.23,0.221-7.57,0c-6.34-0.209-6.52-3.709-6.52-3.709v-27.73c1.06-2.84,4.049-2.439,4.049-2.439&#10;&#9;&#9;s6.341,0.471,9.16,0.029c2.82-0.43,3.701,4.371,3.701,4.371s0.52,20.75,0.699,24.02&#10;&#9;&#9;C482.207,601.004,478.508,603.184,478.508,603.184z" id="Skffl8ID5AG"/>
	<path d="M466.601,598.492c0,0-2.333,4.127-2.667,7.127c-0.333,3.002,0,24.387,0,24.387s1.666,6.002,4.334,5.627&#10;&#9;&#9;c2.666-0.375,12,0.018,12,0.018s2.333-2.643,2.333-3.768c0-1.127,0-28.889,0-28.889s-2.667-2.627-4-3.002&#10;&#9;&#9;S466.601,598.492,466.601,598.492z" id="H17GlUIPcAf"/>
	<path d="M465.934,537.406c0,0-2.332,4.127-2.666,7.129c-0.334,3,0,24.385,0,24.385s1.666,6.002,4.333,5.629&#10;&#9;&#9;c2.667-0.375,12,0.016,12,0.016s2.333-2.643,2.333-3.768s0-28.889,0-28.889s-2.666-2.627-4-3.002&#10;&#9;&#9;C476.601,538.531,465.934,537.406,465.934,537.406z" id="H1EfxU8w90z"/>
	<path d="M488.184,443.842c0,0-1.66-7.33-7-6.66c-5.33,0.66-17.33-0.049-17.33-0.049s-5.67-0.621-7.67,3.709v42.34&#10;&#9;&#9;c0,0,0.34,5.33,12.34,5.66c12,0.34,14.33,0,14.33,0s7-3.33,6.67-8.33C489.184,475.512,488.184,443.842,488.184,443.842z&#10;&#9;&#9; M478.174,480.871c0,0-1.23,0.221-7.57,0c-6.34-0.209-6.52-3.709-6.52-3.709v-27.73c1.061-2.84,4.05-2.439,4.05-2.439&#10;&#9;&#9;s6.341,0.471,9.16,0.029c2.819-0.43,3.7,4.371,3.7,4.371s0.52,20.75,0.699,24.02C481.874,478.691,478.174,480.871,478.174,480.871z&#10;&#9;&#9;" id="SJBzlUUvc0M"/>
	<path d="M466.268,476.18c0,0-2.334,4.127-2.667,7.127c-0.333,3.002,0,24.387,0,24.387s1.666,6.002,4.333,5.627&#10;&#9;&#9;s12,0.018,12,0.018s2.334-2.643,2.334-3.768c0-1.127,0-28.889,0-28.889s-2.667-2.627-4-3.002&#10;&#9;&#9;C476.934,477.305,466.268,476.18,466.268,476.18z" id="H1UflIUP5Cz"/>
	<path d="M465.601,415.094c0,0-2.333,4.127-2.667,7.129c-0.333,3,0,24.385,0,24.385s1.666,6.002,4.334,5.629&#10;&#9;&#9;c2.666-0.375,12,0.016,12,0.016s2.333-2.643,2.333-3.768s0-28.889,0-28.889s-2.667-2.626-4-3.001&#10;&#9;&#9;C476.268,416.219,465.601,415.094,465.601,415.094z" id="HywMg88P5Cf"/>
	<path d="M464.268,351.427c0,0-2.334,4.127-2.667,7.128s0,24.386,0,24.386s1.666,6.002,4.333,5.628&#10;&#9;&#9;c2.667-0.375,12,0.017,12,0.017s2.334-2.643,2.334-3.769s0-28.889,0-28.889s-2.667-2.626-4-3.001&#10;&#9;&#9;C474.934,352.553,464.268,351.427,464.268,351.427z" id="BkOfx8LD5Af"/>
</g></g>
<script>(function(){var a=document.querySelector('#BklLLvqRM'),b=a.querySelectorAll('style'),c=function(d){b.forEach(function(f){var g=f.textContent;g&amp;&amp;(f.textContent=g.replace(/transform-box:[^;\r\n]*/gi,'transform-box: '+d))})};c('initial'),window.requestAnimationFrame(function(){return c('fill-box')})})();</script></svg>