<?xml version="1.0" encoding="utf-8"?>
<!-- Generator: Adobe Illustrator 16.0.0, SVG Export Plug-In . SVG Version: 6.00 Build 0)  -->
<!DOCTYPE svg PUBLIC "-//W3C//DTD SVG 1.1//EN" "http://www.w3.org/Graphics/SVG/1.1/DTD/svg11.dtd">
<svg version="1.1" id="Layer_1" xmlns="http://www.w3.org/2000/svg" xmlns:xlink="http://www.w3.org/1999/xlink" x="0px" y="0px"
	 width="90.666px" height="129px" viewBox="0 0 90.666 129" enable-background="new 0 0 90.666 129" xml:space="preserve">
<polygon fill="#335429" points="79.014,78.298 49.636,114.968 31.817,113.714 29.015,110.05 9.262,84.145 18.804,58.691 
	28.935,31.675 39.938,23.702 50.814,32.739 56.262,18.519 57.817,22.622 62.805,35.707 68.843,51.57 68.899,51.725 70.526,56.004 
	"/>
<polygon fill="#508D41" points="9.262,84.145 43.064,94.285 79.014,78.298 49.636,114.968 31.817,113.714 "/>
<polyline fill="#66BD57" points="24.055,79.068 12.608,75.21 13.07,58.696 22.573,48.632 24.055,31.847 31.475,24.907 
	34.104,17.893 44.136,11.946 55.643,16.894 58.683,24.893 67.397,33.043 69.425,53.107 74.828,57.469 76.847,72.614 62.847,79.068 
	50.255,75.95 "/>
<polygon fill="#3F7639" points="55.643,75.95 50.255,84.579 53.018,99.685 58.793,103.536 49.636,114.968 31.817,113.714 
	24.055,103.536 35.757,98.727 36.957,86.498 31.629,75.658 33.659,66.249 42.256,70.791 52.473,65.88 "/>
<polygon fill="#78C262" points="58.683,24.893 46.2,41.718 59.849,51.681 69.425,53.107 67.397,33.043 "/>
<polygon fill="#78C262" points="31.475,24.907 31.475,42.828 22.573,48.632 24.055,31.847 "/>
<polygon fill="#78C262" points="44.136,11.946 43.064,24.907 55.643,16.894 "/>
<polygon fill="#78C262" points="42.327,48.632 30.522,54.627 43.064,62.928 49.354,56.477 "/>
<polyline fill="#3C7337" points="53.698,79.068 44.729,83.22 46.2,109.778 35.31,113.96 49.636,114.968 58.793,103.536 
	53.018,99.685 50.441,86.166 "/>
</svg>
