<?xml version="1.0" encoding="utf-8"?>
<!-- Generator: Adobe Illustrator 16.0.0, SVG Export Plug-In . SVG Version: 6.00 Build 0)  -->
<!DOCTYPE svg PUBLIC "-//W3C//DTD SVG 1.1//EN" "http://www.w3.org/Graphics/SVG/1.1/DTD/svg11.dtd">
<svg version="1.1" id="Layer_1" xmlns="http://www.w3.org/2000/svg" xmlns:xlink="http://www.w3.org/1999/xlink" x="0px" y="0px"
	 width="90.666px" height="129px" viewBox="0 0 90.666 129" enable-background="new 0 0 90.666 129" xml:space="preserve">
<g>
	<polyline fill="#307AB3" points="45.968,7.983 10.787,65.587 15.492,89.255 	"/>
	<polygon fill="#4589C9" points="82.84,83.61 54.475,119.017 37.271,117.808 34.564,114.263 15.489,89.255 24.708,64.676 
		34.487,38.595 45.968,7.983 57.632,17.386 60.873,25.894 62.372,29.852 67.19,42.486 73.019,57.808 73.074,57.956 74.645,62.085 	
		"/>
	<polygon fill="#95C5DD" points="34.487,38.595 24.708,64.676 24.708,50.68 33.505,38.898 	"/>
	<polygon fill="#7CB4D6" points="73.074,57.956 72.133,70.959 61.988,82.591 59.305,93.03 35.447,93.03 32.162,81.254 
		24.708,68.569 24.708,64.676 34.487,38.595 49.462,33.974 64.379,39.042 67.19,42.486 73.019,57.808 	"/>
	<polygon fill="#7CB4D6" points="36.265,96.479 58.484,96.479 58.484,101.421 37.161,101.421 	"/>
	<polygon fill="#95C5DD" points="38.726,104.212 44.987,109.286 50.954,109.286 56.024,104.212 	"/>
	<polygon fill="#307AB3" points="46.184,90.798 44.395,69.47 50.806,69.47 48.867,90.798 	"/>
	<polyline fill="#307AB3" points="52.295,66.93 58.112,53.51 47.599,49.783 38.726,54.408 44.395,66.93 	"/>
	<polyline fill="#95C5DD" points="67.645,43.693 67.645,59.753 63.317,66.868 56.024,76.685 53.35,93.03 59.305,93.03 
		61.988,82.591 72.133,70.959 73.074,57.956 	"/>
</g>
</svg>
