<?xml version="1.0" encoding="utf-8"?>
<!-- Generator: Adobe Illustrator 16.0.0, SVG Export Plug-In . SVG Version: 6.00 Build 0)  -->
<!DOCTYPE svg PUBLIC "-//W3C//DTD SVG 1.1//EN" "http://www.w3.org/Graphics/SVG/1.1/DTD/svg11.dtd">
<svg version="1.1" id="Layer_1" xmlns="http://www.w3.org/2000/svg" xmlns:xlink="http://www.w3.org/1999/xlink" x="0px" y="0px"
	 width="90.666px" height="129px" viewBox="0 0 90.666 129" enable-background="new 0 0 90.666 129" xml:space="preserve">
<path fill="#529640" d="M70.833,44c0,6.627-5.373,12-12,12h-30c-6.627,0-12-5.373-12-12V27c0-6.627,5.373-12,12-12h30
	c6.627,0,12,5.373,12,12V44z"/>
<path fill="#529640" d="M50.833,63c0-3.866-3.134-7-7-7l0,0c-3.866,0-7,3.134-7,7v31c0,3.866,3.134,7,7,7l0,0c3.866,0,7-3.134,7-7
	V63z"/>
<path fill="#529640" d="M37.833,100.5c0-3.866-3.134-7-7-7l0,0c-3.866,0-7,3.134-7,7v2c0,3.866,3.134,7,7,7l0,0c3.866,0,7-3.134,7-7
	V100.5z"/>
<path fill="#529640" d="M50.833,101.5c0-4.143,3.357-7.5,7.5-7.5l0,0c4.143,0,7.5,3.357,7.5,7.5l0,0c0,4.143-3.357,7.5-7.5,7.5l0,0
	C54.19,109,50.833,105.643,50.833,101.5L50.833,101.5z"/>
</svg>
