<?xml version="1.0" encoding="utf-8"?>
<!-- Generator: Adobe Illustrator 16.0.0, SVG Export Plug-In . SVG Version: 6.00 Build 0)  -->
<!DOCTYPE svg PUBLIC "-//W3C//DTD SVG 1.1//EN" "http://www.w3.org/Graphics/SVG/1.1/DTD/svg11.dtd">
<svg version="1.1" id="Layer_1" xmlns="http://www.w3.org/2000/svg" xmlns:xlink="http://www.w3.org/1999/xlink" x="0px" y="0px"
	 width="90.666px" height="129px" viewBox="0 0 90.666 129" enable-background="new 0 0 90.666 129" xml:space="preserve">
<g>
	<polygon fill="#E8A52E" points="77.28,79.654 41.521,117.805 36.032,110.609 33.588,107.398 16.319,84.764 43.905,11.197 
		54.466,19.719 57.396,27.409 58.757,30.993 68.394,56.296 69.862,60.171 	"/>
	<polygon fill="#F4D332" points="69.862,60.171 36.032,110.609 33.588,107.398 46.53,71.114 26.338,77.97 57.396,27.409 
		58.757,30.993 48.987,63.196 68.394,56.296 	"/>
	<polyline fill="#D8872D" points="43.905,11.197 26.338,77.97 33.588,107.398 16.319,84.764 	"/>
	<polygon fill="#EFD978" points="59.952,59.295 36.032,110.609 69.862,60.171 68.394,56.296 	"/>
	<path fill="#D8872D" d="M54.466,19.719"/>
</g>
</svg>
