<?xml version="1.0" encoding="utf-8"?>
<!-- Generator: Adobe Illustrator 16.0.0, SVG Export Plug-In . SVG Version: 6.00 Build 0)  -->
<!DOCTYPE svg PUBLIC "-//W3C//DTD SVG 1.1//EN" "http://www.w3.org/Graphics/SVG/1.1/DTD/svg11.dtd">
<svg version="1.1" id="Layer_1" xmlns="http://www.w3.org/2000/svg" xmlns:xlink="http://www.w3.org/1999/xlink" x="0px" y="0px"
	 width="470.666px" height="303.223px" viewBox="0 0 470.666 303.223" enable-background="new 0 0 470.666 303.223"
	 xml:space="preserve">
<g id="Layer_7" display="none">
	
		<linearGradient id="SVGID_1_" gradientUnits="userSpaceOnUse" x1="332.6301" y1="435.7395" x2="332.6301" y2="168.842" gradientTransform="matrix(1 0 0 1 -16.7197 48.999)">
		<stop  offset="0" style="stop-color:#B17AA5"/>
		<stop  offset="0.3806" style="stop-color:#C7B2D6"/>
		<stop  offset="0.612" style="stop-color:#91A7BC"/>
		<stop  offset="1" style="stop-color:#407E9E"/>
	</linearGradient>
	<rect x="20.999" y="217.841" display="inline" fill="url(#SVGID_1_)" width="589.822" height="266.897"/>
</g>
<g id="Layer_6" display="none">
	<polyline display="inline" fill="#6C6571" points="-21.588,518.554 61.843,430.667 73.588,438.364 76.828,434.718 91.041,437.087 
		103,440.666 108,440.332 123.345,423.332 125.833,415.683 142.844,420.543 182.245,431.13 203.667,432.998 324.691,429.048 
		339.676,430.667 348.182,430.263 359.521,415.683 371.267,408.393 376.127,416.088 382.606,424.188 394.757,433.097 
		405.285,438.769 412.172,435.123 417.031,429.048 427.562,429.048 429.183,424.593 433.232,422.972 444.572,421.757 
		453.075,410.823 497.629,416.088 547.444,414.468 560.404,526.655 572.554,591.05 -13.488,606.035 	"/>
</g>
<g id="Layer_8" display="none">
	<path display="inline" fill="#37313A" d="M104.043,465.373l19.302,14.629l17.989-18.9l9-11.643l-7.923-6.436
		c0,0,13.923-21.406,20.934-37.489c0,0,2.553,26.907,13.323,31.268c0,0-5.947,3.24-5.574,5.104
		c0.372,1.862,17.507,16.02,21.977,16.391l-4.097-5.959l7.45-6.705l-3.354-1.117l16.765-11.92l9.312,13.037l-2.979,1.117
		c0,0,14.153,17.879,28.682,18.625c14.528,0.744,106.163,1.863,106.163,1.863l27.938-4.845c0,0,17.88-25.34,19.741-33.155
		l-4.097-2.978l11.176-10.058l12.292,8.938l-2.98,4.095c0,0,12.292,20.491,19.743,23.1c7.45,2.607,35.76,7.822,35.76,7.822
		l31.663,7.078h70.029l5.96,61.09l-551.3,38.369l-7.823-94.615l37.25-6.334l21.233-28.684l8.195,14.155L104.043,465.373z"/>
</g>
<g id="Layer_10" display="none">
	
		<radialGradient id="SVGID_2_" cx="220.7976" cy="292.9963" r="135.9548" gradientTransform="matrix(2.1913 0 0 1.3528 -214.8353 -18.8527)" gradientUnits="userSpaceOnUse">
		<stop  offset="0.3884" style="stop-color:#EF4358;stop-opacity:0.9"/>
		<stop  offset="0.9403" style="stop-color:#000000;stop-opacity:0"/>
	</radialGradient>
	
		<ellipse display="inline" opacity="0.7" fill="url(#SVGID_2_)" enable-background="new    " cx="268.999" cy="377.512" rx="297.917" ry="183.921"/>
	
		<radialGradient id="SVGID_3_" cx="217.6096" cy="296.8323" r="105.4175" gradientTransform="matrix(1.8905 0 0 1.4612 -135.9091 -25.3383)" gradientUnits="userSpaceOnUse">
		<stop  offset="0.4026" style="stop-color:#FFEEDE;stop-opacity:0.9"/>
		<stop  offset="1" style="stop-color:#000000;stop-opacity:0"/>
	</radialGradient>
	
		<ellipse display="inline" opacity="0.6" fill="url(#SVGID_3_)" enable-background="new    " cx="275.483" cy="408.392" rx="199.294" ry="154.034"/>
</g>
<g id="Layer_4" display="none">
	<g display="inline">
		<polygon fill="#171414" points="253.079,506.657 251.712,508.934 257.332,514.25 243.056,514.25 243.056,503.618 246.461,499.438 
					"/>
		<polygon fill="#211E1D" points="246.461,499.438 260.066,501.188 257.332,514.25 251.712,508.934 253.079,506.657 		"/>
		<polygon fill="#211E1D" points="231.109,510.122 229.696,516.857 231.109,525.309 235.817,520.906 233.691,512.249 		"/>
		<polygon fill="#171414" points="231.109,510.122 225.793,517.715 231.109,525.309 231.868,520.297 229.838,517.715 		"/>
		<polygon fill="#574C45" points="242.044,518.475 240.676,520.752 242.044,521.818 243.714,519.538 		"/>
		<polygon fill="#383331" points="242.044,518.475 242.044,521.818 243.714,519.538 		"/>
		<path fill="#211D1B" d="M402.017,476.357c-1.614,4.047-18.424,19.233-18.424,19.233l-13.772-0.201l-14.58-20.453l-30.375-9.514
			l-23.086-0.813l-4.045,2.43v2.637c-2.432,2.83-9.318-0.846-9.318-0.846l-19.642,19.678l-4.053,0.607l-5.868,5.668l-27.745,6.274
			l-18.632-5.668c0,0-19.48-19.744-27.539-32.196c-8.294-12.818-10.527-49.238-10.527-49.408l179.008,5.467L402.017,476.357z"/>
		<path fill="#FBB040" d="M269.989,460.559"/>
		<polygon fill="#171414" points="268.774,488.506 271.608,458.534 264.724,458.534 264.723,489.721 		"/>
		<path fill="#171414" d="M288.414,468.829l2.634-39.859l9.112,1.416l-2.427,39.289
			C297.734,469.674,295.906,473.456,288.414,468.829z"/>
		<polygon fill="#211E1D" points="300.16,430.385 302.388,426.741 304.414,431.803 297.734,469.674 		"/>
		<polygon fill="#211E1D" points="355.24,474.936 365.974,455.497 367.189,477.366 369.821,495.389 		"/>
		<path fill="#171414" d="M324.865,465.422l-2.631-42.125l44.146,25.922l-0.404,6.277l-10.733,19.438
			C355.24,474.936,339.444,470.891,324.865,465.422z"/>
		<polygon fill="#211E1D" points="251.561,488.504 231.109,501.057 258.854,494.782 		"/>
		<polygon fill="#211E1D" points="341.372,485.262 315.858,513.615 306.136,499.438 		"/>
		<polygon fill="#171414" points="281.836,486.482 296.821,510.577 315.858,513.615 305.427,496.706 281.836,485.262 		"/>
		<polygon fill="#37313A" points="298.034,462.338 329.627,458.534 341.372,485.262 306.136,499.438 280.925,486.482 		"/>
		<polygon fill="#3D3640" points="298.197,462.417 303.845,481.053 341.372,485.803 329.67,458.534 		"/>
		<polygon fill="#302B28" points="190.406,458.534 212.477,495.389 230.096,482.025 		"/>
		<path fill="#37313A" d="M402.017,476.357l-18.832,18.426l-15.996-17.416l-1.215-21.871l-43.31-25.26l-0.432-0.257l-1.015-4.252
			l-16.805,6.074l-2.229-1.414l-2.134,1.812l-0.498,0.418l-8.583-2.453l-5.989,7.145v0.006l-13.371,15.96v5.262l-6.685,5.268
			l-0.206,4.66L251.56,488.51l-21.47-6.481l-11.263-8.306l-14.063-10.369l-2.412-1.778l-7.284-12.455l-20.661-35.332l36.853-41.918
			l6.926-4.781l27.095-18.711l4.459-6.075v-2.43h2.225l4.774-7.254l0.007-0.007l0.688-1.044l10.127-9.312l14.58,0.808l15.595-2.43
			l3.34,9.319l4.96,4.859l3.188,3.189l0.012,0.006l3.688,3.688l2.431-0.606l0.399,3.645l33.012,34.428l-1.42,1.822
			c0.418,0.376,0.854,0.79,1.299,1.233l0.006,0.006c0.05,0.042,0.093,0.091,0.136,0.134c0.013,0.013,0.035,0.037,0.062,0.067
			c2.879,2.903,6.215,7.108,9.672,11.938c0.019,0.023,0.035,0.05,0.062,0.071c3.998,5.577,8.17,11.98,12.054,18.214
			c8.723,13.991,15.971,27.084,16.391,27.834c0.007,0.015,0.013,0.025,0.02,0.037c11.312,27.076,14.872,35.576,14.975,35.836
			C402.017,476.357,402.017,476.357,402.017,476.357z"/>
		<polygon fill="#332D33" points="348.763,379.156 326.336,391.804 309.628,401.227 297.782,380.723 283.512,374.63 
			283.202,374.497 265.998,358.373 261.484,354.145 250.044,340.24 249.953,340.124 249.74,339.869 249.863,339.735 
			249.893,339.705 256.709,332.341 257.433,331.564 267.56,322.25 297.454,350.755 300.212,353.385 304.059,354.047 
			304.617,354.145 314.186,356.119 331.954,370.7 		"/>
		<polygon fill="#403942" points="309.628,401.227 321.222,425.729 304.414,431.803 302.188,430.385 299.755,433.424 
			290.969,430.165 271.608,453.268 		"/>
		<polygon fill="#37323A" points="174.41,413.784 207.719,439.197 219.414,441.625 284.982,437.311 271.608,453.268 
			272.419,458.534 264.926,463.799 265.221,468.182 251.561,488.504 230.096,482.025 202.354,461.572 		"/>
		<polygon fill="#2D2930" points="219.414,441.625 251.561,488.504 230.096,482.025 190.406,458.534 174.41,413.784 		"/>
		<polygon fill="#302C33" points="219.414,441.625 283.202,374.497 297.782,380.723 309.628,401.227 284.982,437.311 		"/>
		<polygon fill="#403942" points="283.202,374.497 276.118,381.957 256.332,402.777 242.196,387.558 234.012,388.554 
			229.694,389.077 211.261,371.866 219.796,369.934 231.868,367.207 249.74,354.145 249.74,339.869 249.942,340.075 250.021,340.16 
			264.182,354.807 		"/>
		<polygon fill="#3D3640" points="231.868,367.207 242.196,387.558 229.696,389.077 211.263,371.863 		"/>
		<path fill="#3D3640" d="M402.017,476.357l-18.832,18.426l-7.356-49.195l-0.334-2.242l-14.592-15.297l-8.414-8.826l-0.14-0.145
			l-25.729-26.975l-0.285-0.298l4.438-2.509l17.988-10.141l-1.42,1.823l1.299,1.233l0.006,0.006l0.115,0.109
			c0,0,0.006,0.006,0.021,0.023c0.012,0.012,0.035,0.037,0.062,0.067c0.582,0.674,4.459,5.182,9.672,11.938
			c0.019,0.023,0.035,0.049,0.062,0.071c3.813,4.951,8.347,11.111,12.823,17.861c5.867,8.844,11.652,18.706,15.619,28.188
			c0.006,0.013,0.013,0.025,0.019,0.037c11.312,27.076,14.873,35.576,14.976,35.836
			C402.017,476.357,402.017,476.357,402.017,476.357z"/>
		<polygon fill="#2A262B" points="348.763,379.156 347.343,380.979 326.62,392.102 309.628,401.227 326.336,391.804 
			330.776,389.295 		"/>
		<path fill="#77AFAF" d="M256.733,332.549c-0.02-0.134-0.023-0.207-0.023-0.207"/>
		<path fill="#77AFAF" d="M315.352,341.081l-2.839-0.757l-3.278-2.321l-0.012-0.006c-12.808,5.447-14.455,7-21.01,8.78
			c-6.469,1.758-21.357,4.854-18.225,23c1.619,9.378,9.863,19.515,9.152,22.667c-1.598,7.036-35.279,18.207-40.285,19.566
			c-3.555,0.966-6.84,2.126-9.878,3.439c-10.852,4.688-18.529,11.27-23.803,17.369c-0.796,0.924-1.543,1.84-2.235,2.731
			c-5.563,7.197-7.722,13.158-7.86,13.547c-0.007,0.015-0.007,0.021-0.007,0.021l-0.321,11.983l-0.122,4.484l-0.261,9.969
			l-0.354,12.951l-0.185,13.66c8.949,0,17.899,0,26.851,0l-0.1-4.312l-0.037-8.59v-0.76l-0.056-12.168c0,0-0.74-0.918-1.657-2.619
			c-2.248-4.153-5.528-13-1.543-24.604c0.844-2.453,1.792-4.543,2.896-6.367c0.25-0.424,0.518-0.832,0.783-1.229
			c6.38-9.295,17.569-11.448,40.972-22.223c1.92-0.881,36.089-13.584,36.256-22.854c0.207-11.551-3.908-12.766-9.781-19.722
			c-4.792-5.675-5.925-17.335,0-20.611"/>
		<defs>
			<filter id="Adobe_OpacityMaskFilter" filterUnits="userSpaceOnUse" x="193.311" y="502.167" width="28.255" height="38.5">
				<feColorMatrix  type="matrix" values="1 0 0 0 0  0 1 0 0 0  0 0 1 0 0  0 0 0 1 0"/>
			</filter>
		</defs>
		<mask maskUnits="userSpaceOnUse" x="193.311" y="502.167" width="28.255" height="38.5" id="SVGID_4_">
			<g filter="url(#Adobe_OpacityMaskFilter)">
				
					<linearGradient id="SVGID_5_" gradientUnits="userSpaceOnUse" x1="224.2048" y1="443.425" x2="224.2048" y2="485.6262" gradientTransform="matrix(1 0 0 1 -16.7197 48.999)">
					<stop  offset="0.3367" style="stop-color:#FFFFFF"/>
					<stop  offset="1" style="stop-color:#000000"/>
				</linearGradient>
				<rect x="190.406" y="492.424" fill="url(#SVGID_5_)" width="34.16" height="42.201"/>
			</g>
		</mask>
		<g mask="url(#SVGID_4_)">
			<path fill="#77AFAF" d="M193.311,540.667c9.114,0,19.141,0,28.255,0l-0.887-38.5c-8.949,0-17.899,0-26.85,0L193.311,540.667z"/>
			<path fill="#85BABA" d="M193.311,540.667c3.746,0,7.675,0,11.421,0c0.021-10.229,0.021-24.494,0.035-38.5
				c-3.572,0-7.145,0-10.717,0L193.311,540.667z"/>
		</g>
		<path fill="#85BABA" d="M238.855,412.01c-40.248,8.959-43.784,37.106-43.784,37.106l-1.021,53.051c3.572,0,7.145,0,10.717,0
			c0.02-21.348,0.061-42.086,0.219-46.988C205.898,427.249,238.855,412.01,238.855,412.01z"/>
		<polygon fill="#211E1D" points="358.48,499.461 360.646,501 366.378,495.805 365.281,510.042 354.679,509.223 350.773,505.504 		
			"/>
		<polygon fill="#171414" points="350.773,505.504 353.567,492.075 366.378,495.805 360.646,501 358.48,499.461 		"/>
	</g>
</g>
<g id="Layer_5" display="none">
	<path display="inline" fill="#1E1D1E" d="M193.104,537.089l-38.789-53.959l-10.877-16.522l-17.369-4.537l1.104-10.394l2.512-23.621
		l3.445-1.424c0,0-26.834-13.771-31.537-17.617c0,0-30.364,15.188-37.192,15.796l3.538,1.847l4.703,36.227l-8.241-0.606
		l-23.303,4.858L32.622,561.3l60.021-3.244l476.882-6.883l-7.527-92.342c0,0-47.077-7.355-59.791-21.299l2.826-4.623l-37.657-29.968
		c0,0-32.484,15.794-37.669,19.438l9.423,8.101c0,0-27.781,24.706-33.896,29.159c0,0,9.887,7.289,11.299,8.91
		c1.412,1.623-15.535,21.871-15.535,21.871l3.291,4.453l-32.854,36.215l-27.723,3.666 M85.819,448.976h-9.18V431.56
		c0,0,0-5.485,4.59-5.469c4.562,0.023,4.59,4.148,4.59,4.252V448.976z M98.77,448.976h-9.181V431.56c0,0,0-5.485,4.591-5.469
		c4.568,0.021,4.59,4.174,4.59,4.252V448.976z M110.774,448.976h-9.18V431.56c0,0,0-5.485,4.59-5.469
		c4.568,0.021,4.59,4.174,4.59,4.252V448.976z M122.778,448.976h-9.18V431.56c0,0,0-5.485,4.59-5.469
		c4.568,0.023,4.59,4.174,4.59,4.252V448.976z"/>
	<path display="inline" fill="#171617" d="M467.247,402.777l-13.37,24.109l11.881,4.318l-27.81,31.215l12.147,11.135l-38.338,53.229
		l-20.517,26.795l159.822-2.308l-12.574-97.565c0,0-50.869-34.654-70.399-50.257"/>
	<path display="inline" fill="#1E1D1E" d="M131.073,459.837"/>
	<polyline display="inline" fill="#171617" points="127.352,453.3 82.495,453.3 84.495,462.546 97.161,465.38 100.495,476.923 
		123.161,482.281 154.495,517.578 187.548,529.06 143.771,466.767 126.402,462.231 127.352,453.3 	"/>
</g>
<g id="edificios">
	<g>
		<rect x="207.353" y="190.582" fill="#191719" width="48.605" height="18.916"/>
		<polygon fill="#191719" points="275.736,201.471 182.237,197.951 186.214,188.774 270.858,188.774 		"/>
		<path fill="#AE5B4B" d="M257.455,59.836c-7.426-7.335-17.661-11.856-28.918-11.856c-8.732,0-16.843,2.727-23.513,7.401
			c4.896-8.886,14.359-14.891,25.218-14.891C242.828,40.491,253.556,48.579,257.455,59.836z"/>
		<path fill="#AB473A" d="M259.05,69.299c0,15.91-12.896,28.808-28.808,28.808s-28.809-12.897-28.809-28.808
			c0-5.053,1.308-9.794,3.59-13.917c6.671-4.676,14.78-7.401,23.514-7.401c11.257,0,21.492,4.521,28.918,11.856
			C258.496,62.805,259.05,65.974,259.05,69.299z"/>
		<polygon fill="#DDB7AC" points="278.308,99.058 271.439,163.102 216.26,135.047 200.259,85.186 265.832,85.186 		"/>
		<polygon fill="#CEABA3" points="271.439,163.102 268.491,190.448 190.577,190.448 180.848,99.058 192.681,85.186 200.259,85.186 
			216.26,135.047 		"/>
		<rect x="185.901" y="176.776" fill="#E1C3BC" width="87.619" height="15.889"/>
		<polygon fill="#D6B9B4" points="273.521,176.776 273.521,192.662 185.901,192.662 206.509,186.199 255.417,183.246 
			265.112,176.776 		"/>
		<rect x="210.729" y="137.816" fill="#B6958D" width="39.52" height="62.602"/>
		<polygon fill="#AB473A" points="270.885,77.254 188.448,77.254 190.777,69.299 268.023,69.299 		"/>
		<polygon fill="#933932" points="273.741,85.186 186.121,85.186 188.448,77.254 270.885,77.254 		"/>
		<g>
			<path fill="#615250" d="M208.935,93.33l-0.951,16.909c-2.748,1.24-4.787,2.192-6.314,2.88V94.792l4.83-2.947L208.935,93.33z"/>
			<path fill="#4C4241" d="M211.35,94.793v20.321h-9.682v-1.994c1.527-0.688,3.566-1.64,6.314-2.88l0.951-16.909L211.35,94.793z"/>
		</g>
		<g>
			<path fill="#615250" d="M234.026,92.588l-0.952,16.908c-2.749,1.242-4.787,2.193-6.317,2.881V94.051l4.832-2.947L234.026,92.588z
				"/>
			<path fill="#4C4241" d="M236.441,94.051v20.321h-9.686v-1.994c1.53-0.688,3.568-1.639,6.317-2.88l0.952-16.909L236.441,94.051z"
				/>
		</g>
		<g>
			<path fill="#615250" d="M257.845,92.334l-0.952,16.908c-2.748,1.24-4.787,2.192-6.315,2.881V93.795l4.832-2.946L257.845,92.334z"
				/>
			<path fill="#4C4241" d="M260.26,93.796v20.322h-9.684v-1.994c1.528-0.688,3.567-1.642,6.315-2.881l0.952-16.908L260.26,93.796z"
				/>
		</g>
		<g>
			<path fill="#615250" d="M239.73,141.955l-3.279,45.086c-9.457,3.312-16.472,5.854-21.732,7.684v-48.871l16.623-7.859
				L239.73,141.955z"/>
			<path fill="#4C4241" d="M248.039,145.854v54.189h-33.322v-5.318c5.262-1.832,12.275-4.375,21.732-7.684l3.279-45.086
				L248.039,145.854z"/>
		</g>
		<polygon fill="#AB473A" points="255.417,130.239 255.417,135.047 205.557,135.047 205.557,130.239 229.71,121.751 		"/>
		<rect x="205.557" y="135.047" fill="#8A3831" width="49.86" height="5.54"/>
		<rect x="210.024" y="195.426" fill="#E1C3BC" width="40.929" height="7.42"/>
		<polygon fill="#967B77" points="202.322,158.869 200.259,167.358 197.468,170.127 195.955,157.762 		"/>
		<polygon fill="#776462" points="204.448,158.869 202.61,178.99 197.933,178.99 197.89,177.994 197.468,170.127 200.259,167.358 
			202.322,158.869 		"/>
		<polygon fill="#967B77" points="262.746,158.869 260.687,167.358 257.895,170.127 256.243,158.869 		"/>
		<polygon fill="#776462" points="264.874,158.869 263.034,178.99 258.36,178.99 258.314,177.994 257.895,170.127 260.687,167.358 
			262.746,158.869 		"/>
		<path fill="#FFCF43" d="M201.752,157.979c0,0,9.535-4.385,0.418-13.318c0,0,0.89,1.866,0.188,3.314
			c-0.704,1.449-3.365,0.84-3.507,4.814c0,0-0.561-2.009,0-4.956c0,0-5.188,6.452,0.746,10.049"/>
		<path fill="#FCB644" d="M201.001,157.815c0,0,2.807-2.406,2.76-3.949c0,0-1.938,1.66-2.326,1.52
			c-0.386-0.139,2.655-1.338,1.297-5.468c0,0-0.512,1.077-3.038,3.787c-1.911,2.053,1.168,2.664,0.42,4.113h0.889L201.001,157.815
			L201.001,157.815z"/>
		<path fill="#FFCF43" d="M261.701,157.979c0,0,9.533-4.385,0.418-13.318c0,0,0.887,1.866,0.186,3.314
			c-0.698,1.449-3.365,0.84-3.506,4.814c0,0-0.562-2.009,0-4.956c0,0-5.189,6.452,0.751,10.049"/>
		<path fill="#FCB644" d="M260.952,157.815c0,0,2.805-2.406,2.758-3.949c0,0-1.939,1.66-2.329,1.52
			c-0.385-0.139,2.655-1.338,1.297-5.468c0,0-0.509,1.077-3.037,3.787c-1.91,2.053,1.169,2.664,0.42,4.113h0.893L260.952,157.815
			L260.952,157.815z"/>
		
			<radialGradient id="SVGID_6_" cx="352.8391" cy="160.4993" r="85.8706" gradientTransform="matrix(1 0 0 1 -16.7197 48.999)" gradientUnits="userSpaceOnUse">
			<stop  offset="0.0532" style="stop-color:#FEE56A;stop-opacity:0.25"/>
			<stop  offset="0.4312" style="stop-color:#FEE56A;stop-opacity:0.15"/>
			<stop  offset="1" style="stop-color:#000000;stop-opacity:0"/>
		</radialGradient>
		<circle opacity="0.7" fill="url(#SVGID_6_)" enable-background="new    " cx="336.118" cy="209.499" r="85.871"/>
		
			<radialGradient id="SVGID_7_" cx="171.9641" cy="104.8645" r="97.2266" gradientTransform="matrix(1 0 0 1 -16.7197 48.999)" gradientUnits="userSpaceOnUse">
			<stop  offset="0.0521" style="stop-color:#F8B929;stop-opacity:0.15"/>
			<stop  offset="0.4299" style="stop-color:#FEE56A;stop-opacity:0.15"/>
			<stop  offset="1" style="stop-color:#000000;stop-opacity:0"/>
		</radialGradient>
		
			<radialGradient id="SVGID_8_" cx="171.9641" cy="104.8645" r="97.7266" gradientTransform="matrix(1 0 0 1 -16.7197 48.999)" gradientUnits="userSpaceOnUse">
			<stop  offset="0.0521" style="stop-color:#F8B929;stop-opacity:0.15"/>
			<stop  offset="0.4299" style="stop-color:#FEE56A;stop-opacity:0.15"/>
			<stop  offset="1" style="stop-color:#000000;stop-opacity:0"/>
		</radialGradient>
		
			<circle opacity="0.7" fill="url(#SVGID_7_)" stroke="url(#SVGID_8_)" stroke-miterlimit="10" enable-background="new    " cx="155.244" cy="153.864" r="97.227"/>
	</g>
</g>
</svg>
