<?xml version="1.0" encoding="utf-8"?>
<!-- Generator: Adobe Illustrator 16.0.0, SVG Export Plug-In . SVG Version: 6.00 Build 0)  -->
<!DOCTYPE svg PUBLIC "-//W3C//DTD SVG 1.1//EN" "http://www.w3.org/Graphics/SVG/1.1/DTD/svg11.dtd">
<svg version="1.1" id="Layer_1" xmlns="http://www.w3.org/2000/svg" xmlns:xlink="http://www.w3.org/1999/xlink" x="0px" y="0px"
	 width="90.666px" height="129px" viewBox="0 0 90.666 129" enable-background="new 0 0 90.666 129" xml:space="preserve">
<g>
	<polyline fill="#7F1C1D" points="37.004,24.862 16.836,50.987 14.156,85.794 	"/>
	<polygon fill="#A82823" points="79.122,80.35 77.617,81.962 69.915,90.171 41.013,121.003 35.166,113.337 32.558,109.913 
		14.156,85.794 18.37,74.553 27.489,50.237 43.558,7.397 54.806,16.468 52.979,14.996 54.806,16.468 57.934,24.674 59.382,28.493 
		68.508,52.448 69.648,55.458 71.217,59.585 75.755,71.49 	"/>
	<polygon fill="#E53E30" points="79.122,80.35 69.915,90.171 62.087,98.524 44.617,102.235 22.808,93.261 18.37,74.553 
		27.489,50.237 30.196,45.177 44.971,30.711 43.558,7.397 43.558,7.397 54.806,16.468 60.789,32.229 62.033,49.401 57.812,64.766 
		68.508,52.448 69.648,55.458 71.217,59.585 75.755,71.49 	"/>
	<polygon fill="#A82823" points="43.83,58.518 36.091,71.125 33.147,86.515 42.904,94.405 50.337,94.405 56.372,78.263 
		47.623,68.609 	"/>
	<polyline fill="#EC534A" points="59.333,29.016 30.629,65.148 22.808,93.261 18.37,74.553 22.57,48.083 44.971,30.711 
		54.806,16.468 	"/>
	<polyline fill="#96201F" points="22.57,96.825 38.852,108.702 54.593,106.519 41.013,121.003 	"/>
	<polyline fill="#921D1D" points="51.112,72.454 44.76,82.751 34.084,87.269 42.904,94.405 50.337,94.405 56.372,78.263 	"/>
	<polyline fill="#CC322B" points="72.372,62.619 73.865,78.847 67.02,93.261 79.122,80.35 	"/>
</g>
</svg>
