<?xml version="1.0" encoding="utf-8"?>
<!-- Generator: Adobe Illustrator 16.0.0, SVG Export Plug-In . SVG Version: 6.00 Build 0)  -->
<!DOCTYPE svg PUBLIC "-//W3C//DTD SVG 1.1//EN" "http://www.w3.org/Graphics/SVG/1.1/DTD/svg11.dtd">
<svg version="1.1" id="Layer_1" xmlns="http://www.w3.org/2000/svg" xmlns:xlink="http://www.w3.org/1999/xlink" x="0px" y="0px"
	 width="595.279px" height="841.89px" viewBox="0 0 595.279 841.89" enable-background="new 0 0 595.279 841.89"
	 xml:space="preserve">
<g id="Layer_2">
</g>
<g>
	<g>
		<polygon fill="#181516" points="117.678,397.339 126.177,406.262 156.891,387.708 139.241,451.542 91.699,438.4 77.226,418.002 		
			"/>
		<polygon fill="#3E3741" points="77.226,418.002 101.867,359.341 156.891,387.708 126.177,406.262 117.678,397.339 		"/>
		<polygon fill="#181516" points="416.063,473.987 416.715,486.292 452.114,492.17 397.194,529.187 369.623,488.285 
			371.893,463.377 		"/>
		<polygon fill="#3E3741" points="371.893,463.377 428.76,434.838 452.114,492.17 416.715,486.292 416.063,473.987 		"/>
		<polygon fill="#38333B" points="239.606,181.775 144.943,260.95 127.126,631.827 258.94,728.415 397.573,622.909 374.21,256.249 
					"/>
		<polygon fill="#3E3741" points="120.365,533.166 83.183,528.542 96.338,561.363 142.107,571.178 134.287,553.994 		"/>
		<polygon fill="#211E1D" points="142.107,571.178 113.572,588.568 92.011,580.643 96.338,561.363 		"/>
		<polygon fill="#181516" points="83.183,528.542 84.251,558.666 81.358,569.073 92.011,580.643 96.338,561.363 		"/>
		<rect x="152.828" y="327.361" fill="#2A262D" width="217.097" height="152.294"/>
		<ellipse fill="#2A262D" cx="261.377" cy="325.867" rx="108.548" ry="105.566"/>
		<rect x="152.828" y="453.005" fill="#2A262D" width="217.097" height="122.211"/>
		<path fill="#2A262D" d="M369.923,576.71c0-58.302-48.598-105.563-108.546-105.563c-59.95,0-108.549,47.262-108.549,105.563
			c0,58.307,48.599,105.568,108.549,105.568C321.325,682.279,369.923,635.017,369.923,576.71z"/>
		<polygon fill="#211D1B" points="127.126,631.827 239.862,765.468 262.35,783.331 256.043,762.159 258.94,728.415 		"/>
		<polygon fill="#1C1816" points="397.573,622.909 312.587,742.972 262.35,783.331 239.862,765.468 258.94,728.415 		"/>
		<polygon fill="#322C35" points="374.21,256.249 365.447,423.868 382.972,475.03 357.361,653.512 397.573,622.909 		"/>
		<polygon fill="#29252D" points="138.788,389.042 140.562,541.181 148.739,569.386 144.65,612.014 206.045,689.656 
			127.126,631.827 		"/>
		<polygon fill="#3E3741" points="425.375,523.328 418.823,554.57 425.375,593.781 447.217,573.352 437.35,533.2 		"/>
		<polygon fill="#181516" points="425.375,523.328 400.723,558.553 425.375,593.781 428.905,570.53 419.489,558.553 		"/>
		<polygon fill="#584D46" points="471.172,571.514 464.826,582.083 471.172,587.02 478.918,576.451 		"/>
		<polygon fill="#393432" points="471.172,571.514 471.172,587.02 478.918,576.451 		"/>
		<polygon fill="#3E3741" points="425.885,365.324 392.553,382.436 421.905,402.154 465.256,384.497 449.117,374.697 		"/>
		<polygon fill="#211E1D" points="465.256,384.497 451.465,414.934 429.184,420.525 421.905,402.154 		"/>
		<polygon fill="#181516" points="392.553,382.436 410.397,406.731 413.865,416.96 429.184,420.525 421.905,402.154 		"/>
		<polygon fill="#38333B" points="350.568,308.558 372.017,298.187 369.536,277.982 361.292,274.091 344.657,287.48 
			330.566,293.428 		"/>
		<polygon fill="#38333B" points="157.939,319.839 142.698,307.657 157.939,289.49 175.788,294.787 171.762,313.32 		"/>
		<polyline fill="#2A262D" points="355.47,305.589 341.718,292.406 319.345,297.167 322.386,319.545 351.292,330.098 		"/>
		<polyline fill="#2A262D" points="153.611,316.379 164.06,303.178 181.056,316.106 171.762,332.243 162.539,330.098 		"/>
		<polygon fill="#3E3741" points="61.39,452.542 74.127,475.789 99.435,496.985 102.182,472.303 74.274,452.302 		"/>
		<polygon fill="#181516" points="61.39,452.542 64.86,488.076 99.435,496.985 89.106,480.412 76.698,477.942 		"/>
	</g>
	<g>
		<rect x="165.208" y="336.099" fill="#DBC391" width="192.364" height="141.456"/>
		<ellipse fill="#DBC391" cx="261.391" cy="334.709" rx="96.182" ry="98.055"/>
		<circle fill="#3D332A" cx="261.387" cy="332.244" r="91.625"/>
		<path fill="#5B4936" d="M350.066,342.357c0,50.603-38.01-57.64-88.613-57.64c-50.602,0-89.112,107.762-89.112,57.16
			c0-50.603,37.445-91.351,88.048-91.351C310.991,250.527,350.066,291.755,350.066,342.357z"/>
		<rect x="169.762" y="332.244" fill="#3D332A" width="183.249" height="104.742"/>
		<g>
			<path fill="#3D332A" d="M350.753,325.13c0,24.568-19.912,44.482-44.482,44.482c-24.562,0-44.478-19.914-44.478-44.482
				c0-24.567,19.915-44.481,44.478-44.481C330.841,280.649,350.753,300.563,350.753,325.13z"/>
			<circle fill="#3D332A" cx="261.793" cy="287.479" r="43.107"/>
			<circle fill="#3D332A" cx="216.26" cy="325.131" r="45.533"/>
		</g>
		<g>
			<path fill="#DBC391" d="M345.066,324.962c0,23.109-18.73,41.842-41.844,41.842c-23.101,0-41.835-18.733-41.835-41.842
				c0-23.108,18.734-41.842,41.835-41.842C326.335,283.12,345.066,301.854,345.066,324.962z"/>
			<path fill="#DBC391" d="M301.933,289.546c0,22.395-18.148,40.55-40.542,40.55c-22.396,0-40.55-18.156-40.55-40.55
				c0-22.394,18.153-40.551,40.55-40.551C283.785,248.996,301.933,267.152,301.933,289.546z"/>
			<circle fill="#DBC391" cx="218.558" cy="324.962" r="42.829"/>
			<rect x="175.729" y="324.962" fill="#DBC391" width="169.337" height="61.401"/>
		</g>
		<g>
			<circle fill="#3F3125" cx="306.472" cy="322.485" r="31.254"/>
			<circle fill="#3F3125" cx="262.193" cy="289.546" r="30.289"/>
			<circle fill="#3F3125" cx="217.825" cy="322.485" r="31.995"/>
			<rect x="198.205" y="310.931" fill="#3F3125" width="126.497" height="45.868"/>
		</g>
		<rect x="165.208" y="452.8" fill="#DBC391" width="192.364" height="113.514"/>
		<path fill="#DBC391" d="M357.572,567.703c0-54.153-43.061-98.053-96.181-98.053c-53.121,0-96.183,43.899-96.183,98.053
			c0,54.155,43.062,98.053,96.183,98.053C314.511,665.755,357.572,621.858,357.572,567.703z"/>
		<circle fill="#3D332A" cx="261.387" cy="570.263" r="91.625"/>
		<path fill="#5B4936" d="M350.066,560.149c0-50.604-38.01,57.642-88.613,57.642c-50.602,0-89.112-107.767-89.112-57.163
			s37.445,91.354,88.048,91.354C310.991,651.981,350.066,610.752,350.066,560.149z"/>
		<rect x="169.762" y="465.522" fill="#3D332A" width="183.249" height="104.743"/>
		<g>
			<path fill="#3D332A" d="M350.753,577.376c0-24.568-19.912-44.482-44.482-44.482c-24.562,0-44.478,19.914-44.478,44.482
				c0,24.567,19.915,44.481,44.478,44.481C330.841,621.858,350.753,601.944,350.753,577.376z"/>
			<path fill="#3D332A" d="M304.9,615.027c0-23.808-19.294-43.108-43.105-43.108c-23.809,0-43.109,19.301-43.109,43.108
				c0,23.809,19.3,43.111,43.109,43.111C285.605,658.138,304.9,638.835,304.9,615.027z"/>
			<circle fill="#3D332A" cx="216.26" cy="577.376" r="45.533"/>
		</g>
		<g>
			<path fill="#DBC391" d="M345.066,577.544c0-23.107-18.73-41.841-41.844-41.841c-23.101,0-41.835,18.733-41.835,41.841
				c0,23.108,18.734,41.841,41.835,41.841C326.335,619.385,345.066,600.653,345.066,577.544z"/>
			<path fill="#DBC391" d="M301.933,612.96c0-22.396-18.148-40.551-40.542-40.551c-22.396,0-40.55,18.154-40.55,40.551
				c0,22.396,18.153,40.552,40.55,40.552C283.785,653.512,301.933,635.356,301.933,612.96z"/>
			<circle fill="#DBC391" cx="218.558" cy="577.544" r="42.829"/>
			<rect x="175.729" y="516.143" fill="#DBC391" width="169.337" height="61.401"/>
		</g>
		<g>
			<circle fill="#4C3D2D" cx="306.472" cy="580.021" r="31.254"/>
			<circle fill="#4C3D2D" cx="262.193" cy="612.961" r="30.29"/>
			<circle fill="#4C3D2D" cx="217.825" cy="580.022" r="31.994"/>
			<rect x="198.205" y="545.708" fill="#4C3D2D" width="126.497" height="45.865"/>
		</g>
		<path fill="#DBC391" d="M341.095,574.25c0,4.647-3.607,8.418-8.059,8.418H187.892c-4.45,0-8.059-3.771-8.059-8.418V326.94
			c0-4.651,3.608-8.418,8.059-8.418h145.145c4.451,0,8.059,3.768,8.059,8.418V574.25z"/>
		<rect x="182.752" y="329.122" fill="#8C7A64" width="155.815" height="244.333"/>
	</g>
	<g>
		<polygon fill="#334420" points="244.655,122.992 205.622,262.526 240.686,277.728 271.625,249.176 		"/>
		<polygon fill="#29351C" points="244.655,122.992 240.686,277.728 271.625,249.176 		"/>
		<polygon fill="#394F24" points="208.382,177.086 201.48,292.725 231.45,298.673 250.799,271.128 		"/>
		<polygon fill="#2D3A1E" points="208.382,177.086 231.45,298.673 250.799,271.128 		"/>
		<polygon fill="#4F5728" points="167.236,163.813 146.568,277.801 175.614,287.287 198.114,262.25 		"/>
		<polygon fill="#3C3F23" points="167.236,163.813 175.614,287.287 198.114,262.25 		"/>
		<polygon fill="#415125" points="176.614,169.028 157.601,303.8 195.166,312.211 222.196,280.972 		"/>
		<polygon fill="#3B4220" points="273.085,130.229 331.322,279.693 277.888,297.594 242.936,269.042 		"/>
		<polygon fill="#29351C" points="273.085,130.229 277.888,297.594 242.936,269.042 		"/>
		<polygon fill="#394F24" points="307.347,142.861 351.62,249.995 321.398,266.354 291.88,247.168 		"/>
		<polygon fill="#232D19" points="307.347,142.861 321.398,266.354 291.88,247.168 		"/>
		<polygon fill="#4F5728" points="360.441,160.862 378.382,278.698 345.663,284.639 321.751,256.499 		"/>
		<polygon fill="#3C3F23" points="360.441,160.862 345.663,284.639 321.751,256.499 		"/>
		<polygon fill="#415125" points="336.089,163.813 357.572,298.587 315.128,306.996 284.594,275.759 		"/>
		<polygon fill="#343F1E" points="336.089,163.813 315.128,306.996 284.594,275.759 		"/>
		<polygon fill="#343F1E" points="176.614,169.028 195.166,312.211 222.196,280.972 		"/>
	</g>
	
		<radialGradient id="SVGID_1_" cx="269.0198" cy="634.3511" r="99.4616" gradientTransform="matrix(1 0 0 -1 -8.3599 865.9443)" gradientUnits="userSpaceOnUse">
		<stop  offset="0.081" style="stop-color:#FBB040"/>
		<stop  offset="0.9005" style="stop-color:#FBB040;stop-opacity:0"/>
	</radialGradient>
	<path fill="url(#SVGID_1_)" d="M362.222,278.579c0,55.467-43.062,50.198-99.155,50.198c-56.087,0-103.969,5.269-103.969-50.198
		c0-55.464,47.926-144.302,104.012-144.302C319.202,134.276,362.222,223.116,362.222,278.579z"/>
	<g id="enemy">
		<g>
			<path fill="#A88F67" d="M315.814,273.543v27.65H208.289v-27.65h11.945c0,3.298,2.671,5.97,5.975,5.97
				c3.297,0,5.97-2.672,5.97-5.97h11.966c-0.01,0.124-0.016,0.247-0.016,0.37c0,3.302,2.673,5.975,5.971,5.975
				c3.301,0,5.975-2.672,5.975-5.975c0-0.123-0.005-0.246-0.016-0.37h11.976c0.189,3.125,2.791,5.602,5.962,5.602
				c3.167,0,5.77-2.477,5.959-5.602h11.976c0.19,3.125,2.785,5.597,5.961,5.597c3.168,0,5.766-2.473,5.953-5.597H315.814z"/>
			<circle fill="#A88F67" cx="214.26" cy="274.287" r="5.974"/>
			<circle fill="#A88F67" cx="238.155" cy="273.542" r="5.974"/>
			<circle fill="#A88F67" cx="262.049" cy="273.17" r="5.973"/>
			<circle fill="#A88F67" cx="285.942" cy="273.914" r="5.974"/>
			<circle fill="#A88F67" cx="309.837" cy="273.542" r="5.974"/>
			<rect x="208.287" y="284.195" fill="#917653" width="107.527" height="16.999"/>
		</g>
		<path fill="#E8CC56" d="M265.671,175.298c-1.785,4.499-2.029,8.148-1.952,10.38c0.042,1.182,0.173,1.964,0.215,2.266h-2.975
			c0.111-0.779,0.822-4.806-1.008-10.601c-0.208-0.658-0.449-1.34-0.729-2.043c-0.494-1.249-0.704-2.264-0.714-3.09
			c-0.037-2.706,2.049-3.384,3.199-3.55c0.438-0.064,0.739-0.056,0.739-0.056S268.398,168.416,265.671,175.298z"/>
		<rect x="227.287" y="214.019" fill="#E2CD9F" width="71.321" height="90.244"/>
		<path fill="#D3B741" d="M265.671,175.298c-1.785,4.499-2.029,8.148-1.952,10.38c-0.709-1.999-1.496-5.712,0.423-9.688
			c2.072-4.287-0.792-6.479-2.434-7.332c0.438-0.064,0.739-0.055,0.739-0.055S268.398,168.416,265.671,175.298z"/>
		<path fill="#BC9F6C" d="M298.609,221.495v17.47c-32.756-10.85-59.87-3.333-71.323,1.074v-17.479L298.609,221.495z"/>
		<path fill="#B33634" d="M305.945,221.342c0,15.651-10.178,12.095-24.882,8.95c-5.571-1.188-11.8-2.319-18.362-2.319
			c-8.618,0-16.647,1.945-23.387,3.42c-11.946,2.617-19.854,3.749-19.854-10.05c0-21.587,19.36-39.088,43.24-39.088
			C286.586,182.253,305.945,199.754,305.945,221.342z"/>
		<path fill="#A02E2D" d="M299.556,221.342c0,15.651-8.879,12.095-21.704,8.95c19.015-26.769-16.017-48.039-16.017-48.039
			C282.669,182.253,299.556,199.754,299.556,221.342z"/>
		<path fill="#BD3F40" d="M241.438,231.392c-10.42,2.617-17.318,3.749-17.318-10.05c0-21.587,16.887-39.088,37.715-39.088
			C261.835,182.253,229.495,205.156,241.438,231.392z"/>
		<path fill="#8D2525" d="M266.215,182.239c0,1.942-1.688,1.658-3.767,1.658c-2.08,0-3.766,0.284-3.766-1.658
			c0-1.939,1.687-1.626,3.766-1.626C264.527,180.613,266.215,180.3,266.215,182.239z"/>
		<path fill="#E2CD9F" d="M284.708,256.987"/>
		<g>
			<circle fill="#BC9F6C" cx="262.448" cy="256.086" r="24.917"/>
			<rect x="237.531" y="256.085" fill="#BC9F6C" width="49.834" height="52.812"/>
		</g>
		<g>
			<path fill="#EADABE" d="M283.987,260.951c0,0.675-0.031,1.342-0.094,2.001c-1.01,11.178-10.405,19.935-21.842,19.935
				c-11.192,0-20.429-8.387-21.771-19.217c-0.108-0.892-0.165-1.797-0.165-2.719c0-12.115,9.822-21.935,21.936-21.935
				C274.163,239.016,283.987,248.836,283.987,260.951z"/>
			<rect x="240.114" y="260.951" fill="#EADABE" width="43.873" height="46.486"/>
		</g>
		<rect x="253.73" y="259.278" fill="#D1B68B" width="17.983" height="9.39"/>
		<g>
			<g>
				<path fill="#EFDEB4" d="M336.019,262.912c-7.605,19.17-8.654,34.725-8.322,44.233c0.18,5.039,0.744,8.376,0.92,9.657h-12.682
					c0.473-3.317,3.506-20.479-4.297-45.18c-0.885-2.808-1.908-5.715-3.096-8.71c-2.109-5.32-3-9.647-3.047-13.169
					c-0.158-11.526,8.736-14.419,13.637-15.131c1.863-0.276,3.146-0.235,3.146-0.235S347.642,233.583,336.019,262.912z"/>
				<path fill="#D8C498" d="M336.019,262.912c-7.605,19.17-8.654,34.725-8.322,44.233c-3.025-8.515-6.375-24.342,1.809-41.285
					c8.82-18.268-3.379-27.613-10.373-31.249c1.863-0.276,3.146-0.235,3.146-0.235S347.642,233.583,336.019,262.912z"/>
				<circle fill="#4F402A" cx="322.281" cy="250.638" r="11.728"/>
				<ellipse fill="#3A3022" cx="322.281" cy="252.318" rx="9.486" ry="9.231"/>
			</g>
			
				<linearGradient id="SVGID_2_" gradientUnits="userSpaceOnUse" x1="330.6399" y1="606.6694" x2="330.6399" y2="623.8218" gradientTransform="matrix(1 0 0 -1 -8.3599 865.9443)">
				<stop  offset="0" style="stop-color:#FFFFFF"/>
				<stop  offset="1" style="stop-color:#FAF9D5;stop-opacity:0.8"/>
			</linearGradient>
			<ellipse fill="url(#SVGID_2_)" cx="322.281" cy="250.698" rx="8.65" ry="8.576"/>
			
				<radialGradient id="SVGID_3_" cx="330.6389" cy="616.6284" r="24.035" gradientTransform="matrix(1 0 0 -1 -8.3599 865.9443)" gradientUnits="userSpaceOnUse">
				<stop  offset="0" style="stop-color:#FFFFFF"/>
				<stop  offset="0.9005" style="stop-color:#FAF9D5;stop-opacity:0"/>
			</radialGradient>
			<ellipse fill="url(#SVGID_3_)" cx="322.281" cy="249.315" rx="24.168" ry="23.9"/>
		</g>
		<rect x="315.052" y="294.792" fill="#D6BF92" width="13.951" height="3.583"/>
		<g>
			<g>
				<path fill="#EFDEB4" d="M216.606,263.384c-7.604,19.17-8.653,34.725-8.321,44.234c0.179,5.038,0.744,8.376,0.922,9.657h-12.682
					c0.47-3.318,3.505-20.482-4.298-45.182c-0.885-2.806-1.909-5.714-3.097-8.709c-2.11-5.32-3.001-9.647-3.047-13.169
					c-0.159-11.526,8.735-14.419,13.635-15.13c1.864-0.276,3.149-0.237,3.149-0.237S228.229,234.055,216.606,263.384z"/>
				<path fill="#D8C498" d="M216.606,263.384c-7.604,19.17-8.653,34.725-8.321,44.234c-3.025-8.515-6.373-24.342,1.81-41.285
					c8.822-18.269-3.379-27.613-10.375-31.248c1.864-0.276,3.148-0.237,3.148-0.237S228.229,234.055,216.606,263.384z"/>
				<circle fill="#4F402A" cx="202.867" cy="251.111" r="11.728"/>
				<ellipse fill="#3A3022" cx="202.867" cy="252.79" rx="9.488" ry="9.231"/>
			</g>
			
				<linearGradient id="SVGID_4_" gradientUnits="userSpaceOnUse" x1="211.2263" y1="606.1978" x2="211.2263" y2="623.3491" gradientTransform="matrix(1 0 0 -1 -8.3599 865.9443)">
				<stop  offset="0" style="stop-color:#FFFFFF"/>
				<stop  offset="1" style="stop-color:#FAF9D5;stop-opacity:0.8"/>
			</linearGradient>
			<ellipse fill="url(#SVGID_4_)" cx="202.867" cy="251.17" rx="8.651" ry="8.576"/>
			
				<radialGradient id="SVGID_5_" cx="211.2288" cy="616.1567" r="24.0355" gradientTransform="matrix(1 0 0 -1 -8.3599 865.9443)" gradientUnits="userSpaceOnUse">
				<stop  offset="0" style="stop-color:#FFFFFF"/>
				<stop  offset="0.9005" style="stop-color:#FAF9D5;stop-opacity:0"/>
			</radialGradient>
			<ellipse fill="url(#SVGID_5_)" cx="202.868" cy="249.788" rx="24.171" ry="23.9"/>
		</g>
		<g>
			<circle fill="#5C4B35" cx="270.69" cy="259.003" r="9.664"/>
			<circle fill="#5C4B35" cx="261.025" cy="251.396" r="8.32"/>
			<circle fill="#5C4B35" cx="252.705" cy="259.004" r="9.665"/>
			<path fill="#5C4B35" d="M277.569,263.127v30.097c0,5.391-2.75,9.759-6.144,9.759h-19.456c-3.391,0-6.144-4.368-6.144-9.759
				v-30.097c0-5.392,2.753-9.763,6.144-9.763h19.456C274.819,253.364,277.569,257.736,277.569,263.127z"/>
			<path fill="#493C2A" d="M277.569,282.887v10.337c0,5.391-2.75,9.759-6.144,9.759h-19.456c-3.391,0-6.144-4.368-6.144-9.759
				v-10.337H277.569z"/>
		</g>
		<rect x="195.892" y="294.792" fill="#D6BF92" width="13.952" height="3.583"/>
		<rect x="227.233" y="294.791" fill="#D6BF92" width="68.483" height="3.583"/>
		<rect x="189.227" y="296.583" fill="#E2CD9F" width="144.606" height="21.121"/>
		<rect x="189.227" y="301.063" fill="#B33634" width="144.606" height="11.776"/>
		<rect x="189.227" y="302.983" fill="#9A2524" width="144.606" height="7.553"/>
	</g>
	<g>
		<polygon fill="#E2D3C3" points="218.686,362.23 183.584,362.23 185.83,353.742 184.775,331.694 218.686,330.591 		"/>
		<polygon fill="#E2D3C3" points="256.945,362.23 221.843,362.23 221.843,330.591 231.904,330.591 256.805,332.243 		"/>
		<polygon fill="#E2D3C3" points="296.047,362.23 260.946,362.23 262.193,331.694 296.047,330.591 296.047,341.177 		"/>
		<polygon fill="#E2D3C3" points="218.558,396.962 184.775,396.962 185.83,365.324 217.272,365.324 		"/>
		<polygon fill="#E2D3C3" points="296.047,396.962 260.817,396.962 260.817,365.324 271.278,365.324 296.047,365.324 		"/>
		<polygon fill="#E2D3C3" points="335.031,396.962 300.552,396.962 300.552,365.324 336.304,366.804 		"/>
		<polygon fill="#E2D3C3" points="218.545,432.629 185.83,432.629 184.775,400.991 218.545,400.991 		"/>
		<polygon fill="#E2D3C3" points="256.805,432.629 221.704,432.629 222.587,400.103 257.689,400.103 		"/>
		<polygon fill="#E2D3C3" points="295.906,432.629 260.806,432.629 260.806,400.991 294.102,401.758 		"/>
		<polygon fill="#E2D3C3" points="336.896,432.629 302.04,432.325 300.411,400.991 336.896,400.991 		"/>
		<polygon fill="#E2D3C3" points="218.416,467.362 184.775,468.083 184.775,436.328 218.416,435.724 		"/>
		<polygon fill="#E2D3C3" points="256.676,467.362 221.574,467.362 221.574,435.724 256.805,436.986 		"/>
		<rect x="260.677" y="435.724" fill="#E2D3C3" width="35.23" height="31.638"/>
		<polygon fill="#E2D3C3" points="336.765,467.362 300.411,467.362 300.411,435.724 335.616,435.724 		"/>
		<polygon fill="#E2D3C3" points="218.096,502.602 183.584,501.409 184.775,471.147 218.096,470.963 		"/>
		<polygon fill="#E2D3C3" points="255.234,502.602 221.254,502.602 222.982,471.147 256.355,470.963 		"/>
		<rect x="260.357" y="470.963" fill="#E2D3C3" width="35.102" height="31.639"/>
		<polygon fill="#E2D3C3" points="336.447,502.602 299.962,502.602 299.962,470.963 333.63,472.878 		"/>
		<polygon fill="#E2D3C3" points="217.967,537.335 184.775,535.704 184.775,505.697 217.967,505.697 		"/>
		<rect x="221.125" y="505.697" fill="#E2D3C3" width="35.101" height="31.639"/>
		<rect x="259.586" y="504.065" fill="#E2D3C3" width="35.23" height="31.639"/>
		<polygon fill="#E2D3C3" points="336.304,535.704 299.962,537.335 299.962,505.697 336.316,505.697 		"/>
		<polygon fill="#E2D3C3" points="218.031,570.988 182.93,570.988 185.906,539.349 218.031,539.349 		"/>
		<polygon fill="#E2D3C3" points="256.215,570.813 221.704,570.988 221.574,539.349 256.226,541.364 		"/>
		<polygon fill="#E2D3C3" points="295.318,573 260.216,573 260.216,541.364 295.318,539.349 		"/>
		<polygon fill="#E2D3C3" points="336.304,573 299.822,573 298.402,540.112 336.304,541.364 		"/>
		<polygon fill="#D7C8BA" points="184.984,342.739 218.686,330.591 218.686,362.23 183.584,362.23 		"/>
		<polygon fill="#D7C8BA" points="247.129,348.17 256.945,355.662 256.945,362.23 221.843,362.23 221.843,330.591 242.003,330.591 
					"/>
		<polygon fill="#E2D3C3" points="299.929,330.591 335.031,330.591 332.784,339.079 335.031,362.23 299.929,362.23 		"/>
		<polygon fill="#D7C8BA" points="333.63,350.081 299.929,362.23 299.929,330.591 335.031,330.591 		"/>
		<polygon fill="#D7C8BA" points="276.865,350.592 264.957,361.841 296.177,361.841 296.177,345.134 		"/>
		<polygon fill="#D7C8BA" points="205.119,365.324 194.975,381.144 196.53,396.962 218.558,396.962 217.272,365.324 		"/>
		<polygon fill="#E2D3C3" points="221.638,365.324 256.741,365.324 255.493,395.858 221.638,396.962 221.638,386.375 		"/>
		<polygon fill="#D7C8BA" points="240.821,375.968 252.73,364.721 221.51,364.721 221.51,381.426 		"/>
		<polygon fill="#D7C8BA" points="264.957,380.422 275.908,390.676 279.217,396.962 296.047,396.962 296.047,369.613 
			287.197,365.324 265.985,365.324 		"/>
		<polygon fill="#D7C8BA" points="300.552,370.664 322.564,379.099 333.63,396.962 300.552,396.962 		"/>
		<polygon fill="#D7C8BA" points="280.502,400.991 272.27,421.275 260.817,422.928 260.806,432.629 295.906,432.629 
			294.102,401.758 		"/>
		<polygon fill="#D7C8BA" points="333.63,400.991 325.693,432.629 302.04,432.325 300.411,400.991 		"/>
		<polygon fill="#D7C8BA" points="197.014,400.991 218.686,423.299 218.545,400.991 		"/>
		<polygon fill="#D7C8BA" points="221.704,400.991 256.741,422.599 256.805,432.629 226.289,432.629 221.638,423.868 		"/>
		<polygon fill="#D7C8BA" points="227.944,435.724 234.064,460.804 230.296,467.362 258.365,467.362 256.805,436.986 		"/>
		<polygon fill="#D7C8BA" points="260.677,435.724 263.835,467.362 295.906,467.362 295.458,434.838 		"/>
		<polygon fill="#D7C8BA" points="324.702,435.724 310.806,452.535 308.988,468.083 300.411,467.362 300.411,435.724 		"/>
		<polygon fill="#D7C8BA" points="308.988,471.147 328.999,502.602 299.962,502.602 299.962,470.963 		"/>
		<polygon fill="#D7C8BA" points="227.944,471.147 221.254,486.784 221.254,502.602 256.355,502.602 256.355,470.963 		"/>
		<polygon fill="#D7C8BA" points="294.817,472.629 260.357,470.963 260.357,502.602 271.939,502.602 276.074,497.854 
			287.817,502.602 295.458,502.602 		"/>
		<polygon fill="#D7C8BA" points="271.278,505.697 265.323,537.335 260.228,537.335 262.026,506.867 		"/>
		<polygon fill="#D7C8BA" points="288.313,505.697 295.318,516.874 295.458,505.697 		"/>
		<polygon fill="#D7C8BA" points="299.822,517.894 307.167,537.335 328.999,537.335 336.447,516.874 330.323,505.697 
			299.962,505.697 		"/>
		<polygon fill="#D7C8BA" points="306.472,541.364 299.822,557.183 299.822,573 314.482,573 327.843,541.364 		"/>
		<polygon fill="#D7C8BA" points="295.318,558.554 260.66,567.256 260.216,573 295.318,573 		"/>
		<polygon fill="#D7C8BA" points="263.835,541.364 260.357,552.103 260.216,541.364 		"/>
		<polygon fill="#D7C8BA" points="217.825,490.906 190.895,502.602 218.096,502.602 		"/>
		<polygon fill="#D7C8BA" points="189.572,505.697 182.995,511.139 184.775,535.704 217.967,537.335 217.967,505.697 		"/>
		<polygon fill="#D7C8BA" points="221.125,505.697 221.125,537.335 231.904,537.335 245.972,534.717 249.82,537.335 
			256.226,537.335 256.226,505.697 		"/>
		<polygon fill="#D7C8BA" points="249.82,541.364 256.215,553.425 256.215,542.179 		"/>
		<polygon fill="#D7C8BA" points="227.944,541.364 221.125,558.554 221.115,541.364 		"/>
		<polyline fill="#D7C8BA" points="218.992,560.013 205.391,570.988 183.751,570.988 183.751,539.349 218.852,539.349 		"/>
	</g>
	
		<radialGradient id="SVGID_6_" cx="268.1213" cy="679.9917" r="63.7954" gradientTransform="matrix(1 0 0 -1 -8.3599 865.9443)" gradientUnits="userSpaceOnUse">
		<stop  offset="0.081" style="stop-color:#F9ED32;stop-opacity:0.4"/>
		<stop  offset="0.8903" style="stop-color:#FBB040;stop-opacity:0"/>
	</radialGradient>
	<path fill="url(#SVGID_6_)" d="M323.913,185.952c0,35.036-28.721,63.438-64.152,63.438c-35.428,0-64.151-28.401-64.151-63.438
		c0-35.034,28.724-63.436,64.151-63.436C295.193,122.515,323.913,150.917,323.913,185.952z"/>
</g>
</svg>
