<?xml version="1.0" encoding="utf-8"?>
<!-- Generator: Adobe Illustrator 16.0.0, SVG Export Plug-In . SVG Version: 6.00 Build 0)  -->
<!DOCTYPE svg PUBLIC "-//W3C//DTD SVG 1.1//EN" "http://www.w3.org/Graphics/SVG/1.1/DTD/svg11.dtd">
<svg version="1.1" id="Layer_1" xmlns="http://www.w3.org/2000/svg" xmlns:xlink="http://www.w3.org/1999/xlink" x="0px" y="0px"
	 width="595.279px" height="841.89px" viewBox="0 0 595.279 841.89" enable-background="new 0 0 595.279 841.89"
	 xml:space="preserve">
<g id="Layer_2">
</g>
<g>
	<polygon fill="#38333B" points="174.696,149.986 57.404,236.601 35.328,642.328 198.651,747.992 370.425,632.572 341.476,231.457 	
		"/>
	<rect x="67.174" y="309.252" fill="#2A262D" width="253.426" height="166.605"/>
	<polygon fill="#334420" points="133.336,60.73 90.635,213.375 128.993,230.006 162.841,198.771 	"/>
	<ellipse fill="#2A262D" cx="193.887" cy="307.618" rx="126.713" ry="115.486"/>
	<polygon fill="#29351C" points="133.336,60.73 128.993,230.006 162.841,198.771 	"/>
	<rect x="67.174" y="446.703" fill="#2A262D" width="253.426" height="133.695"/>
	<path fill="#2A262D" d="M320.599,582.033c0-63.78-56.731-115.483-126.712-115.483c-69.981,0-126.713,51.703-126.713,115.483
		c0,63.785,56.731,115.488,126.713,115.488S320.599,645.818,320.599,582.033z"/>
	<polygon fill="#211D1B" points="35.328,642.328 175.012,788.527 202.877,808.068 195.062,784.907 198.651,747.992 	"/>
	<polygon fill="#1C1816" points="370.425,632.572 265.122,763.917 202.877,808.068 175.012,788.527 198.651,747.992 	"/>
	<polygon fill="#394F24" points="90.134,92.164 81.343,218.589 114.065,225.417 135.526,195.493 	"/>
	<polygon fill="#2D3A1E" points="90.134,92.164 114.065,225.417 135.526,195.493 	"/>
	<polygon fill="#322C35" points="341.476,231.457 330.619,414.828 352.332,470.796 320.599,666.05 370.425,632.572 	"/>
	<polygon fill="#29252D" points="49.779,376.73 51.975,543.165 62.108,574.02 57.041,620.653 133.112,705.59 35.328,642.328 	"/>
	<polygon fill="#181516" points="341.476,231.457 379.111,398.609 371.023,682.135 265.122,763.917 365.932,635.589 
		349.437,429.178 	"/>
	<polygon fill="#211E1D" points="530.99,434.151 461.727,511.118 435.336,472.635 	"/>
	<polygon fill="#181516" points="369.372,437.459 410.049,502.874 461.727,511.118 433.412,465.218 369.372,434.151 	"/>
	<polygon fill="#37313B" points="413.346,371.926 499.105,361.597 530.99,434.151 435.336,472.635 366.904,437.459 	"/>
	<polygon fill="#3E3741" points="413.783,372.136 429.119,422.729 530.99,435.625 499.222,361.597 	"/>
	<polygon fill="#3E3741" points="417.96,529.703 410.791,563.88 417.96,606.776 441.854,584.427 431.06,540.501 	"/>
	<polygon fill="#181516" points="417.96,529.703 390.99,568.238 417.96,606.776 421.822,581.339 411.52,568.238 	"/>
	<polygon fill="#584D46" points="468.06,582.417 461.117,593.979 468.06,599.379 476.534,587.817 	"/>
	<polygon fill="#181516" points="513.696,512.589 514.41,526.051 553.135,532.482 493.054,572.977 462.894,528.231 465.376,500.984 
			"/>
	<polygon fill="#3E3741" points="465.376,500.984 527.587,469.762 553.135,532.482 514.41,526.051 513.696,512.589 	"/>
	<polygon fill="#393432" points="468.06,582.417 468.06,599.379 476.534,587.817 	"/>
	<polygon fill="#3E3741" points="407.485,300.702 371.023,319.422 403.132,340.993 450.558,321.677 432.902,310.957 	"/>
	<polygon fill="#211E1D" points="450.558,321.677 435.47,354.974 411.094,361.09 403.132,340.993 	"/>
	<polygon fill="#181516" points="371.023,319.422 390.542,346 394.336,357.191 411.094,361.09 403.132,340.993 	"/>
	<polygon fill="#4F5728" points="119.564,136.96 61.185,249.446 88.488,268.732 120.085,249.82 	"/>
	<polygon fill="#3C3F23" points="119.564,136.96 88.488,268.732 120.085,249.82 	"/>
	<polygon fill="#415125" points="81.09,137.762 60.29,285.199 101.386,294.399 130.955,260.225 	"/>
	<polygon fill="#3B4220" points="244.292,31.479 308.002,194.988 249.547,214.572 211.31,183.336 	"/>
	<polygon fill="#29351C" points="244.292,31.479 249.547,214.572 211.31,183.336 	"/>
	<polygon fill="#394F24" points="293.452,76.729 303.384,203.154 266.413,209.983 242.168,180.059 	"/>
	<polygon fill="#232D19" points="293.452,76.729 266.413,209.983 242.168,180.059 	"/>
	<polygon fill="#4F5728" points="260.202,121.526 326.156,234.011 295.311,253.298 259.613,234.386 	"/>
	<polygon fill="#3C3F23" points="260.202,121.526 295.311,253.298 259.613,234.386 	"/>
	<polygon fill="#415125" points="312.183,126.16 335.684,273.598 289.252,282.797 255.847,248.624 	"/>
	<polygon fill="#343F1E" points="312.183,126.16 289.252,282.797 255.847,248.624 	"/>
	
		<radialGradient id="SVGID_1_" cx="202.2463" cy="665.1733" r="124.2954" gradientTransform="matrix(1 0 0 -1 -8.3599 865.9443)" gradientUnits="userSpaceOnUse">
		<stop  offset="0.081" style="stop-color:#FBB040"/>
		<stop  offset="0.9005" style="stop-color:#FBB040;stop-opacity:0"/>
	</radialGradient>
	<path fill="url(#SVGID_1_)" d="M318.877,200.77c0,68.262-55.961,123.598-124.993,123.598c-69.025,0-124.988-55.336-124.988-123.598
		c0-68.259,55.964-123.594,124.988-123.594C262.916,77.175,318.877,132.512,318.877,200.77z"/>
	<polygon fill="#38333B" points="312.183,288.682 338.76,277.336 335.684,255.233 325.471,250.977 304.861,265.624 287.399,272.13 	
		"/>
	<polygon fill="#38333B" points="73.507,301.023 54.623,287.696 73.507,267.822 95.623,273.617 90.635,293.891 	"/>
	<polyline fill="#2A262D" points="318.258,285.434 301.217,271.013 273.495,276.22 277.265,300.702 313.08,312.246 	"/>
	<polyline fill="#2A262D" points="68.143,297.238 81.09,282.797 102.15,296.939 90.635,314.593 79.206,312.246 	"/>
	<polygon fill="#343F1E" points="81.09,137.762 101.386,294.399 130.955,260.225 	"/>
	<g>
		<rect x="84.686" y="315.553" fill="#DBC391" width="220.174" height="158.815"/>
		<circle fill="#DBC391" cx="194.774" cy="313.992" r="110.088"/>
		<circle fill="#3D332A" cx="195.857" cy="314.594" r="100.235"/>
		<path fill="#5B4936" d="M292.87,325.658c0,55.358-41.583-63.056-96.941-63.056c-55.356,0-97.486,117.889-97.486,62.531
			c0-55.358,40.963-99.935,96.322-99.935C250.124,225.198,292.87,270.3,292.87,325.658z"/>
		<rect x="95.623" y="314.594" fill="#3D332A" width="200.469" height="114.584"/>
		<g>
			<path fill="#3D332A" d="M293.621,306.812c0,26.877-21.782,48.662-48.663,48.662c-26.871,0-48.657-21.785-48.657-48.662
				c0-26.875,21.787-48.662,48.657-48.662C271.838,258.15,293.621,279.937,293.621,306.812z"/>
			<circle fill="#3D332A" cx="196.301" cy="265.622" r="47.157"/>
			<circle fill="#3D332A" cx="146.49" cy="306.812" r="49.812"/>
		</g>
		<g>
			<path fill="#DBC391" d="M287.399,306.627c0,25.28-20.491,45.773-45.775,45.773c-25.272,0-45.767-20.493-45.767-45.773
				c0-25.28,20.495-45.773,45.767-45.773C266.908,260.854,287.399,281.348,287.399,306.627z"/>
			<path fill="#DBC391" d="M240.214,267.884c0,24.499-19.854,44.361-44.353,44.361c-24.501,0-44.36-19.862-44.36-44.361
				c0-24.498,19.859-44.361,44.36-44.361C220.36,223.523,240.214,243.386,240.214,267.884z"/>
			<circle fill="#DBC391" cx="149.003" cy="306.628" r="46.853"/>
			<rect x="102.15" y="306.627" fill="#DBC391" width="185.25" height="67.171"/>
		</g>
		<g>
			<circle fill="#4C3D2D" cx="245.179" cy="303.918" r="34.19"/>
			<circle fill="#4C3D2D" cx="196.739" cy="267.884" r="33.135"/>
			<circle fill="#4C3D2D" cx="148.201" cy="303.918" r="35.001"/>
			<rect x="126.738" y="291.278" fill="#4C3D2D" width="138.384" height="50.178"/>
		</g>
		<rect x="84.686" y="446.576" fill="#DBC391" width="220.174" height="127.444"/>
		<path fill="#DBC391" d="M304.861,575.579c0-60.799-49.287-110.085-110.087-110.085S84.686,514.78,84.686,575.579
			c0,60.802,49.287,110.087,110.087,110.087S304.861,636.38,304.861,575.579z"/>
		<circle fill="#3D332A" cx="195.857" cy="574.979" r="100.234"/>
		<path fill="#5B4936" d="M292.87,563.915c0-55.358-41.583,63.058-96.941,63.058c-55.356,0-97.486-117.893-97.486-62.534
			s40.963,99.938,96.322,99.938C250.124,664.375,292.87,619.273,292.87,563.915z"/>
		<rect x="95.623" y="460.396" fill="#3D332A" width="200.469" height="114.585"/>
		<g>
			<path fill="#3D332A" d="M293.621,582.76c0-26.876-21.782-48.662-48.663-48.662c-26.871,0-48.657,21.786-48.657,48.662
				s21.787,48.662,48.657,48.662C271.838,631.422,293.621,609.636,293.621,582.76z"/>
			<path fill="#3D332A" d="M243.459,623.949c0-26.045-21.108-47.159-47.156-47.159c-26.046,0-47.16,21.114-47.16,47.159
				c0,26.046,21.113,47.163,47.16,47.163C222.351,671.112,243.459,649.995,243.459,623.949z"/>
			<circle fill="#3D332A" cx="146.49" cy="582.76" r="49.812"/>
		</g>
		<g>
			<path fill="#DBC391" d="M287.399,582.945c0-25.279-20.491-45.772-45.775-45.772c-25.272,0-45.767,20.493-45.767,45.772
				s20.495,45.772,45.767,45.772C266.908,628.717,287.399,608.224,287.399,582.945z"/>
			<path fill="#DBC391" d="M240.214,621.688c0-24.499-19.854-44.36-44.353-44.36c-24.501,0-44.36,19.859-44.36,44.36
				s19.859,44.362,44.36,44.362C220.36,666.05,240.214,646.189,240.214,621.688z"/>
			<circle fill="#DBC391" cx="149.003" cy="582.945" r="46.854"/>
			<rect x="102.15" y="515.774" fill="#DBC391" width="185.25" height="67.171"/>
		</g>
		<g>
			<circle fill="#4C3D2D" cx="245.179" cy="585.654" r="34.191"/>
			<circle fill="#4C3D2D" cx="196.739" cy="621.689" r="33.136"/>
			<circle fill="#4C3D2D" cx="148.201" cy="585.655" r="35.001"/>
			<rect x="126.738" y="548.116" fill="#4C3D2D" width="138.384" height="50.176"/>
		</g>
		<path fill="#DBC391" d="M287.399,579.34c0,5.084-4.146,9.209-9.258,9.209H111.407c-5.112,0-9.257-4.125-9.257-9.209V308.792
			c0-5.088,4.145-9.209,9.257-9.209h166.734c5.112,0,9.258,4.122,9.258,9.209V579.34z"/>
		<rect x="109.833" y="311.179" fill="#8C7A64" width="170.457" height="267.292"/>
	</g>
	<g id="enemy">
		<g>
			<path fill="#A88F67" d="M273.497,240.138v40.178H117.255v-40.178h17.358c0,4.792,3.881,8.676,8.683,8.676
				c4.789,0,8.674-3.884,8.674-8.676h17.387c-0.015,0.179-0.023,0.358-0.023,0.538c0,4.798,3.885,8.682,8.677,8.682
				c4.797,0,8.683-3.883,8.683-8.682c0-0.179-0.007-0.358-0.023-0.538h17.402c0.275,4.541,4.054,8.14,8.663,8.14
				c4.603,0,8.384-3.6,8.658-8.14h17.403c0.276,4.541,4.047,8.133,8.662,8.133c4.604,0,8.378-3.594,8.651-8.133H273.497z"/>
			<circle fill="#A88F67" cx="125.932" cy="241.219" r="8.681"/>
			<circle fill="#A88F67" cx="160.652" cy="240.136" r="8.681"/>
			<circle fill="#A88F67" cx="195.372" cy="239.596" r="8.679"/>
			<circle fill="#A88F67" cx="230.092" cy="240.677" r="8.68"/>
			<circle fill="#A88F67" cx="264.814" cy="240.136" r="8.681"/>
			<rect x="117.252" y="255.616" fill="#917653" width="156.244" height="24.7"/>
		</g>
		<path fill="#E8CC56" d="M200.636,97.38c-2.593,6.537-2.95,11.84-2.837,15.082c0.062,1.718,0.252,2.856,0.314,3.293h-4.323
			c0.16-1.131,1.195-6.983-1.466-15.404c-0.301-0.956-0.651-1.947-1.057-2.969c-0.719-1.814-1.023-3.29-1.038-4.492
			c-0.054-3.93,2.978-4.916,4.649-5.158c0.635-0.094,1.074-0.081,1.074-0.081S204.599,87.38,200.636,97.38z"/>
		<rect x="150.177" y="153.645" fill="#E2CD9F" width="90.397" height="131.133"/>
		<path fill="#D3B741" d="M200.636,97.38c-2.593,6.537-2.95,11.84-2.837,15.082c-1.03-2.903-2.173-8.3,0.616-14.076
			c3.009-6.229-1.152-9.415-3.537-10.654c0.635-0.094,1.074-0.081,1.074-0.081S204.599,87.38,200.636,97.38z"/>
		<path fill="#BC9F6C" d="M240.573,164.507v25.385c-41.517-15.766-75.88-4.843-90.397,1.562v-25.4L240.573,164.507z"/>
		<path fill="#B33634" d="M249.873,164.285c0,22.743-12.901,17.574-31.539,13.004c-7.061-1.727-14.955-3.37-23.273-3.37
			c-10.922,0-21.1,2.827-29.641,4.97c-15.141,3.802-25.165,5.447-25.165-14.604c0-31.368,24.539-56.798,54.804-56.798
			C225.335,107.486,249.873,132.917,249.873,164.285z"/>
		<path fill="#A02E2D" d="M249.873,164.285c0,22.743-12.901,17.574-31.539,13.004c27.631-38.897-23.273-69.804-23.273-69.804
			C225.335,107.486,249.873,132.917,249.873,164.285z"/>
		<path fill="#BD3F40" d="M165.422,178.89c-15.141,3.802-25.165,5.447-25.165-14.604c0-31.368,24.539-56.798,54.804-56.798
			C195.062,107.486,148.07,140.766,165.422,178.89z"/>
		<path fill="#8D2525" d="M201.425,107.467c0,2.821-2.451,2.409-5.472,2.409c-3.022,0-5.473,0.412-5.473-2.409
			c0-2.82,2.45-2.364,5.473-2.364C198.974,105.103,201.425,104.647,201.425,107.467z"/>
		<path fill="#E2CD9F" d="M228.298,216.081"/>
		<g>
			<circle fill="#BC9F6C" cx="195.952" cy="214.771" r="36.207"/>
			<rect x="159.745" y="214.771" fill="#BC9F6C" width="72.414" height="76.742"/>
		</g>
		<g>
			<path fill="#EADABE" d="M227.249,221.842c0,0.98-0.044,1.949-0.135,2.908c-1.467,16.242-15.119,28.966-31.739,28.966
				c-16.263,0-29.686-12.187-31.636-27.923c-0.158-1.294-0.239-2.611-0.239-3.95c0-17.605,14.272-31.875,31.874-31.875
				C212.977,189.967,227.249,204.237,227.249,221.842z"/>
			<rect x="163.5" y="221.842" fill="#EADABE" width="63.749" height="67.547"/>
		</g>
		<rect x="183.285" y="219.411" fill="#D1B68B" width="26.131" height="13.643"/>
		<g>
			<g>
				<path fill="#EFDEB4" d="M287.32,225.704c-11.05,27.856-12.577,50.458-12.091,64.274c0.261,7.322,1.08,12.172,1.338,14.033
					h-18.429c0.686-4.821,5.095-29.76-6.242-65.651c-1.288-4.079-2.775-8.304-4.5-12.656c-3.064-7.73-4.359-14.018-4.425-19.136
					c-0.232-16.748,12.691-20.952,19.813-21.985c2.708-0.402,4.573-0.342,4.573-0.342S304.208,183.087,287.32,225.704z"/>
				<path fill="#D8C498" d="M287.32,225.704c-11.05,27.856-12.577,50.458-12.091,64.274c-4.397-12.372-9.264-35.371,2.627-59.989
					c12.818-26.546-4.91-40.125-15.074-45.407c2.708-0.402,4.573-0.342,4.573-0.342S304.208,183.087,287.32,225.704z"/>
				<circle fill="#4F402A" cx="267.357" cy="207.87" r="17.041"/>
				<ellipse fill="#3A3022" cx="267.357" cy="210.311" rx="13.787" ry="13.414"/>
			</g>
			
				<linearGradient id="SVGID_2_" gradientUnits="userSpaceOnUse" x1="275.7156" y1="645.5249" x2="275.7156" y2="670.4487" gradientTransform="matrix(1 0 0 -1 -8.3599 865.9443)">
				<stop  offset="0" style="stop-color:#FFFFFF"/>
				<stop  offset="1" style="stop-color:#FAF9D5;stop-opacity:0.8"/>
			</linearGradient>
			<ellipse fill="url(#SVGID_2_)" cx="267.357" cy="207.958" rx="12.57" ry="12.462"/>
			
				<radialGradient id="SVGID_3_" cx="275.7166" cy="659.9966" r="34.9256" gradientTransform="matrix(1 0 0 -1 -8.3599 865.9443)" gradientUnits="userSpaceOnUse">
				<stop  offset="0" style="stop-color:#FFFFFF"/>
				<stop  offset="0.9005" style="stop-color:#FAF9D5;stop-opacity:0"/>
			</radialGradient>
			<ellipse fill="url(#SVGID_3_)" cx="267.357" cy="205.948" rx="35.121" ry="34.729"/>
		</g>
		<rect x="257.221" y="271.013" fill="#D6BF92" width="20.273" height="5.208"/>
		<g>
			<g>
				<path fill="#EFDEB4" d="M143.167,225.197c-11.049,27.855-12.573,50.458-12.091,64.274c0.261,7.321,1.081,12.172,1.34,14.033
					h-18.428c0.684-4.821,5.094-29.762-6.244-65.652c-1.288-4.078-2.776-8.303-4.501-12.655c-3.066-7.731-4.36-14.018-4.427-19.136
					c-0.231-16.749,12.693-20.952,19.812-21.985c2.709-0.401,4.576-0.343,4.576-0.343S160.056,182.58,143.167,225.197z"/>
				<path fill="#D8C498" d="M143.167,225.197c-11.049,27.855-12.573,50.458-12.091,64.274c-4.396-12.373-9.261-35.371,2.629-59.99
					c12.818-26.546-4.911-40.125-15.076-45.406c2.708-0.401,4.576-0.343,4.576-0.343S160.056,182.58,143.167,225.197z"/>
				<circle fill="#4F402A" cx="123.205" cy="207.364" r="17.041"/>
				<ellipse fill="#3A3022" cx="123.204" cy="209.804" rx="13.787" ry="13.414"/>
			</g>
			
				<linearGradient id="SVGID_4_" gradientUnits="userSpaceOnUse" x1="131.5632" y1="646.0317" x2="131.5632" y2="670.9556" gradientTransform="matrix(1 0 0 -1 -8.3599 865.9443)">
				<stop  offset="0" style="stop-color:#FFFFFF"/>
				<stop  offset="1" style="stop-color:#FAF9D5;stop-opacity:0.8"/>
			</linearGradient>
			<ellipse fill="url(#SVGID_4_)" cx="123.204" cy="207.45" rx="12.571" ry="12.462"/>
			
				<radialGradient id="SVGID_5_" cx="131.5662" cy="660.5034" r="34.9254" gradientTransform="matrix(1 0 0 -1 -8.3599 865.9443)" gradientUnits="userSpaceOnUse">
				<stop  offset="0" style="stop-color:#FFFFFF"/>
				<stop  offset="0.9005" style="stop-color:#FAF9D5;stop-opacity:0"/>
			</radialGradient>
			<ellipse fill="url(#SVGID_5_)" cx="123.206" cy="205.441" rx="35.122" ry="34.729"/>
		</g>
		<g>
			<circle fill="#5C4B35" cx="207.929" cy="219.011" r="14.042"/>
			<circle fill="#5C4B35" cx="193.886" cy="207.957" r="12.09"/>
			<circle fill="#5C4B35" cx="181.797" cy="219.011" r="14.044"/>
			<path fill="#5C4B35" d="M217.925,225.002v43.734c0,7.833-3.996,14.18-8.928,14.18h-28.272c-4.927,0-8.928-6.347-8.928-14.18
				v-43.734c0-7.834,4.001-14.188,8.928-14.188h28.272C213.928,210.815,217.925,217.169,217.925,225.002z"/>
			<path fill="#493C2A" d="M217.925,253.715v15.022c0,7.833-3.996,14.18-8.928,14.18h-28.272c-4.927,0-8.928-6.347-8.928-14.18
				v-15.022H217.925z"/>
		</g>
		<rect x="113.813" y="272.13" fill="#D6BF92" width="20.273" height="5.208"/>
		<rect x="144.781" y="271.013" fill="#D6BF92" width="99.511" height="5.208"/>
		<rect x="110.743" y="273.617" fill="#E2CD9F" width="168.145" height="30.691"/>
		<rect x="110.743" y="280.126" fill="#B33634" width="168.145" height="17.113"/>
		<rect x="110.743" y="282.917" fill="#9A2524" width="168.145" height="10.975"/>
	</g>
	
		<radialGradient id="SVGID_6_" cx="204.0164" cy="765.8872" r="78.5122" gradientTransform="matrix(1 0 0 -1 -8.3599 865.9443)" gradientUnits="userSpaceOnUse">
		<stop  offset="0.081" style="stop-color:#F9ED32;stop-opacity:0.4"/>
		<stop  offset="0.8903" style="stop-color:#FBB040;stop-opacity:0"/>
	</radialGradient>
	<path fill="url(#SVGID_6_)" d="M274.607,100.056c0,43.119-35.347,78.072-78.952,78.072c-43.6,0-78.95-34.953-78.95-78.072
		c0-43.116,35.35-78.07,78.95-78.07C239.261,21.985,274.607,56.94,274.607,100.056z"/>
	<g>
		<polygon fill="#E2D3C3" points="149.143,347.397 110.743,347.397 113.2,338.112 112.046,313.993 149.143,312.785 		"/>
		<polygon fill="#E2D3C3" points="190.997,347.397 152.597,347.397 152.597,312.785 163.604,312.785 190.844,314.593 		"/>
		<polygon fill="#E2D3C3" points="233.774,347.397 195.374,347.397 196.739,313.993 233.774,312.785 233.774,324.367 		"/>
		<polygon fill="#E2D3C3" points="149.003,385.394 112.046,385.394 113.2,350.782 147.596,350.782 		"/>
		<polygon fill="#E2D3C3" points="233.774,385.394 195.234,385.394 195.234,350.782 206.677,350.782 233.774,350.782 		"/>
		<polygon fill="#E2D3C3" points="276.42,385.394 238.703,385.394 238.703,350.782 277.815,352.401 		"/>
		<polygon fill="#E2D3C3" points="148.99,424.413 113.2,424.413 112.046,389.801 148.99,389.801 		"/>
		<polygon fill="#E2D3C3" points="190.844,424.413 152.445,424.413 153.411,388.83 191.811,388.83 		"/>
		<polygon fill="#E2D3C3" points="233.62,424.413 195.221,424.413 195.221,389.801 231.646,390.641 		"/>
		<polygon fill="#E2D3C3" points="278.461,424.413 240.331,424.079 238.548,389.801 278.461,389.801 		"/>
		<polygon fill="#E2D3C3" points="148.848,462.409 112.046,463.197 112.046,428.458 148.848,427.797 		"/>
		<polygon fill="#E2D3C3" points="190.703,462.409 152.303,462.409 152.303,427.797 190.844,429.178 		"/>
		<rect x="195.08" y="427.797" fill="#E2D3C3" width="38.541" height="34.611"/>
		<polygon fill="#E2D3C3" points="278.319,462.409 238.548,462.409 238.548,427.797 277.061,427.797 		"/>
		<polygon fill="#E2D3C3" points="148.498,500.96 110.743,499.655 112.046,466.549 148.498,466.348 		"/>
		<polygon fill="#E2D3C3" points="189.126,500.96 151.952,500.96 153.843,466.549 190.352,466.348 		"/>
		<rect x="194.73" y="466.348" fill="#E2D3C3" width="38.4" height="34.612"/>
		<polygon fill="#E2D3C3" points="277.969,500.96 238.056,500.96 238.056,466.348 274.89,468.443 		"/>
		<polygon fill="#E2D3C3" points="148.357,538.958 112.046,537.172 112.046,504.345 148.357,504.345 		"/>
		<rect x="151.812" y="504.345" fill="#E2D3C3" width="38.399" height="34.612"/>
		<rect x="193.887" y="502.56" fill="#E2D3C3" width="38.541" height="34.612"/>
		<polygon fill="#E2D3C3" points="277.815,537.172 238.056,538.958 238.056,504.345 277.827,504.345 		"/>
		<polygon fill="#E2D3C3" points="148.427,575.772 110.028,575.772 113.282,541.161 148.427,541.161 		"/>
		<polygon fill="#E2D3C3" points="190.198,575.581 152.445,575.772 152.303,541.161 190.211,543.364 		"/>
		<polygon fill="#E2D3C3" points="232.976,577.974 194.576,577.974 194.576,543.364 232.976,541.161 		"/>
		<polygon fill="#E2D3C3" points="277.815,577.974 237.904,577.974 236.35,541.995 277.815,543.364 		"/>
		<polygon fill="#D7C8BA" points="112.274,326.075 149.143,312.785 149.143,347.397 110.743,347.397 		"/>
		<polygon fill="#D7C8BA" points="180.26,332.016 190.997,340.212 190.997,347.397 152.597,347.397 152.597,312.785 
			174.651,312.785 		"/>
		<polygon fill="#E2D3C3" points="238.021,312.785 276.42,312.785 273.964,322.071 276.42,347.397 238.021,347.397 		"/>
		<polygon fill="#D7C8BA" points="274.89,334.107 238.021,347.397 238.021,312.785 276.42,312.785 		"/>
		<polygon fill="#D7C8BA" points="212.79,334.666 199.762,346.972 233.916,346.972 233.916,328.695 		"/>
		<polygon fill="#D7C8BA" points="134.302,350.782 123.205,368.088 124.905,385.394 149.003,385.394 147.596,350.782 		"/>
		<polygon fill="#E2D3C3" points="152.373,350.782 190.774,350.782 189.409,384.186 152.373,385.394 152.373,373.812 		"/>
		<polygon fill="#D7C8BA" points="173.359,362.426 186.386,350.122 152.233,350.122 152.233,368.397 		"/>
		<polygon fill="#D7C8BA" points="199.762,367.299 211.742,378.517 215.362,385.394 233.774,385.394 233.774,355.474 
			224.092,350.782 200.886,350.782 		"/>
		<polygon fill="#D7C8BA" points="238.703,356.624 262.783,365.852 274.89,385.394 238.703,385.394 		"/>
		<polygon fill="#D7C8BA" points="216.768,389.801 207.762,411.991 195.234,413.799 195.221,424.413 233.62,424.413 
			231.646,390.641 		"/>
		<polygon fill="#D7C8BA" points="274.89,389.801 266.205,424.413 240.331,424.079 238.548,389.801 		"/>
		<polygon fill="#D7C8BA" points="125.435,389.801 149.143,414.206 148.99,389.801 		"/>
		<polygon fill="#D7C8BA" points="152.445,389.801 190.774,413.439 190.844,424.413 157.461,424.413 152.373,414.828 		"/>
		<polygon fill="#D7C8BA" points="159.271,427.797 165.966,455.235 161.844,462.409 192.551,462.409 190.844,429.178 		"/>
		<polygon fill="#D7C8BA" points="195.08,427.797 198.535,462.409 233.62,462.409 233.13,426.829 		"/>
		<polygon fill="#D7C8BA" points="265.122,427.797 249.921,446.188 247.931,463.197 238.548,462.409 238.548,427.797 		"/>
		<polygon fill="#D7C8BA" points="247.931,466.549 269.823,500.96 238.056,500.96 238.056,466.348 		"/>
		<polygon fill="#D7C8BA" points="159.271,466.549 151.952,483.655 151.952,500.96 190.352,500.96 190.352,466.348 		"/>
		<polygon fill="#D7C8BA" points="232.428,468.171 194.73,466.348 194.73,500.96 207.4,500.96 211.924,495.766 224.77,500.96 
			233.13,500.96 		"/>
		<polygon fill="#D7C8BA" points="206.677,504.345 200.163,538.958 194.589,538.958 196.555,505.625 		"/>
		<polygon fill="#D7C8BA" points="225.313,504.345 232.976,516.573 233.13,504.345 		"/>
		<polygon fill="#D7C8BA" points="237.904,517.689 245.94,538.958 269.823,538.958 277.969,516.573 271.272,504.345 
			238.056,504.345 		"/>
		<polygon fill="#D7C8BA" points="245.179,543.364 237.904,560.67 237.904,577.974 253.94,577.974 268.558,543.364 		"/>
		<polygon fill="#D7C8BA" points="232.976,562.169 195.062,571.69 194.576,577.974 232.976,577.974 		"/>
		<polygon fill="#D7C8BA" points="198.535,543.364 194.73,555.113 194.576,543.364 		"/>
		<polygon fill="#D7C8BA" points="148.201,488.165 118.741,500.96 148.498,500.96 		"/>
		<polygon fill="#D7C8BA" points="117.293,504.345 110.099,510.299 112.046,537.172 148.357,538.958 148.357,504.345 		"/>
		<polygon fill="#D7C8BA" points="151.812,504.345 151.812,538.958 163.604,538.958 178.993,536.093 183.202,538.958 
			190.211,538.958 190.211,504.345 		"/>
		<polygon fill="#D7C8BA" points="183.202,543.364 190.198,556.559 190.198,544.256 		"/>
		<polygon fill="#D7C8BA" points="159.271,543.364 151.812,562.169 151.8,543.364 		"/>
		<polyline fill="#D7C8BA" points="149.478,563.766 134.599,575.772 110.926,575.772 110.926,541.161 149.325,541.161 		"/>
	</g>
</g>
</svg>
