<?xml version="1.0" encoding="utf-8"?>
<!-- Generator: Adobe Illustrator 16.0.0, SVG Export Plug-In . SVG Version: 6.00 Build 0)  -->
<!DOCTYPE svg PUBLIC "-//W3C//DTD SVG 1.1//EN" "http://www.w3.org/Graphics/SVG/1.1/DTD/svg11.dtd">
<svg version="1.1" id="Layer_1" xmlns="http://www.w3.org/2000/svg" xmlns:xlink="http://www.w3.org/1999/xlink" x="0px" y="0px"
	 width="595.279px" height="841.89px" viewBox="0 0 595.279 841.89" enable-background="new 0 0 595.279 841.89"
	 xml:space="preserve">
<rect x="203.139" y="254.111" fill="#202028" width="218.366" height="298.834"/>
<g id="Layer_2">
</g>
<image display="none" overflow="visible" enable-background="new    " width="3480" height="4640" xlink:href="../Google Drive/IMG_20180626_140847.jpg"  transform="matrix(0.1401 0 0 0.1401 53.7869 95.812)">
</image>
<g>
	<path fill="#605040" d="M219.55,273.495v234.28h184.56v-234.28H219.55z M376.649,487.175l-20.95,11.01h-114.74l-10.78-14.141
		v-22.14c0,0,5.71-17.39,9.3-23.39c3.58-6-9.46-17.16-9.46-17.16l9.46-45.2c0,0-18.64-29.64-13.61-34.57
		c5.03-4.93,11.17-26.49,11.17-26.49l-2.24-7.32l-0.37-6.59l-3.27-23.04l140.21-0.98c-0.721,0,4.06,28.25,4.06,28.25
		s-0.82,4-1.35,7.53c-0.521,3.53,4.449,22.91,4.47,23.48c0,0.59-4.47,3.6-4.47,3.6l1.35,48.05l-5.8,10.78l4.45,17.78l-4.45,4.02
		c0,0,4.24,23.86,10.63,31.45C386.639,459.685,376.649,487.175,376.649,487.175z"/>
	<path fill="#706150" d="M376.649,487.175l-20.95,11.01h-114.74l-10.78-14.141v-22.14c0,0,5.71-17.39,9.3-23.39
		c3.58-6-9.46-17.16-9.46-17.16l9.46-45.2c0,0-18.64-29.64-13.61-34.57c5.03-4.93,11.17-26.49,11.17-26.49l-2.24-7.32l-0.37-6.59
		l-3.27-23.04l140.21-0.98c-0.721,0,4.06,28.25,4.06,28.25s-0.82,4-1.35,7.53c-0.521,3.53,4.449,22.91,4.47,23.48
		c0,0.59-4.47,3.6-4.47,3.6l1.35,48.05l-5.8,10.78l4.45,17.78l-4.45,4.02c0,0,4.24,23.86,10.63,31.45
		C386.639,459.685,376.649,487.175,376.649,487.175z"/>
	<g>
		<polygon fill="#E2D3C3" points="265.358,305.007 234.012,305.007 236.018,297.428 235.076,277.739 265.358,276.755 		"/>
		<polygon fill="#E2D3C3" points="299.522,305.007 268.177,305.007 268.177,276.755 277.161,276.755 299.397,278.23 		"/>
		<polygon fill="#E2D3C3" points="334.439,305.007 303.094,305.007 304.208,277.739 334.439,276.755 334.439,286.208 		"/>
		<polygon fill="#E2D3C3" points="265.243,336.022 235.076,336.022 236.018,307.771 264.095,307.771 		"/>
		<polygon fill="#E2D3C3" points="334.439,336.022 302.979,336.022 302.979,307.771 312.321,307.771 334.439,307.771 		"/>
		<polygon fill="#E2D3C3" points="369.253,336.022 338.464,336.022 338.464,307.771 370.388,309.092 		"/>
		<polygon fill="#E2D3C3" points="265.231,367.871 236.018,367.871 235.076,339.621 265.231,339.621 		"/>
		<polygon fill="#E2D3C3" points="299.397,367.871 268.052,367.871 268.841,338.826 300.186,338.826 		"/>
		<polygon fill="#E2D3C3" points="334.313,367.871 302.97,367.871 302.97,339.621 332.703,340.306 		"/>
		<polygon fill="#E2D3C3" points="370.917,367.871 339.791,367.602 338.338,339.621 370.917,339.621 		"/>
		<polygon fill="#E2D3C3" points="265.116,398.889 235.076,399.532 235.076,371.175 265.116,370.636 		"/>
		<polygon fill="#E2D3C3" points="299.282,398.889 267.936,398.889 267.936,370.636 299.397,371.763 		"/>
		<rect x="302.855" y="370.636" fill="#E2D3C3" width="31.458" height="28.253"/>
		<polygon fill="#E2D3C3" points="370.801,398.889 338.338,398.889 338.338,370.636 369.773,370.636 		"/>
		<polygon fill="#E2D3C3" points="264.831,430.359 234.012,429.292 235.076,402.269 264.831,402.103 		"/>
		<polygon fill="#E2D3C3" points="297.994,430.359 267.651,430.359 269.194,402.269 298.996,402.103 		"/>
		<rect x="302.569" y="402.103" fill="#E2D3C3" width="31.346" height="28.254"/>
		<polygon fill="#E2D3C3" points="370.516,430.359 337.936,430.359 337.936,402.103 368.003,403.814 		"/>
		<polygon fill="#E2D3C3" points="264.715,461.375 235.076,459.917 235.076,433.121 264.715,433.121 		"/>
		<rect x="267.535" y="433.121" fill="#E2D3C3" width="31.346" height="28.254"/>
		<rect x="301.881" y="431.664" fill="#E2D3C3" width="31.46" height="28.254"/>
		<polygon fill="#E2D3C3" points="370.388,459.917 337.936,461.375 337.936,433.121 370.399,433.121 		"/>
		<polygon fill="#E2D3C3" points="264.773,491.421 233.428,491.421 236.086,463.171 264.773,463.171 		"/>
		<polygon fill="#E2D3C3" points="298.87,491.265 268.052,491.421 267.936,463.171 298.881,464.968 		"/>
		<polygon fill="#E2D3C3" points="333.788,493.22 302.443,493.22 302.443,464.968 333.788,463.171 		"/>
		<polygon fill="#E2D3C3" points="370.388,493.22 337.809,493.22 336.544,463.851 370.388,464.968 		"/>
		<polygon fill="#D7C8BA" points="235.262,287.602 265.358,276.755 265.358,305.007 234.012,305.007 		"/>
		<polygon fill="#D7C8BA" points="290.756,292.452 299.522,299.143 299.522,305.007 268.177,305.007 268.177,276.755 
			286.179,276.755 		"/>
		<polygon fill="#E2D3C3" points="337.906,276.755 369.253,276.755 367.244,284.334 369.253,305.007 337.906,305.007 		"/>
		<polygon fill="#D7C8BA" points="368.003,294.159 337.906,305.007 337.906,276.755 369.253,276.755 		"/>
		<polygon fill="#D7C8BA" points="317.309,294.615 306.677,304.66 334.555,304.66 334.555,289.742 		"/>
		<polygon fill="#D7C8BA" points="253.242,307.771 244.184,321.897 245.573,336.022 265.243,336.022 264.095,307.771 		"/>
		<polygon fill="#E2D3C3" points="267.994,307.771 299.34,307.771 298.225,335.036 267.994,336.022 267.994,326.568 		"/>
		<polygon fill="#D7C8BA" points="285.124,317.275 295.758,307.232 267.879,307.232 267.879,322.149 		"/>
		<polygon fill="#D7C8BA" points="306.677,321.252 316.456,330.409 319.41,336.022 334.439,336.022 334.439,311.6 326.536,307.771 
			307.594,307.771 		"/>
		<polygon fill="#D7C8BA" points="338.464,312.539 358.118,320.071 368.003,336.022 338.464,336.022 		"/>
		<polygon fill="#D7C8BA" points="320.558,339.621 313.207,357.734 302.979,359.209 302.97,367.871 334.313,367.871 
			332.703,340.306 		"/>
		<polygon fill="#D7C8BA" points="368.003,339.621 360.913,367.871 339.791,367.602 338.338,339.621 		"/>
		<polygon fill="#D7C8BA" points="246.005,339.621 265.358,359.54 265.231,339.621 		"/>
		<polygon fill="#D7C8BA" points="268.052,339.621 299.34,358.916 299.397,367.871 272.147,367.871 267.994,360.05 		"/>
		<polygon fill="#D7C8BA" points="273.625,370.636 279.09,393.032 275.725,398.889 300.79,398.889 299.397,371.763 		"/>
		<polygon fill="#D7C8BA" points="302.855,370.636 305.676,398.889 334.313,398.889 333.914,369.844 		"/>
		<polygon fill="#D7C8BA" points="360.027,370.636 347.62,385.648 345.995,399.532 338.338,398.889 338.338,370.636 		"/>
		<polygon fill="#D7C8BA" points="345.995,402.269 363.865,430.359 337.936,430.359 337.936,402.103 		"/>
		<polygon fill="#D7C8BA" points="273.625,402.269 267.651,416.232 267.651,430.359 298.996,430.359 298.996,402.103 		"/>
		<polygon fill="#D7C8BA" points="333.342,403.591 302.569,402.103 302.569,430.359 312.912,430.359 316.604,426.117 
			327.091,430.359 333.914,430.359 		"/>
		<polygon fill="#D7C8BA" points="312.321,433.121 307.004,461.375 302.454,461.375 304.059,434.166 		"/>
		<polygon fill="#D7C8BA" points="327.534,433.121 333.788,443.101 333.914,433.121 		"/>
		<polygon fill="#D7C8BA" points="337.809,444.009 344.37,461.375 363.865,461.375 370.516,443.101 365.048,433.121 
			337.936,433.121 		"/>
		<polygon fill="#D7C8BA" points="343.749,464.968 337.809,479.095 337.809,493.22 350.901,493.22 362.833,464.968 		"/>
		<polygon fill="#D7C8BA" points="333.788,480.324 302.84,488.089 302.443,493.22 333.788,493.22 		"/>
		<polygon fill="#D7C8BA" points="305.676,464.968 302.569,474.558 302.443,464.968 		"/>
		<polygon fill="#D7C8BA" points="264.589,419.912 240.541,430.359 264.831,430.359 		"/>
		<polygon fill="#D7C8BA" points="239.36,433.121 233.486,437.982 235.076,459.917 264.715,461.375 264.715,433.121 		"/>
		<polygon fill="#D7C8BA" points="267.535,433.121 267.535,461.375 277.161,461.375 289.723,459.037 293.16,461.375 
			298.881,461.375 298.881,433.121 		"/>
		<polygon fill="#D7C8BA" points="293.16,464.968 298.87,475.742 298.87,465.701 		"/>
		<polygon fill="#D7C8BA" points="273.625,464.968 267.535,480.324 267.527,464.968 		"/>
		<polyline fill="#D7C8BA" points="265.631,481.625 253.486,491.421 234.161,491.421 234.161,463.171 265.506,463.171 		"/>
	</g>
	<path fill="none" stroke="#282626" stroke-miterlimit="10" d="M306.677,204.341"/>
</g>
<path fill="#3A3A3F" d="M265.358,230.195l-5.885,3.917l-28.683,29.333l-2.651,39.334l-92.333,23.667c0,0,9.334-18.667,8.667-21
	s0-18.333,0-18.333"/>
<polygon fill="#4F4F5B" points="265.358,231.445 212.835,231.782 210.875,289.461 234.139,250.445 "/>
<path fill="#5C5C68" d="M144.473,287.111l34-23l38.333,19.667l-44.333,17C172.473,300.778,154.473,288.778,144.473,287.111z"/>
<polygon fill="#62626D" points="212.835,231.782 178.473,264.111 193.639,280.778 216.806,283.778 "/>
<polygon fill="#34343A" points="216.806,283.778 228.139,302.778 205.473,318.444 135.806,326.445 172.473,300.778 "/>
<rect x="283.408" y="536.195" fill="#BCA780" width="34.202" height="11.75"/>
<polygon fill="#4E512B" points="222.688,312.539 231.326,311.817 225.953,287.269 "/>
<polygon fill="#3C3F23" points="220.953,308.058 225.953,287.269 222.688,312.539 "/>
<polygon fill="#4E512B" points="224.115,317.786 231.082,318.842 231.456,298.418 "/>
<polygon fill="#3C3F23" points="223.587,313.916 231.456,298.418 224.115,317.786 "/>
<path fill="#3A3A3F" d="M212.836,293.445l19.472,25.218c0,0-1.516,13.282-8.167,20.447c-6.106,6.577,4,27.667,4,27.667l-33,11.667
	l-25-60"/>
<path fill="#5F5F6B" d="M207.86,326.445c0,0,0,0.01-0.01,0.02c-1.07,1.71-2.3,3.45-3.72,5.19c-0.03,0.02-0.05,0.05-0.07,0.07
	c-0.19,0.24-0.39,0.48-0.59,0.72c-16.66,19.66-0.33,58.66-0.33,58.66l-84.02,4.27c0,0,11.47-14.11,17.08-32.44
	c3.47-11.33,4.7-24.27-0.39-36.49c0,0,53.03-17.33,77.03-33C212.84,293.445,218.719,309.025,207.86,326.445z"/>
<path fill="#686872" d="M157.139,386.109l-39.667,9.667c0,0,2.667,22.555,14.333,38.333c11.666,15.777,0.333,37.668,0.333,37.668
	l39-3"/>
<polyline fill="#404047" points="160.473,389.776 157.139,386.109 139.139,470.109 203.139,448.777 "/>
<polyline fill="#686872" points="225.139,357.443 160.473,389.776 151.349,427.777 162.139,453.777 225.139,395.109 "/>
<polyline fill="#34343A" points="220.976,423.181 232.306,374.443 225.139,357.443 213.139,395.443 "/>
<path fill="#D3BE94" d="M374.755,503.966c0,14.721-31.279,35.879-71.21,35.879c-39.93,0-73.391-21.158-73.391-35.879H374.755
	L374.755,503.966z"/>
<path fill="#34343A" d="M232.306,443.101l-2.5,7.094l-6,9.246c0,0,6,28.462,5.167,34c-0.977,6.496-10.5-23-10.5-23l-5.64-38
	l18.004-3.809"/>
<path fill="#3A3A3F" d="M225.139,357.443c0,0-20.667,48.334-32.667,60c-12,11.666-43.333,32.333-41,46
	c2.333,13.668,70.852-41.334,70.852-41.334L225.139,357.443z"/>
<path fill="#434347" d="M128.806,471.775c0,0,0,10,2,12.334c2,2.332-7.367,32.666-11.686,37.332
	c-4.315,4.668,110.686-27.33,110.686-27.33l-11.333-23.67"/>
<path fill="#434347" d="M199.973,478.441c0,0,33.833,12.332,47.5,32c13.667,19.666,18,27.332,18,27.332l-65.5,42.668l-37.167-73.668
	"/>
<path fill="#686872" d="M199.973,478.441c0,0-1.833,7.332,10.833,14.332s11.666,20.666,2.333,31s2.667,31.668,2.667,31.668
	l-75,26.666c0,0-1.019-46.998-21.686-60.666C119.123,521.441,156.139,513.107,199.973,478.441z"/>
<path fill="#5F5F6B" d="M364.645,215.547c0,0,26.945,19.745,34.244,22.294c7.951,2.777,49.423,21.373,49.423,21.373
	s-23.334-6.333-24.667-2.333s-77.655-29.648-77.655-29.648"/>
<path fill="#4B4B54" d="M334.312,234.547l30.333-19c0,0,6.334,12.183,4.667,15.591c-1.667,3.408,5.666,11.045,19.333,10.561
	c13.667-0.484,37.667,11.181,38.667,16.848s-21.334,32.333-21.334,32.333L334.312,234.547z"/>
<path fill="#34343A" d="M376.473,267.445c0,0,2.104,8.038-2.584,15c-5.558,8.25,5,19.5,5,19.5l93.584-4.744l-40.667-49.089"/>
<path fill="#686872" d="M441.139,249.945c0,0-8.128-10.875-13.795-9.208s-50.871,26.708-50.871,26.708s37.666-1.001,46.333-4
	c8.667-2.999,52.583,37.333,52.583,37.333S452.139,261.945,441.139,249.945z"/>
<path fill="#686872" d="M401.453,281.265c0,0-7.667,12-5,25s20.001,19.667,35.334,20s26.334-1,35,13.667c0,0-4-18.333,3.333-25
	s14.666-14.333,2-18.667S416.786,293.931,401.453,281.265z"/>
<path fill="#34343A" d="M379.514,341.179l-4.04,57c0,0-2.961,0.667-3.294,1.667s2.534,10.479,2.534,10.479l12.133-20.146"/>
<path fill="#3A3A3F" d="M374.716,410.325c0,0,3.385,5.36,6.879,2.431s22.161,12.802,22.161,12.802l49.333-2.9l19.385-19.13
	l-78.626-47.018"/>
<polygon fill="#4E512B" points="377.378,311.054 386.015,310.332 380.642,285.783 "/>
<polygon fill="#3C3F23" points="375.642,306.572 380.642,285.783 377.378,311.054 "/>
<path fill="#414147" d="M401.453,281.265l-27.666,29.333c0,0-0.987,16.333,6.839,22.667c0,0,5.827,1.333,4.494,6.667
	s7.333,24.667,16.333,23s65.334-23,65.334-23l-8-16.333l-38.521-13C420.266,310.598,399.453,287.265,401.453,281.265"/>
<path fill="#686872" d="M478.519,404.675c-44,15.5-84.67-48.17-84.67-48.17s8.33,0.01,13.67,0c0.351,0,0.8-0.09,1.33-0.26
	c7.51-2.39,31.59-20.6,35.33-23.4c4-3,27.34,6,27.34,6s8.33,36.33,8,38.67c-0.229,1.6-1.56,3.05-2.38,3.8l-0.2,0.18l-0.31,0.26
	l-0.11,0.09c0,0,2.66,2,5.33,3.33S478.519,404.675,478.519,404.675z"/>
<polygon fill="#394F24" points="381.034,312.539 394.051,346.797 385.165,352.028 376.487,345.893 "/>
<polygon fill="#232D19" points="380.462,312.539 384.073,344.278 376.487,339.347 "/>
<polyline fill="#434349" points="375.358,586.818 348.139,643.779 339.806,634.441 290.806,618.779 308.806,545.779 "/>
<path fill="#BCA780" d="M319.874,520.062c0,0.779-0.18,1.549-0.52,2.279c-1.891,4.09-8.74,7.119-16.9,7.119
	c-7.561,0-13.99-2.6-16.399-6.229c-0.66-0.99-1.021-2.061-1.021-3.17c0-5.189,7.8-9.391,17.42-9.391
	C312.073,510.671,319.874,514.873,319.874,520.062z"/>
<polygon fill="#3B4220" points="375.614,329.077 384.817,352.694 376.374,355.522 370.85,351.011 "/>
<path fill="#706451" d="M319.349,522.345c-1.16,2.52-4.21,4.64-8.29,5.88c-2.54,0.79-5.479,1.239-8.61,1.239
	c-3.109,0-6.03-0.439-8.55-1.21c-3.62-1.1-6.43-2.88-7.84-5.02c1.11-2.26,3.88-4.17,7.6-5.37c2.7-0.89,5.89-1.4,9.31-1.4
	c2.77,0,5.4,0.33,7.729,0.931C314.679,518.415,317.8,520.185,319.349,522.345z"/>
<path fill="#34343A" d="M478.514,404.677c0,0-70.295-4.7-70.995-48.172c0,0-19.791-14.205-20.672-17.679l-8.143-0.001
	c0,0-0.605,53.667,2.889,58s5.493,4,7.827,6.667s12,6.832,12,6.832s25.284,5.835,27.643,7.501S474.847,408.509,478.514,404.677z"/>
<polygon fill="#29351C" points="375.614,329.077 376.374,355.522 370.85,351.011 "/>
<path fill="#34343A" d="M374.134,422.109c0,0-3.029,9.336-0.179,12.67c2.852,3.332,8.091,12.664,7.436,18.998
	s-8.916,41.668-4.916,45.002c4,3.332,64.333,30.662,64.333,30.662l38.333-5.33L423.62,420.247"/>
<path fill="#3A3A3F" d="M372.531,493.22l-82.308,59.334l19.641,29.334l13.667-6.004c0,0,53.999,15.336,58.333,16.004
	c4.334,0.666,53.879,60.189,83.106,64.596l-43.3-126.262"/>
<radialGradient id="SVGID_1_" cx="303.699" cy="521.9253" r="37.3419" gradientUnits="userSpaceOnUse">
	<stop  offset="0" style="stop-color:#FFFFFF"/>
	<stop  offset="0.9046" style="stop-color:#FF6A83;stop-opacity:0"/>
</radialGradient>
<ellipse fill="url(#SVGID_1_)" cx="303.699" cy="521.924" rx="41.667" ry="32.446"/>
<path fill="#3A3A3F" d="M423.139,451.695c0,0-37.475,42.668-44.475,47c-7,4.334,36.642,19.75,36.642,19.75l63.833,5.666"/>
<path fill="#686872" d="M376.473,424.445c0,0,12.999,8.666,17.666,8.666s3.667,5.334,3.667,5.334s7.539,5,8.77,4.666
	c1.231-0.332,8.23,3.248,8.23,3.248s8.667,3.418,7,7.418c-1.667,4.002,1.333,28.332,15.333,40.334c14,12,42,30,42,30
	s-52.821-96.602-0.625-119.434l-102.041,15.102C376.473,419.778,370.807,423.445,376.473,424.445z"/>
<path fill="#64646D" d="M372.531,493.22c0,0-0.259,0.279-0.698,0.799c-4.194,4.945-24.897,31.656,4.365,45.535
	c32.333,15.334,49,24.666,53.333,44.666s11.667,52.334,36.667,73.334c0,0-11-78.998,16.333-127.332
	C482.531,530.222,404.531,515.886,372.531,493.22z"/>
<path fill="#64646D" d="M273.806,511.107l42,59l8,51.666c0,0,13.333,11.668,16,12.668s-101,36.334-114.667,34.666l17.423-141.777"/>
<path fill="#3A3A3F" d="M273.806,511.107l-138.667,72c0,0,87.583,60,90,86c0,0,22.667-42.334,37-54.666
	c14.333-12.334,30.333-28.334,22.333-45c-8-16.668-30-15.668-25.333-30C263.806,525.107,271.14,515.107,273.806,511.107z"/>
<polyline fill="#5F5F6B" points="466.198,657.554 348.139,643.779 375.358,586.818 "/>
<g>
	<path opacity="0.2" fill="#020202" d="M341.26,230.195c0,0,38.582,8.87,38.24,23.019s-4.104,15.417-4.104,15.417l-3.124,4.865
		L341.26,230.195z"/>
	<path opacity="0.2" fill="#020202" d="M230.791,273.495l-0.984,4.825l-7.236-27.542c0,0,11.153-16.586,26.852-19.334
		L230.791,273.495z"/>
	<path fill="#D3BE94" d="M369.54,240.845c-11.07-9.48-36.65-16.12-66.44-16.12c-21.91,0-41.54,3.59-54.8,9.25
		c-10.91,4.67-17.51,10.74-17.51,17.39c0,0.35,0.02,0.68,0.06,1.01c0.2,1.77,0.96,3.25,2.22,4.48c0.73,0.72,1.62,1.36,2.67,1.92
		c0.41,0.22,0.84,0.43,1.29,0.62c11.74,5.11,38.64,3.15,68.43,3.15c24.83,0,45.819,1.36,58.149-1.14c3.03-0.62,5.54-1.46,7.45-2.63
		c0.93-0.56,1.72-1.2,2.36-1.92c1.09-1.24,1.75-2.71,1.93-4.48c0.03-0.33,0.05-0.66,0.05-1.01
		C375.399,247.625,373.309,244.065,369.54,240.845z M300.659,252.375c-5.75-0.35-10.359-3.55-10.979-7.61
		c3.1,1.53,7.22,2.47,11.76,2.47c4.8,0,9.141-1.05,12.29-2.74c-0.45,4.18-5.13,7.52-11.01,7.88H300.659z"/>
	<rect x="230.789" y="252.375" fill="#E2CD9F" width="144.61" height="21.12"/>
	<rect x="230.791" y="256.854" fill="#B33634" width="144.606" height="11.776"/>
	<rect x="230.791" y="258.774" fill="#9A2524" width="144.606" height="7.553"/>
	<path fill="#BCA780" d="M318.859,237.835c0,0.78-0.18,1.55-0.52,2.28c-0.78,1.69-2.4,3.2-4.61,4.38
		c-3.149,1.69-7.49,2.74-12.29,2.74c-4.54,0-8.66-0.94-11.76-2.47c-2.07-1.02-3.68-2.3-4.64-3.76c-0.66-0.99-1.02-2.06-1.02-3.17
		c0-5.19,7.8-9.39,17.42-9.39C311.059,228.445,318.859,232.645,318.859,237.835z"/>
	<path fill="#706451" d="M318.34,240.115c-0.78,1.69-2.4,3.2-4.61,4.38c-3.149,1.69-7.49,2.74-12.29,2.74
		c-4.54,0-8.66-0.94-11.76-2.47c-2.07-1.02-3.68-2.3-4.64-3.76c1.93-3.89,8.77-6.77,16.92-6.77
		C309.469,234.235,315.87,236.685,318.34,240.115z"/>
</g>
<path fill="#D3BE94" d="M313.729,244.495c-0.45,4.18-5.13,7.52-11.01,7.88h-2.061c-5.75-0.35-10.359-3.55-10.979-7.61
	c3.1,1.53,7.22,2.47,11.76,2.47C306.239,247.235,310.58,246.185,313.729,244.495z"/>
<linearGradient id="SVGID_2_" gradientUnits="userSpaceOnUse" x1="301.6892" y1="252.4048" x2="301.6892" y2="252.375">
	<stop  offset="0" style="stop-color:#FFFFFF"/>
	<stop  offset="1" style="stop-color:#FAF9D5;stop-opacity:0.8"/>
</linearGradient>
<path fill="url(#SVGID_2_)" d="M300.659,252.375h2.061c-0.34,0.02-0.68,0.03-1.03,0.03C301.34,252.405,301,252.395,300.659,252.375z
	"/>
<linearGradient id="SVGID_3_" gradientUnits="userSpaceOnUse" x1="301.6892" y1="247.2349" x2="301.6892" y2="235.2446">
	<stop  offset="0" style="stop-color:#FFFFFF"/>
	<stop  offset="1" style="stop-color:#FAF9D5;stop-opacity:0.8"/>
</linearGradient>
<path fill="url(#SVGID_3_)" d="M313.769,243.825c0,0.23-0.01,0.45-0.04,0.67c-3.149,1.69-7.49,2.74-12.29,2.74
	c-4.54,0-8.66-0.94-11.76-2.47c-0.05-0.31-0.07-0.62-0.07-0.94c0-4.74,5.41-8.58,12.08-8.58S313.769,239.085,313.769,243.825z"/>
<polyline fill="#515159" points="407.514,356.51 393.847,356.51 378.705,338.825 386.847,338.826 "/>
<radialGradient id="SVGID_4_" cx="321.5417" cy="165.9565" r="82.3328" gradientTransform="matrix(0.6486 0 0 0.3733 91.9552 178.7881)" gradientUnits="userSpaceOnUse">
	<stop  offset="0.0058" style="stop-color:#FFFFFF;stop-opacity:0.6"/>
	<stop  offset="0.8674" style="stop-color:#05D4FF;stop-opacity:0"/>
</radialGradient>
<path fill="url(#SVGID_4_)" d="M297.609,215.124c9.799,0,73.544,16.318,73.544,25.61s-61.473,25.172-72.413,25.605
	c-8.041,0.317-68.875-12.679-68.875-21.971C229.865,235.076,287.812,215.124,297.609,215.124z"/>
<polygon fill="#4F5728" points="226.531,446.333 223.973,460.441 227.568,461.615 230.353,458.515 "/>
<polygon fill="#394F24" points="224.952,377.346 236.33,404.88 228.563,409.085 220.977,404.154 "/>
<polygon fill="#232D19" points="224.952,377.346 228.563,409.085 220.977,404.154 "/>
<polygon fill="#3C3F23" points="226.531,446.333 227.568,461.615 230.353,458.515 "/>
<polygon fill="#415125" points="227.692,446.978 225.339,463.658 229.988,464.699 233.334,460.833 "/>
<polygon fill="#3B4220" points="220.105,393.884 229.307,417.5 220.864,420.329 215.341,415.817 "/>
<polygon fill="#29351C" points="220.105,393.884 220.864,420.329 215.341,415.817 "/>
<polygon fill="#2C3519" points="222.853,314.69 232.715,340.509 224.652,343.941 217.301,339.019 "/>
<polygon fill="#272D1A" points="222.853,314.69 224.652,343.941 217.301,339.019 "/>
<polygon fill="#343F1E" points="227.692,446.978 229.988,464.699 233.334,460.833 "/>
<path fill="#64646D" d="M212.835,418.108c0,0-22.026,24.667-40.026,32.667s-44,21-44,21l51.833,3c0,0,28.5-1.334,37.833-4.334
	c0,0,3-20.666,4-21.332c1-0.668,1.583-10.248,3.916-9.914s3.417-1.084,3.417-1.084s4.307-8.029-2.693-18.199
	C227.114,419.912,221.53,417.108,212.835,418.108z"/>
<path fill="#6F6F77" d="M479.519,377.515c-0.229,1.6-1.56,3.05-2.38,3.8l-0.2,0.18l-0.31,0.26l-0.11,0.09l-67.67-25.6
	c7.51-2.39,31.59-20.6,35.33-23.4c4-3,27.34,6,27.34,6S479.849,375.175,479.519,377.515z"/>
<path fill="#656570" d="M207.86,326.445c0,0,0,0.01-0.01,0.02c-0.07,0.18-0.91,2.13-3.72,5.19c-0.03,0.02-0.05,0.05-0.07,0.07
	c-6.64,7.15-24.09,20.29-67.86,31.21c3.47-11.33,4.7-24.27-0.39-36.49c0,0,53.03-17.33,77.03-33
	C212.84,293.445,218.719,309.025,207.86,326.445z"/>
<linearGradient id="SVGID_5_" gradientUnits="userSpaceOnUse" x1="302.3093" y1="529.4644" x2="302.3093" y2="514.3853">
	<stop  offset="0" style="stop-color:#FFFFFF"/>
	<stop  offset="1" style="stop-color:#FAF9D5;stop-opacity:0.8"/>
</linearGradient>
<path fill="url(#SVGID_5_)" d="M313.809,522.964c0,1.98-1.11,3.811-2.75,5.261c-2.54,0.79-5.479,1.239-8.61,1.239
	c-3.109,0-6.03-0.439-8.55-1.21c-1.83-1.46-3.09-3.3-3.09-5.29c0-1.909,1.16-3.68,2.85-5.1c2.51-2.11,6.2-3.479,9.05-3.479
	c2.63,0,5.729,1.17,7.989,3.01C312.54,518.885,313.809,520.834,313.809,522.964z"/>
<polygon fill="#4E512B" points="227.007,356.445 235.076,354.611 229.865,322.778 "/>
<polygon fill="#343F1E" points="223.453,346.945 229.974,323.445 227.007,356.445 "/>
<polygon fill="#464725" points="219.639,354.778 225.008,354.778 223.453,337.3 "/>
<polygon fill="#343F1E" points="216.806,350.611 219.639,354.778 223.453,337.3 "/>
<polygon fill="#4E512B" points="376.248,447.714 384.885,446.993 379.512,422.445 "/>
<polygon fill="#3C3F23" points="374.512,443.234 379.512,422.445 376.248,447.714 "/>
<polygon fill="#4E512B" points="377.675,452.961 384.641,454.017 385.015,433.594 "/>
<polygon fill="#3C3F23" points="377.146,449.091 385.015,433.594 377.675,452.961 "/>
<polygon fill="#2C3519" points="376.413,449.867 386.275,475.685 378.212,479.117 370.861,474.195 "/>
<polygon fill="#272D1A" points="376.413,449.867 378.212,479.117 370.861,474.195 "/>
<polygon fill="#4E512B" points="379.088,418.936 387.157,417.102 381.946,385.27 "/>
<polygon fill="#343F1E" points="375.534,409.436 382.054,385.936 379.088,418.936 "/>
<polygon fill="#464725" points="373.199,489.955 378.568,489.955 377.012,472.476 "/>
<polygon fill="#343F1E" points="370.366,485.787 373.199,489.955 377.012,472.476 "/>
</svg>
