<?xml version="1.0" encoding="utf-8"?>
<!-- Generator: Adobe Illustrator 16.0.0, SVG Export Plug-In . SVG Version: 6.00 Build 0)  -->
<!DOCTYPE svg PUBLIC "-//W3C//DTD SVG 1.1//EN" "http://www.w3.org/Graphics/SVG/1.1/DTD/svg11.dtd">
<svg version="1.1" id="Layer_1" xmlns="http://www.w3.org/2000/svg" xmlns:xlink="http://www.w3.org/1999/xlink" x="0px" y="0px"
	 width="90.666px" height="129px" viewBox="0 0 90.666 129" enable-background="new 0 0 90.666 129" xml:space="preserve">
<g>
	<polygon fill="#4A494A" points="79.658,66.299 64.857,99.726 64.102,100.415 46.301,116.53 37.928,116.837 35.143,113.181 
		24.564,99.315 15.473,87.397 47.238,7.953 53.793,14.769 60.707,13.151 68.098,24.761 74.789,54.972 76.469,59.386 	"/>
	<path fill="#565656" d="M47.238,7.953l-9.092,12.164c0,0-13.77,10.477-16.681,16.878c-2.909,6.401-7.684,21.118-7.684,21.118
		l-0.719,9.738l2.411,19.547l32.72-67.281L47.238,7.953z"/>
	<path fill="#4A494A" d="M69.578,67.934l1.334,13.642l-8.932,9.537l-7.842-1.699l-1.725-0.376
		c-11.633,3.107-20.938-4.91-20.938-4.91L18.29,82.063V69.894l3.769-23.511l5.499-6.726l2.002-4.669l19.457-5.167l-1.771,20.708
		l18.068,9.69"/>
	<path fill="#5B5B5B" d="M73.732,71.965l-6.6,17.354l-5.152,4.334L55.266,43.25l10.049,5.369
		C76.41,54.833,73.732,71.965,73.732,71.965z"/>
	<polygon fill="#353535" points="64.857,99.726 64.102,100.415 46.301,116.53 37.928,116.837 35.143,113.181 24.564,99.315 
		30.627,101.396 38.453,109.972 50.197,101.396 	"/>
	<path fill="#5B5B5B" d="M42.676,61.571l3.113,33.002l-6.225,6.107c0,0-5.975-4.463-10.671-5.219
		C24.192,94.7,21.24,77.57,21.24,77.57l2.515-19.44l6.875-14.88"/>
	<polyline fill="#636464" points="34.895,39.213 48.439,58.643 50.195,93.653 61.98,93.653 55.266,43.25 45.789,37.083 	"/>
</g>
</svg>
