<?xml version="1.0" encoding="utf-8"?>
<!-- Generator: Adobe Illustrator 16.0.0, SVG Export Plug-In . SVG Version: 6.00 Build 0)  -->
<!DOCTYPE svg PUBLIC "-//W3C//DTD SVG 1.1//EN" "http://www.w3.org/Graphics/SVG/1.1/DTD/svg11.dtd">
<svg version="1.1" id="Layer_1" xmlns="http://www.w3.org/2000/svg" xmlns:xlink="http://www.w3.org/1999/xlink" x="0px" y="0px"
	 width="470.666px" height="303.223px" viewBox="0 0 470.666 303.223" enable-background="new 0 0 470.666 303.223"
	 xml:space="preserve">
<g id="Layer_5">
	<g>
		<ellipse opacity="0.3" fill="#FFDF85" cx="281.583" cy="102.737" rx="6" ry="13.375"/>
		<ellipse opacity="0.3" fill="#FFD261" cx="281.146" cy="98.487" rx="5.562" ry="6.75"/>
		<ellipse opacity="0.3" fill="#F7CC94" cx="281.146" cy="96.488" rx="3.088" ry="3.747"/>
	</g>
	<g>
		<ellipse opacity="0.3" fill="#FFDF85" cx="293.583" cy="101.487" rx="6" ry="13.375"/>
		<ellipse opacity="0.3" fill="#FFD261" cx="293.146" cy="97.237" rx="5.562" ry="6.75"/>
		<ellipse opacity="0.3" fill="#F7CC94" cx="293.146" cy="95.238" rx="3.088" ry="3.747"/>
	</g>
	<g>
		<ellipse opacity="0.3" fill="#FFDF85" cx="306.083" cy="102.737" rx="6" ry="13.375"/>
		<ellipse opacity="0.3" fill="#FFD261" cx="305.646" cy="98.487" rx="5.562" ry="6.75"/>
		<ellipse opacity="0.3" fill="#F7CC94" cx="305.646" cy="96.488" rx="3.088" ry="3.747"/>
	</g>
	<g>
		<ellipse opacity="0.3" fill="#FFDF85" cx="268.583" cy="102.737" rx="6" ry="13.375"/>
		<ellipse opacity="0.3" fill="#FFD261" cx="268.146" cy="98.487" rx="5.562" ry="6.75"/>
		<ellipse opacity="0.3" fill="#F7CC94" cx="268.146" cy="96.488" rx="3.088" ry="3.747"/>
	</g>
	<path fill="#1E1D1E" d="M380.604,206.662l-38.789-53.959l-10.877-16.522l-17.369-4.537l1.104-10.394l2.512-23.621l3.445-1.424
		c0,0-26.834-13.771-31.537-17.617c0,0-30.364,15.188-37.192,15.796l3.538,1.847l4.703,36.227l-8.241-0.606l-192.567,0.261v101.5
		h221h148c0-6.521-2.435-10.46-33.5-15.5L380.604,206.662z M273.319,118.549h-9.18v-17.416c0,0,0-5.485,4.59-5.469
		c4.562,0.023,4.59,4.148,4.59,4.252V118.549z M286.27,118.549h-9.181v-17.416c0,0,0-5.485,4.591-5.469
		c4.568,0.021,4.59,4.174,4.59,4.252V118.549z M298.274,118.549h-9.18v-17.416c0,0,0-5.485,4.59-5.469
		c4.568,0.021,4.59,4.174,4.59,4.252V118.549z M310.278,118.549h-9.18v-17.416c0,0,0-5.485,4.59-5.469
		c4.568,0.023,4.59,4.174,4.59,4.252V118.549z"/>
	<path fill="#1E1D1E" d="M318.573,129.41"/>
	<polyline fill="#0C0C0C" points="314.852,122.873 269.995,122.873 271.995,132.119 284.661,134.953 287.995,146.496 
		310.661,151.855 341.995,187.152 375.048,198.633 331.271,136.34 313.902,131.804 314.852,122.873 	"/>
</g>
</svg>
