<?xml version="1.0" encoding="utf-8"?>
<!-- Generator: Adobe Illustrator 16.0.0, SVG Export Plug-In . SVG Version: 6.00 Build 0)  -->
<!DOCTYPE svg PUBLIC "-//W3C//DTD SVG 1.1//EN" "http://www.w3.org/Graphics/SVG/1.1/DTD/svg11.dtd">
<svg version="1.1" id="Layer_1" xmlns="http://www.w3.org/2000/svg" xmlns:xlink="http://www.w3.org/1999/xlink" x="0px" y="0px"
	 width="322px" height="314px" viewBox="0 0 322 314" enable-background="new 0 0 322 314" xml:space="preserve">
<g id="Layer_4">
	<g>
		<polygon fill="#171414" points="121.222,215.49 119.855,217.767 125.475,223.083 111.198,223.083 111.198,212.451 
			114.604,208.271 		"/>
		<polygon fill="#211E1D" points="114.604,208.271 128.208,210.021 125.475,223.083 119.855,217.767 121.222,215.49 		"/>
		<polygon fill="#211E1D" points="99.251,218.955 97.838,225.689 99.251,234.142 103.959,229.738 101.833,221.082 		"/>
		<polygon fill="#171414" points="99.251,218.955 93.936,226.548 99.251,234.142 100.011,229.13 97.981,226.548 		"/>
		<polygon fill="#574C45" points="110.187,227.308 108.819,229.585 110.187,230.65 111.857,228.371 		"/>
		<polygon fill="#383331" points="110.187,227.308 110.187,230.65 111.857,228.371 		"/>
		<path fill="#211D1B" d="M270.158,185.189c-1.613,4.047-18.424,19.233-18.424,19.233l-13.771-0.201l-14.58-20.453l-30.375-9.514
			l-23.086-0.813l-4.045,2.43v2.637c-2.433,2.83-9.319-0.846-9.319-0.846l-19.641,19.678l-4.054,0.607l-5.867,5.668l-27.745,6.274
			l-18.632-5.668c0,0-19.481-19.744-27.539-32.196c-8.294-12.818-10.528-49.238-10.528-49.408l179.008,5.467L270.158,185.189z"/>
		<path fill="#FBB040" d="M138.131,169.392"/>
		<polygon fill="#171414" points="136.916,197.339 139.75,167.367 132.866,167.367 132.865,198.554 		"/>
		<path fill="#171414" d="M156.557,177.662l2.634-39.859l9.112,1.416l-2.426,39.289
			C165.876,178.507,164.049,182.289,156.557,177.662z"/>
		<polygon fill="#211E1D" points="168.303,139.218 170.531,135.574 172.557,140.636 165.876,178.507 		"/>
		<polygon fill="#211E1D" points="223.383,183.769 234.115,164.33 235.33,186.199 237.963,204.222 		"/>
		<path fill="#171414" d="M193.008,174.255l-2.631-42.125l44.145,25.922l-0.404,6.277l-10.732,19.438
			C223.383,183.769,207.586,179.724,193.008,174.255z"/>
		<polygon fill="#211E1D" points="119.703,197.337 99.251,209.89 126.996,203.615 		"/>
		<polygon fill="#211E1D" points="209.516,194.095 184,222.447 174.279,208.271 		"/>
		<polygon fill="#171414" points="149.979,195.314 164.963,219.41 184,222.447 173.57,205.539 149.979,194.095 		"/>
		<polygon fill="#37313A" points="166.177,171.171 197.77,167.367 209.516,194.095 174.279,208.271 149.068,195.314 		"/>
		<polygon fill="#3D3640" points="166.339,171.25 171.988,189.886 209.516,194.636 197.813,167.367 		"/>
		<polygon fill="#302B28" points="58.548,167.367 80.619,204.222 98.239,190.857 		"/>
		<path fill="#37313A" d="M270.158,185.189l-18.832,18.426l-15.996-17.416l-1.215-21.871l-43.309-25.26l-0.433-0.257l-1.015-4.252
			l-16.805,6.074l-2.229-1.414l-2.135,1.812l-0.498,0.418l-8.583-2.453l-5.988,7.145v0.006l-13.371,15.959v5.263l-6.686,5.268
			l-0.206,4.66l-13.157,20.047l-21.471-6.481l-11.263-8.306l-14.061-10.371l-2.412-1.778l-7.284-12.455l-20.661-35.332
			l36.852-41.918l6.927-4.781l27.095-18.711l4.459-6.075v-2.43h2.224l4.775-7.254l0.006-0.007l0.688-1.043l10.127-9.313l14.58,0.808
			l15.595-2.43l3.34,9.319l4.959,4.86l3.189,3.188l0.012,0.006l3.688,3.688l1.185,1.223l1.646,1.814l33.012,34.428l-1.42,1.822
			c0.418,0.377,0.855,0.791,1.299,1.233l0.006,0.007c0.051,0.041,0.094,0.09,0.137,0.133c0.012,0.013,0.035,0.037,0.061,0.067
			c2.879,2.903,6.215,7.108,9.672,11.938c0.02,0.022,0.035,0.049,0.062,0.07c3.998,5.577,8.17,11.98,12.053,18.214
			c8.723,13.991,15.971,27.083,16.391,27.835c0.008,0.014,0.014,0.024,0.02,0.036c11.312,27.076,14.873,35.576,14.975,35.836
			C270.158,185.189,270.158,185.189,270.158,185.189z"/>
		<polygon fill="#332D33" points="216.906,87.989 194.479,100.637 177.771,110.06 165.925,89.557 151.655,83.463 151.345,83.33 
			134.141,67.206 129.626,62.979 118.187,49.072 118.096,48.957 117.883,48.702 118.005,48.568 118.035,48.538 124.852,41.174 
			125.575,40.396 135.702,31.083 165.597,59.588 168.355,62.218 172.201,62.88 172.76,62.979 182.328,64.952 200.098,79.533 		"/>
		<polygon fill="#403942" points="177.771,110.06 189.364,134.562 172.557,140.636 170.33,139.218 167.898,142.257 159.112,138.998 
			139.75,162.101 		"/>
		<polygon fill="#37323A" points="42.553,122.617 75.862,148.029 87.557,150.458 153.124,146.144 139.75,162.101 140.562,167.367 
			133.069,172.632 133.364,177.015 119.703,197.337 98.239,190.857 70.496,170.404 		"/>
		<polygon fill="#2D2930" points="87.557,150.458 119.703,197.337 98.239,190.857 58.548,167.367 42.553,122.617 		"/>
		<polygon fill="#302C33" points="87.557,150.458 151.345,83.33 165.925,89.557 177.771,110.06 153.124,146.144 		"/>
		<polygon fill="#403942" points="151.345,83.33 144.261,90.79 124.475,111.609 110.338,96.391 102.155,97.387 97.836,97.91 
			79.404,80.699 87.939,78.768 100.011,76.04 117.883,62.979 117.883,48.702 118.084,48.908 118.163,48.993 132.324,63.641 		"/>
		<polygon fill="#3D3640" points="100.011,76.04 110.338,96.391 97.838,97.91 79.406,80.695 		"/>
		<path fill="#3D3640" d="M270.158,185.189l-18.832,18.426l-7.355-49.195l-0.334-2.242l-14.592-15.297l-8.414-8.826l-0.141-0.145
			l-25.729-26.975l-0.285-0.298l4.438-2.509l17.988-10.141l-1.42,1.824l1.299,1.232l0.006,0.006l0.115,0.109
			c0,0,0.006,0.006,0.021,0.023c0.012,0.012,0.034,0.037,0.061,0.067c0.582,0.674,4.459,5.183,9.672,11.938
			c0.02,0.022,0.035,0.049,0.062,0.07c3.812,4.951,8.346,11.111,12.822,17.861c5.867,8.844,11.652,18.706,15.619,28.188
			c0.006,0.013,0.014,0.025,0.02,0.037c11.312,27.076,14.873,35.576,14.975,35.836C270.158,185.189,270.158,185.189,270.158,185.189
			z"/>
		<polygon fill="#2A262B" points="216.906,87.989 215.486,89.812 194.764,100.935 177.771,110.06 194.479,100.637 198.918,98.128 		
			"/>
		<path fill="#77AFAF" d="M149.979,74.038c-17.113-12.951-23.767-25.974-24.812-30.931c-0.03-0.146-0.057-0.287-0.079-0.414
			c0-0.012,0-0.019-0.006-0.024c-0.109-0.553-0.17-0.972-0.201-1.222c0-0.023-0.006-0.041-0.006-0.065
			c-0.021-0.134-0.024-0.207-0.024-0.207l-6.968,6.769c0.049,0.201,0.098,0.395,0.152,0.596c0.012,0.054,0.029,0.109,0.043,0.164
			c0.028,0.097,0.055,0.193,0.085,0.292c0.006,0.024,0.018,0.055,0.022,0.079c3.435,11.379,18.286,23.553,24.003,31.092l0.604,0.838
			c0.012,0.006,0.012,0.012,0.018,0.02c0.541,0.776,0.967,1.5,1.246,2.156c0.76,1.785,3.905,4.168,3.194,7.32
			c-1.598,7.035-0.5,16-23.765,23.905c-1.021,0.559-2.09,1.1-3.208,1.621c-3.861,1.821-8.272,3.457-13.278,4.816
			c-3.556,0.966-6.84,2.126-9.878,3.439c-10.853,4.688-18.529,11.27-23.804,17.369c-0.796,0.924-1.543,1.84-2.234,2.731
			c-5.564,7.197-7.723,13.158-7.861,13.547c-0.006,0.015-0.006,0.021-0.006,0.021l-0.322,11.983l-0.122,4.484l-0.261,9.969
			l-0.354,12.951L61.973,211c8.95,0,17.9,0,26.852,0l-0.101-4.311l-0.037-8.591v-0.76l-0.055-12.168c0,0-0.741-0.918-1.658-2.619
			c-2.248-4.153-5.528-13-1.543-24.604c0.844-2.453,1.792-4.543,2.897-6.367c0.25-0.424,0.517-0.832,0.782-1.229
			c6.381-9.295,17.569-11.448,40.973-22.223c1.92-0.881,3.682-1.771,5.297-2.68c1.622-0.904,3.099-1.816,4.447-2.732
			c17.424-11.932,25.781-22.507,24.729-31.717c-0.206-1.811-9.848-5.469-9.557-7.018"/>
		<path fill="#77AFAF" d="M168.3,95.25c-0.069,4.66-1.83,9.5-10.05,16.36c-6.88,5.75-14.16,9.87-19.14,12.35
			c-3.78,1.89-6.24,2.83-6.24,2.83l-27.66-5.43c0,0,39.52-15.55,39.54-26.86s-6.29-15.71-19.28-32.96l-7.59-13.6l6.97-6.77
			c0,0,4.52,16.83,11.46,22.83c5.11,4.42,12.15,9.14,17.9,12.76c2.06,1.3,3.96,2.45,5.54,3.4
			C165.75,83.75,168.361,91.55,168.3,95.25z"/>
		<path fill="#70A09F" d="M168.3,95.25c-0.069,4.66-1.83,9.5-10.05,16.36c-6.88,5.75-14.16,9.87-19.14,12.35
			c15.55-13.81,17.16-32.45,15.1-47.2c2.06,1.3,3.96,2.45,5.54,3.4C165.75,83.75,168.361,91.55,168.3,95.25z"/>
		<defs>
			<filter id="Adobe_OpacityMaskFilter" filterUnits="userSpaceOnUse" x="61.453" y="209.729" width="28.255" height="39.771">
				<feColorMatrix  type="matrix" values="1 0 0 0 0  0 1 0 0 0  0 0 1 0 0  0 0 0 1 0"/>
			</filter>
		</defs>
		<mask maskUnits="userSpaceOnUse" x="61.453" y="209.729" width="28.255" height="39.771" id="SVGID_4_">
			<g filter="url(#Adobe_OpacityMaskFilter)">
				
					<linearGradient id="SVGID_1_" gradientUnits="userSpaceOnUse" x1="92.3479" y1="152.2583" x2="92.3479" y2="194.4595" gradientTransform="matrix(1 0 0 1 -16.7197 48.999)">
					<stop  offset="0.3367" style="stop-color:#FFFFFF"/>
					<stop  offset="1" style="stop-color:#000000"/>
				</linearGradient>
				<rect x="58.548" y="201.257" fill="url(#SVGID_1_)" width="34.16" height="42.201"/>
			</g>
		</mask>
		<g mask="url(#SVGID_4_)">
			<path fill="#77AFAF" d="M61.453,248.229c9.113,0,19.14,0,28.255,0l-0.888-38.5c-8.948,0-17.898,0-26.85,0L61.453,248.229z"/>
			<path fill="#85BABA" d="M61.453,249.5c3.746,0,7.675,0,11.421,0c0.02-10.229,0.021-24.494,0.035-38.5c-3.572,0-7.146,0-10.718,0
				L61.453,249.5z"/>
		</g>
		<path fill="#85BABA" d="M116.246,116.54c-54.792,20.497-53.033,41.409-53.033,41.409L62.193,211c3.572,0,7.146,0,10.718,0
			c0.019-21.348,0.06-42.086,0.219-46.988C74.04,136.082,116.246,116.54,116.246,116.54z"/>
		<path fill="#70A09F" d="M142.254,83.982c-0.683-0.638-21.279-23.6-24.158-35.026c-0.006-0.019-0.012-0.03-0.012-0.049
			c-0.02-0.072-0.037-0.14-0.049-0.206c-0.014-0.049-0.024-0.092-0.03-0.135c-0.048-0.211-0.091-0.418-0.122-0.625l6.968-6.769
			c0,0,0.006,0.073,0.024,0.207c0.006,0.019,0.006,0.036,0.012,0.06c0.03,0.25,0.097,0.656,0.194,1.229
			c0.006,0.006,0.006,0.012,0.006,0.023c0.022,0.129,0.049,0.269,0.079,0.414c0.638,3.359,2.455,10.856,7.154,20.535
			c0.562,1.159,1.161,2.344,1.817,3.565c2.156,4.052-1.377-1.179,1.867,3.365L142.254,83.982z"/>
		<polygon fill="#211E1D" points="226.621,208.294 228.787,209.833 234.521,204.638 233.424,218.875 222.822,218.056 
			218.914,214.337 		"/>
		<polygon fill="#171414" points="218.914,214.337 221.709,200.908 234.521,204.638 228.787,209.833 226.621,208.294 		"/>
	</g>
</g>
</svg>
