<svg version="1.1" id="BJXes3deK0z" xmlns="http://www.w3.org/2000/svg" xmlns:xlink="http://www.w3.org/1999/xlink" x="0px" y="0px" viewBox="0 0 322 314" enable-background="new 106.14 304.445 322 314" xml:space="preserve"><style>@-webkit-keyframes B1JMs3dxY0z_Sy6MFxFAf_Animation{0%{-webkit-transform: rotate(0deg);transform: rotate(0deg);}33.33%{-webkit-transform: rotate(390deg);transform: rotate(390deg);}100%{-webkit-transform: rotate(390deg);transform: rotate(390deg);}}@keyframes B1JMs3dxY0z_Sy6MFxFAf_Animation{0%{-webkit-transform: rotate(0deg);transform: rotate(0deg);}33.33%{-webkit-transform: rotate(390deg);transform: rotate(390deg);}100%{-webkit-transform: rotate(390deg);transform: rotate(390deg);}}#BJXes3deK0z *{-webkit-animation-duration: 3s;animation-duration: 3s;-webkit-animation-timing-function: cubic-bezier(0, 0, 1, 1);animation-timing-function: cubic-bezier(0, 0, 1, 1);}#r18gohdeYRz{fill: #171414;}#B1PgohdeKRz{fill: #211E1D;}#HydgjnOeKRf{fill: #211E1D;}#r1Kgi2ugKCG{fill: #171414;}#H1qlsnueKCM{fill: #574C45;}#H1slohOxKCf{fill: #383331;}#S12eon_lt0f{fill: #211D1B;}#HJaxsnOlKRf{fill: #FBB040;}#ryAgsn_lKRM{fill: #171414;}#SykZshdltAG{fill: #171414;}#Byg-onOxtRG{fill: #211E1D;}#SJZWoh_xY0G{fill: #211E1D;}#SJzWih_lFAM{fill: #171414;}#SJQ-o2_gtCG{fill: #211E1D;}#rJ4Woh_gF0M{fill: #211E1D;}#BJSbinulF0G{fill: #171414;}#SkIWs3OgF0f{fill: #37313A;}#SJvWo2ulF0f{fill: #3D3640;}#B1uZjhueY0z{fill: #302B28;}#SJFbonuetCz{fill: #37313A;}#rJqbjnOxY0z{fill: #332D33;}#Sks-ihOlYCM{fill: #403942;}#rJnbo3_xF0z{fill: #37323A;}#rJ6bi3OxKRM{fill: #2D2930;}#HyRZoh_lY0z{fill: #302C33;}#B1JMs3dxY0z{fill: #403942;}#ByeMinOetCf{fill: #3D3640;}#ryWzjndgt0z{fill: #3D3640;}#ryMGs3ulYAM{fill: #2A262B;}#HkmMinuetAG{fill: #77AFAF;}#HyHMj2OeKAf{fill: #77AFAF;}#H1LGi3ugKAM{fill: #85BABA;}#Bywzo2Oxt0G{fill: #85BABA;}#HJdfi2dgK0M{fill: #85BABA;}#ryYzjnOxKRf{fill: #211E1D;}#SkqfjnueK0M{fill: #171414;}#B1JMs3dxY0z_Sy6MFxFAf{-webkit-animation-name: B1JMs3dxY0z_Sy6MFxFAf_Animation;animation-name: B1JMs3dxY0z_Sy6MFxFAf_Animation;-webkit-transform-origin: 50% 50%;transform-origin: 50% 50%;transform-box: fill-box;-webkit-transform: rotate(0deg);transform: rotate(0deg);}</style>
<g id="H1Egs2dgFRG">
	<g id="SkSeo2OxFAz">
		<polygon points="242.014,514.49 240.647,516.767 246.267,522.083 231.99,522.083 231.99,511.451 235.396,507.271 &#10;&#9;&#9;&#9;&#9;&#9;" id="r18gohdeYRz"/>
		<polygon points="235.396,507.271 249,509.021 246.267,522.083 240.647,516.767 242.014,514.49 &#9;&#9;" id="B1PgohdeKRz"/>
		<polygon points="220.043,517.955 218.63,524.689 220.043,533.142 224.751,528.738 222.625,520.082 &#9;&#9;" id="HydgjnOeKRf"/>
		<polygon points="220.043,517.955 214.728,525.548 220.043,533.142 220.803,528.13 218.773,525.548 &#9;&#9;" id="r1Kgi2ugKCG"/>
		<polygon points="230.979,526.308 229.611,528.585 230.979,529.65 232.649,527.371 &#9;&#9;" id="H1qlsnueKCM"/>
		<polygon points="230.979,526.308 230.979,529.65 232.649,527.371 &#9;&#9;" id="H1slohOxKCf"/>
		<path d="M390.951,484.189c-1.614,4.047-18.424,19.234-18.424,19.234l-13.772-0.201l-14.58-20.453l-30.375-9.514&#10;&#9;&#9;&#9;l-23.086-0.814l-4.045,2.43v2.637c-2.432,2.83-9.319-0.846-9.319-0.846l-19.641,19.678l-4.053,0.607l-5.868,5.668l-27.745,6.275&#10;&#9;&#9;&#9;l-18.632-5.668c0,0-19.481-19.744-27.539-32.197c-8.294-12.818-10.528-49.238-10.528-49.408l179.008,5.467L390.951,484.189z" id="S12eon_lt0f"/>
		<path d="M258.923,468.392" id="HJaxsnOlKRf"/>
		<polygon points="257.708,496.339 260.542,466.367 253.658,466.367 253.657,497.554 &#9;&#9;" id="ryAgsn_lKRM"/>
		<path d="M277.349,476.662l2.634-39.859l9.112,1.416l-2.426,39.289&#10;&#9;&#9;&#9;C286.668,477.507,284.841,481.289,277.349,476.662z" id="SykZshdltAG"/>
		<polygon points="289.095,438.218 291.323,434.574 293.349,439.636 286.668,477.507 &#9;&#9;" id="Byg-onOxtRG"/>
		<polygon points="344.175,482.769 354.908,463.33 356.123,485.199 358.755,503.222 &#9;&#9;" id="SJZWoh_xY0G"/>
		<path d="M313.8,473.255l-2.631-42.125l44.145,25.922l-0.404,6.277l-10.733,19.439&#10;&#9;&#9;&#9;C344.175,482.769,328.378,478.724,313.8,473.255z" id="SJzWih_lFAM"/>
		<polygon points="240.495,496.337 220.043,508.89 247.788,502.615 &#9;&#9;" id="SJQ-o2_gtCG"/>
		<polygon points="330.308,493.095 304.792,521.447 295.071,507.271 &#9;&#9;" id="rJ4Woh_gF0M"/>
		<polygon points="270.771,494.314 285.755,518.41 304.792,521.447 294.362,504.539 270.771,493.095 &#9;&#9;" id="BJSbinulF0G"/>
		<polygon points="286.969,470.171 318.562,466.367 330.308,493.095 295.071,507.271 269.86,494.314 &#9;&#9;" id="SkIWs3OgF0f"/>
		<polygon points="287.131,470.25 292.78,488.886 330.308,493.636 318.605,466.367 &#9;&#9;" id="SJvWo2ulF0f"/>
		<polygon points="179.34,466.367 201.411,503.222 219.031,489.857 &#9;&#9;" id="B1uZjhueY0z"/>
		<path d="M390.951,484.189l-18.832,18.426l-15.996-17.416l-1.215-21.871l-43.309-25.26l-0.432-0.256l-1.015-4.252&#10;&#9;&#9;&#9;l-16.805,6.074l-2.229-1.414l-2.134,1.811l-0.498,0.418l-8.583-2.453l-5.989,7.145v0.006l-13.371,15.959v5.262l-6.685,5.268&#10;&#9;&#9;&#9;l-0.206,4.66l-13.158,20.047l-21.47-6.482l-11.263-8.305L193.7,471.185l-2.412-1.779l-7.284-12.455l-20.661-35.332l36.852-41.918&#10;&#9;&#9;&#9;l6.926-4.781l27.095-18.711l4.459-6.075v-2.43h2.224l4.775-7.254l0.006-0.006l0.688-1.044l10.127-9.313l14.58,0.808l15.595-2.43&#10;&#9;&#9;&#9;l3.34,9.319l4.959,4.86l3.189,3.189l0.012,0.006l3.688,3.688l2.431-0.607l0.399,3.645l33.012,34.427l-1.42,1.823&#10;&#9;&#9;&#9;c0.418,0.376,0.855,0.79,1.299,1.233l0.006,0.006c0.05,0.042,0.093,0.091,0.136,0.134c0.012,0.012,0.035,0.037,0.061,0.067&#10;&#9;&#9;&#9;c2.879,2.903,6.215,7.108,9.672,11.938c0.019,0.023,0.035,0.049,0.062,0.071c3.998,5.577,8.17,11.98,12.053,18.214&#10;&#9;&#9;&#9;c8.723,13.991,15.971,27.083,16.391,27.834c0.007,0.014,0.013,0.025,0.019,0.037c11.312,27.076,14.873,35.576,14.975,35.836&#10;&#9;&#9;&#9;C390.951,484.189,390.951,484.189,390.951,484.189z" id="SJFbonuetCz"/>
		<polygon points="337.698,386.989 315.271,399.637 298.563,409.06 286.717,388.556 272.447,382.463 272.137,382.33 &#10;&#9;&#9;&#9;254.933,366.206 250.418,361.978 238.979,348.072 238.888,347.957 238.675,347.702 238.797,347.568 238.827,347.538 &#10;&#9;&#9;&#9;245.644,340.174 246.367,339.397 256.494,330.083 286.389,358.588 289.147,361.218 292.993,361.88 293.552,361.978 &#10;&#9;&#9;&#9;303.12,363.952 320.89,378.533 &#9;&#9;" id="rJqbjnOxY0z"/>
		<polygon points="298.563,409.06 310.156,433.562 293.349,439.636 291.122,438.218 288.69,441.257 279.904,437.998 &#10;&#9;&#9;&#9;260.542,461.101 &#9;&#9;" id="Sks-ihOlYCM"/>
		<polygon points="163.345,421.617 196.654,447.029 208.349,449.458 273.916,445.144 260.542,461.101 &#10;&#9;&#9;&#9;261.354,466.367 253.861,471.632 254.156,476.015 240.495,496.337 219.031,489.857 191.288,469.404 &#9;&#9;" id="rJnbo3_xF0z"/>
		<polygon points="208.349,449.458 240.495,496.337 219.031,489.857 179.34,466.367 163.345,421.617 &#9;&#9;" id="rJ6bi3OxKRM"/>
		<polygon points="208.349,449.458 272.137,382.33 286.717,388.556 298.563,409.06 273.916,445.144 &#9;&#9;" id="HyRZoh_lY0z"/>
		<g id="B1JMs3dxY0z_Sy6MFxFAf" data-animator-group="true" data-animator-type="1"><polygon points="272.137,382.33 265.053,389.79 245.267,410.609 231.13,395.391 222.947,396.387 218.628,396.91 &#10;&#9;&#9;&#9;200.196,379.699 208.731,377.767 220.803,375.04 238.675,361.978 238.675,347.702 238.876,347.908 238.955,347.993 &#10;&#9;&#9;&#9;253.116,362.64 &#9;&#9;" id="B1JMs3dxY0z"/></g>
		<polygon points="220.803,375.04 231.13,395.391 218.63,396.91 200.198,379.696 &#9;&#9;" id="ByeMinOetCf"/>
		<path d="M390.951,484.189l-18.832,18.426l-7.356-49.195l-0.334-2.242l-14.592-15.297l-8.414-8.826l-0.14-0.145&#10;&#9;&#9;&#9;l-25.729-26.974l-0.285-0.298l4.438-2.509l17.988-10.14l-1.42,1.823l1.299,1.233l0.006,0.006l0.115,0.109&#10;&#9;&#9;&#9;c0,0,0.006,0.006,0.021,0.024c0.012,0.012,0.035,0.037,0.061,0.067c0.582,0.674,4.459,5.182,9.672,11.938&#10;&#9;&#9;&#9;c0.019,0.023,0.035,0.049,0.062,0.071c3.813,4.951,8.346,11.111,12.823,17.861c5.867,8.844,11.652,18.706,15.619,28.188&#10;&#9;&#9;&#9;c0.006,0.012,0.013,0.025,0.019,0.037c11.312,27.076,14.873,35.576,14.975,35.836&#10;&#9;&#9;&#9;C390.951,484.189,390.951,484.189,390.951,484.189z" id="ryWzjndgt0z"/>
		<polygon points="337.698,386.989 336.278,388.812 315.556,399.935 298.563,409.06 315.271,399.637 319.71,397.128 &#10;&#9;&#9;&#9;&#9;&#9;" id="ryMGs3ulYAM"/>
		<path d="M301.448,348.157l-3.278-2.321l-0.012-0.006c-2.888,5.383-7.248,9.575-11.769,12.758&#10;&#9;&#9;&#9;c-8.942,6.312-18.505,8.706-18.505,8.706c-16.591-6.956-20.88-20.23-21.925-25.187c-0.03-0.146-0.056-0.286-0.079-0.414&#10;&#9;&#9;&#9;c0-0.012,0-0.018-0.006-0.024c-0.109-0.553-0.17-0.972-0.201-1.221c0-0.024-0.006-0.042-0.006-0.066&#10;&#9;&#9;&#9;c-0.02-0.134-0.024-0.207-0.024-0.207l-6.968,6.768c0.049,0.201,0.098,0.395,0.152,0.596c0.012,0.054,0.03,0.109,0.043,0.164&#10;&#9;&#9;&#9;c0.029,0.097,0.055,0.194,0.085,0.292c0.006,0.024,0.018,0.055,0.023,0.079c3.434,11.379,18.286,23.553,24.003,31.092l0.603,0.838&#10;&#9;&#9;&#9;c0.012,0.006,0.012,0.012,0.018,0.019c0.541,0.777,0.967,1.5,1.246,2.156c0.76,1.786,0.917,4.459,0.206,7.612&#10;&#9;&#9;&#9;c-1.598,7.035-7.526,16.451-20.776,23.614c-1.021,0.559-2.09,1.1-3.208,1.621c-3.862,1.822-8.273,3.457-13.279,4.817&#10;&#9;&#9;&#9;c-3.555,0.966-6.84,2.126-9.878,3.439c-10.852,4.688-18.529,11.27-23.803,17.369c-0.796,0.924-1.543,1.84-2.235,2.732&#10;&#9;&#9;&#9;c-5.564,7.197-7.722,13.158-7.861,13.547c-0.006,0.014-0.006,0.02-0.006,0.02l-0.322,11.984l-0.122,4.484l-0.261,9.969&#10;&#9;&#9;&#9;l-0.353,12.951L182.765,510c8.95,0,17.9,0,26.851,0l-0.1-4.311l-0.037-8.59v-0.76l-0.055-12.168c0,0-0.741-0.918-1.658-2.619&#10;&#9;&#9;&#9;c-2.248-4.154-5.528-13-1.543-24.604c0.844-2.453,1.792-4.543,2.897-6.367c0.25-0.424,0.517-0.832,0.783-1.229&#10;&#9;&#9;&#9;c6.38-9.295,17.569-11.449,40.972-22.223c1.92-0.881,3.682-1.771,5.297-2.68c1.622-0.904,3.099-1.816,4.447-2.732&#10;&#9;&#9;&#9;c17.424-11.932,12.722-25.017,11.67-34.227c-0.206-1.811-0.134-3.481,0.157-5.03c1.435-7.558,8.195-12.199,14.119-15.474&#10;&#9;&#9;&#9;c1.98-1.093,4.223-2.971,6.428-5.109c5.758-5.583,11.293-12.964,11.293-12.964L301.448,348.157z" id="HkmMinuetAG"/>
		<defs>
			<filter id="Adobe_OpacityMaskFilter" filterUnits="userSpaceOnUse" x="182.245" y="510" width="28.255" height="38.5">
				<feColorMatrix type="matrix" values="1 0 0 0 0  0 1 0 0 0  0 0 1 0 0  0 0 0 1 0"/>
			</filter>
		</defs>
		<mask maskUnits="userSpaceOnUse" x="182.245" y="510" width="28.255" height="38.5" id="SVGID_4_">
			<g filter="url(#Adobe_OpacityMaskFilter)">
				
					<linearGradient id="SVGID_1_" gradientUnits="userSpaceOnUse" x1="204.7805" y1="365.6865" x2="204.7805" y2="323.4854" gradientTransform="matrix(1 0 0 -1 -8.3599 865.9443)">
					<stop offset="0.3367" style="stop-color:#FFFFFF"/>
					<stop offset="1" style="stop-color:#000000"/>
				</linearGradient>
				<rect x="179.34" y="500.257" fill="url(#SVGID_1_)" width="34.16" height="42.201"/>
			</g>
		</mask>
		<g mask="url(#SVGID_4_)" id="HyVGjn_gt0f">
			<path d="M182.245,548.5c9.114,0,19.14,0,28.255,0l-0.887-38.5c-8.949,0-17.899,0-26.85,0L182.245,548.5z" id="HyHMj2OeKAf"/>
			<path d="M182.245,548.5c3.746,0,7.675,0,11.421,0c0.02-10.229,0.021-24.494,0.035-38.5c-3.572,0-7.145,0-10.717,0&#10;&#9;&#9;&#9;&#9;L182.245,548.5z" id="H1LGi3ugKAM"/>
		</g>
		<path d="M227.789,419.843c-40.248,8.959-43.784,37.106-43.784,37.106L182.985,510c3.572,0,7.145,0,10.717,0&#10;&#9;&#9;&#9;c0.019-21.348,0.06-42.086,0.219-46.988C194.832,435.082,227.789,419.843,227.789,419.843z" id="Bywzo2Oxt0G"/>
		<path d="M263.583,380.002c-0.682-0.638-21.816-20.619-24.695-32.046c-0.006-0.018-0.012-0.03-0.012-0.049&#10;&#9;&#9;&#9;c-0.019-0.072-0.037-0.14-0.049-0.206c-0.013-0.049-0.024-0.091-0.03-0.134c-0.048-0.212-0.091-0.419-0.122-0.626l6.968-6.768&#10;&#9;&#9;&#9;c0,0,0.006,0.073,0.024,0.207c0.006,0.018,0.006,0.036,0.012,0.06c0.03,0.25,0.097,0.656,0.194,1.228&#10;&#9;&#9;&#9;c0.006,0.006,0.006,0.012,0.006,0.024c0.023,0.128,0.049,0.268,0.079,0.414c0.638,3.359,2.455,10.856,7.155,20.534&#10;&#9;&#9;&#9;c0.561,1.16,1.161,2.345,1.817,3.566c2.156,4.052,4.805,8.414,8.049,12.958L263.583,380.002z" id="HJdfi2dgK0M"/>
		<polygon points="347.414,507.294 349.58,508.833 355.313,503.638 354.216,517.875 343.614,517.056 &#10;&#9;&#9;&#9;339.707,513.337 &#9;&#9;" id="ryYzjnOxKRf"/>
		<polygon points="339.707,513.337 342.501,499.908 355.313,503.638 349.58,508.833 347.414,507.294 &#9;&#9;" id="SkqfjnueK0M"/>
	</g>
</g>
<script>(function(){var a=document.querySelector('#BJXes3deK0z'),b=a.querySelectorAll('style'),c=function(d){b.forEach(function(f){var g=f.textContent;g&amp;&amp;(f.textContent=g.replace(/transform-box:[^;\r\n]*/gi,'transform-box: '+d))})};c('initial'),window.requestAnimationFrame(function(){return c('fill-box')})})();</script></svg>