<svg version="1.1" id="B1BOmZY0G" xmlns="http://www.w3.org/2000/svg" xmlns:xlink="http://www.w3.org/1999/xlink" x="0px" y="0px" viewBox="0 0 470 303" enable-background="new 0 0 470.666 303.223" xml:space="preserve"><style>@-webkit-keyframes B1MSumWFAM_HkEbVbYCf_Animation{0%{-webkit-transform: scale(1, 1);transform: scale(1, 1);}50%{-webkit-transform: scale(1.3, 1.3);transform: scale(1.3, 1.3);}100%{-webkit-transform: scale(1, 1);transform: scale(1, 1);}}@keyframes B1MSumWFAM_HkEbVbYCf_Animation{0%{-webkit-transform: scale(1, 1);transform: scale(1, 1);}50%{-webkit-transform: scale(1.3, 1.3);transform: scale(1.3, 1.3);}100%{-webkit-transform: scale(1, 1);transform: scale(1, 1);}}@-webkit-keyframes B1MSumWFAM_rkcFQbtRz_Animation{0%{-webkit-transform: rotate(0deg);transform: rotate(0deg);}33.33%{-webkit-transform: rotate(180deg);transform: rotate(180deg);}50%{-webkit-transform: rotate(270deg);transform: rotate(270deg);}66.67%{-webkit-transform: rotate(359deg);transform: rotate(359deg);}100%{-webkit-transform: rotate(359deg);transform: rotate(359deg);}}@keyframes B1MSumWFAM_rkcFQbtRz_Animation{0%{-webkit-transform: rotate(0deg);transform: rotate(0deg);}33.33%{-webkit-transform: rotate(180deg);transform: rotate(180deg);}50%{-webkit-transform: rotate(270deg);transform: rotate(270deg);}66.67%{-webkit-transform: rotate(359deg);transform: rotate(359deg);}100%{-webkit-transform: rotate(359deg);transform: rotate(359deg);}}#B1BOmZY0G *{-webkit-animation-duration: 3s;animation-duration: 3s;-webkit-animation-iteration-count: infinite;animation-iteration-count: infinite;-webkit-animation-timing-function: cubic-bezier(0, 0, 1, 1);animation-timing-function: cubic-bezier(0, 0, 1, 1);}#SkmBu7-t0f{fill: #AE5B4B;}#SyEru7-YCf{fill: #AB473A;}#r1LBd7ZtAM{fill: #191719;}#HJvB_XbtRM{fill: #191719;}#HJuHd7bK0f{fill: #DDB7AC;}#rJYHOXbK0z{fill: #CEABA3;}#Sy5Bd7-YCM{fill: #E1C3BC;}#SksrumWtRG{fill: #D6B9B4;}#BknrOmbF0G{fill: #B6958D;}#SJaHdm-KRf{fill: #AB473A;}#SkCBdQbtAM{fill: #933932;}#SyeeSumbF0M{fill: #615250;}#r1ZeHdQWtAz{fill: #4C4241;}#HymlHdXbYAG{fill: #615250;}#SkEeHuQZY0M{fill: #4C4241;}#Hk8gBuQ-FAM{fill: #615250;}#HJDxrd7WtRf{fill: #4C4241;}#SyKeru7WFRz{fill: #615250;}#rycgBd7ZtCz{fill: #4C4241;}#HkixHOQ-tRz{fill: #AB473A;}#ry2lBdXZtCG{fill: #8A3831;}#HJperdXbK0M{fill: #E1C3BC;}#HyRerO7bKCG{fill: #967B77;}#S1kWBuXbK0M{fill: #776462;}#HkxZBOmZYAz{fill: #967B77;}#Hy-ZrOQbtRM{fill: #776462;}#HkMZH_7-FCM{fill: #FFCF43;}#r1m-r_Xbt0M{fill: #FCB644;}#HJ4bS_QWYAG{fill: #FFCF43;}#ryr-S_7WKRM{fill: #FCB644;}#B1MSumWFAM_rkcFQbtRz{-webkit-animation-name: B1MSumWFAM_rkcFQbtRz_Animation;animation-name: B1MSumWFAM_rkcFQbtRz_Animation;-webkit-transform-origin: 50% 50%;transform-origin: 50% 50%;transform-box: fill-box;-webkit-transform: rotate(0deg);transform: rotate(0deg);}#B1MSumWFAM_HkEbVbYCf{-webkit-animation-name: B1MSumWFAM_HkEbVbYCf_Animation;animation-name: B1MSumWFAM_HkEbVbYCf_Animation;-webkit-transform-origin: 50% 50%;transform-origin: 50% 50%;transform-box: fill-box;-webkit-transform: scale(1, 1);transform: scale(1, 1);}</style>
<g id="r1eBum-FCG">
	<g id="rJ-S_QWKRG">
		<g id="B1MSumWFAM_rkcFQbtRz" data-animator-group="true" data-animator-type="1"><g id="B1MSumWFAM_HkEbVbYCf" data-animator-group="true" data-animator-type="2"><g id="B1MSumWFAM">
			<path d="M257.198,59.837c-7.426-7.335-17.661-11.856-28.918-11.856c-8.731,0-16.843,2.728-23.513,7.401&#10;&#9;&#9;&#9;&#9;c4.896-8.886,14.358-14.891,25.218-14.891C242.571,40.492,253.3,48.58,257.198,59.837z" id="SkmBu7-t0f"/>
			<path d="M258.793,69.3c0,15.91-12.896,28.808-28.808,28.808S201.177,85.211,201.177,69.3&#10;&#9;&#9;&#9;&#9;c0-5.053,1.308-9.794,3.59-13.917c6.671-4.676,14.78-7.401,23.514-7.401c11.257,0,21.492,4.521,28.918,11.856&#10;&#9;&#9;&#9;&#9;C258.239,62.805,258.793,65.974,258.793,69.3z" id="SyEru7-YCf"/>
		</g></g></g>
		<g id="BJSr_XbK0M">
			<rect x="207.353" y="190.582" width="48.604" height="18.916" id="r1LBd7ZtAM"/>
			<polygon points="275.736,201.471 182.237,197.951 186.214,188.774 270.858,188.774 &#9;&#9;&#9;" id="HJvB_XbtRM"/>
			<polygon points="278.308,99.058 271.439,163.102 216.26,135.047 200.259,85.186 265.832,85.186 &#9;&#9;&#9;" id="HJuHd7bK0f"/>
			<polygon points="271.439,163.102 268.491,190.448 190.577,190.448 180.848,99.058 192.681,85.186 200.259,85.186 &#10;&#9;&#9;&#9;&#9;216.26,135.047 &#9;&#9;&#9;" id="rJYHOXbK0z"/>
			<rect x="185.901" y="176.776" width="87.619" height="15.89" id="Sy5Bd7-YCM"/>
			<polygon points="273.521,176.776 273.521,192.662 185.901,192.662 206.509,186.199 255.417,183.246 &#10;&#9;&#9;&#9;&#9;265.112,176.776 &#9;&#9;&#9;" id="SksrumWtRG"/>
			<rect x="210.729" y="137.816" width="39.52" height="62.603" id="BknrOmbF0G"/>
			<polygon points="270.885,77.254 188.448,77.254 190.777,69.299 268.023,69.299 &#9;&#9;&#9;" id="SJaHdm-KRf"/>
			<polygon points="273.741,85.186 186.121,85.186 188.448,77.254 270.885,77.254 &#9;&#9;&#9;" id="SkCBdQbtAM"/>
			<g id="HJkgr_QbtCf">
				<path d="M208.935,93.33l-0.951,16.909c-2.748,1.239-4.787,2.191-6.314,2.88V94.792l4.83-2.947L208.935,93.33z" id="SyeeSumbF0M"/>
				<path d="M211.35,94.793v20.321h-9.683v-1.994c1.527-0.688,3.566-1.641,6.314-2.88l0.951-16.909L211.35,94.793z" id="r1ZeHdQWtAz"/>
			</g>
			<g id="B1GerOQWY0M">
				<path d="M234.026,92.588l-0.952,16.908c-2.749,1.241-4.787,2.192-6.317,2.881V94.051l4.832-2.947L234.026,92.588&#10;&#9;&#9;&#9;&#9;&#9;z" id="HymlHdXbYAG"/>
				<path d="M236.441,94.051v20.321h-9.687v-1.994c1.53-0.688,3.568-1.639,6.317-2.88l0.952-16.909L236.441,94.051z" id="SkEeHuQZY0M"/>
			</g>
			<g id="r1BxSuX-Y0G">
				<path d="M257.845,92.334l-0.952,16.908c-2.748,1.239-4.787,2.191-6.315,2.881V93.795l4.832-2.946L257.845,92.334&#10;&#9;&#9;&#9;&#9;&#9;z" id="Hk8gBuQ-FAM"/>
				<path d="M260.26,93.796v20.322h-9.685v-1.994c1.528-0.688,3.567-1.643,6.315-2.881l0.951-16.908L260.26,93.796z" id="HJDxrd7WtRf"/>
			</g>
			<g id="Bydgr_mWY0M">
				<path d="M239.73,141.955l-3.279,45.086c-9.457,3.312-16.472,5.854-21.731,7.684v-48.871l16.622-7.858&#10;&#9;&#9;&#9;&#9;&#9;L239.73,141.955z" id="SyKeru7WFRz"/>
				<path d="M248.039,145.854v54.189h-33.322v-5.318c5.263-1.832,12.275-4.375,21.732-7.684l3.279-45.086&#10;&#9;&#9;&#9;&#9;&#9;L248.039,145.854z" id="rycgBd7ZtCz"/>
			</g>
			<polygon points="255.417,130.24 255.417,135.047 205.557,135.047 205.557,130.24 229.71,121.751 &#9;&#9;&#9;" id="HkixHOQ-tRz"/>
			<rect x="205.557" y="135.047" width="49.859" height="5.54" id="ry2lBdXZtCG"/>
			<rect x="210.024" y="195.426" width="40.929" height="7.42" id="HJperdXbK0M"/>
			<polygon points="202.322,158.869 200.259,167.358 197.468,170.127 195.955,157.762 &#9;&#9;&#9;" id="HyRerO7bKCG"/>
			<polygon points="204.448,158.869 202.61,178.99 197.933,178.99 197.89,177.994 197.468,170.127 200.259,167.358 &#10;&#9;&#9;&#9;&#9;202.322,158.869 &#9;&#9;&#9;" id="S1kWBuXbK0M"/>
			<polygon points="262.746,158.869 260.687,167.358 257.895,170.127 256.243,158.869 &#9;&#9;&#9;" id="HkxZBOmZYAz"/>
			<polygon points="264.874,158.869 263.034,178.99 258.36,178.99 258.314,177.994 257.895,170.127 260.687,167.358 &#10;&#9;&#9;&#9;&#9;262.746,158.869 &#9;&#9;&#9;" id="Hy-ZrOQbtRM"/>
			<path d="M201.752,157.979c0,0,9.535-4.385,0.418-13.317c0,0,0.891,1.865,0.188,3.313&#10;&#9;&#9;&#9;&#9;c-0.704,1.449-3.365,0.84-3.507,4.814c0,0-0.562-2.009,0-4.956c0,0-5.188,6.452,0.746,10.049" id="HkMZH_7-FCM"/>
			<path d="M201.001,157.815c0,0,2.808-2.405,2.761-3.948c0,0-1.938,1.659-2.326,1.52&#10;&#9;&#9;&#9;&#9;c-0.387-0.139,2.654-1.338,1.297-5.468c0,0-0.512,1.077-3.038,3.787c-1.911,2.053,1.168,2.664,0.42,4.112h0.889L201.001,157.815&#10;&#9;&#9;&#9;&#9;L201.001,157.815z" id="r1m-r_Xbt0M"/>
			<path d="M261.701,157.979c0,0,9.533-4.385,0.418-13.317c0,0,0.887,1.865,0.187,3.313&#10;&#9;&#9;&#9;&#9;c-0.698,1.449-3.365,0.84-3.507,4.814c0,0-0.562-2.009,0-4.956c0,0-5.188,6.452,0.751,10.049" id="HJ4bS_QWYAG"/>
			<path d="M260.952,157.815c0,0,2.805-2.405,2.758-3.948c0,0-1.938,1.659-2.329,1.52&#10;&#9;&#9;&#9;&#9;c-0.385-0.139,2.655-1.338,1.298-5.468c0,0-0.51,1.077-3.037,3.787c-1.91,2.053,1.169,2.664,0.42,4.112h0.893L260.952,157.815&#10;&#9;&#9;&#9;&#9;L260.952,157.815z" id="ryr-S_7WKRM"/>
		</g>
	</g>
</g>
<script>(function(){var a=document.querySelector('#B1BOmZY0G'),b=a.querySelectorAll('style'),c=function(d){b.forEach(function(f){var g=f.textContent;g&amp;&amp;(f.textContent=g.replace(/transform-box:[^;\r\n]*/gi,'transform-box: '+d))})};c('initial'),window.requestAnimationFrame(function(){return c('fill-box')})})();</script></svg>