<?xml version="1.0" encoding="utf-8"?>
<!-- Generator: Adobe Illustrator 16.0.0, SVG Export Plug-In . SVG Version: 6.00 Build 0)  -->
<!DOCTYPE svg PUBLIC "-//W3C//DTD SVG 1.1//EN" "http://www.w3.org/Graphics/SVG/1.1/DTD/svg11.dtd">
<svg version="1.1" id="Layer_1" xmlns="http://www.w3.org/2000/svg" xmlns:xlink="http://www.w3.org/1999/xlink" x="0px" y="0px"
	 width="470.666px" height="303.223px" viewBox="0 0 470.666 303.223" enable-background="new 0 0 470.666 303.223"
	 xml:space="preserve">
<g id="edificios">
	<g>
		<rect x="207.353" y="190.582" fill="#191719" width="48.604" height="18.916"/>
		<polygon fill="#191719" points="275.736,201.471 182.237,197.951 186.214,188.774 270.858,188.774 		"/>
		<path fill="#AE5B4B" d="M265.885,59.836c-9.956-7.335-23.568,3.897-38.661,3.897c-11.706,0-22.691-13.026-31.634-8.352
			c6.564-8.886,19.25-14.891,33.81-14.891C246.275,40.491,260.659,48.579,265.885,59.836z"/>
		<path fill="#AB473A" d="M268.023,69.299c0,15.91-17.289,28.808-38.623,28.808c-21.333,0-38.624-12.896-38.624-28.808
			c0-5.053,1.753-9.794,4.813-13.917c8.944-4.676,21.034,5.897,32.742,5.897c15.092,0,27.597-8.777,37.553-1.442
			C267.281,62.805,268.023,65.974,268.023,69.299z"/>
		<polygon fill="#DDB7AC" points="278.308,99.058 271.439,163.102 216.26,135.047 200.259,85.186 265.832,85.186 		"/>
		<polygon fill="#CEABA3" points="271.439,163.102 268.491,190.448 190.577,190.448 180.848,99.058 192.681,85.186 200.259,85.186 
			216.26,135.047 		"/>
		<rect x="185.901" y="176.776" fill="#E1C3BC" width="87.619" height="15.89"/>
		<polygon fill="#D6B9B4" points="273.521,176.776 273.521,192.662 185.901,192.662 206.509,186.199 255.417,183.246 
			265.112,176.776 		"/>
		<rect x="210.729" y="137.816" fill="#B6958D" width="39.52" height="62.603"/>
		<polygon fill="#AB473A" points="270.885,77.254 188.448,77.254 191.501,63.733 267.302,63.733 		"/>
		<polygon fill="#933932" points="278.308,99.058 180.848,99.058 188.448,77.254 270.885,77.254 		"/>
		<g>
			<path fill="#615250" d="M239.73,141.955l-3.279,45.086c-9.457,3.312-16.472,5.854-21.731,7.684v-48.871l16.622-7.858
				L239.73,141.955z"/>
			<path fill="#4C4241" d="M248.039,145.854v54.189h-33.322v-5.318c5.263-1.832,12.275-4.375,21.732-7.684l3.279-45.086
				L248.039,145.854z"/>
		</g>
		<polygon fill="#AB473A" points="255.417,130.24 255.417,135.047 205.557,135.047 205.557,130.24 229.71,121.751 		"/>
		<rect x="205.557" y="135.047" fill="#8A3831" width="49.859" height="5.54"/>
		<rect x="210.024" y="195.426" fill="#E1C3BC" width="40.929" height="7.42"/>
		<polygon fill="#967B77" points="202.322,158.869 200.259,167.358 197.468,170.127 195.955,157.762 		"/>
		<polygon fill="#776462" points="204.448,158.869 202.61,178.99 197.933,178.99 197.89,177.994 197.468,170.127 200.259,167.358 
			202.322,158.869 		"/>
		<polygon fill="#967B77" points="262.746,158.869 260.687,167.358 257.895,170.127 256.243,158.869 		"/>
		<polygon fill="#776462" points="264.874,158.869 263.034,178.99 258.36,178.99 258.314,177.994 257.895,170.127 260.687,167.358 
			262.746,158.869 		"/>
		<path fill="#FFCF43" d="M201.752,157.979c0,0,9.535-4.385,0.418-13.317c0,0,0.891,1.865,0.188,3.313
			c-0.704,1.449-3.365,0.84-3.507,4.814c0,0-0.562-2.009,0-4.956c0,0-5.188,6.452,0.746,10.049"/>
		<path fill="#FCB644" d="M201.001,157.815c0,0,2.808-2.405,2.761-3.948c0,0-1.938,1.659-2.326,1.52
			c-0.387-0.139,2.654-1.338,1.297-5.468c0,0-0.512,1.077-3.038,3.787c-1.911,2.053,1.168,2.664,0.42,4.112h0.889L201.001,157.815
			L201.001,157.815z"/>
		<path fill="#FFCF43" d="M261.701,157.979c0,0,9.533-4.385,0.418-13.317c0,0,0.887,1.865,0.187,3.313
			c-0.698,1.449-3.365,0.84-3.507,4.814c0,0-0.562-2.009,0-4.956c0,0-5.188,6.452,0.751,10.049"/>
		<path fill="#FCB644" d="M260.952,157.815c0,0,2.805-2.405,2.758-3.948c0,0-1.938,1.659-2.329,1.52
			c-0.385-0.139,2.655-1.338,1.298-5.468c0,0-0.51,1.077-3.037,3.787c-1.91,2.053,1.169,2.664,0.42,4.112h0.893L260.952,157.815
			L260.952,157.815z"/>
		<g>
			
				<ellipse transform="matrix(1 6.856644e-04 -6.856644e-04 1 0.1015 -0.1378)" opacity="0.2" fill="#FFDF85" cx="200.958" cy="148.004" rx="14.599" ry="17.356"/>
			<ellipse opacity="0.3" fill="#FFD261" cx="200.958" cy="152.865" rx="8.84" ry="10.408"/>
			<ellipse opacity="0.3" fill="#F7CC94" cx="200.958" cy="152.865" rx="4.007" ry="4.861"/>
		</g>
		<g>
			
				<ellipse transform="matrix(1 6.689409e-04 -6.689409e-04 1 0.0985 -0.1748)" opacity="0.2" fill="#FFDF85" cx="261.385" cy="147.143" rx="14.599" ry="17.355"/>
			<ellipse opacity="0.3" fill="#FFD261" cx="261.384" cy="152.004" rx="8.84" ry="10.408"/>
			<ellipse opacity="0.3" fill="#F7CC94" cx="261.385" cy="152.004" rx="4.007" ry="4.861"/>
		</g>
		<polygon fill="#DDB7AC" points="238.86,100.058 224.336,100.058 224.336,92.104 231.598,88.156 238.86,92.104 		"/>
		<g>
			<path fill="#615250" d="M234.026,92.588l-0.952,16.908c-2.749,1.241-4.787,2.192-6.317,2.881V94.051l4.832-2.947L234.026,92.588z
				"/>
			<path fill="#4C4241" d="M236.441,94.051v20.321h-9.687v-1.994c1.53-0.688,3.568-1.639,6.317-2.88l0.952-16.909L236.441,94.051z"
				/>
		</g>
		<polygon fill="#DDB7AC" points="213.773,92.102 213.773,100.062 199.243,100.062 199.243,92.102 204.733,89.121 206.513,88.152 		
			"/>
		<polygon fill="#DDB7AC" points="262.68,100.058 248.155,100.058 248.155,92.104 255.418,88.156 262.68,92.104 		"/>
		<g>
			<path fill="#615250" d="M257.845,92.334l-0.952,16.908c-2.748,1.239-4.787,2.191-6.315,2.881V93.795l4.832-2.946L257.845,92.334z
				"/>
			<path fill="#4C4241" d="M260.26,93.796v20.322h-9.685v-1.994c1.528-0.688,3.567-1.643,6.315-2.881l0.951-16.908L260.26,93.796z"
				/>
		</g>
		<polygon fill="#CEABA3" points="204.733,89.121 204.733,100.062 199.243,100.062 199.243,92.102 		"/>
		<g>
			<path fill="#615250" d="M208.935,93.33l-0.951,16.909c-2.748,1.239-4.787,2.191-6.314,2.88V94.792l4.83-2.947L208.935,93.33z"/>
			<path fill="#4C4241" d="M211.35,94.793v20.321h-9.683v-1.994c1.527-0.688,3.566-1.641,6.314-2.88l0.951-16.909L211.35,94.793z"/>
		</g>
	</g>
</g>
</svg>
